<svg xmlns="http://www.w3.org/2000/svg" xmlns:xlink="http://www.w3.org/1999/xlink" xmlns:lucid="lucid" width="632" height="176.31"><g transform="translate(-136 -10.31111111111111)" lucid:page-tab-id="g.4Ub4WcJtM~"><path d="M156 113.38h104v53.24H156z" stroke="#000" stroke-width="2" fill="#fff"/><use xlink:href="#a" transform="matrix(1,0,0,1,161,118.382) translate(32.48444444444444 28.586666666666666)"/><path d="M400 113h104v53.24H400z" stroke="#000" stroke-width="2" fill="#fff"/><use xlink:href="#b" transform="matrix(1,0,0,1,405,118) translate(42.5 28.668999999999997)"/><path d="M644 112.76h104V166H644z" stroke="#000" stroke-width="2" fill="#fff"/><use xlink:href="#c" transform="matrix(1,0,0,1,649,117.76400000000001) translate(42.248 28.668999999999997)"/><path d="M261 139.62h139" stroke="#000" stroke-width="2" fill="none"/><path d="M261 140.62h-1v-2h1zM400 139.62l-14.27 4.63v-9.27z"/><path d="M400 138.57v2.1l-15.27 4.96V133.6zm-13.27 4.3l10.03-3.25-10.03-3.26z"/><use xlink:href="#d" transform="matrix(1,0,0,1,286.0288888888889,114.26688888888889) translate(0.005000000000002558 17.262222222222224)"/><path d="M504 139.62h139" stroke="#000" stroke-width="2" fill="none"/><path/><path d="M643 139.62l-14.27 4.63v-9.27z"/><path d="M644 138.9v1.44l-16.27 5.3V133.6zm-14.27 3.98l10.03-3.26-10.03-3.26z"/><use xlink:href="#e" transform="matrix(1,0,0,1,528.473,113.99999999999999) translate(0.005000000000002558 17.477999999999998)"/><path d="M280 30.3h360v63.4H280z" stroke="#000" stroke-opacity="0" stroke-width="2" fill="#fff" fill-opacity="0"/><use xlink:href="#f" transform="matrix(1,0,0,1,285,35.31111111111111) translate(1.1688888888888869 33.58666666666667)"/><use xlink:href="#g" transform="matrix(1,0,0,1,285,35.31111111111111) translate(32.10222222222222 33.58666666666667)"/><use xlink:href="#h" transform="matrix(1,0,0,1,285,35.31111111111111) translate(149.84444444444446 33.58666666666667)"/><use xlink:href="#i" transform="matrix(1,0,0,1,285,35.31111111111111) translate(170.6977777777778 33.58666666666667)"/><use xlink:href="#j" transform="matrix(1,0,0,1,285,35.31111111111111) translate(207.99555555555557 33.58666666666667)"/><use xlink:href="#k" transform="matrix(1,0,0,1,285,35.31111111111111) translate(279.97777777777776 33.58666666666667)"/><use xlink:href="#l" transform="matrix(1,0,0,1,285,35.31111111111111) translate(300.1377777777778 33.58666666666667)"/><use xlink:href="#m" transform="matrix(1,0,0,1,285,35.31111111111111) translate(313.68444444444447 33.58666666666667)"/><defs><path d="M44-8C91 47 175 2 172-64c21-80-74-98-118-50C24-94 17-40 44-8" id="n"/><path d="M298-594c46 0 84 49 129 25 28-15 38-46 15-63-45-33-159-74-226-28-64 44-74 143-81 243-36 14-93 21-73 82 8 23 43 8 67 10L109-47c-26 79 112 78 96-4l20-292c61-15 137-16 182-47 20-30 4-82-46-63l-129 17c1-72-2-158 66-158" id="o"/><path d="M355-451c110 0 162 80 153 193C498-125 413-39 312 7c-36 15-72 23-111 23C93 29 36-35 44-144c9-131 86-228 184-278 37-19 80-29 127-29zM207-56c121 0 193-88 206-202 6-56-14-100-70-100-129 0-190 98-204 214-6 51 17 88 68 88" id="p"/><g id="a"><use transform="matrix(0.017777777777777778,0,0,0.017777777777777778,0,0)" xlink:href="#n"/><use transform="matrix(0.017777777777777778,0,0,0.017777777777777778,3.537777777777778,0)" xlink:href="#o"/><use transform="matrix(0.017777777777777778,0,0,0.017777777777777778,10.435555555555556,0)" xlink:href="#p"/><use transform="matrix(0.017777777777777778,0,0,0.017777777777777778,19.733333333333334,0)" xlink:href="#p"/></g><path d="M207-595c2-41-4-67-47-67-50 0-56 43-59 90L65-61c0 47-2 92 42 92 154 0 250-104 323-199 42-54 89-132 66-218-10-38-55-51-107-51-85 2-150 26-204 68zm161 245c19-1 42 1 38 22-18 96-91 166-158 220-28 22-56 37-85 46l13-188c38-57 102-94 192-100" id="q"/><use transform="matrix(0.018,0,0,0.018,0,0)" xlink:href="#q" id="b"/><path d="M414 18c44 0 51-25 54-67l20-294c15-129-122-120-228-97-56 12-101 41-148 64-16 8-27 55-6 61 51 14 87-22 132-33 39-9 72-27 121-28 19 0 38 3 37 23l-4 55C217-288 63-254 27-107 26-36 64 31 131 31c99 0 173-43 244-71-7 36-4 58 39 58zm-23-168c-50 42-119 78-192 101-76 24-118-61-60-101 61-42 156-67 248-79" id="r"/><use transform="matrix(0.018,0,0,0.018,0,0)" xlink:href="#r" id="c"/><path d="M388-422c20 0 30 1 42 13 8-77 2-166 23-231 12-35 104-26 87 24-19 183-20 382-41 563 7 55-16 77-72 68-22-3-19-26-24-50-23-2-30 15-55 25-49 19-106 33-188 32C85 5 25-63 46-159c34-151 150-260 342-263zM212-58c128-24 227-88 213-245 5-46-58-33-96-28-94 13-148 71-186 149-27 55 3 136 69 124" id="s"/><path d="M219-412c99-54 263-26 248 106-6 57-62 81-112 104-62 28-146 48-218 66-5 48 10 94 65 90 94-7 136-72 207-98 34-13 67 0 57 43C435-41 354-7 282 18c-34 11-68 16-102 16C83 33 33-24 43-131c12-131 81-229 176-281zm101 138c24-14 78-40 42-74-39-37-110 1-139 24-31 25-59 61-72 105 67 5 123-28 169-55" id="t"/><path d="M376-215c43 0 31 49 10 75-39 47-104 89-187 89-48 0-70-41-115-55-47-14-78 39-47 75 50 58 171 80 264 44 95-36 189-96 200-210 7-67-35-108-100-108-91 0-157 59-233 59-38 0-19-38-4-54 46-49 136-72 234-65 42 3 82-10 73-53-25-53-127-37-191-22-109 25-216 75-229 191-7 61 35 94 99 94 85 0 146-60 226-60" id="u"/><path d="M187 30C86 30 37-38 44-140c9-132 83-229 176-282 85-48 240-30 261 49 11 42-48 56-82 35-28-29-107-33-145-6-64 46-121 125-114 234 5 80 124 50 168 20 34-24 59-51 76-86 11-23 89-29 88 6C437-52 341 30 187 30" id="v"/><path d="M387-452c45 0 79 27 79 73 0 109-16 218-23 327 13 58-52 84-87 52-7-7-8-24-7-49l20-277c5-41-49-23-78-16-38 9-78 28-106 53L160-48c13 58-94 91-94 20 0-134 25-233 25-362 0-45 36-68 83-64 18 6 9 33 16 56 60-17 127-54 197-54" id="w"/><path d="M294-7c-52 29-182 61-175-39l22-313c-29 11-104 9-94-22-2-51 54-54 100-61 1-69 2-169 83-132 25 20 10 79 10 117 49-6 105-16 153-21 33-3 36 52 17 67-34 27-121 29-176 39L215-96c-3 27 40 15 48 4 21-29 77-60 113-24 8 8 12 20 11 35-23 31-56 53-93 74" id="x"/><g id="d"><use transform="matrix(0.017777777777777778,0,0,0.017777777777777778,0,0)" xlink:href="#s"/><use transform="matrix(0.017777777777777778,0,0,0.017777777777777778,9.92,0)" xlink:href="#t"/><use transform="matrix(0.017777777777777778,0,0,0.017777777777777778,18.257777777777775,0)" xlink:href="#u"/><use transform="matrix(0.017777777777777778,0,0,0.017777777777777778,27.50222222222222,0)" xlink:href="#v"/><use transform="matrix(0.017777777777777778,0,0,0.017777777777777778,35.69777777777777,0)" xlink:href="#t"/><use transform="matrix(0.017777777777777778,0,0,0.017777777777777778,44.03555555555555,0)" xlink:href="#w"/><use transform="matrix(0.017777777777777778,0,0,0.017777777777777778,52.959999999999994,0)" xlink:href="#s"/><use transform="matrix(0.017777777777777778,0,0,0.017777777777777778,62.87999999999999,0)" xlink:href="#r"/><use transform="matrix(0.017777777777777778,0,0,0.017777777777777778,72.26666666666667,0)" xlink:href="#w"/><use transform="matrix(0.017777777777777778,0,0,0.017777777777777778,81.19111111111111,0)" xlink:href="#x"/></g><g id="e"><use transform="matrix(0.018,0,0,0.018,0,0)" xlink:href="#s"/><use transform="matrix(0.018,0,0,0.018,10.043999999999999,0)" xlink:href="#t"/><use transform="matrix(0.018,0,0,0.018,18.485999999999997,0)" xlink:href="#u"/><use transform="matrix(0.018,0,0,0.018,27.845999999999997,0)" xlink:href="#v"/><use transform="matrix(0.018,0,0,0.018,36.144,0)" xlink:href="#t"/><use transform="matrix(0.018,0,0,0.018,44.586,0)" xlink:href="#w"/><use transform="matrix(0.018,0,0,0.018,53.62199999999999,0)" xlink:href="#s"/><use transform="matrix(0.018,0,0,0.018,63.666,0)" xlink:href="#r"/><use transform="matrix(0.018,0,0,0.018,73.17,0)" xlink:href="#w"/><use transform="matrix(0.018,0,0,0.018,82.206,0)" xlink:href="#x"/></g><path d="M216-52c-5 36-4 69 38 67 48-3 51-21 55-66l44-503c67-15 148-20 201-48 21-11 22-54 2-66-33-20-92 2-124 8-114 21-232 39-344 74-26 8-41 55-12 68 50 23 129-13 181-19" id="y"/><path d="M315-328c46-26 68 3 62 60L355-49c-9 52 42 87 77 55 9-8 16-26 18-53l20-275c5-79-5-118-74-118-90 0-156 50-216 91 5-90 16-180 17-273 12-48-45-53-69-32-24 22-24 70-26 114L67-46C55 6 109 37 144 2c12-11 16-27 18-48l13-182c43-35 90-73 140-100" id="z"/><g id="f"><use transform="matrix(0.017777777777777778,0,0,0.017777777777777778,0,0)" xlink:href="#y"/><use transform="matrix(0.017777777777777778,0,0,0.017777777777777778,8.87111111111111,0)" xlink:href="#z"/><use transform="matrix(0.017777777777777778,0,0,0.017777777777777778,17.937777777777775,0)" xlink:href="#t"/></g><path d="M124 12C75 22 65-15 68-58l23-329c-6-47 11-61 61-61 32 0 27 14 38 41 60-28 141-67 220-43 14 18 32 52 5 72-44 33-165 17-207 62-5 4-12 9-20 13L160-58c-7 43-5 63-36 70" id="A"/><path d="M393-459c146-8 146 177 91 275C422-74 333 27 158 16l-15 208c-2 44-18 57-57 65-41 8-39-29-37-69C64 13 75-196 92-403c3-38 51-65 89-41 11 7 15 20 14 40 57-37 116-50 198-55zm-49 317c41-44 97-127 68-203-60-38-166 6-210 35-11 7-16 15-17 21L171-90c-1 20 13 24 33 24 58 0 107-40 140-76" id="B"/><path d="M123-498c77 32 120-75 87-136-18-21-76-16-94 7-23 17-37 86-10 113 5 6 10 13 17 16zm35 466c14-117 12-250 30-368 9-59-74-59-92-24-11 21-9 48-11 80-6 111-17 224-17 334 0 32 72 34 82 4 3-8 6-16 8-26" id="C"/><g id="g"><use transform="matrix(0.017777777777777778,0,0,0.017777777777777778,0,0)" xlink:href="#A"/><use transform="matrix(0.017777777777777778,0,0,0.017777777777777778,6.72,0)" xlink:href="#t"/><use transform="matrix(0.017777777777777778,0,0,0.017777777777777778,15.057777777777776,0)" xlink:href="#B"/><use transform="matrix(0.017777777777777778,0,0,0.017777777777777778,24.46222222222222,0)" xlink:href="#A"/><use transform="matrix(0.017777777777777778,0,0,0.017777777777777778,31.18222222222222,0)" xlink:href="#t"/><use transform="matrix(0.017777777777777778,0,0,0.017777777777777778,39.52,0)" xlink:href="#u"/><use transform="matrix(0.017777777777777778,0,0,0.017777777777777778,48.764444444444436,0)" xlink:href="#t"/><use transform="matrix(0.017777777777777778,0,0,0.017777777777777778,57.1022222222222,0)" xlink:href="#w"/><use transform="matrix(0.017777777777777778,0,0,0.017777777777777778,66.02666666666666,0)" xlink:href="#x"/><use transform="matrix(0.017777777777777778,0,0,0.017777777777777778,73.77777777777777,0)" xlink:href="#r"/><use transform="matrix(0.017777777777777778,0,0,0.017777777777777778,83.16444444444444,0)" xlink:href="#x"/><use transform="matrix(0.017777777777777778,0,0,0.017777777777777778,90.91555555555556,0)" xlink:href="#C"/><use transform="matrix(0.017777777777777778,0,0,0.017777777777777778,94.86222222222223,0)" xlink:href="#p"/><use transform="matrix(0.017777777777777778,0,0,0.017777777777777778,104.16000000000001,0)" xlink:href="#w"/></g><g id="h"><use transform="matrix(0.017777777777777778,0,0,0.017777777777777778,0,0)" xlink:href="#p"/><use transform="matrix(0.017777777777777778,0,0,0.017777777777777778,9.297777777777778,0)" xlink:href="#o"/></g><path d="M533-514c-38-22-57-82-134-72-162 21-222 174-244 335-16 120 41 225 163 184 46-15 92-45 114-83 19-32 87-65 114-26 6 9 2 23-9 40C477-51 386 30 249 30 103 30 45-95 57-251c14-174 99-314 216-389 90-58 230-35 296 26 38 35 13 106-36 100" id="D"/><path d="M480-433c87 3 153 44 143 142C607-123 486-34 346 11 211 55 46 26 46-120c0-40 65-72 88-32 25 42 40 94 112 88 119-10 209-60 257-143 23-39 41-132-32-128-105 6-179 59-280 59-78 0-132-37-122-121 15-131 114-208 221-254 92-40 227-25 274 37 24 31 8 80-30 82-66 3-63-54-134-52-103 3-170 55-212 118-24 36-30 92 21 92 91 0 162-63 271-59" id="E"/><g id="i"><use transform="matrix(0.017777777777777778,0,0,0.017777777777777778,0,0)" xlink:href="#D"/><use transform="matrix(0.017777777777777778,0,0,0.017777777777777778,10.204444444444444,0)" xlink:href="#E"/><use transform="matrix(0.017777777777777778,0,0,0.017777777777777778,21.422222222222228,0)" xlink:href="#E"/></g><path d="M163-57c18-185 16-376 41-559 8-62-68-66-86-22-6 15-9 35-11 55L68-52c-2 37 13 69 47 67 41-2 44-34 48-72" id="F"/><path d="M116-259c66 0 94-81 68-138-17-37-85-19-100 7-37 34-32 131 32 131zM93 18c66 0 96-81 69-138-17-37-86-19-100 8C27-79 29 18 93 18" id="G"/><g id="j"><use transform="matrix(0.017777777777777778,0,0,0.017777777777777778,0,0)" xlink:href="#E"/><use transform="matrix(0.017777777777777778,0,0,0.017777777777777778,11.217777777777778,0)" xlink:href="#t"/><use transform="matrix(0.017777777777777778,0,0,0.017777777777777778,19.555555555555557,0)" xlink:href="#F"/><use transform="matrix(0.017777777777777778,0,0,0.017777777777777778,23.502222222222223,0)" xlink:href="#t"/><use transform="matrix(0.017777777777777778,0,0,0.017777777777777778,31.84,0)" xlink:href="#v"/><use transform="matrix(0.017777777777777778,0,0,0.017777777777777778,40.035555555555554,0)" xlink:href="#x"/><use transform="matrix(0.017777777777777778,0,0,0.017777777777777778,47.78666666666666,0)" xlink:href="#p"/><use transform="matrix(0.017777777777777778,0,0,0.017777777777777778,57.08444444444444,0)" xlink:href="#A"/><use transform="matrix(0.017777777777777778,0,0,0.017777777777777778,63.80444444444444,0)" xlink:href="#G"/></g><path d="M102-695c-82 6-35 138-52 215-12 54 46 98 74 49 27-47 16-126 26-188-2-39-6-79-48-76zm175 0c-44 0-48 38-48 81 1 58-9 125 1 178 6 32 58 33 71 4 21-46 9-122 16-185 4-40 6-78-40-78" id="H"/><g id="k"><use transform="matrix(0.017777777777777778,0,0,0.017777777777777778,0,0)" xlink:href="#H"/><use transform="matrix(0.017777777777777778,0,0,0.017777777777777778,6.115555555555556,0)" xlink:href="#r"/></g><use transform="matrix(0.017777777777777778,0,0,0.017777777777777778,0,0)" xlink:href="#q" id="l"/><g id="m"><use transform="matrix(0.017777777777777778,0,0,0.017777777777777778,0,0)" xlink:href="#n"/><use transform="matrix(0.017777777777777778,0,0,0.017777777777777778,3.537777777777778,0)" xlink:href="#o"/><use transform="matrix(0.017777777777777778,0,0,0.017777777777777778,10.435555555555556,0)" xlink:href="#p"/><use transform="matrix(0.017777777777777778,0,0,0.017777777777777778,19.733333333333334,0)" xlink:href="#p"/><use transform="matrix(0.017777777777777778,0,0,0.017777777777777778,29.031111111111112,0)" xlink:href="#H"/></g></defs></g></svg>