<svg xmlns="http://www.w3.org/2000/svg" xmlns:xlink="http://www.w3.org/1999/xlink" xmlns:lucid="lucid" width="400" height="140"><g transform="translate(-40 3220)" lucid:page-tab-id="FB0U6LH9nC-X"><path d="M240-3120c0 11.05-8.95 20-20 20s-20-8.95-20-20 8.95-20 20-20 20 8.95 20 20z" stroke="#000" stroke-width="2" fill="#fff"/><path d="M60-3200h360v60H60z" stroke="#000" stroke-opacity="0" stroke-width="2" fill="#fff" fill-opacity="0"/><use xlink:href="#a" transform="matrix(1,0,0,1,65,-3195) translate(57.78222222222222 31.586666666666666)"/><use xlink:href="#b" transform="matrix(1,0,0,1,65,-3195) translate(98.33333333333333 31.586666666666666)"/><use xlink:href="#c" transform="matrix(1,0,0,1,65,-3195) translate(113.42666666666666 31.586666666666666)"/><use xlink:href="#d" transform="matrix(1,0,0,1,65,-3195) translate(193.8177777777778 31.586666666666666)"/><use xlink:href="#e" transform="matrix(1,0,0,1,65,-3195) translate(246.92000000000002 31.586666666666666)"/><defs><path d="M283-28c185-83 354-230 321-494-20-153-236-181-388-118-35 15-82 21-96 56-8 19-11 37-8 56-12 168-40 332-40 504 0 55 58 40 112 29 31-7 64-18 99-33zm100-557c91 2 139 59 130 151-19 202-172 299-346 347l39-449c43-22 109-51 177-49" id="f"/><path d="M398 0c154-83 260-239 236-476-12-117-73-199-205-199-167 0-245 128-315 238-60 95-82 285-13 390C154 33 299 53 398 0zm23-587c154-2 141 231 93 343-41 96-112 182-240 187-143 6-145-193-96-305 32-74 83-147 145-191 31-23 64-34 98-34" id="g"/><path d="M716-30c18-187 35-372 49-559 3-42-13-63-50-66-37 12-59 52-79 83-85 135-163 244-238 379-15 5-13-12-21-30-52-127-105-257-155-379-14-34-48-75-82-42-8 9-13 22-15 41L69-54c0 45 11 66 45 69 35 3 47-37 50-72l31-358c46 105 93 220 139 323 16 35 87 36 107-3 59-118 143-227 218-335L623-50c-28 73 86 89 93 20" id="h"/><g id="a"><use transform="matrix(0.017777777777777778,0,0,0.017777777777777778,0,0)" xlink:href="#f"/><use transform="matrix(0.017777777777777778,0,0,0.017777777777777778,10.773333333333333,0)" xlink:href="#g"/><use transform="matrix(0.017777777777777778,0,0,0.017777777777777778,22.09777777777778,0)" xlink:href="#h"/></g><path d="M466-364c56 30 106-29 76-85-12-22-48-21-66-8H174c-53-32-104 31-75 85 11 21 50 22 66 8h301zm-15 198c53 26 107-33 77-85-11-18-51-22-67-8H156c-53-29-106 36-74 87 15 24 40 21 70 6h299" id="i"/><use transform="matrix(0.017777777777777778,0,0,0.017777777777777778,0,0)" xlink:href="#i" id="b"/><path d="M355-451c110 0 162 80 153 193C498-125 413-39 312 7c-36 15-72 23-111 23C93 29 36-35 44-144c9-131 86-228 184-278 37-19 80-29 127-29zM207-56c121 0 193-88 206-202 6-56-14-100-70-100-129 0-190 98-204 214-6 51 17 88 68 88" id="j"/><path d="M187 30C86 30 37-38 44-140c9-132 83-229 176-282 85-48 240-30 261 49 11 42-48 56-82 35-28-29-107-33-145-6-64 46-121 125-114 234 5 80 124 50 168 20 34-24 59-51 76-86 11-23 89-29 88 6C437-52 341 30 187 30" id="k"/><path d="M254-72c-30 8-82 15-89-17l23-289c33-89-91-94-97-3L70-84C51 77 266 15 354-26c-4 32 14 41 41 42 42 1 72-22 56-65l24-338c12-51 9-78-33-75-43 3-60 30-63 75l-18 260c-30 21-67 44-107 55" id="l"/><path d="M592-345c22-5 29-9 28 12L601-49c2 36 9 55 39 61 29 5 50-17 54-69l23-323c2-63-55-101-114-68-51 28-89 43-150 73-2-25 0-74-14-79-78-28-136 34-195 62-23 10-43 22-63 31 5-36 11-77-33-75-38 1-54 17-57 55L68-58C58-11 86 20 131 8c22-6 26-35 29-63l25-202c46-33 103-70 162-89 9 0 7 5 6 13L333-58c0 52 3 66 47 72 36 5 44-37 47-72l18-205c35-40 90-67 147-82" id="m"/><path d="M219-412c99-54 263-26 248 106-6 57-62 81-112 104-62 28-146 48-218 66-5 48 10 94 65 90 94-7 136-72 207-98 34-13 67 0 57 43C435-41 354-7 282 18c-34 11-68 16-102 16C83 33 33-24 43-131c12-131 81-229 176-281zm101 138c24-14 78-40 42-74-39-37-110 1-139 24-31 25-59 61-72 105 67 5 123-28 169-55" id="n"/><path d="M387-452c45 0 79 27 79 73 0 109-16 218-23 327 13 58-52 84-87 52-7-7-8-24-7-49l20-277c5-41-49-23-78-16-38 9-78 28-106 53L160-48c13 58-94 91-94 20 0-134 25-233 25-362 0-45 36-68 83-64 18 6 9 33 16 56 60-17 127-54 197-54" id="o"/><path d="M294-7c-52 29-182 61-175-39l22-313c-29 11-104 9-94-22-2-51 54-54 100-61 1-69 2-169 83-132 25 20 10 79 10 117 49-6 105-16 153-21 33-3 36 52 17 67-34 27-121 29-176 39L215-96c-3 27 40 15 48 4 21-29 77-60 113-24 8 8 12 20 11 35-23 31-56 53-93 74" id="p"/><g id="c"><use transform="matrix(0.017777777777777778,0,0,0.017777777777777778,0,0)" xlink:href="#f"/><use transform="matrix(0.017777777777777778,0,0,0.017777777777777778,10.773333333333333,0)" xlink:href="#j"/><use transform="matrix(0.017777777777777778,0,0,0.017777777777777778,20.07111111111111,0)" xlink:href="#k"/><use transform="matrix(0.017777777777777778,0,0,0.017777777777777778,28.266666666666666,0)" xlink:href="#l"/><use transform="matrix(0.017777777777777778,0,0,0.017777777777777778,37.33333333333333,0)" xlink:href="#m"/><use transform="matrix(0.017777777777777778,0,0,0.017777777777777778,50.72,0)" xlink:href="#n"/><use transform="matrix(0.017777777777777778,0,0,0.017777777777777778,59.05777777777777,0)" xlink:href="#o"/><use transform="matrix(0.017777777777777778,0,0,0.017777777777777778,67.98222222222222,0)" xlink:href="#p"/></g><path d="M207-595c2-41-4-67-47-67-50 0-56 43-59 90L65-61c0 47-2 92 42 92 154 0 250-104 323-199 42-54 89-132 66-218-10-38-55-51-107-51-85 2-150 26-204 68zm161 245c19-1 42 1 38 22-18 96-91 166-158 220-28 22-56 37-85 46l13-188c38-57 102-94 192-100" id="q"/><path d="M158 89c12-155 23-311 36-465 3-39-8-65-49-65-53 0-54 50-57 95L63 89c1 114-76 66-111 29-12-13-53-21-66 2-9 10-18 27-15 46 38 33 84 76 131 100 105 25 148-75 156-177zm50-601c30-26 31-91 12-120-20-19-88-14-104 8-49 26-36 137 28 137 25 0 46-9 64-25" id="r"/><g id="d"><use transform="matrix(0.017777777777777778,0,0,0.017777777777777778,0,0)" xlink:href="#g"/><use transform="matrix(0.017777777777777778,0,0,0.017777777777777778,11.324444444444444,0)" xlink:href="#q"/><use transform="matrix(0.017777777777777778,0,0,0.017777777777777778,20.213333333333328,0)" xlink:href="#r"/><use transform="matrix(0.017777777777777778,0,0,0.017777777777777778,24.159999999999997,0)" xlink:href="#n"/><use transform="matrix(0.017777777777777778,0,0,0.017777777777777778,32.49777777777777,0)" xlink:href="#k"/><use transform="matrix(0.017777777777777778,0,0,0.017777777777777778,40.69333333333333,0)" xlink:href="#p"/></g><path d="M388-422c20 0 30 1 42 13 8-77 2-166 23-231 12-35 104-26 87 24-19 183-20 382-41 563 7 55-16 77-72 68-22-3-19-26-24-50-23-2-30 15-55 25-49 19-106 33-188 32C85 5 25-63 46-159c34-151 150-260 342-263zM212-58c128-24 227-88 213-245 5-46-58-33-96-28-94 13-148 71-186 149-27 55 3 136 69 124" id="s"/><path d="M163-57c18-185 16-376 41-559 8-62-68-66-86-22-6 15-9 35-11 55L68-52c-2 37 13 69 47 67 41-2 44-34 48-72" id="t"/><g id="e"><use transform="matrix(0.017777777777777778,0,0,0.017777777777777778,0,0)" xlink:href="#h"/><use transform="matrix(0.017777777777777778,0,0,0.017777777777777778,13.795555555555556,0)" xlink:href="#j"/><use transform="matrix(0.017777777777777778,0,0,0.017777777777777778,23.093333333333334,0)" xlink:href="#s"/><use transform="matrix(0.017777777777777778,0,0,0.017777777777777778,33.013333333333335,0)" xlink:href="#n"/><use transform="matrix(0.017777777777777778,0,0,0.017777777777777778,41.35111111111111,0)" xlink:href="#t"/></g></defs></g></svg>