<svg xmlns="http://www.w3.org/2000/svg" xmlns:xlink="http://www.w3.org/1999/xlink" xmlns:lucid="lucid" width="254.69" height="260"><g transform="translate(-425.31008073865155 -60)" lucid:page-tab-id="F_0UCWZ2zT0p"><path d="M580 180c0 11.05-8.95 20-20 20s-20-8.95-20-20 8.95-20 20-20 20 8.95 20 20zM580 100c0 11.05-8.95 20-20 20s-20-8.95-20-20 8.95-20 20-20 20 8.95 20 20z" stroke="#000" stroke-width="2" fill="#fff"/><path d="M560 160v-40" stroke="#000" stroke-width="2" fill="none"/><path d="M561 160.13l-1-.13-1 .04V160h2zM564.64 134.27h-9.28L560 120z"/><path d="M560 120l1.04-.04 4.97 15.3h-12l5-15.4zm-3.26 13.27h6.52L560 123.24z"/><use xlink:href="#a" transform="matrix(1,0,0,1,567.9999999999999,129.32444444444445) translate(0 17.262222222222224)"/><path d="M660 280c0 11.05-8.95 20-20 20s-20-8.95-20-20 8.95-20 20-20 20 8.95 20 20zM500 280c0 11.05-8.95 20-20 20s-20-8.95-20-20 8.95-20 20-20 20 8.95 20 20z" stroke="#000" stroke-width="2" fill="#fff"/><path d="M548.16 197.16v31.42H480V260" stroke="#000" stroke-width="2" fill="none"/><path d="M549.16 196.65v.5h-2v-1.94zM480 260l-4.64-14.27h9.28z"/><path d="M481 260.13l-1-.13-1.04.04-4.97-15.3h12zm-4.26-13.4l3.26 10.03 3.26-10.03z"/><use xlink:href="#b" transform="matrix(1,0,0,1,436.31008073865155,203.99133941579655) translate(0.005000000000002558 17.477999999999998)"/><path d="M571.34 197.7v30.72h66.62v30.73" stroke="#000" stroke-width="2" fill="none"/><path d="M572.34 197.7h-2v-.64l.45-.22 1.54-1.3zM637.96 259.15l-4.63-14.27h9.27z"/><path d="M638.73 260.05h-.17l-1.27.25-5.35-16.42h12.03zm-4.02-14.17l3.26 10.03 3.26-10.02z"/><use xlink:href="#c" transform="matrix(1,0,0,1,594.7687942745775,202.8019770370069) translate(0.005000000000002558 17.477999999999998)"/><path d="M555 280c0 11.05-8.95 20-20 20s-20-8.95-20-20 8.95-20 20-20 20 8.95 20 20zM610 280c0 11.05-8.95 20-20 20s-20-8.95-20-20 8.95-20 20-20 20 8.95 20 20z" stroke="#000" stroke-width="2" fill="#fff"/><defs><path d="M393-459c146-8 146 177 91 275C422-74 333 27 158 16l-15 208c-2 44-18 57-57 65-41 8-39-29-37-69C64 13 75-196 92-403c3-38 51-65 89-41 11 7 15 20 14 40 57-37 116-50 198-55zm-49 317c41-44 97-127 68-203-60-38-166 6-210 35-11 7-16 15-17 21L171-90c-1 20 13 24 33 24 58 0 107-40 140-76" id="d"/><path d="M414 18c44 0 51-25 54-67l20-294c15-129-122-120-228-97-56 12-101 41-148 64-16 8-27 55-6 61 51 14 87-22 132-33 39-9 72-27 121-28 19 0 38 3 37 23l-4 55C217-288 63-254 27-107 26-36 64 31 131 31c99 0 173-43 244-71-7 36-4 58 39 58zm-23-168c-50 42-119 78-192 101-76 24-118-61-60-101 61-42 156-67 248-79" id="e"/><path d="M124 12C75 22 65-15 68-58l23-329c-6-47 11-61 61-61 32 0 27 14 38 41 60-28 141-67 220-43 14 18 32 52 5 72-44 33-165 17-207 62-5 4-12 9-20 13L160-58c-7 43-5 63-36 70" id="f"/><path d="M219-412c99-54 263-26 248 106-6 57-62 81-112 104-62 28-146 48-218 66-5 48 10 94 65 90 94-7 136-72 207-98 34-13 67 0 57 43C435-41 354-7 282 18c-34 11-68 16-102 16C83 33 33-24 43-131c12-131 81-229 176-281zm101 138c24-14 78-40 42-74-39-37-110 1-139 24-31 25-59 61-72 105 67 5 123-28 169-55" id="g"/><path d="M387-452c45 0 79 27 79 73 0 109-16 218-23 327 13 58-52 84-87 52-7-7-8-24-7-49l20-277c5-41-49-23-78-16-38 9-78 28-106 53L160-48c13 58-94 91-94 20 0-134 25-233 25-362 0-45 36-68 83-64 18 6 9 33 16 56 60-17 127-54 197-54" id="h"/><path d="M294-7c-52 29-182 61-175-39l22-313c-29 11-104 9-94-22-2-51 54-54 100-61 1-69 2-169 83-132 25 20 10 79 10 117 49-6 105-16 153-21 33-3 36 52 17 67-34 27-121 29-176 39L215-96c-3 27 40 15 48 4 21-29 77-60 113-24 8 8 12 20 11 35-23 31-56 53-93 74" id="i"/><g id="a"><use transform="matrix(0.017777777777777778,0,0,0.017777777777777778,0,0)" xlink:href="#d"/><use transform="matrix(0.017777777777777778,0,0,0.017777777777777778,9.404444444444444,0)" xlink:href="#e"/><use transform="matrix(0.017777777777777778,0,0,0.017777777777777778,18.79111111111111,0)" xlink:href="#f"/><use transform="matrix(0.017777777777777778,0,0,0.017777777777777778,25.511111111111113,0)" xlink:href="#g"/><use transform="matrix(0.017777777777777778,0,0,0.017777777777777778,33.84888888888889,0)" xlink:href="#h"/><use transform="matrix(0.017777777777777778,0,0,0.017777777777777778,42.77333333333333,0)" xlink:href="#i"/></g><path d="M298-594c46 0 84 49 129 25 28-15 38-46 15-63-45-33-159-74-226-28-64 44-74 143-81 243-36 14-93 21-73 82 8 23 43 8 67 10L109-47c-26 79 112 78 96-4l20-292c61-15 137-16 182-47 20-30 4-82-46-63l-129 17c1-72-2-158 66-158" id="j"/><path d="M123-498c77 32 120-75 87-136-18-21-76-16-94 7-23 17-37 86-10 113 5 6 10 13 17 16zm35 466c14-117 12-250 30-368 9-59-74-59-92-24-11 21-9 48-11 80-6 111-17 224-17 334 0 32 72 34 82 4 3-8 6-16 8-26" id="k"/><path d="M376-215c43 0 31 49 10 75-39 47-104 89-187 89-48 0-70-41-115-55-47-14-78 39-47 75 50 58 171 80 264 44 95-36 189-96 200-210 7-67-35-108-100-108-91 0-157 59-233 59-38 0-19-38-4-54 46-49 136-72 234-65 42 3 82-10 73-53-25-53-127-37-191-22-109 25-216 75-229 191-7 61 35 94 99 94 85 0 146-60 226-60" id="l"/><path d="M533-514c-38-22-57-82-134-72-162 21-222 174-244 335-16 120 41 225 163 184 46-15 92-45 114-83 19-32 87-65 114-26 6 9 2 23-9 40C477-51 386 30 249 30 103 30 45-95 57-251c14-174 99-314 216-389 90-58 230-35 296 26 38 35 13 106-36 100" id="m"/><path d="M315-328c46-26 68 3 62 60L355-49c-9 52 42 87 77 55 9-8 16-26 18-53l20-275c5-79-5-118-74-118-90 0-156 50-216 91 5-90 16-180 17-273 12-48-45-53-69-32-24 22-24 70-26 114L67-46C55 6 109 37 144 2c12-11 16-27 18-48l13-182c43-35 90-73 140-100" id="n"/><path d="M163-57c18-185 16-376 41-559 8-62-68-66-86-22-6 15-9 35-11 55L68-52c-2 37 13 69 47 67 41-2 44-34 48-72" id="o"/><path d="M388-422c20 0 30 1 42 13 8-77 2-166 23-231 12-35 104-26 87 24-19 183-20 382-41 563 7 55-16 77-72 68-22-3-19-26-24-50-23-2-30 15-55 25-49 19-106 33-188 32C85 5 25-63 46-159c34-151 150-260 342-263zM212-58c128-24 227-88 213-245 5-46-58-33-96-28-94 13-148 71-186 149-27 55 3 136 69 124" id="p"/><g id="b"><use transform="matrix(0.018,0,0,0.018,0,0)" xlink:href="#j"/><use transform="matrix(0.018,0,0,0.018,6.983999999999999,0)" xlink:href="#k"/><use transform="matrix(0.018,0,0,0.018,10.979999999999999,0)" xlink:href="#f"/><use transform="matrix(0.018,0,0,0.018,17.784,0)" xlink:href="#l"/><use transform="matrix(0.018,0,0,0.018,27.144,0)" xlink:href="#i"/><use transform="matrix(0.018,0,0,0.018,34.992,0)" xlink:href="#m"/><use transform="matrix(0.018,0,0,0.018,45.324,0)" xlink:href="#n"/><use transform="matrix(0.018,0,0,0.018,54.504,0)" xlink:href="#k"/><use transform="matrix(0.018,0,0,0.018,58.50000000000001,0)" xlink:href="#o"/><use transform="matrix(0.018,0,0,0.018,62.496,0)" xlink:href="#p"/></g><g id="c"><use transform="matrix(0.018,0,0,0.018,0,0)" xlink:href="#o"/><use transform="matrix(0.018,0,0,0.018,3.9959999999999996,0)" xlink:href="#e"/><use transform="matrix(0.018,0,0,0.018,13.499999999999998,0)" xlink:href="#l"/><use transform="matrix(0.018,0,0,0.018,22.86,0)" xlink:href="#i"/><use transform="matrix(0.018,0,0,0.018,30.708,0)" xlink:href="#m"/><use transform="matrix(0.018,0,0,0.018,41.04,0)" xlink:href="#n"/><use transform="matrix(0.018,0,0,0.018,50.22,0)" xlink:href="#k"/><use transform="matrix(0.018,0,0,0.018,54.216,0)" xlink:href="#o"/><use transform="matrix(0.018,0,0,0.018,58.212,0)" xlink:href="#p"/></g></defs></g></svg>