<svg xmlns="http://www.w3.org/2000/svg" xmlns:xlink="http://www.w3.org/1999/xlink" xmlns:lucid="lucid" width="277" height="312"><g transform="translate(-60 -60)" lucid:page-tab-id="z80UCIG8b9Fh"><path d="M143.5 100c0-11.05 8.95-20 20-20h24c11.05 0 20 8.95 20 20s-8.95 20-20 20h-24c-11.05 0-20-8.95-20-20z" stroke="#000" stroke-width="2" fill="#fff"/><use xlink:href="#a" transform="matrix(1,0,0,1,148.5,80) translate(9.924444444444443 26.586666666666666)"/><path d="M153 260c0-11.05 8.95-20 20-20h24c11.05 0 20 8.95 20 20s-8.95 20-20 20h-24c-11.05 0-20-8.95-20-20z" stroke="#000" stroke-width="2" fill="#fff"/><use xlink:href="#b" transform="matrix(1,0,0,1,158,240) translate(16.422222222222224 26.586666666666666)"/><path d="M253 260c0-11.05 8.95-20 20-20h24c11.05 0 20 8.95 20 20s-8.95 20-20 20h-24c-11.05 0-20-8.95-20-20z" stroke="#000" stroke-width="2" fill="#fff"/><use xlink:href="#c" transform="matrix(1,0,0,1,258,240) translate(22.297777777777778 26.586666666666666)"/><path d="M208 180c0-11.05 8.95-20 20-20h24c11.05 0 20 8.95 20 20s-8.95 20-20 20h-24c-11.05 0-20-8.95-20-20z" stroke="#000" stroke-width="2" fill="#fff"/><use xlink:href="#d" transform="matrix(1,0,0,1,213,160) translate(8.848888888888887 26.586666666666666)"/><path d="M175.5 120v20H240v20" stroke="#000" stroke-width="2" fill="none"/><path/><path/><path d="M240 200v20h-55v20" stroke="#000" stroke-width="2" fill="none"/><path/><path/><path d="M240 200v20h45v20" stroke="#000" stroke-width="2" fill="none"/><path/><path/><path d="M153 332c0-11.05 8.95-20 20-20h24c11.05 0 20 8.95 20 20s-8.95 20-20 20h-24c-11.05 0-20-8.95-20-20z" stroke="#000" stroke-width="2" fill="#fff"/><use xlink:href="#e" transform="matrix(1,0,0,1,158,312) translate(9.702222222222225 26.586666666666666)"/><path d="M185 280v32" stroke="#000" stroke-width="2" fill="none"/><path/><path/><path d="M253 332c0-11.05 8.95-20 20-20h24c11.05 0 20 8.95 20 20s-8.95 20-20 20h-24c-11.05 0-20-8.95-20-20z" stroke="#000" stroke-width="2" fill="#fff"/><use xlink:href="#f" transform="matrix(1,0,0,1,258,312) translate(6.724444444444444 26.586666666666666)"/><path d="M285 280v32" stroke="#000" stroke-width="2" fill="none"/><path/><path/><path d="M80 180c0-11.05 8.95-20 20-20h24c11.05 0 20 8.95 20 20s-8.95 20-20 20h-24c-11.05 0-20-8.95-20-20z" stroke="#000" stroke-width="2" fill="#fff"/><use xlink:href="#g" transform="matrix(1,0,0,1,85,160) translate(8.644444444444446 26.586666666666666)"/><path d="M175.5 120v20H112v20" stroke="#000" stroke-width="2" fill="none"/><path/><path/><path d="M80 260c0-11.05 8.95-20 20-20h24c11.05 0 20 8.95 20 20s-8.95 20-20 20h-24c-11.05 0-20-8.95-20-20z" stroke="#000" stroke-width="2" fill="#fff"/><use xlink:href="#h" transform="matrix(1,0,0,1,85,240) translate(14.857777777777777 26.586666666666666)"/><path d="M112 200v40" stroke="#000" stroke-width="2" fill="none"/><path/><path/><defs><path d="M315-328c46-26 68 3 62 60L355-49c-9 52 42 87 77 55 9-8 16-26 18-53l20-275c5-79-5-118-74-118-90 0-156 50-216 91 5-90 16-180 17-273 12-48-45-53-69-32-24 22-24 70-26 114L67-46C55 6 109 37 144 2c12-11 16-27 18-48l13-182c43-35 90-73 140-100" id="i"/><path d="M294-7c-52 29-182 61-175-39l22-313c-29 11-104 9-94-22-2-51 54-54 100-61 1-69 2-169 83-132 25 20 10 79 10 117 49-6 105-16 153-21 33-3 36 52 17 67-34 27-121 29-176 39L215-96c-3 27 40 15 48 4 21-29 77-60 113-24 8 8 12 20 11 35-23 31-56 53-93 74" id="j"/><path d="M592-345c22-5 29-9 28 12L601-49c2 36 9 55 39 61 29 5 50-17 54-69l23-323c2-63-55-101-114-68-51 28-89 43-150 73-2-25 0-74-14-79-78-28-136 34-195 62-23 10-43 22-63 31 5-36 11-77-33-75-38 1-54 17-57 55L68-58C58-11 86 20 131 8c22-6 26-35 29-63l25-202c46-33 103-70 162-89 9 0 7 5 6 13L333-58c0 52 3 66 47 72 36 5 44-37 47-72l18-205c35-40 90-67 147-82" id="k"/><path d="M163-57c18-185 16-376 41-559 8-62-68-66-86-22-6 15-9 35-11 55L68-52c-2 37 13 69 47 67 41-2 44-34 48-72" id="l"/><g id="a"><use transform="matrix(0.017777777777777778,0,0,0.017777777777777778,0,0)" xlink:href="#i"/><use transform="matrix(0.017777777777777778,0,0,0.017777777777777778,9.066666666666666,0)" xlink:href="#j"/><use transform="matrix(0.017777777777777778,0,0,0.017777777777777778,16.817777777777778,0)" xlink:href="#k"/><use transform="matrix(0.017777777777777778,0,0,0.017777777777777778,30.204444444444444,0)" xlink:href="#l"/></g><path d="M388-422c20 0 30 1 42 13 8-77 2-166 23-231 12-35 104-26 87 24-19 183-20 382-41 563 7 55-16 77-72 68-22-3-19-26-24-50-23-2-30 15-55 25-49 19-106 33-188 32C85 5 25-63 46-159c34-151 150-260 342-263zM212-58c128-24 227-88 213-245 5-46-58-33-96-28-94 13-148 71-186 149-27 55 3 136 69 124" id="m"/><path d="M123-498c77 32 120-75 87-136-18-21-76-16-94 7-23 17-37 86-10 113 5 6 10 13 17 16zm35 466c14-117 12-250 30-368 9-59-74-59-92-24-11 21-9 48-11 80-6 111-17 224-17 334 0 32 72 34 82 4 3-8 6-16 8-26" id="n"/><path d="M428-436c10 60-30 104-56 152C320-187 257-92 201 0c-17 27-53 28-67-8C87-124 60-265 30-393c-10-41 28-58 72-51 31 16 33 87 41 126 10 48 28 117 34 177 47-85 104-182 154-263 20-33 22-44 67-46 15 0 25 4 30 14" id="o"/><g id="b"><use transform="matrix(0.017777777777777778,0,0,0.017777777777777778,0,0)" xlink:href="#m"/><use transform="matrix(0.017777777777777778,0,0,0.017777777777777778,9.92,0)" xlink:href="#n"/><use transform="matrix(0.017777777777777778,0,0,0.017777777777777778,13.866666666666667,0)" xlink:href="#o"/></g><path d="M393-459c146-8 146 177 91 275C422-74 333 27 158 16l-15 208c-2 44-18 57-57 65-41 8-39-29-37-69C64 13 75-196 92-403c3-38 51-65 89-41 11 7 15 20 14 40 57-37 116-50 198-55zm-49 317c41-44 97-127 68-203-60-38-166 6-210 35-11 7-16 15-17 21L171-90c-1 20 13 24 33 24 58 0 107-40 140-76" id="p"/><use transform="matrix(0.017777777777777778,0,0,0.017777777777777778,0,0)" xlink:href="#p" id="c"/><path d="M207-595c2-41-4-67-47-67-50 0-56 43-59 90L65-61c0 47-2 92 42 92 154 0 250-104 323-199 42-54 89-132 66-218-10-38-55-51-107-51-85 2-150 26-204 68zm161 245c19-1 42 1 38 22-18 96-91 166-158 220-28 22-56 37-85 46l13-188c38-57 102-94 192-100" id="q"/><path d="M355-451c110 0 162 80 153 193C498-125 413-39 312 7c-36 15-72 23-111 23C93 29 36-35 44-144c9-131 86-228 184-278 37-19 80-29 127-29zM207-56c121 0 193-88 206-202 6-56-14-100-70-100-129 0-190 98-204 214-6 51 17 88 68 88" id="r"/><path d="M258 129c80-168 142-347 216-521 22-51-50-63-78-40-7 6-13 18-18 31L267-114c-48-103-96-207-145-310-19-25-73-5-80 19-4 14-4 31 6 53L216-1c-19 41-28 93-61 121-38 32-172-44-146 85 37 23 129 21 173 2 35-15 60-44 76-78" id="s"/><g id="d"><use transform="matrix(0.017777777777777778,0,0,0.017777777777777778,0,0)" xlink:href="#q"/><use transform="matrix(0.017777777777777778,0,0,0.017777777777777778,8.88888888888889,0)" xlink:href="#r"/><use transform="matrix(0.017777777777777778,0,0,0.017777777777777778,18.186666666666667,0)" xlink:href="#m"/><use transform="matrix(0.017777777777777778,0,0,0.017777777777777778,28.10666666666667,0)" xlink:href="#s"/></g><path d="M219-412c99-54 263-26 248 106-6 57-62 81-112 104-62 28-146 48-218 66-5 48 10 94 65 90 94-7 136-72 207-98 34-13 67 0 57 43C435-41 354-7 282 18c-34 11-68 16-102 16C83 33 33-24 43-131c12-131 81-229 176-281zm101 138c24-14 78-40 42-74-39-37-110 1-139 24-31 25-59 61-72 105 67 5 123-28 169-55" id="t"/><g id="e"><use transform="matrix(0.017777777777777778,0,0,0.017777777777777778,0,0)" xlink:href="#i"/><use transform="matrix(0.017777777777777778,0,0,0.017777777777777778,9.066666666666666,0)" xlink:href="#t"/><use transform="matrix(0.017777777777777778,0,0,0.017777777777777778,17.404444444444444,0)" xlink:href="#l"/><use transform="matrix(0.017777777777777778,0,0,0.017777777777777778,21.351111111111113,0)" xlink:href="#l"/><use transform="matrix(0.017777777777777778,0,0,0.017777777777777778,25.297777777777775,0)" xlink:href="#r"/></g><path d="M149-147c-5-95-11-196-19-285-3-35-68-31-79-6C35-320 71-157 71-32c0 49 64 71 91 30 44-67 87-163 126-243 20 91 48 182 78 260 10 14 51 16 66 1 20-21 30-60 44-88l138-286c25-44 41-72-11-92-60-23-66 45-87 86-38 73-62 161-102 228-21-87-47-190-68-276-12-24-53-18-66 4-46 79-88 178-131 261" id="u"/><path d="M124 12C75 22 65-15 68-58l23-329c-6-47 11-61 61-61 32 0 27 14 38 41 60-28 141-67 220-43 14 18 32 52 5 72-44 33-165 17-207 62-5 4-12 9-20 13L160-58c-7 43-5 63-36 70" id="v"/><g id="f"><use transform="matrix(0.017777777777777778,0,0,0.017777777777777778,0,0)" xlink:href="#u"/><use transform="matrix(0.017777777777777778,0,0,0.017777777777777778,10.666666666666666,0)" xlink:href="#r"/><use transform="matrix(0.017777777777777778,0,0,0.017777777777777778,19.964444444444446,0)" xlink:href="#v"/><use transform="matrix(0.017777777777777778,0,0,0.017777777777777778,26.684444444444445,0)" xlink:href="#l"/><use transform="matrix(0.017777777777777778,0,0,0.017777777777777778,30.63111111111111,0)" xlink:href="#m"/></g><path d="M414 18c44 0 51-25 54-67l20-294c15-129-122-120-228-97-56 12-101 41-148 64-16 8-27 55-6 61 51 14 87-22 132-33 39-9 72-27 121-28 19 0 38 3 37 23l-4 55C217-288 63-254 27-107 26-36 64 31 131 31c99 0 173-43 244-71-7 36-4 58 39 58zm-23-168c-50 42-119 78-192 101-76 24-118-61-60-101 61-42 156-67 248-79" id="w"/><g id="g"><use transform="matrix(0.017777777777777778,0,0,0.017777777777777778,0,0)" xlink:href="#i"/><use transform="matrix(0.017777777777777778,0,0,0.017777777777777778,9.066666666666666,0)" xlink:href="#t"/><use transform="matrix(0.017777777777777778,0,0,0.017777777777777778,17.404444444444444,0)" xlink:href="#w"/><use transform="matrix(0.017777777777777778,0,0,0.017777777777777778,26.79111111111111,0)" xlink:href="#m"/></g><path d="M387-452c45 0 79 27 79 73 0 109-16 218-23 327 13 58-52 84-87 52-7-7-8-24-7-49l20-277c5-41-49-23-78-16-38 9-78 28-106 53L160-48c13 58-94 91-94 20 0-134 25-233 25-362 0-45 36-68 83-64 18 6 9 33 16 56 60-17 127-54 197-54" id="x"/><path d="M86 8c44 22 86-11 77-63l13-144c47 62 97 122 144 185 15 20 40 48 74 32 28-13 27-58 3-79L255-251c56-44 111-95 171-135 7-6 11-14 12-25l1 1c-3-27-18-64-49-49-78 38-137 102-204 153 6-107 8-216 16-322 4-51-82-44-93-10C90-447 68-234 68-32c0 17 7 32 18 40" id="y"/><g id="h"><use transform="matrix(0.017777777777777778,0,0,0.017777777777777778,0,0)" xlink:href="#l"/><use transform="matrix(0.017777777777777778,0,0,0.017777777777777778,3.9466666666666668,0)" xlink:href="#n"/><use transform="matrix(0.017777777777777778,0,0,0.017777777777777778,7.8933333333333335,0)" xlink:href="#x"/><use transform="matrix(0.017777777777777778,0,0,0.017777777777777778,16.817777777777778,0)" xlink:href="#y"/></g></defs></g></svg>