<svg xmlns="http://www.w3.org/2000/svg" xmlns:xlink="http://www.w3.org/1999/xlink" xmlns:lucid="lucid" width="109.52" height="160"><g transform="translate(-60 -40)" lucid:page-tab-id="6-0UITnyFLT6"><path d="M120 160c0 11.05-8.95 20-20 20s-20-8.95-20-20 8.95-20 20-20 20 8.95 20 20zM120 80c0 11.05-8.95 20-20 20s-20-8.95-20-20 8.95-20 20-20 20 8.95 20 20z" stroke="#000" stroke-width="2" fill="#fff"/><path d="M100 140v-40" stroke="#000" stroke-width="2" fill="none"/><path d="M101 140.13l-1-.13-1 .04V140h2zM104.64 114.27h-9.28L100 100z"/><path d="M100 100l1.04-.04 4.97 15.3H94l5-15.4zm-3.26 13.27h6.52L100 103.24z"/><use xlink:href="#a" transform="matrix(1,0,0,1,108.00000000000003,109.32444444444444) translate(0 17.262222222222224)"/><defs><path d="M393-459c146-8 146 177 91 275C422-74 333 27 158 16l-15 208c-2 44-18 57-57 65-41 8-39-29-37-69C64 13 75-196 92-403c3-38 51-65 89-41 11 7 15 20 14 40 57-37 116-50 198-55zm-49 317c41-44 97-127 68-203-60-38-166 6-210 35-11 7-16 15-17 21L171-90c-1 20 13 24 33 24 58 0 107-40 140-76" id="b"/><path d="M414 18c44 0 51-25 54-67l20-294c15-129-122-120-228-97-56 12-101 41-148 64-16 8-27 55-6 61 51 14 87-22 132-33 39-9 72-27 121-28 19 0 38 3 37 23l-4 55C217-288 63-254 27-107 26-36 64 31 131 31c99 0 173-43 244-71-7 36-4 58 39 58zm-23-168c-50 42-119 78-192 101-76 24-118-61-60-101 61-42 156-67 248-79" id="c"/><path d="M124 12C75 22 65-15 68-58l23-329c-6-47 11-61 61-61 32 0 27 14 38 41 60-28 141-67 220-43 14 18 32 52 5 72-44 33-165 17-207 62-5 4-12 9-20 13L160-58c-7 43-5 63-36 70" id="d"/><path d="M219-412c99-54 263-26 248 106-6 57-62 81-112 104-62 28-146 48-218 66-5 48 10 94 65 90 94-7 136-72 207-98 34-13 67 0 57 43C435-41 354-7 282 18c-34 11-68 16-102 16C83 33 33-24 43-131c12-131 81-229 176-281zm101 138c24-14 78-40 42-74-39-37-110 1-139 24-31 25-59 61-72 105 67 5 123-28 169-55" id="e"/><path d="M387-452c45 0 79 27 79 73 0 109-16 218-23 327 13 58-52 84-87 52-7-7-8-24-7-49l20-277c5-41-49-23-78-16-38 9-78 28-106 53L160-48c13 58-94 91-94 20 0-134 25-233 25-362 0-45 36-68 83-64 18 6 9 33 16 56 60-17 127-54 197-54" id="f"/><path d="M294-7c-52 29-182 61-175-39l22-313c-29 11-104 9-94-22-2-51 54-54 100-61 1-69 2-169 83-132 25 20 10 79 10 117 49-6 105-16 153-21 33-3 36 52 17 67-34 27-121 29-176 39L215-96c-3 27 40 15 48 4 21-29 77-60 113-24 8 8 12 20 11 35-23 31-56 53-93 74" id="g"/><g id="a"><use transform="matrix(0.017777777777777778,0,0,0.017777777777777778,0,0)" xlink:href="#b"/><use transform="matrix(0.017777777777777778,0,0,0.017777777777777778,9.404444444444444,0)" xlink:href="#c"/><use transform="matrix(0.017777777777777778,0,0,0.017777777777777778,18.79111111111111,0)" xlink:href="#d"/><use transform="matrix(0.017777777777777778,0,0,0.017777777777777778,25.511111111111113,0)" xlink:href="#e"/><use transform="matrix(0.017777777777777778,0,0,0.017777777777777778,33.84888888888889,0)" xlink:href="#f"/><use transform="matrix(0.017777777777777778,0,0,0.017777777777777778,42.77333333333333,0)" xlink:href="#g"/></g></defs></g></svg>