<svg xmlns="http://www.w3.org/2000/svg" xmlns:xlink="http://www.w3.org/1999/xlink" xmlns:lucid="lucid" width="583.93" height="260"><g transform="translate(-40 -40)" lucid:page-tab-id="JNeVPpMI3ahh"><path d="M80 60h360v60H80z" stroke="#000" stroke-opacity="0" stroke-width="2" fill="#fff" fill-opacity="0"/><use xlink:href="#a" transform="matrix(1,0,0,1,85,65) translate(52.49333333333334 31.586666666666666)"/><use xlink:href="#b" transform="matrix(1,0,0,1,85,65) translate(120.65333333333334 31.586666666666666)"/><use xlink:href="#c" transform="matrix(1,0,0,1,85,65) translate(153.54222222222222 31.586666666666666)"/><use xlink:href="#d" transform="matrix(1,0,0,1,85,65) translate(232.9377777777778 31.586666666666666)"/><path d="M282 140c0 11.05-8.95 20-20 20s-20-8.95-20-20 8.95-20 20-20 20 8.95 20 20z" stroke="#000" stroke-width="2" fill="#fff"/><use xlink:href="#e" transform="matrix(1,0,0,1,247,125) translate(9.627 21.668999999999997)"/><path d="M176.1 176.7l66.47-29" stroke="#000" stroke-width="2" fill="none"/><path d="M176.5 177.63l-.53.22-1.88-1.36 1.6-.7zM243.9 148.2l-.93.4-.8-1.83.88-.4z"/><path d="M183.05 193c0 11.05-8.95 20-20 20s-20-8.95-20-20 8.95-20 20-20 20 8.95 20 20z" stroke="#000" stroke-width="2" fill="#fff"/><use xlink:href="#f" transform="matrix(1,0,0,1,148.04959307598583,178) translate(9.483 22.168999999999997)"/><path d="M132 260c0 11.05-8.95 20-20 20s-20-8.95-20-20 8.95-20 20-20 20 8.95 20 20z" stroke="#000" stroke-width="2" fill="#fff"/><use xlink:href="#g" transform="matrix(1,0,0,1,97,245) translate(9.834 22.168999999999997)"/><path d="M108.95 239.63l40.98-30.7" stroke="#000" stroke-width="2" fill="none"/><path d="M109.44 240.27l-3.27.65-.22-.3 2.4-1.8zM151.4 209.07l-.87.66-1.2-1.6.38-.28z"/><path d="M214 240l-36.7-32.08" stroke="#000" stroke-width="2" fill="none"/><path d="M215.77 240.22L214 240l.66-.75zM177.96 207.17l-1.32 1.5-.7-.6 1.57-1.3z"/><path d="M234 260c0 11.05-8.95 20-20 20s-20-8.95-20-20 8.95-20 20-20 20 8.95 20 20z" stroke="#000" stroke-width="2" fill="#fff"/><use xlink:href="#h" transform="matrix(1,0,0,1,199,245) translate(9.546 22.168999999999997)"/><path d="M210 114.67h32v32h-32z" stroke="#000" stroke-opacity="0" stroke-width="2" fill="#fff" fill-opacity="0"/><use xlink:href="#i" transform="matrix(1,0,0,1,215,119.66666666666663) translate(8.75 17.668999999999997)"/><path d="M282 114.67h40v32h-40z" stroke="#000" stroke-opacity="0" stroke-width="2" fill="#fff" fill-opacity="0"/><use xlink:href="#j" transform="matrix(1,0,0,1,287,119.66666666666663) translate(7.377000000000001 17.668999999999997)"/><path d="M105.38 173h32v32h-32z" stroke="#000" stroke-opacity="0" stroke-width="2" fill="#fff" fill-opacity="0"/><use xlink:href="#k" transform="matrix(1,0,0,1,110.38292640931914,178) translate(6.428 17.668999999999997)"/><path d="M60 236h32v32H60z" stroke="#000" stroke-opacity="0" stroke-width="2" fill="#fff" fill-opacity="0"/><use xlink:href="#l" transform="matrix(1,0,0,1,65,241) translate(6.266 17.668999999999997)"/><path d="M134 232h32v40h-32z" stroke="#000" stroke-opacity="0" stroke-width="2" fill="#fff" fill-opacity="0"/><use xlink:href="#m" transform="matrix(1,0,0,1,139,237) translate(5.627000000000001 21.668999999999997)"/><path d="M166 232h32v40h-32z" stroke="#000" stroke-opacity="0" stroke-width="2" fill="#fff" fill-opacity="0"/><use xlink:href="#n" transform="matrix(1,0,0,1,171,237.00000000000003) translate(6.338 21.668999999999997)"/><path d="M232.38 232h32v40h-32z" stroke="#000" stroke-opacity="0" stroke-width="2" fill="#fff" fill-opacity="0"/><use xlink:href="#o" transform="matrix(1,0,0,1,237.38292640931923,237) translate(6.014 21.668999999999997)"/><path d="M188.72 169.33h32v40h-32z" stroke="#000" stroke-opacity="0" stroke-width="2" fill="#fff" fill-opacity="0"/><use xlink:href="#p" transform="matrix(1,0,0,1,193.7162597426525,174.33333333333331) translate(6.662 21.668999999999997)"/><path d="M389.43 189c0 11.05-8.95 20-20 20-11.04 0-20-8.95-20-20s8.96-20 20-20c11.05 0 20 8.95 20 20z" stroke="#000" stroke-width="2" fill="#fff"/><use xlink:href="#q" transform="matrix(1,0,0,1,354.4325194853051,174) translate(10.221 22.168999999999997)"/><path d="M338.38 256c0 11.05-8.95 20-20 20-11.04 0-20-8.95-20-20s8.96-20 20-20c11.05 0 20 8.95 20 20z" stroke="#000" stroke-width="2" fill="#fff"/><use xlink:href="#r" transform="matrix(1,0,0,1,303.3829264093192,241) translate(10.635000000000002 22.168999999999997)"/><path d="M315.33 235.63l41-30.7" stroke="#000" stroke-width="2" fill="none"/><path d="M315.82 236.27l-3.27.65-.22-.3 2.4-1.8zM357.8 205.07l-.88.66-1.2-1.6.37-.28z"/><path d="M420.38 236l-36.7-32.08" stroke="#000" stroke-width="2" fill="none"/><path d="M422.16 236.22l-1.78-.22.66-.75zM384.34 203.17l-1.32 1.5-.68-.6 1.55-1.3z"/><path d="M440.38 256c0 11.05-8.95 20-20 20-11.04 0-20-8.95-20-20s8.96-20 20-20c11.05 0 20 8.95 20 20z" stroke="#000" stroke-width="2" fill="#fff"/><use xlink:href="#s" transform="matrix(1,0,0,1,405.3829264093192,241) translate(8.52 22.168999999999997)"/><path d="M311.77 169h32v32h-32z" stroke="#000" stroke-opacity="0" stroke-width="2" fill="#fff" fill-opacity="0"/><use xlink:href="#t" transform="matrix(1,0,0,1,316.76585281863834,174) translate(6.356000000000001 17.668999999999997)"/><path d="M266.38 236h32v32h-32z" stroke="#000" stroke-opacity="0" stroke-width="2" fill="#fff" fill-opacity="0"/><use xlink:href="#u" transform="matrix(1,0,0,1,271.3829264093192,241) translate(6.266 17.668999999999997)"/><path d="M340.38 231.93h32v40h-32z" stroke="#000" stroke-opacity="0" stroke-width="2" fill="#fff" fill-opacity="0"/><use xlink:href="#v" transform="matrix(1,0,0,1,345.3829264093192,236.9304657173251) translate(4.196000000000001 21.668999999999997)"/><path d="M372.38 231.93h32v40h-32z" stroke="#000" stroke-opacity="0" stroke-width="2" fill="#fff" fill-opacity="0"/><use xlink:href="#w" transform="matrix(1,0,0,1,377.3829264093192,236.9304657173251) translate(6.5 21.668999999999997)"/><path d="M440.38 232h32v40h-32z" stroke="#000" stroke-opacity="0" stroke-width="2" fill="#fff" fill-opacity="0"/><use xlink:href="#x" transform="matrix(1,0,0,1,445.3829264093192,237) translate(4.178 21.668999999999997)"/><path d="M395.1 165h32v40h-32z" stroke="#000" stroke-opacity="0" stroke-width="2" fill="#fff" fill-opacity="0"/><use xlink:href="#y" transform="matrix(1,0,0,1,400.0991861519718,170) translate(4.016 21.668999999999997)"/><path d="M280.1 148.25l71.25 32.5" stroke="#000" stroke-width="2" fill="none"/><path d="M280.5 147.34l-.4.9.35-.92zM350.98 181.68l-.05-.02.42-.9z"/><path d="M560 135c0 11.05-8.95 20-20 20s-20-8.95-20-20 8.95-20 20-20 20 8.95 20 20z" stroke="#000" stroke-width="2" fill="#fff"/><path d="M480 115h32v32h-32z" stroke="#000" stroke-opacity="0" stroke-width="2" fill="#fff" fill-opacity="0"/><use xlink:href="#z" transform="matrix(1,0,0,1,485,120) translate(-1.3839999999999986 17.668999999999997)"/><path d="M568 115h32v32h-32z" stroke="#000" stroke-opacity="0" stroke-width="2" fill="#fff" fill-opacity="0"/><g><use xlink:href="#A" transform="matrix(1,0,0,1,573,120) translate(-7.071999999999999 17.668999999999997)"/></g><defs><path d="M393-459c146-8 146 177 91 275C422-74 333 27 158 16l-15 208c-2 44-18 57-57 65-41 8-39-29-37-69C64 13 75-196 92-403c3-38 51-65 89-41 11 7 15 20 14 40 57-37 116-50 198-55zm-49 317c41-44 97-127 68-203-60-38-166 6-210 35-11 7-16 15-17 21L171-90c-1 20 13 24 33 24 58 0 107-40 140-76" id="B"/><path d="M124 12C75 22 65-15 68-58l23-329c-6-47 11-61 61-61 32 0 27 14 38 41 60-28 141-67 220-43 14 18 32 52 5 72-44 33-165 17-207 62-5 4-12 9-20 13L160-58c-7 43-5 63-36 70" id="C"/><path d="M219-412c99-54 263-26 248 106-6 57-62 81-112 104-62 28-146 48-218 66-5 48 10 94 65 90 94-7 136-72 207-98 34-13 67 0 57 43C435-41 354-7 282 18c-34 11-68 16-102 16C83 33 33-24 43-131c12-131 81-229 176-281zm101 138c24-14 78-40 42-74-39-37-110 1-139 24-31 25-59 61-72 105 67 5 123-28 169-55" id="D"/><path d="M89-323c76 0 172 0 246-3 49-2 80 42 50 78-20 23-67 15-105 15l-134 1c-12 12-40 0-54 1-62 7-73-92-3-92" id="E"/><path d="M428-436c10 60-30 104-56 152C320-187 257-92 201 0c-17 27-53 28-67-8C87-124 60-265 30-393c-10-41 28-58 72-51 31 16 33 87 41 126 10 48 28 117 34 177 47-85 104-182 154-263 20-33 22-44 67-46 15 0 25 4 30 14" id="F"/><path d="M123-498c77 32 120-75 87-136-18-21-76-16-94 7-23 17-37 86-10 113 5 6 10 13 17 16zm35 466c14-117 12-250 30-368 9-59-74-59-92-24-11 21-9 48-11 80-6 111-17 224-17 334 0 32 72 34 82 4 3-8 6-16 8-26" id="G"/><path d="M376-215c43 0 31 49 10 75-39 47-104 89-187 89-48 0-70-41-115-55-47-14-78 39-47 75 50 58 171 80 264 44 95-36 189-96 200-210 7-67-35-108-100-108-91 0-157 59-233 59-38 0-19-38-4-54 46-49 136-72 234-65 42 3 82-10 73-53-25-53-127-37-191-22-109 25-216 75-229 191-7 61 35 94 99 94 85 0 146-60 226-60" id="H"/><path d="M294-7c-52 29-182 61-175-39l22-313c-29 11-104 9-94-22-2-51 54-54 100-61 1-69 2-169 83-132 25 20 10 79 10 117 49-6 105-16 153-21 33-3 36 52 17 67-34 27-121 29-176 39L215-96c-3 27 40 15 48 4 21-29 77-60 113-24 8 8 12 20 11 35-23 31-56 53-93 74" id="I"/><g id="a"><use transform="matrix(0.017777777777777778,0,0,0.017777777777777778,0,0)" xlink:href="#B"/><use transform="matrix(0.017777777777777778,0,0,0.017777777777777778,9.404444444444444,0)" xlink:href="#C"/><use transform="matrix(0.017777777777777778,0,0,0.017777777777777778,16.124444444444443,0)" xlink:href="#D"/><use transform="matrix(0.017777777777777778,0,0,0.017777777777777778,24.46222222222222,0)" xlink:href="#E"/><use transform="matrix(0.017777777777777778,0,0,0.017777777777777778,31.324444444444442,0)" xlink:href="#F"/><use transform="matrix(0.017777777777777778,0,0,0.017777777777777778,38.61333333333334,0)" xlink:href="#G"/><use transform="matrix(0.017777777777777778,0,0,0.017777777777777778,42.559999999999995,0)" xlink:href="#H"/><use transform="matrix(0.017777777777777778,0,0,0.017777777777777778,51.80444444444444,0)" xlink:href="#G"/><use transform="matrix(0.017777777777777778,0,0,0.017777777777777778,55.75111111111111,0)" xlink:href="#I"/></g><path d="M414 18c44 0 51-25 54-67l20-294c15-129-122-120-228-97-56 12-101 41-148 64-16 8-27 55-6 61 51 14 87-22 132-33 39-9 72-27 121-28 19 0 38 3 37 23l-4 55C217-288 63-254 27-107 26-36 64 31 131 31c99 0 173-43 244-71-7 36-4 58 39 58zm-23-168c-50 42-119 78-192 101-76 24-118-61-60-101 61-42 156-67 248-79" id="J"/><path d="M387-452c45 0 79 27 79 73 0 109-16 218-23 327 13 58-52 84-87 52-7-7-8-24-7-49l20-277c5-41-49-23-78-16-38 9-78 28-106 53L160-48c13 58-94 91-94 20 0-134 25-233 25-362 0-45 36-68 83-64 18 6 9 33 16 56 60-17 127-54 197-54" id="K"/><path d="M388-422c20 0 30 1 42 13 8-77 2-166 23-231 12-35 104-26 87 24-19 183-20 382-41 563 7 55-16 77-72 68-22-3-19-26-24-50-23-2-30 15-55 25-49 19-106 33-188 32C85 5 25-63 46-159c34-151 150-260 342-263zM212-58c128-24 227-88 213-245 5-46-58-33-96-28-94 13-148 71-186 149-27 55 3 136 69 124" id="L"/><g id="b"><use transform="matrix(0.017777777777777778,0,0,0.017777777777777778,0,0)" xlink:href="#J"/><use transform="matrix(0.017777777777777778,0,0,0.017777777777777778,9.386666666666667,0)" xlink:href="#K"/><use transform="matrix(0.017777777777777778,0,0,0.017777777777777778,18.31111111111111,0)" xlink:href="#L"/></g><path d="M355-451c110 0 162 80 153 193C498-125 413-39 312 7c-36 15-72 23-111 23C93 29 36-35 44-144c9-131 86-228 184-278 37-19 80-29 127-29zM207-56c121 0 193-88 206-202 6-56-14-100-70-100-129 0-190 98-204 214-6 51 17 88 68 88" id="M"/><g id="c"><use transform="matrix(0.017777777777777778,0,0,0.017777777777777778,0,0)" xlink:href="#B"/><use transform="matrix(0.017777777777777778,0,0,0.017777777777777778,9.404444444444444,0)" xlink:href="#M"/><use transform="matrix(0.017777777777777778,0,0,0.017777777777777778,18.702222222222222,0)" xlink:href="#H"/><use transform="matrix(0.017777777777777778,0,0,0.017777777777777778,27.946666666666665,0)" xlink:href="#I"/><use transform="matrix(0.017777777777777778,0,0,0.017777777777777778,35.69777777777777,0)" xlink:href="#E"/><use transform="matrix(0.017777777777777778,0,0,0.017777777777777778,42.559999999999995,0)" xlink:href="#F"/><use transform="matrix(0.017777777777777778,0,0,0.017777777777777778,49.84888888888889,0)" xlink:href="#G"/><use transform="matrix(0.017777777777777778,0,0,0.017777777777777778,53.79555555555555,0)" xlink:href="#H"/><use transform="matrix(0.017777777777777778,0,0,0.017777777777777778,63.03999999999999,0)" xlink:href="#G"/><use transform="matrix(0.017777777777777778,0,0,0.017777777777777778,66.98666666666666,0)" xlink:href="#I"/></g><path d="M254-72c-30 8-82 15-89-17l23-289c33-89-91-94-97-3L70-84C51 77 266 15 354-26c-4 32 14 41 41 42 42 1 72-22 56-65l24-338c12-51 9-78-33-75-43 3-60 30-63 75l-18 260c-30 21-67 44-107 55" id="N"/><path d="M592-345c22-5 29-9 28 12L601-49c2 36 9 55 39 61 29 5 50-17 54-69l23-323c2-63-55-101-114-68-51 28-89 43-150 73-2-25 0-74-14-79-78-28-136 34-195 62-23 10-43 22-63 31 5-36 11-77-33-75-38 1-54 17-57 55L68-58C58-11 86 20 131 8c22-6 26-35 29-63l25-202c46-33 103-70 162-89 9 0 7 5 6 13L333-58c0 52 3 66 47 72 36 5 44-37 47-72l18-205c35-40 90-67 147-82" id="O"/><path d="M207-595c2-41-4-67-47-67-50 0-56 43-59 90L65-61c0 47-2 92 42 92 154 0 250-104 323-199 42-54 89-132 66-218-10-38-55-51-107-51-85 2-150 26-204 68zm161 245c19-1 42 1 38 22-18 96-91 166-158 220-28 22-56 37-85 46l13-188c38-57 102-94 192-100" id="P"/><g id="d"><use transform="matrix(0.017777777777777778,0,0,0.017777777777777778,0,0)" xlink:href="#K"/><use transform="matrix(0.017777777777777778,0,0,0.017777777777777778,8.924444444444445,0)" xlink:href="#N"/><use transform="matrix(0.017777777777777778,0,0,0.017777777777777778,17.99111111111111,0)" xlink:href="#O"/><use transform="matrix(0.017777777777777778,0,0,0.017777777777777778,31.377777777777776,0)" xlink:href="#P"/><use transform="matrix(0.017777777777777778,0,0,0.017777777777777778,40.266666666666666,0)" xlink:href="#D"/><use transform="matrix(0.017777777777777778,0,0,0.017777777777777778,48.60444444444444,0)" xlink:href="#C"/><use transform="matrix(0.017777777777777778,0,0,0.017777777777777778,55.32444444444444,0)" xlink:href="#H"/></g><path d="M598-40c-43-190-146-367-185-558-9-42-34-91-77-60-12 9-22 27-35 52C209-423 112-244 20-60 4-26 10 18 56 15c39-4 50-49 68-84l79-159c67-5 153-12 223-13 39 81 59 164 102 242 21 37 79 0 70-41zM400-328l-152 9 97-201c16 61 35 135 55 192" id="Q"/><use transform="matrix(0.018,0,0,0.018,0,0)" xlink:href="#Q" id="e"/><path d="M440-424c100-3 177 49 165 139C584-127 436-64 300-15 239 7 166 22 93 22c-44 0-20-83-18-123 11-158 27-318 35-475 6-21 21-34 42-39 77-18 171-46 269-46 78 0 139 27 139 89 0 79-49 110-120 148zm21-129c2-18-31-21-48-21-84 0-154 20-208 53l-11 117c93-11 184-46 238-96 18-17 27-34 29-53zm49 264c0-56-77-56-135-56-69 0-126 14-188 28L165-70c117-19 235-66 303-136 25-25 42-53 42-83" id="R"/><use transform="matrix(0.018,0,0,0.018,0,0)" xlink:href="#R" id="f"/><path d="M533-514c-38-22-57-82-134-72-162 21-222 174-244 335-16 120 41 225 163 184 46-15 92-45 114-83 19-32 87-65 114-26 6 9 2 23-9 40C477-51 386 30 249 30 103 30 45-95 57-251c14-174 99-314 216-389 90-58 230-35 296 26 38 35 13 106-36 100" id="S"/><use transform="matrix(0.018,0,0,0.018,0,0)" xlink:href="#S" id="g"/><path d="M283-28c185-83 354-230 321-494-20-153-236-181-388-118-35 15-82 21-96 56-8 19-11 37-8 56-12 168-40 332-40 504 0 55 58 40 112 29 31-7 64-18 99-33zm100-557c91 2 139 59 130 151-19 202-172 299-346 347l39-449c43-22 109-51 177-49" id="T"/><use transform="matrix(0.018,0,0,0.018,0,0)" xlink:href="#T" id="h"/><path d="M142-643c-47 6-90 33-114 61 0 23 18 37 55 44 3 2 5 5 4 11-7 131-35 252-23 397 3 34 4 68 5 102 6 18 32 27 53 28 26 1 30-10 31-33 3-139-4-287 23-403 12-49 12-109 22-168-5-25-31-35-56-39" id="U"/><use transform="matrix(0.018,0,0,0.018,0,0)" xlink:href="#U" id="i"/><path d="M48-171c66-20 145-41 225-46 22-1 14 5 22 13-6 74-32 202 53 202 27 0 54-16 57-36-20-51-12-115-6-177 35-15 94-2 138-2 23 0 34-25 34-50 0-59-90-40-153-44l-4-7c16-100 47-197 77-285-15-17-29-43-54-49-149 95-289 237-401 371-37 44-30 90 12 110zm117-129c62-68 109-122 174-177l8 5c-13 52-25 103-34 162-55 11-105 6-144 19" id="V"/><g id="j"><use transform="matrix(0.018,0,0,0.018,0,0)" xlink:href="#U"/><use transform="matrix(0.018,0,0,0.018,4.5,0)" xlink:href="#V"/></g><path d="M320-133c-46 0-88 4-131 12l1-15c52-55 101-121 152-178 55-62 111-124 117-224 7-114-144-116-231-69-56 30-116 74-158 117-33 34-13 79 21 87 67-16 104-88 167-116 22-10 43-24 70-25 39 6 41 35 17 70C247-329 126-188 10-62-9-41-3 1 30-1c109-29 279-43 409-25 24 3 33-21 33-44 0-65-68-63-152-63" id="W"/><use transform="matrix(0.018,0,0,0.018,0,0)" xlink:href="#W" id="k"/><path d="M66-36C218 39 471-3 467-192c-2-80-42-127-110-143l-1-9c78-49 147-71 147-167 0-97-97-144-199-117-92 25-177 73-236 132-44 44 19 121 61 75 55-59 120-114 218-124 57-6 60 57 23 91-55 51-137 116-227 116-53 0-25 95 6 96 66-26 221-50 221 46 0 99-129 126-230 101-45-11-37-63-90-63-26 0-53 8-51 37 2 42 34 69 67 85" id="X"/><use transform="matrix(0.018,0,0,0.018,0,0)" xlink:href="#X" id="l"/><use transform="matrix(0.018,0,0,0.018,0,0)" xlink:href="#V" id="m"/><path d="M481-193c0-153-155-219-320-185l-5-6 25-121c61-42 183-39 283-39 21 0 26-17 27-36 7-91-107-51-179-45-70 6-145 21-204 40-45 65-55 182-72 275 4 29 22 51 52 54 51-16 106-39 152-36 73 4 140 32 140 102 0 85-130 109-208 78-44-18-75-57-114-76-25-4-59 40-58 58C23-41 126-2 230-2c139 0 251-59 251-191" id="Y"/><use transform="matrix(0.018,0,0,0.018,0,0)" xlink:href="#Y" id="n"/><path d="M490-162c77-176-68-339-251-284l-4-8c29-56 71-103 115-138 32-26-11-62-42-62-19 0-43 9-65 32-79 83-173 222-195 352C20-106 117-1 254-1c120 0 198-74 236-161zM283-374c90-6 116 52 122 127-17 88-52 153-148 153-68 0-112-52-110-126 3-92 47-149 136-154" id="Z"/><use transform="matrix(0.018,0,0,0.018,0,0)" xlink:href="#Z" id="o"/><path d="M400-633c-82 19-215 12-310 12-44 0-69 16-77 45 13 56 100 48 167 50 44 0 79-6 119-9 9 8-1 17-4 26-58 126-113 249-151 385C129-67 118 0 184 0c33 0 60-11 63-41-6-15-6-19-6-35 0-178 132-371 221-499-2-39-22-58-62-58" id="aa"/><use transform="matrix(0.018,0,0,0.018,0,0)" xlink:href="#aa" id="p"/><path d="M528-55c-1 36-32 41-71 44L144 12C62 28 67-37 75-107c18-152 21-333 29-477 3-66 102-44 174-47 76-3 165-11 246-11 44 0 39 80 4 84-99 13-217 14-322 22l-15 170c86-8 168-31 259-27 25 1 40 15 39 42-2 45-40 43-81 48l-225 25-17 202 291-25c46-1 73 3 71 46" id="ab"/><use transform="matrix(0.018,0,0,0.018,0,0)" xlink:href="#ab" id="q"/><path d="M521-578c23-14 20-71-6-75-112-16-227 16-324 21-56 3-100 19-78 81-13 171-32 323-49 487-6 57-8 81 45 77 45-3 52-35 57-77l22-213c90-14 180-31 271-41 34-4 49-60 25-79-25-20-86-9-120-4l-171 26 14-170 261-18c26-3 43-9 53-15" id="ac"/><use transform="matrix(0.018,0,0,0.018,0,0)" xlink:href="#ac" id="r"/><path d="M609-396c37-17 116-26 110 28C700-191 590-70 452-5c-51 23-107 35-167 35C119 29 40-75 56-247c17-189 133-296 266-375 101-60 328-85 373 36 12 31 3 60-26 66-69 13-50-45-100-58-119-31-224 37-289 95-82 74-177 229-100 365 20 35 58 62 113 60 179-5 267-121 323-250-78 20-146 47-225 65-45 9-43-59-13-77 56-34 164-45 231-76" id="ad"/><use transform="matrix(0.018,0,0,0.018,0,0)" xlink:href="#ad" id="s"/><path d="M214 0c102 0 222-32 184-140-23-64-79-103-126-155 5-18 20-19 38-39 56-61 147-107 147-212 0-133-215-82-302-48-60 23-114 65-114 128 0 49 31 104 94 163l1 7C79-236 28-206 28-121 28-29 116 0 214 0zm42-545c37-10 110-26 113 22-25 76-104 111-155 159h-7c-33-24-57-60-70-100 14-47 69-67 119-81zM125-125c0-49 36-79 72-110h6c60 54 90 92 90 114-1 31-39 46-74 45-63 0-94-16-94-49" id="ae"/><use transform="matrix(0.018,0,0,0.018,0,0)" xlink:href="#ae" id="t"/><path d="M163-195c76 0 147-43 197-75L349-18c12 27 101 26 97-16-17-193 29-380 68-528 25-97-139-88-219-71C169-606 86-529 39-430c-15 31-19 60-19 95 0 87 57 140 143 140zm83-331c49-30 136-26 136 38 0 86-61 149-120 188-49 32-145 31-142-39 4-90 65-150 126-187" id="af"/><use transform="matrix(0.018,0,0,0.018,0,0)" xlink:href="#af" id="u"/><path d="M147-610C-1-479-10 0 239 0c190 0 227-243 203-452-12-102-44-209-154-209-71 0-99 13-141 51zm214 170c15 143 11 337-122 337-30 0-54-17-73-49s-28-81-28-148c0-129 29-245 136-269 62 7 81 67 87 129" id="ag"/><g id="v"><use transform="matrix(0.018,0,0,0.018,0,0)" xlink:href="#U"/><use transform="matrix(0.018,0,0,0.018,4.5,0)" xlink:href="#ag"/></g><g id="w"><use transform="matrix(0.018,0,0,0.018,0,0)" xlink:href="#U"/><use transform="matrix(0.018,0,0,0.018,4.5,0)" xlink:href="#U"/></g><g id="x"><use transform="matrix(0.018,0,0,0.018,0,0)" xlink:href="#U"/><use transform="matrix(0.018,0,0,0.018,4.5,0)" xlink:href="#W"/></g><g id="y"><use transform="matrix(0.018,0,0,0.018,0,0)" xlink:href="#U"/><use transform="matrix(0.018,0,0,0.018,4.5,0)" xlink:href="#X"/></g><g id="z"><use transform="matrix(0.018,0,0,0.018,0,0)" xlink:href="#B"/><use transform="matrix(0.018,0,0,0.018,9.521999999999998,0)" xlink:href="#C"/><use transform="matrix(0.018,0,0,0.018,16.325999999999997,0)" xlink:href="#D"/></g><g id="A"><use transform="matrix(0.018,0,0,0.018,0,0)" xlink:href="#B"/><use transform="matrix(0.018,0,0,0.018,9.521999999999998,0)" xlink:href="#M"/><use transform="matrix(0.018,0,0,0.018,18.936,0)" xlink:href="#H"/><use transform="matrix(0.018,0,0,0.018,28.296,0)" xlink:href="#I"/></g></defs></g></svg>