<svg xmlns="http://www.w3.org/2000/svg" xmlns:xlink="http://www.w3.org/1999/xlink" xmlns:lucid="lucid" width="884" height="654"><g transform="translate(-287 -120)" lucid:page-tab-id="F-3UWsAUTx7l"><path d="M811 713.67h340l-170-210z" stroke="#000" stroke-width="2" fill="#ff8f80"/><path d="M1002 563.67c0 11.04-8.95 20-20 20s-20-8.96-20-20c0-11.05 8.95-20 20-20s20 8.95 20 20z" stroke="#000" stroke-width="2" fill="#ff8f80"/><path d="M1035.78 597l-40.97-17.2" stroke="#000" stroke-width="2" fill="none"/><path d="M1038.93 597.24l-.06.15-3.1-.4.4-.92zM995.2 578.88l-.77 1.84-1.26-.53 1.73-1.45z"/><path d="M928.67 597l38.72-18.8" stroke="#000" stroke-width="2" fill="none"/><path d="M928.67 597l-1.44.05-1.62.32 2.63-1.27zM968.37 578.3l.45.33-1 .48-.87-1.8.42-.2z"/><path d="M1055.78 617c0 11.05-8.96 20-20 20-11.05 0-20-8.95-20-20s8.95-20 20-20c11.04 0 20 8.95 20 20zM1029.1 683.67c0 11.04-8.94 20-20 20-11.03 0-20-8.96-20-20 0-11.05 8.97-20 20-20 11.06 0 20 8.95 20 20z" stroke="#000" stroke-width="2" fill="#ff8f80"/><path d="M1006.06 663.3l16.6-30.37" stroke="#000" stroke-width="2" fill="none"/><path d="M1006.94 663.77l-.06.1-2.55.5.85-1.56zM1023.84 632.86l-.3.55-1.76-.95.43-.77z"/><path d="M1062.44 663.67l-12.4-31.75" stroke="#000" stroke-width="2" fill="none"/><path d="M1063.57 663.8l-1.13-.13.94-.37zM1050.96 631.56l-1.87.73-.17-.43 1.48-1.24.13-.16z"/><path d="M1082.44 683.67c0 11.04-8.95 20-20 20-11.04 0-20-8.96-20-20 0-11.05 8.96-20 20-20 11.05 0 20 8.95 20 20zM948.67 617c0 11.05-8.96 20-20 20-11.05 0-20-8.95-20-20s8.95-20 20-20c11.04 0 20 8.95 20 20zM922 683.67c0 11.04-8.95 20-20 20s-20-8.96-20-20c0-11.05 8.95-20 20-20s20 8.95 20 20z" stroke="#000" stroke-width="2" fill="#ff8f80"/><path d="M898.95 663.3l16.6-30.37" stroke="#000" stroke-width="2" fill="none"/><path d="M899.83 663.77l-.06.1-2.55.5.85-1.56zM916.73 632.86l-.3.55-1.76-.95.42-.77z"/><path d="M955.33 663.67l-12.42-31.75" stroke="#000" stroke-width="2" fill="none"/><path d="M956.46 663.8l-1.13-.13.93-.37zM943.85 631.56l-1.87.73-.16-.43 1.48-1.24.12-.16z"/><path d="M975.33 683.67c0 11.04-8.95 20-20 20-11.04 0-20-8.96-20-20 0-11.05 8.96-20 20-20 11.05 0 20 8.95 20 20z" stroke="#000" stroke-width="2" fill="#ff8f80"/><path d="M681 720h340L851 510z" stroke="#000" stroke-width="2" fill="#ffbbb1"/><path d="M872 570c0 11.05-8.95 20-20 20s-20-8.95-20-20 8.95-20 20-20 20 8.95 20 20z" stroke="#000" stroke-width="2" fill="#ffbbb1"/><path d="M905.78 603.33l-40.97-17.2" stroke="#000" stroke-width="2" fill="none"/><path d="M908.93 603.57l-.06.15-3.1-.4.4-.9zM865.2 585.2l-.77 1.85-1.26-.52 1.73-1.45z"/><path d="M798.67 603.33l38.72-18.8" stroke="#000" stroke-width="2" fill="none"/><path d="M798.67 603.33l-1.44.05-1.62.32 2.63-1.27zM838.37 584.64l.45.32-1 .48-.87-1.8.42-.2z"/><path d="M925.78 623.33c0 11.05-8.96 20-20 20-11.05 0-20-8.95-20-20 0-11.04 8.95-20 20-20 11.04 0 20 8.96 20 20zM899.1 690c0 11.05-8.94 20-20 20-11.03 0-20-8.95-20-20s8.97-20 20-20c11.06 0 20 8.95 20 20z" stroke="#000" stroke-width="2" fill="#ffbbb1"/><path d="M876.06 669.63l16.6-30.37" stroke="#000" stroke-width="2" fill="none"/><path d="M876.94 670.1l-.06.1-2.55.5.85-1.55zM893.84 639.2l-.3.54-1.76-.96.43-.77z"/><path d="M932.44 670l-12.4-31.74" stroke="#000" stroke-width="2" fill="none"/><path d="M933.57 670.14l-1.13-.14.94-.36zM920.96 637.9l-1.87.72-.17-.42 1.48-1.24.13-.16z"/><path d="M952.44 690c0 11.05-8.95 20-20 20-11.04 0-20-8.95-20-20s8.96-20 20-20c11.05 0 20 8.95 20 20zM818.67 623.33c0 11.05-8.96 20-20 20-11.05 0-20-8.95-20-20 0-11.04 8.95-20 20-20 11.04 0 20 8.96 20 20zM792 690c0 11.05-8.95 20-20 20s-20-8.95-20-20 8.95-20 20-20 20 8.95 20 20z" stroke="#000" stroke-width="2" fill="#ffbbb1"/><path d="M768.95 669.63l16.6-30.37" stroke="#000" stroke-width="2" fill="none"/><path d="M769.83 670.1l-.06.1-2.55.5.85-1.55zM786.73 639.2l-.3.54-1.76-.96.42-.77z"/><path d="M825.33 670l-12.42-31.74" stroke="#000" stroke-width="2" fill="none"/><path d="M826.46 670.14l-1.13-.14.93-.36zM813.85 637.9l-1.87.72-.16-.42 1.48-1.24.12-.16z"/><path d="M845.33 690c0 11.05-8.95 20-20 20-11.04 0-20-8.95-20-20s8.96-20 20-20c11.05 0 20 8.95 20 20z" stroke="#000" stroke-width="2" fill="#ffbbb1"/><path d="M470 738.67h340l-170-210z" stroke="#000" stroke-width="2" fill="#99d5ca"/><path d="M661 588.67c0 11.04-8.95 20-20 20s-20-8.96-20-20c0-11.05 8.95-20 20-20s20 8.95 20 20z" stroke="#000" stroke-width="2" fill="#99d5ca"/><path d="M694.78 622l-40.97-17.2" stroke="#000" stroke-width="2" fill="none"/><path d="M697.93 622.24l-.06.15-3.1-.4.4-.92zM654.2 603.88l-.77 1.84-1.26-.53 1.73-1.45z"/><path d="M587.67 622l38.72-18.8" stroke="#000" stroke-width="2" fill="none"/><path d="M587.67 622l-1.44.05-1.62.32 2.63-1.27zM627.37 603.3l.45.33-1 .48-.87-1.8.42-.2z"/><path d="M714.78 642c0 11.05-8.96 20-20 20-11.05 0-20-8.95-20-20s8.95-20 20-20c11.04 0 20 8.95 20 20zM688.1 708.67c0 11.04-8.94 20-20 20-11.03 0-20-8.96-20-20 0-11.05 8.97-20 20-20 11.06 0 20 8.95 20 20z" stroke="#000" stroke-width="2" fill="#99d5ca"/><path d="M665.06 688.3l16.6-30.37" stroke="#000" stroke-width="2" fill="none"/><path d="M665.94 688.77l-.06.1-2.55.5.85-1.56zM682.84 657.86l-.3.55-1.76-.95.43-.77z"/><path d="M721.44 688.67l-12.4-31.75" stroke="#000" stroke-width="2" fill="none"/><path d="M722.57 688.8l-1.13-.13.94-.37zM709.96 656.56l-1.87.73-.17-.43 1.48-1.24.13-.16z"/><path d="M741.44 708.67c0 11.04-8.95 20-20 20-11.04 0-20-8.96-20-20 0-11.05 8.96-20 20-20 11.05 0 20 8.95 20 20zM607.67 642c0 11.05-8.96 20-20 20-11.05 0-20-8.95-20-20s8.95-20 20-20c11.04 0 20 8.95 20 20zM581 708.67c0 11.04-8.95 20-20 20s-20-8.96-20-20c0-11.05 8.95-20 20-20s20 8.95 20 20z" stroke="#000" stroke-width="2" fill="#99d5ca"/><path d="M557.95 688.3l16.6-30.37" stroke="#000" stroke-width="2" fill="none"/><path d="M558.83 688.77l-.06.1-2.55.5.85-1.56zM575.73 657.86l-.3.55-1.76-.95.42-.77z"/><path d="M614.33 688.67l-12.42-31.75" stroke="#000" stroke-width="2" fill="none"/><path d="M615.46 688.8l-1.13-.13.93-.37zM602.85 656.56l-1.87.73-.16-.43 1.48-1.24.12-.16z"/><path d="M634.33 708.67c0 11.04-8.95 20-20 20-11.04 0-20-8.96-20-20 0-11.05 8.96-20 20-20 11.05 0 20 8.95 20 20z" stroke="#000" stroke-width="2" fill="#99d5ca"/><path d="M307 754h340L477 544z" stroke="#000" stroke-width="2" fill="#c7e8ac"/><path d="M498 604c0 11.05-8.95 20-20 20s-20-8.95-20-20 8.95-20 20-20 20 8.95 20 20z" stroke="#000" stroke-width="2" fill="#c7e8ac"/><path d="M531.78 637.33l-40.97-17.2" stroke="#000" stroke-width="2" fill="none"/><path d="M534.93 637.57l-.06.15-3.1-.4.4-.9zM491.2 619.2l-.77 1.85-1.26-.52 1.73-1.45z"/><path d="M424.67 637.33l38.72-18.8" stroke="#000" stroke-width="2" fill="none"/><path d="M424.67 637.33l-1.44.05-1.62.32 2.63-1.27zM464.37 618.64l.45.32-1 .48-.87-1.8.42-.2z"/><path d="M551.78 657.33c0 11.05-8.96 20-20 20-11.05 0-20-8.95-20-20 0-11.04 8.95-20 20-20 11.04 0 20 8.96 20 20zM525.1 724c0 11.05-8.94 20-20 20-11.03 0-20-8.95-20-20s8.97-20 20-20c11.06 0 20 8.95 20 20z" stroke="#000" stroke-width="2" fill="#c7e8ac"/><path d="M502.06 703.63l16.6-30.37" stroke="#000" stroke-width="2" fill="none"/><path d="M502.94 704.1l-.06.1-2.55.5.85-1.55zM519.84 673.2l-.3.54-1.76-.96.43-.77z"/><path d="M558.44 704l-12.4-31.74" stroke="#000" stroke-width="2" fill="none"/><path d="M559.57 704.14l-1.13-.14.94-.36zM546.96 671.9l-1.87.72-.17-.42 1.48-1.24.13-.16z"/><path d="M578.44 724c0 11.05-8.95 20-20 20-11.04 0-20-8.95-20-20s8.96-20 20-20c11.05 0 20 8.95 20 20zM444.67 657.33c0 11.05-8.96 20-20 20-11.05 0-20-8.95-20-20 0-11.04 8.95-20 20-20 11.04 0 20 8.96 20 20zM418 724c0 11.05-8.95 20-20 20s-20-8.95-20-20 8.95-20 20-20 20 8.95 20 20z" stroke="#000" stroke-width="2" fill="#c7e8ac"/><path d="M394.95 703.63l16.6-30.37" stroke="#000" stroke-width="2" fill="none"/><path d="M395.83 704.1l-.06.1-2.55.5.85-1.55zM412.73 673.2l-.3.54-1.76-.96.42-.77z"/><path d="M451.33 704l-12.42-31.74" stroke="#000" stroke-width="2" fill="none"/><path d="M452.46 704.14l-1.13-.14.93-.36zM439.85 671.9l-1.87.72-.16-.42 1.48-1.24.12-.16z"/><path d="M471.33 724c0 11.05-8.95 20-20 20-11.04 0-20-8.95-20-20s8.96-20 20-20c11.05 0 20 8.95 20 20z" stroke="#000" stroke-width="2" fill="#c7e8ac"/><path d="M647 544h340L817 334z" stroke="#000" stroke-width="2" fill="#f9d2de"/><path d="M838 394c0 11.05-8.95 20-20 20s-20-8.95-20-20 8.95-20 20-20 20 8.95 20 20z" stroke="#000" stroke-width="2" fill="#f9d2de"/><path d="M871.78 427.33l-40.97-17.2" stroke="#000" stroke-width="2" fill="none"/><path d="M874.93 427.57l-.06.15-3.1-.4.4-.9zM831.2 409.2l-.77 1.85-1.26-.52 1.73-1.45z"/><path d="M764.67 427.33l38.72-18.8" stroke="#000" stroke-width="2" fill="none"/><path d="M764.67 427.33l-1.44.05-1.62.32 2.63-1.27zM804.37 408.64l.45.32-1 .48-.87-1.8.42-.2z"/><path d="M891.78 447.33c0 11.05-8.96 20-20 20-11.05 0-20-8.95-20-20 0-11.04 8.95-20 20-20 11.04 0 20 8.96 20 20z" stroke="#000" stroke-width="2" fill="#ff8f80"/><path d="M865.1 514c0 11.05-8.94 20-20 20-11.03 0-20-8.95-20-20s8.97-20 20-20c11.06 0 20 8.95 20 20z" stroke="#000" stroke-width="2" fill="#f9d2de"/><path d="M842.06 493.63l16.6-30.37" stroke="#000" stroke-width="2" fill="none"/><path d="M842.94 494.1l-.06.1-2.55.5.85-1.55zM859.84 463.2l-.3.54-1.76-.96.43-.77z"/><path d="M898.44 494l-12.4-31.74" stroke="#000" stroke-width="2" fill="none"/><path d="M899.57 494.14l-1.13-.14.94-.36zM886.96 461.9l-1.87.72-.17-.42 1.48-1.24.13-.16z"/><path d="M918.44 514c0 11.05-8.95 20-20 20-11.04 0-20-8.95-20-20s8.96-20 20-20c11.05 0 20 8.95 20 20zM784.67 447.33c0 11.05-8.96 20-20 20-11.05 0-20-8.95-20-20 0-11.04 8.95-20 20-20 11.04 0 20 8.96 20 20zM758 514c0 11.05-8.95 20-20 20s-20-8.95-20-20 8.95-20 20-20 20 8.95 20 20z" stroke="#000" stroke-width="2" fill="#f9d2de"/><path d="M734.95 493.63l16.6-30.37" stroke="#000" stroke-width="2" fill="none"/><path d="M735.83 494.1l-.06.1-2.55.5.85-1.55zM752.73 463.2l-.3.54-1.76-.96.42-.77z"/><path d="M791.33 494l-12.42-31.74" stroke="#000" stroke-width="2" fill="none"/><path d="M792.46 494.14l-1.13-.14.93-.36zM779.85 461.9l-1.87.72-.16-.42 1.48-1.24.12-.16z"/><path d="M811.33 514c0 11.05-8.95 20-20 20-11.04 0-20-8.95-20-20s8.96-20 20-20c11.05 0 20 8.95 20 20z" stroke="#000" stroke-width="2" fill="#ffbbb1"/><path d="M410 566h340L580 356z" stroke="#000" stroke-width="2" fill="#c1e4f7"/><path d="M601 416c0 11.05-8.95 20-20 20s-20-8.95-20-20 8.95-20 20-20 20 8.95 20 20z" stroke="#000" stroke-width="2" fill="#c1e4f7"/><path d="M634.78 449.33l-40.97-17.2" stroke="#000" stroke-width="2" fill="none"/><path d="M637.93 449.57l-.06.15-3.1-.4.4-.9zM594.2 431.2l-.77 1.85-1.26-.52 1.73-1.45z"/><path d="M527.67 449.33l38.72-18.8" stroke="#000" stroke-width="2" fill="none"/><path d="M527.67 449.33l-1.44.05-1.62.32 2.63-1.27zM567.37 430.64l.45.32-1 .48-.87-1.8.42-.2z"/><path d="M654.78 469.33c0 11.05-8.96 20-20 20-11.05 0-20-8.95-20-20 0-11.04 8.95-20 20-20 11.04 0 20 8.96 20 20zM628.1 536c0 11.05-8.94 20-20 20-11.03 0-20-8.95-20-20s8.97-20 20-20c11.06 0 20 8.95 20 20z" stroke="#000" stroke-width="2" fill="#c1e4f7"/><path d="M605.06 515.63l16.6-30.37" stroke="#000" stroke-width="2" fill="none"/><path d="M605.94 516.1l-.06.1-2.55.5.85-1.55zM622.84 485.2l-.3.54-1.76-.96.43-.77z"/><path d="M661.44 516l-12.4-31.74" stroke="#000" stroke-width="2" fill="none"/><path d="M662.57 516.14l-1.13-.14.94-.36zM649.96 483.9l-1.87.72-.17-.42 1.48-1.24.13-.16z"/><path d="M681.44 536c0 11.05-8.95 20-20 20-11.04 0-20-8.95-20-20s8.96-20 20-20c11.05 0 20 8.95 20 20z" stroke="#000" stroke-width="2" fill="#99d5ca"/><path d="M547.67 469.33c0 11.05-8.96 20-20 20-11.05 0-20-8.95-20-20 0-11.04 8.95-20 20-20 11.04 0 20 8.96 20 20zM521 536c0 11.05-8.95 20-20 20s-20-8.95-20-20 8.95-20 20-20 20 8.95 20 20z" stroke="#000" stroke-width="2" fill="#c1e4f7"/><path d="M497.95 515.63l16.6-30.37" stroke="#000" stroke-width="2" fill="none"/><path d="M498.83 516.1l-.06.1-2.55.5.85-1.55zM515.73 485.2l-.3.54-1.76-.96.42-.77z"/><path d="M554.33 516l-12.42-31.74" stroke="#000" stroke-width="2" fill="none"/><path d="M555.46 516.14l-1.13-.14.93-.36zM542.85 483.9l-1.87.72-.16-.42 1.48-1.24.12-.16z"/><path d="M574.33 536c0 11.05-8.95 20-20 20-11.04 0-20-8.95-20-20s8.96-20 20-20c11.05 0 20 8.95 20 20z" stroke="#000" stroke-width="2" fill="#c7e8ac"/><path d="M530 140h360v60H530z" stroke="#000" stroke-opacity="0" stroke-width="2" fill="#fff" fill-opacity="0"/><use xlink:href="#a" transform="matrix(1,0,0,1,535,145) translate(77.09777777777776 31.586666666666666)"/><use xlink:href="#b" transform="matrix(1,0,0,1,535,145) translate(126.50222222222222 31.586666666666666)"/><use xlink:href="#c" transform="matrix(1,0,0,1,535,145) translate(161.7911111111111 31.586666666666666)"/><use xlink:href="#b" transform="matrix(1,0,0,1,535,145) translate(176.88444444444445 31.586666666666666)"/><use xlink:href="#d" transform="matrix(1,0,0,1,535,145) translate(212.17333333333335 31.586666666666666)"/><use xlink:href="#e" transform="matrix(1,0,0,1,535,145) translate(233.02666666666667 31.586666666666666)"/><path d="M500 410h340L670 200z" stroke="#000" stroke-width="2" fill="#fff"/><path d="M691 260c0 11.05-8.95 20-20 20s-20-8.95-20-20 8.95-20 20-20 20 8.95 20 20z" stroke="#000" stroke-width="2" fill="#fff"/><path d="M724.78 293.33l-40.97-17.2" stroke="#000" stroke-width="2" fill="none"/><path d="M727.93 293.57l-.06.15-3.1-.4.4-.9zM684.2 275.2l-.77 1.85-1.26-.52 1.73-1.45z"/><path d="M617.67 293.33l38.72-18.8" stroke="#000" stroke-width="2" fill="none"/><path d="M617.67 293.33l-1.44.05-1.62.32 2.63-1.27zM657.37 274.64l.45.32-1 .48-.87-1.8.42-.2z"/><path d="M744.78 313.33c0 11.05-8.96 20-20 20-11.05 0-20-8.95-20-20 0-11.04 8.95-20 20-20 11.04 0 20 8.96 20 20zM718.1 380c0 11.05-8.94 20-20 20-11.03 0-20-8.95-20-20s8.97-20 20-20c11.06 0 20 8.95 20 20z" stroke="#000" stroke-width="2" fill="#fff"/><path d="M695.06 359.63l16.6-30.37" stroke="#000" stroke-width="2" fill="none"/><path d="M695.94 360.1l-.06.1-2.55.5.85-1.55zM712.84 329.2l-.3.54-1.76-.96.43-.77z"/><path d="M751.44 360l-12.4-31.74" stroke="#000" stroke-width="2" fill="none"/><path d="M752.57 360.14l-1.13-.14.94-.36zM739.96 327.9l-1.87.72-.17-.42 1.48-1.24.13-.16z"/><path d="M771.44 380c0 11.05-8.95 20-20 20-11.04 0-20-8.95-20-20s8.96-20 20-20c11.05 0 20 8.95 20 20z" stroke="#000" stroke-width="2" fill="#f9d2de"/><path d="M637.67 313.33c0 11.05-8.96 20-20 20-11.05 0-20-8.95-20-20 0-11.04 8.95-20 20-20 11.04 0 20 8.96 20 20z" stroke="#000" stroke-width="2" fill="#fff"/><path d="M611 380c0 11.05-8.95 20-20 20s-20-8.95-20-20 8.95-20 20-20 20 8.95 20 20z" stroke="#000" stroke-width="2" fill="#c1e4f7"/><path d="M587.95 359.63l16.6-30.37" stroke="#000" stroke-width="2" fill="none"/><path d="M588.83 360.1l-.06.1-2.55.5.85-1.55zM605.73 329.2l-.3.54-1.76-.96.42-.77z"/><path d="M644.33 360l-12.42-31.74" stroke="#000" stroke-width="2" fill="none"/><path d="M645.46 360.14l-1.13-.14.93-.36zM632.85 327.9l-1.87.72-.16-.42 1.48-1.24.12-.16z"/><path d="M664.33 380c0 11.05-8.95 20-20 20-11.04 0-20-8.95-20-20s8.96-20 20-20c11.05 0 20 8.95 20 20z" stroke="#000" stroke-width="2" fill="#fff"/><defs><path d="M480-433c87 3 153 44 143 142C607-123 486-34 346 11 211 55 46 26 46-120c0-40 65-72 88-32 25 42 40 94 112 88 119-10 209-60 257-143 23-39 41-132-32-128-105 6-179 59-280 59-78 0-132-37-122-121 15-131 114-208 221-254 92-40 227-25 274 37 24 31 8 80-30 82-66 3-63-54-134-52-103 3-170 55-212 118-24 36-30 92 21 92 91 0 162-63 271-59" id="f"/><path d="M254-72c-30 8-82 15-89-17l23-289c33-89-91-94-97-3L70-84C51 77 266 15 354-26c-4 32 14 41 41 42 42 1 72-22 56-65l24-338c12-51 9-78-33-75-43 3-60 30-63 75l-18 260c-30 21-67 44-107 55" id="g"/><path d="M393-459c146-8 146 177 91 275C422-74 333 27 158 16l-15 208c-2 44-18 57-57 65-41 8-39-29-37-69C64 13 75-196 92-403c3-38 51-65 89-41 11 7 15 20 14 40 57-37 116-50 198-55zm-49 317c41-44 97-127 68-203-60-38-166 6-210 35-11 7-16 15-17 21L171-90c-1 20 13 24 33 24 58 0 107-40 140-76" id="h"/><path d="M219-412c99-54 263-26 248 106-6 57-62 81-112 104-62 28-146 48-218 66-5 48 10 94 65 90 94-7 136-72 207-98 34-13 67 0 57 43C435-41 354-7 282 18c-34 11-68 16-102 16C83 33 33-24 43-131c12-131 81-229 176-281zm101 138c24-14 78-40 42-74-39-37-110 1-139 24-31 25-59 61-72 105 67 5 123-28 169-55" id="i"/><path d="M124 12C75 22 65-15 68-58l23-329c-6-47 11-61 61-61 32 0 27 14 38 41 60-28 141-67 220-43 14 18 32 52 5 72-44 33-165 17-207 62-5 4-12 9-20 13L160-58c-7 43-5 63-36 70" id="j"/><g id="a"><use transform="matrix(0.017777777777777778,0,0,0.017777777777777778,0,0)" xlink:href="#f"/><use transform="matrix(0.017777777777777778,0,0,0.017777777777777778,11.217777777777778,0)" xlink:href="#g"/><use transform="matrix(0.017777777777777778,0,0,0.017777777777777778,20.284444444444443,0)" xlink:href="#h"/><use transform="matrix(0.017777777777777778,0,0,0.017777777777777778,29.68888888888889,0)" xlink:href="#i"/><use transform="matrix(0.017777777777777778,0,0,0.017777777777777778,38.02666666666668,0)" xlink:href="#j"/></g><path d="M216-52c-5 36-4 69 38 67 48-3 51-21 55-66l44-503c67-15 148-20 201-48 21-11 22-54 2-66-33-20-92 2-124 8-114 21-232 39-344 74-26 8-41 55-12 68 50 23 129-13 181-19" id="k"/><g id="b"><use transform="matrix(0.017777777777777778,0,0,0.017777777777777778,0,0)" xlink:href="#k"/><use transform="matrix(0.017777777777777778,0,0,0.017777777777777778,7.235555555555556,0)" xlink:href="#j"/><use transform="matrix(0.017777777777777778,0,0,0.017777777777777778,13.955555555555556,0)" xlink:href="#i"/><use transform="matrix(0.017777777777777778,0,0,0.017777777777777778,22.293333333333333,0)" xlink:href="#i"/></g><path d="M466-364c56 30 106-29 76-85-12-22-48-21-66-8H174c-53-32-104 31-75 85 11 21 50 22 66 8h301zm-15 198c53 26 107-33 77-85-11-18-51-22-67-8H156c-53-29-106 36-74 87 15 24 40 21 70 6h299" id="l"/><use transform="matrix(0.017777777777777778,0,0,0.017777777777777778,0,0)" xlink:href="#l" id="c"/><path d="M355-451c110 0 162 80 153 193C498-125 413-39 312 7c-36 15-72 23-111 23C93 29 36-35 44-144c9-131 86-228 184-278 37-19 80-29 127-29zM207-56c121 0 193-88 206-202 6-56-14-100-70-100-129 0-190 98-204 214-6 51 17 88 68 88" id="m"/><path d="M298-594c46 0 84 49 129 25 28-15 38-46 15-63-45-33-159-74-226-28-64 44-74 143-81 243-36 14-93 21-73 82 8 23 43 8 67 10L109-47c-26 79 112 78 96-4l20-292c61-15 137-16 182-47 20-30 4-82-46-63l-129 17c1-72-2-158 66-158" id="n"/><g id="d"><use transform="matrix(0.017777777777777778,0,0,0.017777777777777778,0,0)" xlink:href="#m"/><use transform="matrix(0.017777777777777778,0,0,0.017777777777777778,9.297777777777778,0)" xlink:href="#n"/></g><path d="M376-215c43 0 31 49 10 75-39 47-104 89-187 89-48 0-70-41-115-55-47-14-78 39-47 75 50 58 171 80 264 44 95-36 189-96 200-210 7-67-35-108-100-108-91 0-157 59-233 59-38 0-19-38-4-54 46-49 136-72 234-65 42 3 82-10 73-53-25-53-127-37-191-22-109 25-216 75-229 191-7 61 35 94 99 94 85 0 146-60 226-60" id="o"/><g id="e"><use transform="matrix(0.017777777777777778,0,0,0.017777777777777778,0,0)" xlink:href="#k"/><use transform="matrix(0.017777777777777778,0,0,0.017777777777777778,7.235555555555556,0)" xlink:href="#j"/><use transform="matrix(0.017777777777777778,0,0,0.017777777777777778,13.955555555555556,0)" xlink:href="#i"/><use transform="matrix(0.017777777777777778,0,0,0.017777777777777778,22.293333333333333,0)" xlink:href="#i"/><use transform="matrix(0.017777777777777778,0,0,0.017777777777777778,30.63111111111111,0)" xlink:href="#o"/></g></defs></g></svg>