<svg xmlns="http://www.w3.org/2000/svg" xmlns:xlink="http://www.w3.org/1999/xlink" xmlns:lucid="lucid" width="740" height="600"><g transform="translate(-380 3540)" lucid:page-tab-id="FB0U6LH9nC-X"><path d="M400-3440h700l-350 480z" stroke="#000" stroke-width="2" fill="#fff"/><path d="M931.2-3000h160v40h-160z" stroke="#000" stroke-opacity="0" stroke-width="2" fill="#fff" fill-opacity="0"/><use xlink:href="#a" transform="matrix(1,0,0,1,936.2,-2995) translate(17.769000000000005 21.668999999999997)"/><use xlink:href="#b" transform="matrix(1,0,0,1,936.2,-2995) translate(50.727000000000004 21.668999999999997)"/><path d="M931.2-3120h160v60h-160z" stroke="#000" stroke-opacity="0" stroke-width="2" fill="#fff" fill-opacity="0"/><use xlink:href="#c" transform="matrix(1,0,0,1,936.2,-3115) translate(2.522999999999996 20.86)"/><use xlink:href="#d" transform="matrix(1,0,0,1,936.2,-3115) translate(87.10499999999999 20.86)"/><use xlink:href="#e" transform="matrix(1,0,0,1,936.2,-3115) translate(99.07499999999999 20.86)"/><use xlink:href="#f" transform="matrix(1,0,0,1,936.2,-3115) translate(44.355000000000004 42.477999999999994)"/><path d="M931.2-3060h160v40.17h-160z" stroke="#000" stroke-opacity="0" stroke-width="2" fill="#fff" fill-opacity="0"/><use xlink:href="#g" transform="matrix(1,0,0,1,936.2,-3055) translate(12.090000000000003 22.168999999999997)"/><use xlink:href="#h" transform="matrix(1,0,0,1,936.2,-3055) translate(77.42999999999999 22.168999999999997)"/><path d="M670-3100h160v40H670z" stroke="#000" stroke-opacity="0" stroke-width="2" fill="#fff" fill-opacity="0"/><use xlink:href="#a" transform="matrix(1,0,0,1,675,-3095) translate(17.598000000000006 21.668999999999997)"/><use xlink:href="#i" transform="matrix(1,0,0,1,675,-3095) translate(50.556000000000004 21.668999999999997)"/><path d="M710-3316h80v60h-80z" stroke="#000" stroke-opacity="0" stroke-width="2" fill="#fff" fill-opacity="0"/><use xlink:href="#j" transform="matrix(1,0,0,1,715,-3310.985924517239) translate(13.427 31.668999999999997)"/><path d="M737.7-2975.17h24.6" stroke="#000" stroke-width="2" fill="none"/><path/><path/><path d="M931.2-2980" stroke="#000" stroke-width="2" fill="none"/><path/><path/><path d="M723.26-2994.97h53.48" stroke="#000" stroke-width="2" fill="none"/><path/><path/><path d="M706-3018.66h88" stroke="#000" stroke-width="2" fill="none"/><path/><path/><path d="M629.67-3123.33h240.66" stroke="#000" stroke-width="2" fill="none"/><path/><path/><path d="M660-3520h180v48.03H660z" stroke="#000" stroke-opacity="0" stroke-width="2" fill="#fff" fill-opacity="0"/><use xlink:href="#k" transform="matrix(1,0,0,1,665,-3515) translate(33.286 26.168999999999997)"/><use xlink:href="#l" transform="matrix(1,0,0,1,665,-3515) translate(68.656 26.168999999999997)"/><path d="M931.2-2985.33l-176.07 20" stroke="#c1e4f7" stroke-width="4" fill="none"/><path d="M931.2-2985.33l-.23-2 .23-.02zM755.35-2963.35l-2.98.34-.02-.22 2.6-3.58z" fill="#c1e4f7"/><path d="M931.2-3090l-146.7 84.4" stroke="#c1e4f7" stroke-width="4" fill="none"/><path d="M931.2-3090l-1-1.73 1-.58z" fill="#c1e4f7"/><path d="M931.2-3039.92l-159.83 52.3" stroke="#c1e4f7" stroke-width="4" fill="none"/><path d="M931.2-3039.92l-.62-1.9.62-.2z" fill="#c1e4f7"/><defs><path d="M149-147c-5-95-11-196-19-285-3-35-68-31-79-6C35-320 71-157 71-32c0 49 64 71 91 30 44-67 87-163 126-243 20 91 48 182 78 260 10 14 51 16 66 1 20-21 30-60 44-88l138-286c25-44 41-72-11-92-60-23-66 45-87 86-38 73-62 161-102 228-21-87-47-190-68-276-12-24-53-18-66 4-46 79-88 178-131 261" id="m"/><path d="M219-412c99-54 263-26 248 106-6 57-62 81-112 104-62 28-146 48-218 66-5 48 10 94 65 90 94-7 136-72 207-98 34-13 67 0 57 43C435-41 354-7 282 18c-34 11-68 16-102 16C83 33 33-24 43-131c12-131 81-229 176-281zm101 138c24-14 78-40 42-74-39-37-110 1-139 24-31 25-59 61-72 105 67 5 123-28 169-55" id="n"/><path d="M207-595c2-41-4-67-47-67-50 0-56 43-59 90L65-61c0 47-2 92 42 92 154 0 250-104 323-199 42-54 89-132 66-218-10-38-55-51-107-51-85 2-150 26-204 68zm161 245c19-1 42 1 38 22-18 96-91 166-158 220-28 22-56 37-85 46l13-188c38-57 102-94 192-100" id="o"/><g id="a"><use transform="matrix(0.018,0,0,0.018,0,0)" xlink:href="#m"/><use transform="matrix(0.018,0,0,0.018,10.799999999999999,0)" xlink:href="#n"/><use transform="matrix(0.018,0,0,0.018,19.241999999999997,0)" xlink:href="#o"/></g><path d="M376-215c43 0 31 49 10 75-39 47-104 89-187 89-48 0-70-41-115-55-47-14-78 39-47 75 50 58 171 80 264 44 95-36 189-96 200-210 7-67-35-108-100-108-91 0-157 59-233 59-38 0-19-38-4-54 46-49 136-72 234-65 42 3 82-10 73-53-25-53-127-37-191-22-109 25-216 75-229 191-7 61 35 94 99 94 85 0 146-60 226-60" id="p"/><path d="M294-7c-52 29-182 61-175-39l22-313c-29 11-104 9-94-22-2-51 54-54 100-61 1-69 2-169 83-132 25 20 10 79 10 117 49-6 105-16 153-21 33-3 36 52 17 67-34 27-121 29-176 39L215-96c-3 27 40 15 48 4 21-29 77-60 113-24 8 8 12 20 11 35-23 31-56 53-93 74" id="q"/><path d="M414 18c44 0 51-25 54-67l20-294c15-129-122-120-228-97-56 12-101 41-148 64-16 8-27 55-6 61 51 14 87-22 132-33 39-9 72-27 121-28 19 0 38 3 37 23l-4 55C217-288 63-254 27-107 26-36 64 31 131 31c99 0 173-43 244-71-7 36-4 58 39 58zm-23-168c-50 42-119 78-192 101-76 24-118-61-60-101 61-42 156-67 248-79" id="r"/><path d="M387-452c45 0 79 27 79 73 0 109-16 218-23 327 13 58-52 84-87 52-7-7-8-24-7-49l20-277c5-41-49-23-78-16-38 9-78 28-106 53L160-48c13 58-94 91-94 20 0-134 25-233 25-362 0-45 36-68 83-64 18 6 9 33 16 56 60-17 127-54 197-54" id="s"/><path d="M388-422c20 0 30 1 42 13 8-77 2-166 23-231 12-35 104-26 87 24-19 183-20 382-41 563 7 55-16 77-72 68-22-3-19-26-24-50-23-2-30 15-55 25-49 19-106 33-188 32C85 5 25-63 46-159c34-151 150-260 342-263zM212-58c128-24 227-88 213-245 5-46-58-33-96-28-94 13-148 71-186 149-27 55 3 136 69 124" id="t"/><path d="M124 12C75 22 65-15 68-58l23-329c-6-47 11-61 61-61 32 0 27 14 38 41 60-28 141-67 220-43 14 18 32 52 5 72-44 33-165 17-207 62-5 4-12 9-20 13L160-58c-7 43-5 63-36 70" id="u"/><g id="b"><use transform="matrix(0.018,0,0,0.018,0,0)" xlink:href="#p"/><use transform="matrix(0.018,0,0,0.018,9.36,0)" xlink:href="#q"/><use transform="matrix(0.018,0,0,0.018,17.208,0)" xlink:href="#r"/><use transform="matrix(0.018,0,0,0.018,26.712,0)" xlink:href="#s"/><use transform="matrix(0.018,0,0,0.018,35.748,0)" xlink:href="#t"/><use transform="matrix(0.018,0,0,0.018,45.791999999999994,0)" xlink:href="#r"/><use transform="matrix(0.018,0,0,0.018,55.29599999999999,0)" xlink:href="#u"/><use transform="matrix(0.018,0,0,0.018,62.099999999999994,0)" xlink:href="#t"/><use transform="matrix(0.018,0,0,0.018,72.14399999999999,0)" xlink:href="#p"/></g><path d="M298-594c46 0 84 49 129 25 28-15 38-46 15-63-45-33-159-74-226-28-64 44-74 143-81 243-36 14-93 21-73 82 8 23 43 8 67 10L109-47c-26 79 112 78 96-4l20-292c61-15 137-16 182-47 20-30 4-82-46-63l-129 17c1-72-2-158 66-158" id="v"/><path d="M592-345c22-5 29-9 28 12L601-49c2 36 9 55 39 61 29 5 50-17 54-69l23-323c2-63-55-101-114-68-51 28-89 43-150 73-2-25 0-74-14-79-78-28-136 34-195 62-23 10-43 22-63 31 5-36 11-77-33-75-38 1-54 17-57 55L68-58C58-11 86 20 131 8c22-6 26-35 29-63l25-202c46-33 103-70 162-89 9 0 7 5 6 13L333-58c0 52 3 66 47 72 36 5 44-37 47-72l18-205c35-40 90-67 147-82" id="w"/><path d="M355-451c110 0 162 80 153 193C498-125 413-39 312 7c-36 15-72 23-111 23C93 29 36-35 44-144c9-131 86-228 184-278 37-19 80-29 127-29zM207-56c121 0 193-88 206-202 6-56-14-100-70-100-129 0-190 98-204 214-6 51 17 88 68 88" id="x"/><path d="M86 8c44 22 86-11 77-63l13-144c47 62 97 122 144 185 15 20 40 48 74 32 28-13 27-58 3-79L255-251c56-44 111-95 171-135 7-6 11-14 12-25l1 1c-3-27-18-64-49-49-78 38-137 102-204 153 6-107 8-216 16-322 4-51-82-44-93-10C90-447 68-234 68-32c0 17 7 32 18 40" id="y"/><g id="c"><use transform="matrix(0.018,0,0,0.018,0,0)" xlink:href="#v"/><use transform="matrix(0.018,0,0,0.018,6.983999999999999,0)" xlink:href="#u"/><use transform="matrix(0.018,0,0,0.018,13.787999999999998,0)" xlink:href="#r"/><use transform="matrix(0.018,0,0,0.018,23.291999999999998,0)" xlink:href="#w"/><use transform="matrix(0.018,0,0,0.018,36.846,0)" xlink:href="#n"/><use transform="matrix(0.018,0,0,0.018,45.288,0)" xlink:href="#m"/><use transform="matrix(0.018,0,0,0.018,56.087999999999994,0)" xlink:href="#x"/><use transform="matrix(0.018,0,0,0.018,65.502,0)" xlink:href="#u"/><use transform="matrix(0.018,0,0,0.018,72.306,0)" xlink:href="#y"/></g><path d="M143-2c88-191 189-387 257-598 9-29 6-64-28-63-76 3-74 59-98 115C202-378 134-198 60-31c-23 51 27 83 64 53 8-6 15-14 19-24" id="z"/><use transform="matrix(0.018,0,0,0.018,0,0)" xlink:href="#z" id="d"/><path d="M163-57c18-185 16-376 41-559 8-62-68-66-86-22-6 15-9 35-11 55L68-52c-2 37 13 69 47 67 41-2 44-34 48-72" id="A"/><path d="M123-498c77 32 120-75 87-136-18-21-76-16-94 7-23 17-37 86-10 113 5 6 10 13 17 16zm35 466c14-117 12-250 30-368 9-59-74-59-92-24-11 21-9 48-11 80-6 111-17 224-17 334 0 32 72 34 82 4 3-8 6-16 8-26" id="B"/><path d="M258 129c80-168 142-347 216-521 22-51-50-63-78-40-7 6-13 18-18 31L267-114c-48-103-96-207-145-310-19-25-73-5-80 19-4 14-4 31 6 53L216-1c-19 41-28 93-61 121-38 32-172-44-146 85 37 23 129 21 173 2 35-15 60-44 76-78" id="C"/><g id="e"><use transform="matrix(0.018,0,0,0.018,0,0)" xlink:href="#A"/><use transform="matrix(0.018,0,0,0.018,3.9959999999999996,0)" xlink:href="#B"/><use transform="matrix(0.018,0,0,0.018,7.991999999999999,0)" xlink:href="#o"/><use transform="matrix(0.018,0,0,0.018,16.991999999999997,0)" xlink:href="#u"/><use transform="matrix(0.018,0,0,0.018,23.795999999999996,0)" xlink:href="#r"/><use transform="matrix(0.018,0,0,0.018,33.3,0)" xlink:href="#u"/><use transform="matrix(0.018,0,0,0.018,40.104,0)" xlink:href="#C"/></g><path d="M254-72c-30 8-82 15-89-17l23-289c33-89-91-94-97-3L70-84C51 77 266 15 354-26c-4 32 14 41 41 42 42 1 72-22 56-65l24-338c12-51 9-78-33-75-43 3-60 30-63 75l-18 260c-30 21-67 44-107 55" id="D"/><path d="M315-328c46-26 68 3 62 60L355-49c-9 52 42 87 77 55 9-8 16-26 18-53l20-275c5-79-5-118-74-118-90 0-156 50-216 91 5-90 16-180 17-273 12-48-45-53-69-32-24 22-24 70-26 114L67-46C55 6 109 37 144 2c12-11 16-27 18-48l13-182c43-35 90-73 140-100" id="E"/><g id="f"><use transform="matrix(0.018,0,0,0.018,0,0)" xlink:href="#r"/><use transform="matrix(0.018,0,0,0.018,9.504,0)" xlink:href="#D"/><use transform="matrix(0.018,0,0,0.018,18.683999999999997,0)" xlink:href="#q"/><use transform="matrix(0.018,0,0,0.018,26.531999999999996,0)" xlink:href="#E"/><use transform="matrix(0.018,0,0,0.018,35.711999999999996,0)" xlink:href="#x"/><use transform="matrix(0.018,0,0,0.018,45.126,0)" xlink:href="#u"/><use transform="matrix(0.018,0,0,0.018,51.92999999999999,0)" xlink:href="#p"/></g><g id="g"><use transform="matrix(0.018,0,0,0.018,0,0)" xlink:href="#o"/><use transform="matrix(0.018,0,0,0.018,9,0)" xlink:href="#u"/><use transform="matrix(0.018,0,0,0.018,15.803999999999998,0)" xlink:href="#x"/><use transform="matrix(0.018,0,0,0.018,25.217999999999996,0)" xlink:href="#m"/><use transform="matrix(0.018,0,0,0.018,36.017999999999994,0)" xlink:href="#p"/><use transform="matrix(0.018,0,0,0.018,45.378,0)" xlink:href="#n"/><use transform="matrix(0.018,0,0,0.018,53.81999999999999,0)" xlink:href="#u"/></g><path d="M428-436c10 60-30 104-56 152C320-187 257-92 201 0c-17 27-53 28-67-8C87-124 60-265 30-393c-10-41 28-58 72-51 31 16 33 87 41 126 10 48 28 117 34 177 47-85 104-182 154-263 20-33 22-44 67-46 15 0 25 4 30 14" id="F"/><g id="h"><use transform="matrix(0.018,0,0,0.018,0,0)" xlink:href="#F"/><use transform="matrix(0.018,0,0,0.018,7.379999999999999,0)" xlink:href="#n"/><use transform="matrix(0.018,0,0,0.018,15.822,0)" xlink:href="#s"/><use transform="matrix(0.018,0,0,0.018,24.857999999999997,0)" xlink:href="#t"/><use transform="matrix(0.018,0,0,0.018,34.901999999999994,0)" xlink:href="#x"/><use transform="matrix(0.018,0,0,0.018,44.315999999999995,0)" xlink:href="#u"/><use transform="matrix(0.018,0,0,0.018,51.12,0)" xlink:href="#p"/></g><path d="M393-459c146-8 146 177 91 275C422-74 333 27 158 16l-15 208c-2 44-18 57-57 65-41 8-39-29-37-69C64 13 75-196 92-403c3-38 51-65 89-41 11 7 15 20 14 40 57-37 116-50 198-55zm-49 317c41-44 97-127 68-203-60-38-166 6-210 35-11 7-16 15-17 21L171-90c-1 20 13 24 33 24 58 0 107-40 140-76" id="G"/><g id="i"><use transform="matrix(0.018,0,0,0.018,0,0)" xlink:href="#t"/><use transform="matrix(0.018,0,0,0.018,10.043999999999999,0)" xlink:href="#n"/><use transform="matrix(0.018,0,0,0.018,18.485999999999997,0)" xlink:href="#F"/><use transform="matrix(0.018,0,0,0.018,25.866,0)" xlink:href="#n"/><use transform="matrix(0.018,0,0,0.018,34.30799999999999,0)" xlink:href="#A"/><use transform="matrix(0.018,0,0,0.018,38.303999999999995,0)" xlink:href="#x"/><use transform="matrix(0.018,0,0,0.018,47.717999999999996,0)" xlink:href="#G"/><use transform="matrix(0.018,0,0,0.018,57.239999999999995,0)" xlink:href="#n"/><use transform="matrix(0.018,0,0,0.018,65.68199999999999,0)" xlink:href="#u"/><use transform="matrix(0.018,0,0,0.018,72.48599999999999,0)" xlink:href="#p"/></g><g id="j"><use transform="matrix(0.018,0,0,0.018,0,0)" xlink:href="#D"/><use transform="matrix(0.018,0,0,0.018,9.18,0)" xlink:href="#p"/><use transform="matrix(0.018,0,0,0.018,18.54,0)" xlink:href="#n"/><use transform="matrix(0.018,0,0,0.018,26.982,0)" xlink:href="#u"/><use transform="matrix(0.018,0,0,0.018,33.786,0)" xlink:href="#p"/></g><path d="M149-612c-7-60-107-53-103 14 11 199 43 364 60 546-11 66 64 91 94 35 64-118 130-254 184-384 21 121 54 257 87 363 19 30 17 60 58 60 60 0 61-70 85-127 69-163 148-341 195-519 13-49-63-66-82-26-69 142-135 321-195 480-27-136-56-285-85-418 0-33-34-55-61-27-69 128-123 292-190 424-18-137-31-280-47-421" id="H"/><g id="k"><use transform="matrix(0.018,0,0,0.018,0,0)" xlink:href="#H"/><use transform="matrix(0.018,0,0,0.018,13.212,0)" xlink:href="#n"/><use transform="matrix(0.018,0,0,0.018,21.654,0)" xlink:href="#o"/></g><path d="M431-358c76-48 174-119 139-236-13-44-58-61-116-61-115-2-203 13-286 28-73 13-60 116-68 191C85-302 85-169 67-38c-8 62 67 64 90 24 7-12 11-28 7-44l18-208c86-15 182-50 249-92zm47-196c14 62-57 100-102 128-50 31-123 58-186 71l11-188c73-18 176-30 263-20 6 2 11 5 14 9" id="I"/><g id="l"><use transform="matrix(0.018,0,0,0.018,0,0)" xlink:href="#I"/><use transform="matrix(0.018,0,0,0.018,9.953999999999999,0)" xlink:href="#A"/><use transform="matrix(0.018,0,0,0.018,13.95,0)" xlink:href="#r"/><use transform="matrix(0.018,0,0,0.018,23.454,0)" xlink:href="#q"/><use transform="matrix(0.018,0,0,0.018,31.301999999999996,0)" xlink:href="#v"/><use transform="matrix(0.018,0,0,0.018,38.28600000000001,0)" xlink:href="#x"/><use transform="matrix(0.018,0,0,0.018,47.7,0)" xlink:href="#u"/><use transform="matrix(0.018,0,0,0.018,54.504000000000005,0)" xlink:href="#w"/></g></defs></g></svg>