<svg xmlns="http://www.w3.org/2000/svg" xmlns:xlink="http://www.w3.org/1999/xlink" xmlns:lucid="lucid" width="470" height="280"><g transform="translate(-120 -20)" lucid:page-tab-id="bq0UAOd_L8Wr"><path d="M290 130c0 16.57-13.43 30-30 30s-30-13.43-30-30 13.43-30 30-30 30 13.43 30 30z" stroke="#000" stroke-width="2" fill="#fff"/><path d="M310 150c0 16.57-13.43 30-30 30s-30-13.43-30-30 13.43-30 30-30 30 13.43 30 30z" stroke="#000" stroke-width="2" fill="#fff"/><path d="M330 170c0 16.57-13.43 30-30 30s-30-13.43-30-30 13.43-30 30-30 30 13.43 30 30z" stroke="#000" stroke-width="2" fill="#fff"/><path d="M350 190c0 16.57-13.43 30-30 30s-30-13.43-30-30 13.43-30 30-30 30 13.43 30 30z" stroke="#000" stroke-width="2" fill="#fff"/><path d="M370 210c0 16.57-13.43 30-30 30s-30-13.43-30-30 13.43-30 30-30 30 13.43 30 30z" stroke="#000" stroke-width="2" fill="#fff"/><path d="M390 230c0 16.57-13.43 30-30 30s-30-13.43-30-30 13.43-30 30-30 30 13.43 30 30z" stroke="#000" stroke-width="2" fill="#fff"/><path d="M410 250c0 16.57-13.43 30-30 30s-30-13.43-30-30 13.43-30 30-30 30 13.43 30 30zM370 130c0 16.57-13.43 30-30 30s-30-13.43-30-30 13.43-30 30-30 30 13.43 30 30z" stroke="#000" stroke-width="2" fill="#fff"/><path d="M390 150c0 16.57-13.43 30-30 30s-30-13.43-30-30 13.43-30 30-30 30 13.43 30 30z" stroke="#000" stroke-width="2" fill="#fff"/><path d="M410 170c0 16.57-13.43 30-30 30s-30-13.43-30-30 13.43-30 30-30 30 13.43 30 30z" stroke="#000" stroke-width="2" fill="#fff"/><path d="M430 190c0 16.57-13.43 30-30 30s-30-13.43-30-30 13.43-30 30-30 30 13.43 30 30z" stroke="#000" stroke-width="2" fill="#fff"/><path d="M450 210c0 16.57-13.43 30-30 30s-30-13.43-30-30 13.43-30 30-30 30 13.43 30 30z" stroke="#000" stroke-width="2" fill="#fff"/><path d="M470 230c0 16.57-13.43 30-30 30s-30-13.43-30-30 13.43-30 30-30 30 13.43 30 30z" stroke="#000" stroke-width="2" fill="#fff"/><path d="M490 250c0 16.57-13.43 30-30 30s-30-13.43-30-30 13.43-30 30-30 30 13.43 30 30zM210 130c0 16.57-13.43 30-30 30s-30-13.43-30-30 13.43-30 30-30 30 13.43 30 30z" stroke="#000" stroke-width="2" fill="#fff"/><path d="M230 150c0 16.57-13.43 30-30 30s-30-13.43-30-30 13.43-30 30-30 30 13.43 30 30z" stroke="#000" stroke-width="2" fill="#fff"/><path d="M250 170c0 16.57-13.43 30-30 30s-30-13.43-30-30 13.43-30 30-30 30 13.43 30 30z" stroke="#000" stroke-width="2" fill="#fff"/><path d="M270 190c0 16.57-13.43 30-30 30s-30-13.43-30-30 13.43-30 30-30 30 13.43 30 30z" stroke="#000" stroke-width="2" fill="#fff"/><path d="M290 210c0 16.57-13.43 30-30 30s-30-13.43-30-30 13.43-30 30-30 30 13.43 30 30z" stroke="#000" stroke-width="2" fill="#fff"/><path d="M310 230c0 16.57-13.43 30-30 30s-30-13.43-30-30 13.43-30 30-30 30 13.43 30 30z" stroke="#000" stroke-width="2" fill="#fff"/><path d="M330 250c0 16.57-13.43 30-30 30s-30-13.43-30-30 13.43-30 30-30 30 13.43 30 30zM450 130c0 16.57-13.43 30-30 30s-30-13.43-30-30 13.43-30 30-30 30 13.43 30 30z" stroke="#000" stroke-width="2" fill="#fff"/><path d="M470 150c0 16.57-13.43 30-30 30s-30-13.43-30-30 13.43-30 30-30 30 13.43 30 30z" stroke="#000" stroke-width="2" fill="#fff"/><path d="M490 170c0 16.57-13.43 30-30 30s-30-13.43-30-30 13.43-30 30-30 30 13.43 30 30z" stroke="#000" stroke-width="2" fill="#fff"/><path d="M510 190c0 16.57-13.43 30-30 30s-30-13.43-30-30 13.43-30 30-30 30 13.43 30 30z" stroke="#000" stroke-width="2" fill="#fff"/><path d="M530 210c0 16.57-13.43 30-30 30s-30-13.43-30-30 13.43-30 30-30 30 13.43 30 30z" stroke="#000" stroke-width="2" fill="#fff"/><path d="M550 230c0 16.57-13.43 30-30 30s-30-13.43-30-30 13.43-30 30-30 30 13.43 30 30z" stroke="#000" stroke-width="2" fill="#fff"/><path d="M570 250c0 16.57-13.43 30-30 30s-30-13.43-30-30 13.43-30 30-30 30 13.43 30 30z" stroke="#000" stroke-width="2" fill="#fff"/><path d="M140 40h70v60h-70z" stroke="#000" stroke-opacity="0" stroke-width="2" fill="#fff" fill-opacity="0"/><use xlink:href="#a" transform="matrix(1,0,0,1,145,45) translate(-0.17777777777778425 33.233333333333334)"/><path d="M500 100h70v60h-70z" stroke="#000" stroke-opacity="0" stroke-width="2" fill="#fff" fill-opacity="0"/><use xlink:href="#a" transform="matrix(1,0,0,1,505,105) translate(-0.17777777777778425 33.233333333333334)"/><path d="M160 200h70v60h-70z" stroke="#000" stroke-opacity="0" stroke-width="2" fill="#fff" fill-opacity="0"/><use xlink:href="#a" transform="matrix(1,0,0,1,165,205) translate(-0.17777777777778425 33.233333333333334)"/><defs><path d="M316-355c-84-2-156 12-236 3-37-4-32-68-3-78 14-5 30-5 50-5 101-1 206-6 303-5 29 0 36 36 22 60-95 99-185 206-277 308 78 0 159 4 233-2 37-3 41 36 28 59-11 21-59 36-92 22-94 2-194-1-284 7-43 4-50-43-22-64 13-10 29-23 46-42" id="b"/><path d="M414 18c44 0 51-25 54-67l20-294c15-129-122-120-228-97-56 12-101 41-148 64-16 8-27 55-6 61 51 14 87-22 132-33 39-9 72-27 121-28 19 0 38 3 37 23l-4 55C217-288 63-254 27-107 26-36 64 31 131 31c99 0 173-43 244-71-7 36-4 58 39 58zm-23-168c-50 42-119 78-192 101-76 24-118-61-60-101 61-42 156-67 248-79" id="c"/><path d="M149-147c-5-95-11-196-19-285-3-35-68-31-79-6C35-320 71-157 71-32c0 49 64 71 91 30 44-67 87-163 126-243 20 91 48 182 78 260 10 14 51 16 66 1 20-21 30-60 44-88l138-286c25-44 41-72-11-92-60-23-66 45-87 86-38 73-62 161-102 228-21-87-47-190-68-276-12-24-53-18-66 4-46 79-88 178-131 261" id="d"/><path d="M44-8C91 47 175 2 172-64c21-80-74-98-118-50C24-94 17-40 44-8" id="e"/><g id="a"><use transform="matrix(0.022222222222222223,0,0,0.022222222222222223,0,0)" xlink:href="#b"/><use transform="matrix(0.022222222222222223,0,0,0.022222222222222223,10.28888888888889,0)" xlink:href="#c"/><use transform="matrix(0.022222222222222223,0,0,0.022222222222222223,22.022222222222226,0)" xlink:href="#d"/><use transform="matrix(0.022222222222222223,0,0,0.022222222222222223,35.35555555555556,0)" xlink:href="#c"/><use transform="matrix(0.022222222222222223,0,0,0.022222222222222223,47.08888888888889,0)" xlink:href="#e"/><use transform="matrix(0.022222222222222223,0,0,0.022222222222222223,51.51111111111112,0)" xlink:href="#e"/><use transform="matrix(0.022222222222222223,0,0,0.022222222222222223,55.933333333333344,0)" xlink:href="#e"/></g></defs></g></svg>