<svg xmlns="http://www.w3.org/2000/svg" xmlns:xlink="http://www.w3.org/1999/xlink" xmlns:lucid="lucid" width="693" height="491"><g transform="translate(-180 0)" lucid:page-tab-id="bPMUUDpr~LFQ"><path d="M200 100h120v40H200z" stroke="#000" stroke-width="2" fill="#fff"/><use xlink:href="#a" transform="matrix(1,0,0,1,200,100) translate(42.422777777777775 27.262222222222224)"/><path d="M260 140v340" fill="none"/><path d="M260 140v10.3m0 10.3v20.6m0 10.32v20.6m0 10.3v20.6m0 10.3v20.62m0 10.3v20.6m0 10.3v20.62m0 10.3v20.6m0 10.3v20.62m0 10.3v20.6m0 10.3v20.6m0 10.32V480" stroke="#000" stroke-width="2" fill="none"/><path/><path d="M360 100h150v40H360z" stroke="#000" stroke-width="2" fill="#fff"/><use xlink:href="#b" transform="matrix(1,0,0,1,360,100) translate(22.21388888888888 27.262222222222224)"/><path d="M435 140v170h5v170" fill="none"/><path d="M435 140v9.58m0 9.6v19.15m0 9.6v19.15m0 9.6v19.15m0 9.6v19.15m0 9.6v19.15m0 9.6V310h5v7.08m0 9.6v19.15m0 9.6v19.15m0 9.6v19.15m0 9.6v19.15m0 9.6v19.15m0 9.6V480" stroke="#000" stroke-width="2" fill="none"/><path/><path d="M693 100h160v40H693z" stroke="#000" stroke-width="2" fill="#fff"/><use xlink:href="#c" transform="matrix(1,0,0,1,693,100) translate(20.751666666666658 27.262222222222224)"/><path d="M773 140v340" fill="none"/><path d="M773 140v10.3m0 10.3v20.6m0 10.32v20.6m0 10.3v20.6m0 10.3v20.62m0 10.3v20.6m0 10.3v20.62m0 10.3v20.6m0 10.3v20.62m0 10.3v20.6m0 10.3v20.6m0 10.32V480" stroke="#000" stroke-width="2" fill="none"/><path/><path d="M260 238.57h155" stroke="#000" stroke-width="2" fill="none"/><path d="M415 238.57l-14.27 4.64v-9.26z"/><path d="M415 237.52v2.1l-15.27 4.96v-12.02zm-13.27 4.3l10.03-3.25-10.03-3.26z"/><use xlink:href="#d" transform="matrix(1,0,0,1,286.948888888889,213.22031746031746) translate(0.005000000000002558 17.262222222222224)"/><use xlink:href="#e" transform="matrix(1,0,0,1,286.948888888889,213.22031746031746) translate(37.302777777777784 17.262222222222224)"/><path d="M440 378.1h312" stroke="#000" stroke-width="2" fill="none"/><path d="M752 378.1l-14.27 4.63v-9.27z"/><path d="M753 377.37v1.45l-16.27 5.28v-12.02zm-14.27 3.98l10.03-3.26-10.03-3.27z"/><use xlink:href="#f" transform="matrix(1,0,0,1,515.2729326645041,352.7411965811966) translate(0.004999999999999893 17.262222222222224)"/><path d="M753 416H456" fill="none"/><path d="M753 416h-9.9m-9.9 0h-19.8m-9.9 0h-19.8m-9.9 0H654m-9.9 0h-19.8m-9.9 0h-19.8m-9.9 0h-19.8m-9.9 0h-19.8m-9.9 0h-19.8m-9.9 0h-19.8m-9.9 0H456" stroke="#000" stroke-width="2" fill="none"/><path/><path d="M470.27 420.64L456 416l14.27-4.64z"/><path d="M471.27 422L455 416.74v-1.46l16.27-5.28zm-12.03-6l10.03 3.26v-6.52z"/><use xlink:href="#g" transform="matrix(1,0,0,1,633.0846972721224,390.6488888888889) translate(0.004999999999999005 17.262222222222224)"/><path d="M414 423.5H260" fill="none"/><path d="M414 423.5h-10.27m-10.26 0h-20.54m-10.26 0h-20.54m-10.26 0h-20.54m-10.26 0h-20.54m-10.26 0H260" stroke="#000" stroke-width="2" fill="none"/><path d="M415 424.5h-1v-2h1z"/><path d="M260 423.5l14.27-4.64v9.28z" stroke="#000" stroke-width="2"/><use xlink:href="#g" transform="matrix(1,0,0,1,307.4888888888889,398.1488888888889) translate(0.004999999999999005 17.262222222222224)"/><path d="M415 180h40v260h-40zM753 360h40v80h-40zM522.5 100h165v40h-165z" stroke="#000" stroke-width="2" fill="#fff"/><use xlink:href="#h" transform="matrix(1,0,0,1,522.5,100) translate(24.318333333333328 27.262222222222224)"/><use xlink:href="#i" transform="matrix(1,0,0,1,522.5,100) translate(92.78055555555557 27.262222222222224)"/><path d="M605 140.4v337.1" fill="none"/><path d="M605 140.4v10.22m0 10.2v20.44m0 10.22v20.43m0 10.22v20.43m0 10.22v20.43m0 10.2v20.44m0 10.22v20.43m0 10.2v20.43m0 10.22v20.43m0 10.2v20.44m0 10.22v20.43m0 10.2v10.23" stroke="#000" stroke-width="2" fill="none"/><path d="M606 140.4h-2v-.4h2z"/><path d="M585 240h40v100h-40z" stroke="#000" stroke-width="2" fill="#fff"/><path d="M456 269.33h129" stroke="#000" stroke-width="2" fill="none"/><path d="M456 270.33h-1v-2h1zM585 269.33l-14.27 4.64v-9.27z"/><path d="M585 268.28v2.1l-15.27 4.97v-12.03zm-13.27 4.3l10.03-3.25-10.03-3.26z"/><use xlink:href="#d" transform="matrix(1,0,0,1,469.94888888888886,243.98222222222222) translate(0.005000000000002558 17.262222222222224)"/><use xlink:href="#e" transform="matrix(1,0,0,1,469.94888888888886,243.98222222222222) translate(37.302777777777784 17.262222222222224)"/><path d="M585 313.33H456" fill="none"/><path d="M585 313.33h-10.75m-10.75 0H542m-10.75 0h-21.5m-10.75 0h-21.5m-10.75 0H456" stroke="#000" stroke-width="2" fill="none"/><path/><path d="M470.27 317.97L456 313.33l14.27-4.63z"/><path d="M471.27 319.35l-16.27-5.3v-1.44l16.27-5.28zm-12.03-6.02l10.03 3.26v-6.53z"/><use xlink:href="#f" transform="matrix(1,0,0,1,513.5666666666667,287.9822222222222) translate(0.004999999999999893 17.262222222222224)"/><path d="M360 20h360v60H360z" stroke="#000" stroke-opacity="0" stroke-width="2" fill="#fff" fill-opacity="0"/><g><use xlink:href="#j" transform="matrix(1,0,0,1,365,25) translate(52.76888888888888 31.586666666666666)"/><use xlink:href="#k" transform="matrix(1,0,0,1,365,25) translate(121.07111111111111 31.586666666666666)"/><use xlink:href="#l" transform="matrix(1,0,0,1,365,25) translate(158.36888888888888 31.586666666666666)"/><use xlink:href="#m" transform="matrix(1,0,0,1,365,25) translate(226.8311111111111 31.586666666666666)"/></g><defs><path d="M212-603c10-57-85-70-92-15-21 164-30 338-46 505C57 79 368 48 470-32c43-33 87-78 93-139 15-140 21-287 39-424 5-32-6-58-41-58-44 0-49 30-54 73l-44 413C437-91 349-62 248-58c-37 1-83-18-79-55" id="n"/><path d="M376-215c43 0 31 49 10 75-39 47-104 89-187 89-48 0-70-41-115-55-47-14-78 39-47 75 50 58 171 80 264 44 95-36 189-96 200-210 7-67-35-108-100-108-91 0-157 59-233 59-38 0-19-38-4-54 46-49 136-72 234-65 42 3 82-10 73-53-25-53-127-37-191-22-109 25-216 75-229 191-7 61 35 94 99 94 85 0 146-60 226-60" id="o"/><path d="M219-412c99-54 263-26 248 106-6 57-62 81-112 104-62 28-146 48-218 66-5 48 10 94 65 90 94-7 136-72 207-98 34-13 67 0 57 43C435-41 354-7 282 18c-34 11-68 16-102 16C83 33 33-24 43-131c12-131 81-229 176-281zm101 138c24-14 78-40 42-74-39-37-110 1-139 24-31 25-59 61-72 105 67 5 123-28 169-55" id="p"/><path d="M124 12C75 22 65-15 68-58l23-329c-6-47 11-61 61-61 32 0 27 14 38 41 60-28 141-67 220-43 14 18 32 52 5 72-44 33-165 17-207 62-5 4-12 9-20 13L160-58c-7 43-5 63-36 70" id="q"/><g id="a"><use transform="matrix(0.017777777777777778,0,0,0.017777777777777778,0,0)" xlink:href="#n"/><use transform="matrix(0.017777777777777778,0,0,0.017777777777777778,10.862222222222222,0)" xlink:href="#o"/><use transform="matrix(0.017777777777777778,0,0,0.017777777777777778,20.106666666666666,0)" xlink:href="#p"/><use transform="matrix(0.017777777777777778,0,0,0.017777777777777778,28.444444444444443,0)" xlink:href="#q"/></g><path d="M170 17c91 0 157-29 209-72l-22 297c-8 89 94 45 135 22 34-19 75-41 75-86 0-67-76-8-109 0l39-573c-4-47-66-52-114-52-141 0-241 77-300 171C44-213 26-91 72-28c22 30 54 45 98 45zm17-91c-74 0-44-131-19-170 43-68 110-111 206-119 46-4 20 62 21 103 4 131-86 186-208 186" id="r"/><path d="M254-72c-30 8-82 15-89-17l23-289c33-89-91-94-97-3L70-84C51 77 266 15 354-26c-4 32 14 41 41 42 42 1 72-22 56-65l24-338c12-51 9-78-33-75-43 3-60 30-63 75l-18 260c-30 21-67 44-107 55" id="s"/><path d="M258 129c80-168 142-347 216-521 22-51-50-63-78-40-7 6-13 18-18 31L267-114c-48-103-96-207-145-310-19-25-73-5-80 19-4 14-4 31 6 53L216-1c-19 41-28 93-61 121-38 32-172-44-146 85 37 23 129 21 173 2 35-15 60-44 76-78" id="t"/><path d="M480-433c87 3 153 44 143 142C607-123 486-34 346 11 211 55 46 26 46-120c0-40 65-72 88-32 25 42 40 94 112 88 119-10 209-60 257-143 23-39 41-132-32-128-105 6-179 59-280 59-78 0-132-37-122-121 15-131 114-208 221-254 92-40 227-25 274 37 24 31 8 80-30 82-66 3-63-54-134-52-103 3-170 55-212 118-24 36-30 92 21 92 91 0 162-63 271-59" id="u"/><path d="M163-57c18-185 16-376 41-559 8-62-68-66-86-22-6 15-9 35-11 55L68-52c-2 37 13 69 47 67 41-2 44-34 48-72" id="v"/><path d="M187 30C86 30 37-38 44-140c9-132 83-229 176-282 85-48 240-30 261 49 11 42-48 56-82 35-28-29-107-33-145-6-64 46-121 125-114 234 5 80 124 50 168 20 34-24 59-51 76-86 11-23 89-29 88 6C437-52 341 30 187 30" id="w"/><path d="M294-7c-52 29-182 61-175-39l22-313c-29 11-104 9-94-22-2-51 54-54 100-61 1-69 2-169 83-132 25 20 10 79 10 117 49-6 105-16 153-21 33-3 36 52 17 67-34 27-121 29-176 39L215-96c-3 27 40 15 48 4 21-29 77-60 113-24 8 8 12 20 11 35-23 31-56 53-93 74" id="x"/><path d="M355-451c110 0 162 80 153 193C498-125 413-39 312 7c-36 15-72 23-111 23C93 29 36-35 44-144c9-131 86-228 184-278 37-19 80-29 127-29zM207-56c121 0 193-88 206-202 6-56-14-100-70-100-129 0-190 98-204 214-6 51 17 88 68 88" id="y"/><g id="b"><use transform="matrix(0.017777777777777778,0,0,0.017777777777777778,0,0)" xlink:href="#r"/><use transform="matrix(0.017777777777777778,0,0,0.017777777777777778,9.457777777777778,0)" xlink:href="#s"/><use transform="matrix(0.017777777777777778,0,0,0.017777777777777778,18.524444444444445,0)" xlink:href="#p"/><use transform="matrix(0.017777777777777778,0,0,0.017777777777777778,26.862222222222222,0)" xlink:href="#q"/><use transform="matrix(0.017777777777777778,0,0,0.017777777777777778,33.58222222222222,0)" xlink:href="#t"/><use transform="matrix(0.017777777777777778,0,0,0.017777777777777778,41.77777777777778,0)" xlink:href="#u"/><use transform="matrix(0.017777777777777778,0,0,0.017777777777777778,52.995555555555555,0)" xlink:href="#p"/><use transform="matrix(0.017777777777777778,0,0,0.017777777777777778,61.33333333333333,0)" xlink:href="#v"/><use transform="matrix(0.017777777777777778,0,0,0.017777777777777778,65.28,0)" xlink:href="#p"/><use transform="matrix(0.017777777777777778,0,0,0.017777777777777778,73.61777777777777,0)" xlink:href="#w"/><use transform="matrix(0.017777777777777778,0,0,0.017777777777777778,81.81333333333333,0)" xlink:href="#x"/><use transform="matrix(0.017777777777777778,0,0,0.017777777777777778,89.56444444444445,0)" xlink:href="#y"/><use transform="matrix(0.017777777777777778,0,0,0.017777777777777778,98.86222222222223,0)" xlink:href="#q"/></g><path d="M167 226c170 27 284-54 294-209 9-139 27-274 27-415 0-39-36-43-82-43-149 0-266 45-328 133-46 65-29 205-6 274 22 37 44 67 102 60 89-11 160-62 208-124-9 122-8 235-132 242-59 3-90-38-147-40-41-1-49 55-27 80 20 23 54 36 91 42zm-17-476c29-67 104-91 188-104 22-4 39-3 54 0 5 37 14 87-11 114-37 62-97 121-156 162-98 68-103-107-75-172" id="z"/><path d="M528-55c-1 36-32 41-71 44L144 12C62 28 67-37 75-107c18-152 21-333 29-477 3-66 102-44 174-47 76-3 165-11 246-11 44 0 39 80 4 84-99 13-217 14-322 22l-15 170c86-8 168-31 259-27 25 1 40 15 39 42-2 45-40 43-81 48l-225 25-17 202 291-25c46-1 73 3 71 46" id="A"/><path d="M592-345c22-5 29-9 28 12L601-49c2 36 9 55 39 61 29 5 50-17 54-69l23-323c2-63-55-101-114-68-51 28-89 43-150 73-2-25 0-74-14-79-78-28-136 34-195 62-23 10-43 22-63 31 5-36 11-77-33-75-38 1-54 17-57 55L68-58C58-11 86 20 131 8c22-6 26-35 29-63l25-202c46-33 103-70 162-89 9 0 7 5 6 13L333-58c0 52 3 66 47 72 36 5 44-37 47-72l18-205c35-40 90-67 147-82" id="B"/><path d="M387-452c45 0 79 27 79 73 0 109-16 218-23 327 13 58-52 84-87 52-7-7-8-24-7-49l20-277c5-41-49-23-78-16-38 9-78 28-106 53L160-48c13 58-94 91-94 20 0-134 25-233 25-362 0-45 36-68 83-64 18 6 9 33 16 56 60-17 127-54 197-54" id="C"/><path d="M440-424c100-3 177 49 165 139C584-127 436-64 300-15 239 7 166 22 93 22c-44 0-20-83-18-123 11-158 27-318 35-475 6-21 21-34 42-39 77-18 171-46 269-46 78 0 139 27 139 89 0 79-49 110-120 148zm21-129c2-18-31-21-48-21-84 0-154 20-208 53l-11 117c93-11 184-46 238-96 18-17 27-34 29-53zm49 264c0-56-77-56-135-56-69 0-126 14-188 28L165-70c117-19 235-66 303-136 25-25 42-53 42-83" id="D"/><path d="M181-653c-52 0-62 23-66 73L69-58C54-7 88 28 136 12c23-8 25-40 28-68 19-189 33-381 50-568-3-18-11-29-33-29" id="E"/><path d="M388-422c20 0 30 1 42 13 8-77 2-166 23-231 12-35 104-26 87 24-19 183-20 382-41 563 7 55-16 77-72 68-22-3-19-26-24-50-23-2-30 15-55 25-49 19-106 33-188 32C85 5 25-63 46-159c34-151 150-260 342-263zM212-58c128-24 227-88 213-245 5-46-58-33-96-28-94 13-148 71-186 149-27 55 3 136 69 124" id="F"/><g id="c"><use transform="matrix(0.017777777777777778,0,0,0.017777777777777778,0,0)" xlink:href="#z"/><use transform="matrix(0.017777777777777778,0,0,0.017777777777777778,9.333333333333334,0)" xlink:href="#p"/><use transform="matrix(0.017777777777777778,0,0,0.017777777777777778,17.67111111111111,0)" xlink:href="#x"/><use transform="matrix(0.017777777777777778,0,0,0.017777777777777778,25.42222222222222,0)" xlink:href="#A"/><use transform="matrix(0.017777777777777778,0,0,0.017777777777777778,34.86222222222222,0)" xlink:href="#v"/><use transform="matrix(0.017777777777777778,0,0,0.017777777777777778,38.80888888888889,0)" xlink:href="#p"/><use transform="matrix(0.017777777777777778,0,0,0.017777777777777778,47.14666666666666,0)" xlink:href="#B"/><use transform="matrix(0.017777777777777778,0,0,0.017777777777777778,60.53333333333333,0)" xlink:href="#p"/><use transform="matrix(0.017777777777777778,0,0,0.017777777777777778,68.8711111111111,0)" xlink:href="#C"/><use transform="matrix(0.017777777777777778,0,0,0.017777777777777778,77.79555555555555,0)" xlink:href="#x"/><use transform="matrix(0.017777777777777778,0,0,0.017777777777777778,85.54666666666667,0)" xlink:href="#D"/><use transform="matrix(0.017777777777777778,0,0,0.017777777777777778,96.44444444444444,0)" xlink:href="#t"/><use transform="matrix(0.017777777777777778,0,0,0.017777777777777778,104.64,0)" xlink:href="#E"/><use transform="matrix(0.017777777777777778,0,0,0.017777777777777778,108.58666666666667,0)" xlink:href="#F"/></g><path d="M533-514c-38-22-57-82-134-72-162 21-222 174-244 335-16 120 41 225 163 184 46-15 92-45 114-83 19-32 87-65 114-26 6 9 2 23-9 40C477-51 386 30 249 30 103 30 45-95 57-251c14-174 99-314 216-389 90-58 230-35 296 26 38 35 13 106-36 100" id="G"/><g id="d"><use transform="matrix(0.017777777777777778,0,0,0.017777777777777778,0,0)" xlink:href="#G"/><use transform="matrix(0.017777777777777778,0,0,0.017777777777777778,10.204444444444444,0)" xlink:href="#u"/><use transform="matrix(0.017777777777777778,0,0,0.017777777777777778,21.422222222222228,0)" xlink:href="#u"/></g><g id="e"><use transform="matrix(0.017777777777777778,0,0,0.017777777777777778,0,0)" xlink:href="#u"/><use transform="matrix(0.017777777777777778,0,0,0.017777777777777778,11.217777777777778,0)" xlink:href="#p"/><use transform="matrix(0.017777777777777778,0,0,0.017777777777777778,19.555555555555557,0)" xlink:href="#v"/><use transform="matrix(0.017777777777777778,0,0,0.017777777777777778,23.502222222222223,0)" xlink:href="#p"/><use transform="matrix(0.017777777777777778,0,0,0.017777777777777778,31.84,0)" xlink:href="#w"/><use transform="matrix(0.017777777777777778,0,0,0.017777777777777778,40.035555555555554,0)" xlink:href="#x"/><use transform="matrix(0.017777777777777778,0,0,0.017777777777777778,47.78666666666666,0)" xlink:href="#y"/><use transform="matrix(0.017777777777777778,0,0,0.017777777777777778,57.08444444444444,0)" xlink:href="#q"/></g><path d="M123-498c77 32 120-75 87-136-18-21-76-16-94 7-23 17-37 86-10 113 5 6 10 13 17 16zm35 466c14-117 12-250 30-368 9-59-74-59-92-24-11 21-9 48-11 80-6 111-17 224-17 334 0 32 72 34 82 4 3-8 6-16 8-26" id="H"/><g id="f"><use transform="matrix(0.017777777777777778,0,0,0.017777777777777778,0,0)" xlink:href="#H"/><use transform="matrix(0.017777777777777778,0,0,0.017777777777777778,3.9466666666666668,0)" xlink:href="#F"/></g><g id="g"><use transform="matrix(0.017777777777777778,0,0,0.017777777777777778,0,0)" xlink:href="#p"/><use transform="matrix(0.017777777777777778,0,0,0.017777777777777778,8.337777777777777,0)" xlink:href="#v"/><use transform="matrix(0.017777777777777778,0,0,0.017777777777777778,12.284444444444444,0)" xlink:href="#p"/><use transform="matrix(0.017777777777777778,0,0,0.017777777777777778,20.622222222222216,0)" xlink:href="#B"/><use transform="matrix(0.017777777777777778,0,0,0.017777777777777778,34.00888888888889,0)" xlink:href="#p"/><use transform="matrix(0.017777777777777778,0,0,0.017777777777777778,42.346666666666664,0)" xlink:href="#C"/><use transform="matrix(0.017777777777777778,0,0,0.017777777777777778,51.27111111111111,0)" xlink:href="#x"/></g><g id="h"><use transform="matrix(0.017777777777777778,0,0,0.017777777777777778,0,0)" xlink:href="#u"/><use transform="matrix(0.017777777777777778,0,0,0.017777777777777778,11.217777777777778,0)" xlink:href="#p"/><use transform="matrix(0.017777777777777778,0,0,0.017777777777777778,19.555555555555557,0)" xlink:href="#v"/><use transform="matrix(0.017777777777777778,0,0,0.017777777777777778,23.502222222222223,0)" xlink:href="#p"/><use transform="matrix(0.017777777777777778,0,0,0.017777777777777778,31.84,0)" xlink:href="#w"/><use transform="matrix(0.017777777777777778,0,0,0.017777777777777778,40.035555555555554,0)" xlink:href="#x"/><use transform="matrix(0.017777777777777778,0,0,0.017777777777777778,47.78666666666666,0)" xlink:href="#y"/><use transform="matrix(0.017777777777777778,0,0,0.017777777777777778,57.08444444444444,0)" xlink:href="#q"/></g><path d="M431-358c76-48 174-119 139-236-13-44-58-61-116-61-115-2-203 13-286 28-73 13-60 116-68 191C85-302 85-169 67-38c-8 62 67 64 90 24 7-12 11-28 7-44l18-208c86-15 182-50 249-92zm47-196c14 62-57 100-102 128-50 31-123 58-186 71l11-188c73-18 176-30 263-20 6 2 11 5 14 9" id="I"/><path d="M414 18c44 0 51-25 54-67l20-294c15-129-122-120-228-97-56 12-101 41-148 64-16 8-27 55-6 61 51 14 87-22 132-33 39-9 72-27 121-28 19 0 38 3 37 23l-4 55C217-288 63-254 27-107 26-36 64 31 131 31c99 0 173-43 244-71-7 36-4 58 39 58zm-23-168c-50 42-119 78-192 101-76 24-118-61-60-101 61-42 156-67 248-79" id="J"/><g id="i"><use transform="matrix(0.017777777777777778,0,0,0.017777777777777778,0,0)" xlink:href="#I"/><use transform="matrix(0.017777777777777778,0,0,0.017777777777777778,7.502222222222223,0)" xlink:href="#J"/><use transform="matrix(0.017777777777777778,0,0,0.017777777777777778,16.88888888888889,0)" xlink:href="#q"/><use transform="matrix(0.017777777777777778,0,0,0.017777777777777778,23.608888888888888,0)" xlink:href="#o"/><use transform="matrix(0.017777777777777778,0,0,0.017777777777777778,32.85333333333333,0)" xlink:href="#p"/><use transform="matrix(0.017777777777777778,0,0,0.017777777777777778,41.19111111111111,0)" xlink:href="#q"/></g><path d="M86 8c44 22 86-11 77-63l13-144c47 62 97 122 144 185 15 20 40 48 74 32 28-13 27-58 3-79L255-251c56-44 111-95 171-135 7-6 11-14 12-25l1 1c-3-27-18-64-49-49-78 38-137 102-204 153 6-107 8-216 16-322 4-51-82-44-93-10C90-447 68-234 68-32c0 17 7 32 18 40" id="K"/><path d="M393-459c146-8 146 177 91 275C422-74 333 27 158 16l-15 208c-2 44-18 57-57 65-41 8-39-29-37-69C64 13 75-196 92-403c3-38 51-65 89-41 11 7 15 20 14 40 57-37 116-50 198-55zm-49 317c41-44 97-127 68-203-60-38-166 6-210 35-11 7-16 15-17 21L171-90c-1 20 13 24 33 24 58 0 107-40 140-76" id="L"/><g id="j"><use transform="matrix(0.017777777777777778,0,0,0.017777777777777778,0,0)" xlink:href="#u"/><use transform="matrix(0.017777777777777778,0,0,0.017777777777777778,11.217777777777778,0)" xlink:href="#K"/><use transform="matrix(0.017777777777777778,0,0,0.017777777777777778,18.684444444444445,0)" xlink:href="#H"/><use transform="matrix(0.017777777777777778,0,0,0.017777777777777778,22.63111111111111,0)" xlink:href="#L"/><use transform="matrix(0.017777777777777778,0,0,0.017777777777777778,32.035555555555554,0)" xlink:href="#L"/><use transform="matrix(0.017777777777777778,0,0,0.017777777777777778,41.44,0)" xlink:href="#H"/><use transform="matrix(0.017777777777777778,0,0,0.017777777777777778,45.38666666666666,0)" xlink:href="#C"/><use transform="matrix(0.017777777777777778,0,0,0.017777777777777778,54.31111111111111,0)" xlink:href="#z"/></g><g id="k"><use transform="matrix(0.017777777777777778,0,0,0.017777777777777778,0,0)" xlink:href="#G"/><use transform="matrix(0.017777777777777778,0,0,0.017777777777777778,10.204444444444444,0)" xlink:href="#u"/><use transform="matrix(0.017777777777777778,0,0,0.017777777777777778,21.422222222222228,0)" xlink:href="#u"/></g><g id="l"><use transform="matrix(0.017777777777777778,0,0,0.017777777777777778,0,0)" xlink:href="#u"/><use transform="matrix(0.017777777777777778,0,0,0.017777777777777778,11.217777777777778,0)" xlink:href="#p"/><use transform="matrix(0.017777777777777778,0,0,0.017777777777777778,19.555555555555557,0)" xlink:href="#v"/><use transform="matrix(0.017777777777777778,0,0,0.017777777777777778,23.502222222222223,0)" xlink:href="#p"/><use transform="matrix(0.017777777777777778,0,0,0.017777777777777778,31.84,0)" xlink:href="#w"/><use transform="matrix(0.017777777777777778,0,0,0.017777777777777778,40.035555555555554,0)" xlink:href="#x"/><use transform="matrix(0.017777777777777778,0,0,0.017777777777777778,47.78666666666666,0)" xlink:href="#y"/><use transform="matrix(0.017777777777777778,0,0,0.017777777777777778,57.08444444444444,0)" xlink:href="#q"/></g><path d="M716-30c18-187 35-372 49-559 3-42-13-63-50-66-37 12-59 52-79 83-85 135-163 244-238 379-15 5-13-12-21-30-52-127-105-257-155-379-14-34-48-75-82-42-8 9-13 22-15 41L69-54c0 45 11 66 45 69 35 3 47-37 50-72l31-358c46 105 93 220 139 323 16 35 87 36 107-3 59-118 143-227 218-335L623-50c-28 73 86 89 93 20" id="M"/><path d="M315-328c46-26 68 3 62 60L355-49c-9 52 42 87 77 55 9-8 16-26 18-53l20-275c5-79-5-118-74-118-90 0-156 50-216 91 5-90 16-180 17-273 12-48-45-53-69-32-24 22-24 70-26 114L67-46C55 6 109 37 144 2c12-11 16-27 18-48l13-182c43-35 90-73 140-100" id="N"/><g id="m"><use transform="matrix(0.017777777777777778,0,0,0.017777777777777778,0,0)" xlink:href="#M"/><use transform="matrix(0.017777777777777778,0,0,0.017777777777777778,13.795555555555556,0)" xlink:href="#J"/><use transform="matrix(0.017777777777777778,0,0,0.017777777777777778,23.182222222222222,0)" xlink:href="#x"/><use transform="matrix(0.017777777777777778,0,0,0.017777777777777778,30.933333333333334,0)" xlink:href="#w"/><use transform="matrix(0.017777777777777778,0,0,0.017777777777777778,39.12888888888889,0)" xlink:href="#N"/><use transform="matrix(0.017777777777777778,0,0,0.017777777777777778,48.19555555555556,0)" xlink:href="#H"/><use transform="matrix(0.017777777777777778,0,0,0.017777777777777778,52.14222222222222,0)" xlink:href="#C"/><use transform="matrix(0.017777777777777778,0,0,0.017777777777777778,61.06666666666667,0)" xlink:href="#z"/></g></defs></g></svg>