<svg xmlns="http://www.w3.org/2000/svg" xmlns:xlink="http://www.w3.org/1999/xlink" xmlns:lucid="lucid" width="240.44" height="200"><g transform="translate(-182 -120)" lucid:page-tab-id="e2eVe2uf8EeT"><path d="M322 160c0 11.05-8.95 20-20 20s-20-8.95-20-20 8.95-20 20-20 20 8.95 20 20z" stroke="#000" stroke-width="2" fill="#fff"/><use xlink:href="#a" transform="matrix(1,0,0,1,287,145) translate(9.627 21.668999999999997)"/><path d="M355.78 193.33l-40.97-17.2" stroke="#000" stroke-width="2" fill="none"/><path d="M358.93 193.57l-.06.15-3.1-.4.4-.9zM315.2 175.2l-.77 1.85-1.26-.52 1.73-1.45z"/><path d="M248.67 193.33l38.72-18.8" stroke="#000" stroke-width="2" fill="none"/><path d="M248.67 193.33l-1.44.05-1.62.32 2.63-1.27zM288.37 174.64l.45.32-1 .48-.87-1.8.42-.2z"/><path d="M375.78 213.33c0 11.05-8.96 20-20 20-11.05 0-20-8.95-20-20 0-11.04 8.95-20 20-20 11.04 0 20 8.96 20 20z" stroke="#000" stroke-width="2" fill="#fff"/><use xlink:href="#b" transform="matrix(1,0,0,1,340.7777777777778,198.33333333333331) translate(10.221 21.668999999999997)"/><path d="M349.1 280c0 11.05-8.94 20-20 20-11.03 0-20-8.95-20-20s8.97-20 20-20c11.06 0 20 8.95 20 20z" stroke="#000" stroke-width="2" fill="#fff"/><use xlink:href="#c" transform="matrix(1,0,0,1,314.1111111111111,265) translate(10.635000000000002 21.668999999999997)"/><path d="M326.06 259.63l16.6-30.37" stroke="#000" stroke-width="2" fill="none"/><path d="M326.94 260.1l-.06.1-2.55.5.85-1.55zM343.84 229.2l-.3.54-1.76-.96.43-.77z"/><path d="M382.44 260l-12.4-31.74" stroke="#000" stroke-width="2" fill="none"/><path d="M383.57 260.14l-1.13-.14.94-.36zM370.96 227.9l-1.87.72-.17-.42 1.48-1.24.13-.16z"/><path d="M402.44 280c0 11.05-8.95 20-20 20-11.04 0-20-8.95-20-20s8.96-20 20-20c11.05 0 20 8.95 20 20z" stroke="#000" stroke-width="2" fill="#fff"/><use xlink:href="#d" transform="matrix(1,0,0,1,367.44444444444434,265) translate(8.52 21.668999999999997)"/><path d="M268.67 213.33c0 11.05-8.96 20-20 20-11.05 0-20-8.95-20-20 0-11.04 8.95-20 20-20 11.04 0 20 8.96 20 20z" stroke="#000" stroke-width="2" fill="#fff"/><use xlink:href="#e" transform="matrix(1,0,0,1,233.66666666666674,198.33333333333331) translate(9.483 22.168999999999997)"/><path d="M242 280c0 11.05-8.95 20-20 20s-20-8.95-20-20 8.95-20 20-20 20 8.95 20 20z" stroke="#000" stroke-width="2" fill="#fff"/><use xlink:href="#f" transform="matrix(1,0,0,1,207,265) translate(9.834 22.168999999999997)"/><path d="M218.95 259.63l16.6-30.37" stroke="#000" stroke-width="2" fill="none"/><path d="M219.83 260.1l-.06.1-2.55.5.85-1.55zM236.73 229.2l-.3.54-1.76-.96.42-.77z"/><path d="M275.33 260l-12.42-31.74" stroke="#000" stroke-width="2" fill="none"/><path d="M276.46 260.14l-1.13-.14.93-.36zM263.85 227.9l-1.87.72-.16-.42 1.48-1.24.12-.16z"/><path d="M295.33 280c0 11.05-8.95 20-20 20-11.04 0-20-8.95-20-20s8.96-20 20-20c11.05 0 20 8.95 20 20z" stroke="#000" stroke-width="2" fill="#fff"/><use xlink:href="#g" transform="matrix(1,0,0,1,260.3333333333335,265) translate(9.546 22.168999999999997)"/><defs><path d="M598-40c-43-190-146-367-185-558-9-42-34-91-77-60-12 9-22 27-35 52C209-423 112-244 20-60 4-26 10 18 56 15c39-4 50-49 68-84l79-159c67-5 153-12 223-13 39 81 59 164 102 242 21 37 79 0 70-41zM400-328l-152 9 97-201c16 61 35 135 55 192" id="h"/><use transform="matrix(0.018,0,0,0.018,0,0)" xlink:href="#h" id="a"/><path d="M528-55c-1 36-32 41-71 44L144 12C62 28 67-37 75-107c18-152 21-333 29-477 3-66 102-44 174-47 76-3 165-11 246-11 44 0 39 80 4 84-99 13-217 14-322 22l-15 170c86-8 168-31 259-27 25 1 40 15 39 42-2 45-40 43-81 48l-225 25-17 202 291-25c46-1 73 3 71 46" id="i"/><use transform="matrix(0.018,0,0,0.018,0,0)" xlink:href="#i" id="b"/><path d="M521-578c23-14 20-71-6-75-112-16-227 16-324 21-56 3-100 19-78 81-13 171-32 323-49 487-6 57-8 81 45 77 45-3 52-35 57-77l22-213c90-14 180-31 271-41 34-4 49-60 25-79-25-20-86-9-120-4l-171 26 14-170 261-18c26-3 43-9 53-15" id="j"/><use transform="matrix(0.018,0,0,0.018,0,0)" xlink:href="#j" id="c"/><path d="M609-396c37-17 116-26 110 28C700-191 590-70 452-5c-51 23-107 35-167 35C119 29 40-75 56-247c17-189 133-296 266-375 101-60 328-85 373 36 12 31 3 60-26 66-69 13-50-45-100-58-119-31-224 37-289 95-82 74-177 229-100 365 20 35 58 62 113 60 179-5 267-121 323-250-78 20-146 47-225 65-45 9-43-59-13-77 56-34 164-45 231-76" id="k"/><use transform="matrix(0.018,0,0,0.018,0,0)" xlink:href="#k" id="d"/><path d="M440-424c100-3 177 49 165 139C584-127 436-64 300-15 239 7 166 22 93 22c-44 0-20-83-18-123 11-158 27-318 35-475 6-21 21-34 42-39 77-18 171-46 269-46 78 0 139 27 139 89 0 79-49 110-120 148zm21-129c2-18-31-21-48-21-84 0-154 20-208 53l-11 117c93-11 184-46 238-96 18-17 27-34 29-53zm49 264c0-56-77-56-135-56-69 0-126 14-188 28L165-70c117-19 235-66 303-136 25-25 42-53 42-83" id="l"/><use transform="matrix(0.018,0,0,0.018,0,0)" xlink:href="#l" id="e"/><path d="M533-514c-38-22-57-82-134-72-162 21-222 174-244 335-16 120 41 225 163 184 46-15 92-45 114-83 19-32 87-65 114-26 6 9 2 23-9 40C477-51 386 30 249 30 103 30 45-95 57-251c14-174 99-314 216-389 90-58 230-35 296 26 38 35 13 106-36 100" id="m"/><use transform="matrix(0.018,0,0,0.018,0,0)" xlink:href="#m" id="f"/><path d="M283-28c185-83 354-230 321-494-20-153-236-181-388-118-35 15-82 21-96 56-8 19-11 37-8 56-12 168-40 332-40 504 0 55 58 40 112 29 31-7 64-18 99-33zm100-557c91 2 139 59 130 151-19 202-172 299-346 347l39-449c43-22 109-51 177-49" id="n"/><use transform="matrix(0.018,0,0,0.018,0,0)" xlink:href="#n" id="g"/></defs></g></svg>