<svg xmlns="http://www.w3.org/2000/svg" xmlns:xlink="http://www.w3.org/1999/xlink" xmlns:lucid="lucid" width="806.4" height="1020"><g transform="translate(-157.6 0)" lucid:page-tab-id="-z5U_7HggK88"><path d="M520 40.62h64v53.23h-64z" stroke="#000" stroke-width="2" fill="#b2d6ef"/><use xlink:href="#a" transform="matrix(1,0,0,1,525,45.617999999999995) translate(12.303 28.668999999999997)"/><path d="M700 40.24h64v53.23h-64z" stroke="#000" stroke-width="2" fill="#fff"/><use xlink:href="#b" transform="matrix(1,0,0,1,705,45.23599999999999) translate(22.5 28.668999999999997)"/><path d="M880 40h64v53.24h-64z" stroke="#000" stroke-width="2" fill="#fff"/><use xlink:href="#c" transform="matrix(1,0,0,1,885,45) translate(22.248 28.668999999999997)"/><path d="M584.62 66.85H700" stroke="#000" stroke-width="2" fill="none"/><path d="M584.62 67.85H584v-2h.62zM700 66.85l-14.27 4.64V62.2z"/><path d="M700 65.8v2.1l-15.27 4.97V60.84zm-13.27 4.3l10.03-3.25-10.03-3.25z"/><use xlink:href="#d" transform="matrix(1,0,0,1,597.2806923076923,41.236) translate(0.005000000000002558 17.477999999999998)"/><path d="M764 66.85h115.38" stroke="#000" stroke-width="2" fill="none"/><path/><path d="M879.38 66.85l-14.26 4.64V62.2z"/><path d="M880 66v1.7l-15.88 5.17V60.84zm-13.88 4.1l10.03-3.25-10.03-3.25z"/><use xlink:href="#d" transform="matrix(1,0,0,1,776.6653076923077,41.236) translate(0.005000000000002558 17.477999999999998)"/><path d="M177.6 20h28.8v60h-28.8z" stroke="#000" stroke-opacity="0" stroke-width="2" fill="#fff" fill-opacity="0"/><use xlink:href="#e" transform="matrix(1,0,0,1,182.6,25) translate(5.5088888888888885 31.586666666666666)"/><path d="M520 381.62h64v53.23h-64z" stroke="#e5e5e5" stroke-width="2" fill-opacity="0"/><use xlink:href="#f" transform="matrix(1,0,0,1,525,386.618) translate(12.303 28.668999999999997)"/><path d="M700 381.24h64v53.23h-64z" stroke="#000" stroke-width="2" fill="#b2d6ef"/><use xlink:href="#b" transform="matrix(1,0,0,1,705,386.236) translate(22.5 28.668999999999997)"/><path d="M880 381h64v53.24h-64z" stroke="#000" stroke-width="2" fill="#fff"/><use xlink:href="#c" transform="matrix(1,0,0,1,885,386) translate(22.248 28.668999999999997)"/><path d="M584.62 407.85H700" stroke="#ccc" stroke-width="2" fill="none"/><path d="M584.62 408.85H584v-2h.62zM700 407.85l-14.27 4.64v-9.28z" fill="#ccc"/><path d="M700 406.8v2.1l-15.27 4.97v-12.03zm-13.27 4.3l10.03-3.25-10.03-3.25z" fill="#ccc"/><use xlink:href="#g" transform="matrix(1,0,0,1,597.2806923076923,382.23599999999993) translate(0.005000000000002558 17.477999999999998)"/><path d="M764 407.85h115.38" stroke="#000" stroke-width="2" fill="none"/><path/><path d="M879.38 407.85l-14.26 4.64v-9.28z"/><path d="M880 407v1.7l-15.88 5.17v-12.03zm-13.88 4.1l10.03-3.25-10.03-3.25z"/><use xlink:href="#d" transform="matrix(1,0,0,1,776.6653076923077,382.23599999999993) translate(0.005000000000002558 17.477999999999998)"/><path d="M177.6 361h28.8v60h-28.8z" stroke="#000" stroke-opacity="0" stroke-width="2" fill="#fff" fill-opacity="0"/><use xlink:href="#h" transform="matrix(1,0,0,1,182.6,366) translate(3.2155555555555555 31.586666666666666)"/><path d="M520 720.62h64v53.23h-64z" stroke="#ccc" stroke-width="2" fill-opacity="0"/><use xlink:href="#i" transform="matrix(1,0,0,1,525,725.618) translate(12.303 28.668999999999997)"/><path d="M700 720.24h64v53.23h-64z" stroke="#ccc" stroke-width="2" fill="#fff"/><use xlink:href="#j" transform="matrix(1,0,0,1,705,725.2360000000002) translate(22.5 28.668999999999997)"/><path d="M880 720h64v53.24h-64z" stroke="#000" stroke-width="2" fill="#b2d6ef"/><use xlink:href="#c" transform="matrix(1,0,0,1,885,724.9999999999999) translate(22.248 28.668999999999997)"/><path d="M584.62 746.85H700" stroke="#ccc" stroke-width="2" fill="none"/><path d="M584.62 747.85H584v-2h.62zM700 746.85l-14.27 4.64v-9.28z" fill="#ccc"/><path d="M700 745.8v2.1l-15.27 4.97v-12.03zm-13.27 4.3l10.03-3.25-10.03-3.25z" fill="#ccc"/><use xlink:href="#g" transform="matrix(1,0,0,1,597.2806923076927,721.2360000000002) translate(0.005000000000002558 17.477999999999998)"/><path d="M764 746.85h115.38" stroke="#ccc" stroke-width="2" fill="none"/><path fill="#ccc"/><path d="M879.38 746.85l-14.26 4.64v-9.28z" fill="#ccc"/><path d="M880 746v1.7l-15.88 5.17v-12.03zm-13.88 4.1l10.03-3.25-10.03-3.25z" fill="#ccc"/><use xlink:href="#g" transform="matrix(1,0,0,1,776.6653076923077,721.2360000000003) translate(0.005000000000002558 17.477999999999998)"/><path d="M177.6 700h28.8v60h-28.8z" stroke="#000" stroke-opacity="0" stroke-width="2" fill="#fff" fill-opacity="0"/><use xlink:href="#k" transform="matrix(1,0,0,1,182.6,705) translate(3.0555555555555554 31.586666666666666)"/><path d="M333 856.67L369.67 820" stroke="#83bbe5" stroke-width="4" fill="none"/><path d="M369.67 820l-6.8 13.37-6.57-6.56z" stroke="#83bbe5" stroke-width="4" fill="#83bbe5"/><path d="M380 800l-18.7-35.95" stroke="#83bbe5" stroke-width="4" fill="none"/><path d="M372 774.57l-8.23 4.28-2.47-14.8z" fill="#83bbe5"/><path d="M375.36 775.07l-13.1 6.82-2.93-17.5 2.8-2.34zm-10.07.73l3.33-1.74-4.34-4.27z" fill="#83bbe5"/><path d="M316 641v-60" stroke="#83bbe5" stroke-width="4" fill="none"/><path d="M316 581l4.64 14.27h-9.28z" stroke="#83bbe5" stroke-width="4" fill="#83bbe5"/><path d="M304 401c0-11.05 8.95-20 20-20h24c11.05 0 20 8.95 20 20v8c0 11.05-8.95 20-20 20h-24c-11.05 0-20-8.95-20-20z" stroke="#000" stroke-width="2" fill="#fff"/><use xlink:href="#l" transform="matrix(1,0,0,1,309,381) translate(22.306666666666665 30.586666666666666)"/><path d="M333 554c0-11.05 8.95-20 20-20h24c11.05 0 20 8.95 20 20v8c0 11.05-8.95 20-20 20h-24c-11.05 0-20-8.95-20-20z" stroke="#000" stroke-width="2" fill="#c1e4f7"/><use xlink:href="#m" transform="matrix(1,0,0,1,338,534) translate(22.555555555555557 30.586666666666666)"/><path d="M447 554c0-11.05 8.95-20 20-20h24c11.05 0 20 8.95 20 20v8c0 11.05-8.95 20-20 20h-24c-11.05 0-20-8.95-20-20zM388 474c0-11.05 8.95-20 20-20h24c11.05 0 20 8.95 20 20v8c0 11.05-8.95 20-20 20h-24c-11.05 0-20-8.95-20-20z" stroke="#000" stroke-width="2" fill="#fff"/><path d="M336 429v12.5h84V454" stroke="#000" stroke-width="2" fill="none"/><path d="M335.02 429.2l-.04-.2H336zM421.02 454H420l.98-.2z"/><path d="M420 502v16h-55v16" stroke="#000" stroke-width="2" fill="none"/><path/><path/><path d="M420 502v16h59v16" stroke="#000" stroke-width="2" fill="none"/><path/><path/><path d="M333 633c0-11.05 8.95-20 20-20h24c11.05 0 20 8.95 20 20v8c0 11.05-8.95 20-20 20h-24c-11.05 0-20-8.95-20-20z" stroke="#0c7cba" stroke-width="6" fill="#b2d6ef"/><use xlink:href="#n" transform="matrix(1,0,0,1,338,613) translate(12.484444444444444 30.586666666666666)"/><path d="M365 582v31" stroke="#000" stroke-width="2" fill="none"/><path/><path/><path d="M447 633c0-11.05 8.95-20 20-20h24c11.05 0 20 8.95 20 20v8c0 11.05-8.95 20-20 20h-24c-11.05 0-20-8.95-20-20z" stroke="#000" stroke-width="2" fill="#fff"/><path d="M479 582v31" stroke="#000" stroke-width="2" fill="none"/><path/><path/><path d="M221 474c0-11.05 8.95-20 20-20h24c11.05 0 20 8.95 20 20v8c0 11.05-8.95 20-20 20h-24c-11.05 0-20-8.95-20-20z" stroke="#000" stroke-width="2" fill="#fff"/><path d="M336 429v12.5h-83V454" stroke="#000" stroke-width="2" fill="none"/><path d="M336.98 429.2l-.98-.2h1.02zM253 454h-1.02l.04-.2z"/><path d="M221 554c0-11.05 8.95-20 20-20h24c11.05 0 20 8.95 20 20v8c0 11.05-8.95 20-20 20h-24c-11.05 0-20-8.95-20-20z" stroke="#000" stroke-width="2" fill="#fff"/><path d="M253 502v32" stroke="#000" stroke-width="2" fill="none"/><path/><path/><path d="M303.5 60c0-11.05 8.95-20 20-20h24c11.05 0 20 8.95 20 20v8c0 11.05-8.95 20-20 20h-24c-11.05 0-20-8.95-20-20z" stroke="#000" stroke-width="2" fill="#fff"/><use xlink:href="#l" transform="matrix(1,0,0,1,308.5,40) translate(22.306666666666665 30.586666666666666)"/><path d="M332.5 213c0-11.05 8.95-20 20-20h24c11.05 0 20 8.95 20 20v8c0 11.05-8.95 20-20 20h-24c-11.05 0-20-8.95-20-20z" stroke="#000" stroke-width="2" fill="#fff"/><use xlink:href="#m" transform="matrix(1,0,0,1,337.5,193) translate(22.555555555555557 30.586666666666666)"/><path d="M446.5 213c0-11.05 8.95-20 20-20h24c11.05 0 20 8.95 20 20v8c0 11.05-8.95 20-20 20h-24c-11.05 0-20-8.95-20-20zM387.5 133c0-11.05 8.95-20 20-20h24c11.05 0 20 8.95 20 20v8c0 11.05-8.95 20-20 20h-24c-11.05 0-20-8.95-20-20z" stroke="#000" stroke-width="2" fill="#fff"/><path d="M335.5 88v12.5h84V113" stroke="#000" stroke-width="2" fill="none"/><path d="M334.52 88.2l-.04-.2h1.02zM420.52 113h-1.02l.98-.2z"/><path d="M419.5 161v16h-55v16" stroke="#000" stroke-width="2" fill="none"/><path/><path/><path d="M419.5 161v16h59v16" stroke="#000" stroke-width="2" fill="none"/><path/><path/><path d="M332.5 292c0-11.05 8.95-20 20-20h24c11.05 0 20 8.95 20 20v8c0 11.05-8.95 20-20 20h-24c-11.05 0-20-8.95-20-20z" stroke="#0c7cba" stroke-width="6" fill="#b2d6ef"/><use xlink:href="#n" transform="matrix(1,0,0,1,337.5,272) translate(12.484444444444444 30.586666666666666)"/><path d="M364.5 241v31" stroke="#000" stroke-width="2" fill="none"/><path/><path/><path d="M446.5 292c0-11.05 8.95-20 20-20h24c11.05 0 20 8.95 20 20v8c0 11.05-8.95 20-20 20h-24c-11.05 0-20-8.95-20-20z" stroke="#000" stroke-width="2" fill="#fff"/><path d="M478.5 241v31" stroke="#000" stroke-width="2" fill="none"/><path/><path/><path d="M220.5 133c0-11.05 8.95-20 20-20h24c11.05 0 20 8.95 20 20v8c0 11.05-8.95 20-20 20h-24c-11.05 0-20-8.95-20-20z" stroke="#000" stroke-width="2" fill="#fff"/><path d="M335.5 88v12.5h-83V113" stroke="#000" stroke-width="2" fill="none"/><path d="M336.48 88.2l-.98-.2h1.02zM252.5 113h-1.02l.04-.2z"/><path d="M220.5 213c0-11.05 8.95-20 20-20h24c11.05 0 20 8.95 20 20v8c0 11.05-8.95 20-20 20h-24c-11.05 0-20-8.95-20-20z" stroke="#000" stroke-width="2" fill="#fff"/><path d="M252.5 161v32" stroke="#000" stroke-width="2" fill="none"/><path/><path/><path d="M304 740c0-11.05 8.95-20 20-20h24c11.05 0 20 8.95 20 20v8c0 11.05-8.95 20-20 20h-24c-11.05 0-20-8.95-20-20z" stroke="#000" stroke-width="2" fill="#c1e4f7"/><use xlink:href="#l" transform="matrix(1,0,0,1,309,720) translate(22.306666666666665 30.586666666666666)"/><path d="M333 893c0-11.05 8.95-20 20-20h24c11.05 0 20 8.95 20 20v8c0 11.05-8.95 20-20 20h-24c-11.05 0-20-8.95-20-20z" stroke="#000" stroke-width="2" fill="#c1e4f7"/><use xlink:href="#m" transform="matrix(1,0,0,1,338,873) translate(22.555555555555557 30.586666666666666)"/><path d="M447 893c0-11.05 8.95-20 20-20h24c11.05 0 20 8.95 20 20v8c0 11.05-8.95 20-20 20h-24c-11.05 0-20-8.95-20-20zM388 813c0-11.05 8.95-20 20-20h24c11.05 0 20 8.95 20 20v8c0 11.05-8.95 20-20 20h-24c-11.05 0-20-8.95-20-20z" stroke="#000" stroke-width="2" fill="#fff"/><path d="M336 768v12.5h84V793" stroke="#000" stroke-width="2" fill="none"/><path d="M335.02 768.2l-.04-.2H336zM421.02 793H420l.98-.2z"/><path d="M420 841v16h-55v16" stroke="#000" stroke-width="2" fill="none"/><path/><path/><path d="M420 841v16h59v16" stroke="#000" stroke-width="2" fill="none"/><path/><path/><path d="M333 972c0-11.05 8.95-20 20-20h24c11.05 0 20 8.95 20 20v8c0 11.05-8.95 20-20 20h-24c-11.05 0-20-8.95-20-20z" stroke="#0c7cba" stroke-width="6" fill="#b2d6ef"/><use xlink:href="#n" transform="matrix(1,0,0,1,338,952) translate(12.484444444444444 30.586666666666666)"/><path d="M365 921v31" stroke="#000" stroke-width="2" fill="none"/><path/><path/><path d="M447 972c0-11.05 8.95-20 20-20h24c11.05 0 20 8.95 20 20v8c0 11.05-8.95 20-20 20h-24c-11.05 0-20-8.95-20-20z" stroke="#000" stroke-width="2" fill="#fff"/><path d="M479 921v31" stroke="#000" stroke-width="2" fill="none"/><path/><path/><path d="M221 813c0-11.05 8.95-20 20-20h24c11.05 0 20 8.95 20 20v8c0 11.05-8.95 20-20 20h-24c-11.05 0-20-8.95-20-20z" stroke="#000" stroke-width="2" fill="#fff"/><path d="M336 768v12.5h-83V793" stroke="#000" stroke-width="2" fill="none"/><path d="M336.98 768.2l-.98-.2h1.02zM253 793h-1.02l.04-.2z"/><path d="M221 893c0-11.05 8.95-20 20-20h24c11.05 0 20 8.95 20 20v8c0 11.05-8.95 20-20 20h-24c-11.05 0-20-8.95-20-20z" stroke="#000" stroke-width="2" fill="#fff"/><path d="M253 841v32" stroke="#000" stroke-width="2" fill="none"/><path/><path/><path d="M316 980v-60" stroke="#83bbe5" stroke-width="4" fill="none"/><path d="M316 920l4.64 14.27h-9.28z" stroke="#83bbe5" stroke-width="4" fill="#83bbe5"/><defs><path d="M44-8C91 47 175 2 172-64c21-80-74-98-118-50C24-94 17-40 44-8" id="o"/><path d="M298-594c46 0 84 49 129 25 28-15 38-46 15-63-45-33-159-74-226-28-64 44-74 143-81 243-36 14-93 21-73 82 8 23 43 8 67 10L109-47c-26 79 112 78 96-4l20-292c61-15 137-16 182-47 20-30 4-82-46-63l-129 17c1-72-2-158 66-158" id="p"/><path d="M355-451c110 0 162 80 153 193C498-125 413-39 312 7c-36 15-72 23-111 23C93 29 36-35 44-144c9-131 86-228 184-278 37-19 80-29 127-29zM207-56c121 0 193-88 206-202 6-56-14-100-70-100-129 0-190 98-204 214-6 51 17 88 68 88" id="q"/><g id="a"><use transform="matrix(0.018,0,0,0.018,0,0)" xlink:href="#o"/><use transform="matrix(0.018,0,0,0.018,3.582,0)" xlink:href="#p"/><use transform="matrix(0.018,0,0,0.018,10.565999999999999,0)" xlink:href="#q"/><use transform="matrix(0.018,0,0,0.018,19.979999999999997,0)" xlink:href="#q"/></g><path d="M207-595c2-41-4-67-47-67-50 0-56 43-59 90L65-61c0 47-2 92 42 92 154 0 250-104 323-199 42-54 89-132 66-218-10-38-55-51-107-51-85 2-150 26-204 68zm161 245c19-1 42 1 38 22-18 96-91 166-158 220-28 22-56 37-85 46l13-188c38-57 102-94 192-100" id="r"/><use transform="matrix(0.018,0,0,0.018,0,0)" xlink:href="#r" id="b"/><path d="M414 18c44 0 51-25 54-67l20-294c15-129-122-120-228-97-56 12-101 41-148 64-16 8-27 55-6 61 51 14 87-22 132-33 39-9 72-27 121-28 19 0 38 3 37 23l-4 55C217-288 63-254 27-107 26-36 64 31 131 31c99 0 173-43 244-71-7 36-4 58 39 58zm-23-168c-50 42-119 78-192 101-76 24-118-61-60-101 61-42 156-67 248-79" id="s"/><use transform="matrix(0.018,0,0,0.018,0,0)" xlink:href="#s" id="c"/><path d="M388-422c20 0 30 1 42 13 8-77 2-166 23-231 12-35 104-26 87 24-19 183-20 382-41 563 7 55-16 77-72 68-22-3-19-26-24-50-23-2-30 15-55 25-49 19-106 33-188 32C85 5 25-63 46-159c34-151 150-260 342-263zM212-58c128-24 227-88 213-245 5-46-58-33-96-28-94 13-148 71-186 149-27 55 3 136 69 124" id="t"/><path d="M219-412c99-54 263-26 248 106-6 57-62 81-112 104-62 28-146 48-218 66-5 48 10 94 65 90 94-7 136-72 207-98 34-13 67 0 57 43C435-41 354-7 282 18c-34 11-68 16-102 16C83 33 33-24 43-131c12-131 81-229 176-281zm101 138c24-14 78-40 42-74-39-37-110 1-139 24-31 25-59 61-72 105 67 5 123-28 169-55" id="u"/><path d="M376-215c43 0 31 49 10 75-39 47-104 89-187 89-48 0-70-41-115-55-47-14-78 39-47 75 50 58 171 80 264 44 95-36 189-96 200-210 7-67-35-108-100-108-91 0-157 59-233 59-38 0-19-38-4-54 46-49 136-72 234-65 42 3 82-10 73-53-25-53-127-37-191-22-109 25-216 75-229 191-7 61 35 94 99 94 85 0 146-60 226-60" id="v"/><path d="M187 30C86 30 37-38 44-140c9-132 83-229 176-282 85-48 240-30 261 49 11 42-48 56-82 35-28-29-107-33-145-6-64 46-121 125-114 234 5 80 124 50 168 20 34-24 59-51 76-86 11-23 89-29 88 6C437-52 341 30 187 30" id="w"/><path d="M387-452c45 0 79 27 79 73 0 109-16 218-23 327 13 58-52 84-87 52-7-7-8-24-7-49l20-277c5-41-49-23-78-16-38 9-78 28-106 53L160-48c13 58-94 91-94 20 0-134 25-233 25-362 0-45 36-68 83-64 18 6 9 33 16 56 60-17 127-54 197-54" id="x"/><path d="M294-7c-52 29-182 61-175-39l22-313c-29 11-104 9-94-22-2-51 54-54 100-61 1-69 2-169 83-132 25 20 10 79 10 117 49-6 105-16 153-21 33-3 36 52 17 67-34 27-121 29-176 39L215-96c-3 27 40 15 48 4 21-29 77-60 113-24 8 8 12 20 11 35-23 31-56 53-93 74" id="y"/><g id="d"><use transform="matrix(0.018,0,0,0.018,0,0)" xlink:href="#t"/><use transform="matrix(0.018,0,0,0.018,10.043999999999999,0)" xlink:href="#u"/><use transform="matrix(0.018,0,0,0.018,18.485999999999997,0)" xlink:href="#v"/><use transform="matrix(0.018,0,0,0.018,27.845999999999997,0)" xlink:href="#w"/><use transform="matrix(0.018,0,0,0.018,36.144,0)" xlink:href="#u"/><use transform="matrix(0.018,0,0,0.018,44.586,0)" xlink:href="#x"/><use transform="matrix(0.018,0,0,0.018,53.62199999999999,0)" xlink:href="#t"/><use transform="matrix(0.018,0,0,0.018,63.666,0)" xlink:href="#s"/><use transform="matrix(0.018,0,0,0.018,73.17,0)" xlink:href="#x"/><use transform="matrix(0.018,0,0,0.018,82.206,0)" xlink:href="#y"/></g><path d="M142-643c-47 6-90 33-114 61 0 23 18 37 55 44 3 2 5 5 4 11-7 131-35 252-23 397 3 34 4 68 5 102 6 18 32 27 53 28 26 1 30-10 31-33 3-139-4-287 23-403 12-49 12-109 22-168-5-25-31-35-56-39" id="z"/><g id="e"><use transform="matrix(0.017777777777777778,0,0,0.017777777777777778,0,0)" xlink:href="#z"/><use transform="matrix(0.017777777777777778,0,0,0.017777777777777778,4.444444444444445,0)" xlink:href="#o"/></g><path fill="#e5e5e5" d="M44-8C91 47 175 2 172-64c21-80-74-98-118-50C24-94 17-40 44-8" id="A"/><path fill="#e5e5e5" d="M298-594c46 0 84 49 129 25 28-15 38-46 15-63-45-33-159-74-226-28-64 44-74 143-81 243-36 14-93 21-73 82 8 23 43 8 67 10L109-47c-26 79 112 78 96-4l20-292c61-15 137-16 182-47 20-30 4-82-46-63l-129 17c1-72-2-158 66-158" id="B"/><path fill="#e5e5e5" d="M355-451c110 0 162 80 153 193C498-125 413-39 312 7c-36 15-72 23-111 23C93 29 36-35 44-144c9-131 86-228 184-278 37-19 80-29 127-29zM207-56c121 0 193-88 206-202 6-56-14-100-70-100-129 0-190 98-204 214-6 51 17 88 68 88" id="C"/><g id="f"><use transform="matrix(0.018,0,0,0.018,0,0)" xlink:href="#A"/><use transform="matrix(0.018,0,0,0.018,3.582,0)" xlink:href="#B"/><use transform="matrix(0.018,0,0,0.018,10.565999999999999,0)" xlink:href="#C"/><use transform="matrix(0.018,0,0,0.018,19.979999999999997,0)" xlink:href="#C"/></g><path fill="#ccc" d="M388-422c20 0 30 1 42 13 8-77 2-166 23-231 12-35 104-26 87 24-19 183-20 382-41 563 7 55-16 77-72 68-22-3-19-26-24-50-23-2-30 15-55 25-49 19-106 33-188 32C85 5 25-63 46-159c34-151 150-260 342-263zM212-58c128-24 227-88 213-245 5-46-58-33-96-28-94 13-148 71-186 149-27 55 3 136 69 124" id="D"/><path fill="#ccc" d="M219-412c99-54 263-26 248 106-6 57-62 81-112 104-62 28-146 48-218 66-5 48 10 94 65 90 94-7 136-72 207-98 34-13 67 0 57 43C435-41 354-7 282 18c-34 11-68 16-102 16C83 33 33-24 43-131c12-131 81-229 176-281zm101 138c24-14 78-40 42-74-39-37-110 1-139 24-31 25-59 61-72 105 67 5 123-28 169-55" id="E"/><path fill="#ccc" d="M376-215c43 0 31 49 10 75-39 47-104 89-187 89-48 0-70-41-115-55-47-14-78 39-47 75 50 58 171 80 264 44 95-36 189-96 200-210 7-67-35-108-100-108-91 0-157 59-233 59-38 0-19-38-4-54 46-49 136-72 234-65 42 3 82-10 73-53-25-53-127-37-191-22-109 25-216 75-229 191-7 61 35 94 99 94 85 0 146-60 226-60" id="F"/><path fill="#ccc" d="M187 30C86 30 37-38 44-140c9-132 83-229 176-282 85-48 240-30 261 49 11 42-48 56-82 35-28-29-107-33-145-6-64 46-121 125-114 234 5 80 124 50 168 20 34-24 59-51 76-86 11-23 89-29 88 6C437-52 341 30 187 30" id="G"/><path fill="#ccc" d="M387-452c45 0 79 27 79 73 0 109-16 218-23 327 13 58-52 84-87 52-7-7-8-24-7-49l20-277c5-41-49-23-78-16-38 9-78 28-106 53L160-48c13 58-94 91-94 20 0-134 25-233 25-362 0-45 36-68 83-64 18 6 9 33 16 56 60-17 127-54 197-54" id="H"/><path fill="#ccc" d="M414 18c44 0 51-25 54-67l20-294c15-129-122-120-228-97-56 12-101 41-148 64-16 8-27 55-6 61 51 14 87-22 132-33 39-9 72-27 121-28 19 0 38 3 37 23l-4 55C217-288 63-254 27-107 26-36 64 31 131 31c99 0 173-43 244-71-7 36-4 58 39 58zm-23-168c-50 42-119 78-192 101-76 24-118-61-60-101 61-42 156-67 248-79" id="I"/><path fill="#ccc" d="M294-7c-52 29-182 61-175-39l22-313c-29 11-104 9-94-22-2-51 54-54 100-61 1-69 2-169 83-132 25 20 10 79 10 117 49-6 105-16 153-21 33-3 36 52 17 67-34 27-121 29-176 39L215-96c-3 27 40 15 48 4 21-29 77-60 113-24 8 8 12 20 11 35-23 31-56 53-93 74" id="J"/><g id="g"><use transform="matrix(0.018,0,0,0.018,0,0)" xlink:href="#D"/><use transform="matrix(0.018,0,0,0.018,10.043999999999999,0)" xlink:href="#E"/><use transform="matrix(0.018,0,0,0.018,18.485999999999997,0)" xlink:href="#F"/><use transform="matrix(0.018,0,0,0.018,27.845999999999997,0)" xlink:href="#G"/><use transform="matrix(0.018,0,0,0.018,36.144,0)" xlink:href="#E"/><use transform="matrix(0.018,0,0,0.018,44.586,0)" xlink:href="#H"/><use transform="matrix(0.018,0,0,0.018,53.62199999999999,0)" xlink:href="#D"/><use transform="matrix(0.018,0,0,0.018,63.666,0)" xlink:href="#I"/><use transform="matrix(0.018,0,0,0.018,73.17,0)" xlink:href="#H"/><use transform="matrix(0.018,0,0,0.018,82.206,0)" xlink:href="#J"/></g><path d="M320-133c-46 0-88 4-131 12l1-15c52-55 101-121 152-178 55-62 111-124 117-224 7-114-144-116-231-69-56 30-116 74-158 117-33 34-13 79 21 87 67-16 104-88 167-116 22-10 43-24 70-25 39 6 41 35 17 70C247-329 126-188 10-62-9-41-3 1 30-1c109-29 279-43 409-25 24 3 33-21 33-44 0-65-68-63-152-63" id="K"/><g id="h"><use transform="matrix(0.017777777777777778,0,0,0.017777777777777778,0,0)" xlink:href="#K"/><use transform="matrix(0.017777777777777778,0,0,0.017777777777777778,9.03111111111111,0)" xlink:href="#o"/></g><path fill="#ccc" d="M44-8C91 47 175 2 172-64c21-80-74-98-118-50C24-94 17-40 44-8" id="L"/><path fill="#ccc" d="M298-594c46 0 84 49 129 25 28-15 38-46 15-63-45-33-159-74-226-28-64 44-74 143-81 243-36 14-93 21-73 82 8 23 43 8 67 10L109-47c-26 79 112 78 96-4l20-292c61-15 137-16 182-47 20-30 4-82-46-63l-129 17c1-72-2-158 66-158" id="M"/><path fill="#ccc" d="M355-451c110 0 162 80 153 193C498-125 413-39 312 7c-36 15-72 23-111 23C93 29 36-35 44-144c9-131 86-228 184-278 37-19 80-29 127-29zM207-56c121 0 193-88 206-202 6-56-14-100-70-100-129 0-190 98-204 214-6 51 17 88 68 88" id="N"/><g id="i"><use transform="matrix(0.018,0,0,0.018,0,0)" xlink:href="#L"/><use transform="matrix(0.018,0,0,0.018,3.582,0)" xlink:href="#M"/><use transform="matrix(0.018,0,0,0.018,10.565999999999999,0)" xlink:href="#N"/><use transform="matrix(0.018,0,0,0.018,19.979999999999997,0)" xlink:href="#N"/></g><path fill="#ccc" d="M207-595c2-41-4-67-47-67-50 0-56 43-59 90L65-61c0 47-2 92 42 92 154 0 250-104 323-199 42-54 89-132 66-218-10-38-55-51-107-51-85 2-150 26-204 68zm161 245c19-1 42 1 38 22-18 96-91 166-158 220-28 22-56 37-85 46l13-188c38-57 102-94 192-100" id="O"/><use transform="matrix(0.018,0,0,0.018,0,0)" xlink:href="#O" id="j"/><path d="M66-36C218 39 471-3 467-192c-2-80-42-127-110-143l-1-9c78-49 147-71 147-167 0-97-97-144-199-117-92 25-177 73-236 132-44 44 19 121 61 75 55-59 120-114 218-124 57-6 60 57 23 91-55 51-137 116-227 116-53 0-25 95 6 96 66-26 221-50 221 46 0 99-129 126-230 101-45-11-37-63-90-63-26 0-53 8-51 37 2 42 34 69 67 85" id="P"/><g id="k"><use transform="matrix(0.017777777777777778,0,0,0.017777777777777778,0,0)" xlink:href="#P"/><use transform="matrix(0.017777777777777778,0,0,0.017777777777777778,9.351111111111111,0)" xlink:href="#o"/></g><use transform="matrix(0.017777777777777778,0,0,0.017777777777777778,0,0)" xlink:href="#s" id="l"/><use transform="matrix(0.017777777777777778,0,0,0.017777777777777778,0,0)" xlink:href="#r" id="m"/><g id="n"><use transform="matrix(0.017777777777777778,0,0,0.017777777777777778,0,0)" xlink:href="#o"/><use transform="matrix(0.017777777777777778,0,0,0.017777777777777778,3.537777777777778,0)" xlink:href="#p"/><use transform="matrix(0.017777777777777778,0,0,0.017777777777777778,10.435555555555556,0)" xlink:href="#q"/><use transform="matrix(0.017777777777777778,0,0,0.017777777777777778,19.733333333333334,0)" xlink:href="#q"/></g></defs></g></svg>