<svg xmlns="http://www.w3.org/2000/svg" xmlns:xlink="http://www.w3.org/1999/xlink" xmlns:lucid="lucid" width="884" height="654"><g transform="translate(-287 -120)" lucid:page-tab-id="kgeV_mSwfMo9"><path d="M811 713.67h340l-170-210z" stroke="#000" stroke-width="2" fill="#ff8f80"/><path d="M1002 563.67c0 11.04-8.95 20-20 20s-20-8.96-20-20c0-11.05 8.95-20 20-20s20 8.95 20 20z" stroke="#000" stroke-width="2" fill="#ff8f80"/><path d="M1035.78 597l-40.97-17.2" stroke="#000" stroke-width="2" fill="none"/><path d="M1038.93 597.24l-.06.15-3.1-.4.4-.92zM995.2 578.88l-.77 1.84-1.26-.53 1.73-1.45z"/><path d="M928.67 597l38.72-18.8" stroke="#000" stroke-width="2" fill="none"/><path d="M928.67 597l-1.44.05-1.62.32 2.63-1.27zM968.37 578.3l.45.33-1 .48-.87-1.8.42-.2z"/><path d="M1055.78 617c0 11.05-8.96 20-20 20-11.05 0-20-8.95-20-20s8.95-20 20-20c11.04 0 20 8.95 20 20zM1029.1 683.67c0 11.04-8.94 20-20 20-11.03 0-20-8.96-20-20 0-11.05 8.97-20 20-20 11.06 0 20 8.95 20 20z" stroke="#000" stroke-width="2" fill="#ff8f80"/><path d="M1006.06 663.3l16.6-30.37" stroke="#000" stroke-width="2" fill="none"/><path d="M1006.94 663.77l-.06.1-2.55.5.85-1.56zM1023.84 632.86l-.3.55-1.76-.95.43-.77z"/><path d="M1062.44 663.67l-12.4-31.75" stroke="#000" stroke-width="2" fill="none"/><path d="M1063.57 663.8l-1.13-.13.94-.37zM1050.96 631.56l-1.87.73-.17-.43 1.48-1.24.13-.16z"/><path d="M1082.44 683.67c0 11.04-8.95 20-20 20-11.04 0-20-8.96-20-20 0-11.05 8.96-20 20-20 11.05 0 20 8.95 20 20zM948.67 617c0 11.05-8.96 20-20 20-11.05 0-20-8.95-20-20s8.95-20 20-20c11.04 0 20 8.95 20 20zM922 683.67c0 11.04-8.95 20-20 20s-20-8.96-20-20c0-11.05 8.95-20 20-20s20 8.95 20 20z" stroke="#000" stroke-width="2" fill="#ff8f80"/><path d="M898.95 663.3l16.6-30.37" stroke="#000" stroke-width="2" fill="none"/><path d="M899.83 663.77l-.06.1-2.55.5.85-1.56zM916.73 632.86l-.3.55-1.76-.95.42-.77z"/><path d="M955.33 663.67l-12.42-31.75" stroke="#000" stroke-width="2" fill="none"/><path d="M956.46 663.8l-1.13-.13.93-.37zM943.85 631.56l-1.87.73-.16-.43 1.48-1.24.12-.16z"/><path d="M975.33 683.67c0 11.04-8.95 20-20 20-11.04 0-20-8.96-20-20 0-11.05 8.96-20 20-20 11.05 0 20 8.95 20 20z" stroke="#000" stroke-width="2" fill="#ff8f80"/><path d="M681 720h340L851 510z" stroke="#000" stroke-width="2" fill="#ffbbb1"/><path d="M872 570c0 11.05-8.95 20-20 20s-20-8.95-20-20 8.95-20 20-20 20 8.95 20 20z" stroke="#000" stroke-width="2" fill="#ffbbb1"/><path d="M905.78 603.33l-40.97-17.2" stroke="#000" stroke-width="2" fill="none"/><path d="M908.93 603.57l-.06.15-3.1-.4.4-.9zM865.2 585.2l-.77 1.85-1.26-.52 1.73-1.45z"/><path d="M798.67 603.33l38.72-18.8" stroke="#000" stroke-width="2" fill="none"/><path d="M798.67 603.33l-1.44.05-1.62.32 2.63-1.27zM838.37 584.64l.45.32-1 .48-.87-1.8.42-.2z"/><path d="M925.78 623.33c0 11.05-8.96 20-20 20-11.05 0-20-8.95-20-20 0-11.04 8.95-20 20-20 11.04 0 20 8.96 20 20zM899.1 690c0 11.05-8.94 20-20 20-11.03 0-20-8.95-20-20s8.97-20 20-20c11.06 0 20 8.95 20 20z" stroke="#000" stroke-width="2" fill="#ffbbb1"/><path d="M876.06 669.63l16.6-30.37" stroke="#000" stroke-width="2" fill="none"/><path d="M876.94 670.1l-.06.1-2.55.5.85-1.55zM893.84 639.2l-.3.54-1.76-.96.43-.77z"/><path d="M932.44 670l-12.4-31.74" stroke="#000" stroke-width="2" fill="none"/><path d="M933.57 670.14l-1.13-.14.94-.36zM920.96 637.9l-1.87.72-.17-.42 1.48-1.24.13-.16z"/><path d="M952.44 690c0 11.05-8.95 20-20 20-11.04 0-20-8.95-20-20s8.96-20 20-20c11.05 0 20 8.95 20 20zM818.67 623.33c0 11.05-8.96 20-20 20-11.05 0-20-8.95-20-20 0-11.04 8.95-20 20-20 11.04 0 20 8.96 20 20zM792 690c0 11.05-8.95 20-20 20s-20-8.95-20-20 8.95-20 20-20 20 8.95 20 20z" stroke="#000" stroke-width="2" fill="#ffbbb1"/><path d="M768.95 669.63l16.6-30.37" stroke="#000" stroke-width="2" fill="none"/><path d="M769.83 670.1l-.06.1-2.55.5.85-1.55zM786.73 639.2l-.3.54-1.76-.96.42-.77z"/><path d="M825.33 670l-12.42-31.74" stroke="#000" stroke-width="2" fill="none"/><path d="M826.46 670.14l-1.13-.14.93-.36zM813.85 637.9l-1.87.72-.16-.42 1.48-1.24.12-.16z"/><path d="M845.33 690c0 11.05-8.95 20-20 20-11.04 0-20-8.95-20-20s8.96-20 20-20c11.05 0 20 8.95 20 20z" stroke="#000" stroke-width="2" fill="#ffbbb1"/><path d="M470 738.67h340l-170-210z" stroke="#000" stroke-width="2" fill="#99d5ca"/><path d="M661 588.67c0 11.04-8.95 20-20 20s-20-8.96-20-20c0-11.05 8.95-20 20-20s20 8.95 20 20z" stroke="#000" stroke-width="4" fill="#99d5ca"/><use xlink:href="#a" transform="matrix(1,0,0,1,626,573.6666666666667) translate(10.266 21.668999999999997)"/><path d="M694.78 622l-40.97-17.2" stroke="#000" stroke-width="2" fill="none"/><path d="M697.93 622.24l-.06.15-3.1-.4.4-.92zM668.76 606.05l-3.6 8.55-11.35-9.8z"/><path d="M670.22 605.17l-4.66 11.08-13.1-11.3 1.38-1.15zm-5.44 7.77l2.53-6-10.5-.9z"/><path d="M587.67 622l38.72-18.8" stroke="#000" stroke-width="2" fill="none"/><path d="M587.67 622l-1.44.05-1.62.32 2.63-1.27zM627.37 603.3l.45.33-1 .48-.87-1.8.42-.2z"/><path d="M714.78 642c0 11.05-8.96 20-20 20-11.05 0-20-8.95-20-20s8.95-20 20-20c11.04 0 20 8.95 20 20z" stroke="#000" stroke-width="4" fill="#99d5ca"/><use xlink:href="#b" transform="matrix(1,0,0,1,679.7777777777778,627.0000000000001) translate(10.484444444444446 21.586666666666666)"/><path d="M688.1 708.67c0 11.04-8.94 20-20 20-11.03 0-20-8.96-20-20 0-11.05 8.97-20 20-20 11.06 0 20 8.95 20 20z" stroke="#000" stroke-width="2" fill="#99d5ca"/><path d="M665.06 688.3l16.6-30.37" stroke="#000" stroke-width="2" fill="none"/><path d="M665.94 688.77l-.06.1-2.55.5.85-1.56zM682.84 657.86l-.3.55-1.76-.95.43-.77z"/><path d="M721.44 688.67l-12.4-31.75" stroke="#000" stroke-width="2" fill="none"/><path d="M722.57 688.8l-1.13-.13.94-.37zM718.54 668.52l-8.63 3.38-.87-14.98z"/><path d="M720.2 668.95l-11.2 4.38-.98-16.53 1.3-1.1zm-9.38 1.5l6.07-2.36-6.7-8.16z"/><path d="M741.44 708.67c0 11.04-8.95 20-20 20-11.04 0-20-8.96-20-20 0-11.05 8.96-20 20-20 11.05 0 20 8.95 20 20z" stroke="#000" stroke-width="4" fill="#99d5ca"/><use xlink:href="#c" transform="matrix(1,0,0,1,706.4444444444443,693.6666666666667) translate(12.777777777777779 21.586666666666666)"/><path d="M607.67 642c0 11.05-8.96 20-20 20-11.05 0-20-8.95-20-20s8.95-20 20-20c11.04 0 20 8.95 20 20zM581 708.67c0 11.04-8.95 20-20 20s-20-8.96-20-20c0-11.05 8.95-20 20-20s20 8.95 20 20z" stroke="#000" stroke-width="2" fill="#99d5ca"/><path d="M557.95 688.3l16.6-30.37" stroke="#000" stroke-width="2" fill="none"/><path d="M558.83 688.77l-.06.1-2.55.5.85-1.56zM575.73 657.86l-.3.55-1.76-.95.42-.77z"/><path d="M614.33 688.67l-12.42-31.75" stroke="#000" stroke-width="2" fill="none"/><path d="M615.46 688.8l-1.13-.13.93-.37zM602.85 656.56l-1.87.73-.16-.43 1.48-1.24.12-.16z"/><path d="M634.33 708.67c0 11.04-8.95 20-20 20-11.04 0-20-8.96-20-20 0-11.05 8.96-20 20-20 11.05 0 20 8.95 20 20z" stroke="#000" stroke-width="2" fill="#99d5ca"/><path d="M307 754h340L477 544z" stroke="#000" stroke-width="2" fill="#c7e8ac"/><path d="M498 604c0 11.05-8.95 20-20 20s-20-8.95-20-20 8.95-20 20-20 20 8.95 20 20z" stroke="#000" stroke-width="2" fill="#c7e8ac"/><path d="M531.78 637.33l-40.97-17.2" stroke="#000" stroke-width="2" fill="none"/><path d="M534.93 637.57l-.06.15-3.1-.4.4-.9zM491.2 619.2l-.77 1.85-1.26-.52 1.73-1.45z"/><path d="M424.67 637.33l38.72-18.8" stroke="#000" stroke-width="2" fill="none"/><path d="M424.67 637.33l-1.44.05-1.62.32 2.63-1.27zM464.37 618.64l.45.32-1 .48-.87-1.8.42-.2z"/><path d="M551.78 657.33c0 11.05-8.96 20-20 20-11.05 0-20-8.95-20-20 0-11.04 8.95-20 20-20 11.04 0 20 8.96 20 20zM525.1 724c0 11.05-8.94 20-20 20-11.03 0-20-8.95-20-20s8.97-20 20-20c11.06 0 20 8.95 20 20z" stroke="#000" stroke-width="2" fill="#c7e8ac"/><path d="M502.06 703.63l16.6-30.37" stroke="#000" stroke-width="2" fill="none"/><path d="M502.94 704.1l-.06.1-2.55.5.85-1.55zM519.84 673.2l-.3.54-1.76-.96.43-.77z"/><path d="M558.44 704l-12.4-31.74" stroke="#000" stroke-width="2" fill="none"/><path d="M559.57 704.14l-1.13-.14.94-.36zM546.96 671.9l-1.87.72-.17-.42 1.48-1.24.13-.16z"/><path d="M578.44 724c0 11.05-8.95 20-20 20-11.04 0-20-8.95-20-20s8.96-20 20-20c11.05 0 20 8.95 20 20zM444.67 657.33c0 11.05-8.96 20-20 20-11.05 0-20-8.95-20-20 0-11.04 8.95-20 20-20 11.04 0 20 8.96 20 20zM418 724c0 11.05-8.95 20-20 20s-20-8.95-20-20 8.95-20 20-20 20 8.95 20 20z" stroke="#000" stroke-width="2" fill="#c7e8ac"/><path d="M394.95 703.63l16.6-30.37" stroke="#000" stroke-width="2" fill="none"/><path d="M395.83 704.1l-.06.1-2.55.5.85-1.55zM412.73 673.2l-.3.54-1.76-.96.42-.77z"/><path d="M451.33 704l-12.42-31.74" stroke="#000" stroke-width="2" fill="none"/><path d="M452.46 704.14l-1.13-.14.93-.36zM439.85 671.9l-1.87.72-.16-.42 1.48-1.24.12-.16z"/><path d="M471.33 724c0 11.05-8.95 20-20 20-11.04 0-20-8.95-20-20s8.96-20 20-20c11.05 0 20 8.95 20 20z" stroke="#000" stroke-width="2" fill="#c7e8ac"/><path d="M647 544h340L817 334z" stroke="#000" stroke-width="2" fill="#f9d2de"/><path d="M838 394c0 11.05-8.95 20-20 20s-20-8.95-20-20 8.95-20 20-20 20 8.95 20 20z" stroke="#000" stroke-width="2" fill="#f9d2de"/><path d="M871.78 427.33l-40.97-17.2" stroke="#000" stroke-width="2" fill="none"/><path d="M874.93 427.57l-.06.15-3.1-.4.4-.9zM831.2 409.2l-.77 1.85-1.26-.52 1.73-1.45z"/><path d="M764.67 427.33l38.72-18.8" stroke="#000" stroke-width="2" fill="none"/><path d="M764.67 427.33l-1.44.05-1.62.32 2.63-1.27zM804.37 408.64l.45.32-1 .48-.87-1.8.42-.2z"/><path d="M891.78 447.33c0 11.05-8.96 20-20 20-11.05 0-20-8.95-20-20 0-11.04 8.95-20 20-20 11.04 0 20 8.96 20 20z" stroke="#000" stroke-width="2" fill="#ff8f80"/><path d="M865.1 514c0 11.05-8.94 20-20 20-11.03 0-20-8.95-20-20s8.97-20 20-20c11.06 0 20 8.95 20 20z" stroke="#000" stroke-width="2" fill="#f9d2de"/><path d="M842.06 493.63l16.6-30.37" stroke="#000" stroke-width="2" fill="none"/><path d="M842.94 494.1l-.06.1-2.55.5.85-1.55zM859.84 463.2l-.3.54-1.76-.96.43-.77z"/><path d="M898.44 494l-12.4-31.74" stroke="#000" stroke-width="2" fill="none"/><path d="M899.57 494.14l-1.13-.14.94-.36zM886.96 461.9l-1.87.72-.17-.42 1.48-1.24.13-.16z"/><path d="M918.44 514c0 11.05-8.95 20-20 20-11.04 0-20-8.95-20-20s8.96-20 20-20c11.05 0 20 8.95 20 20zM784.67 447.33c0 11.05-8.96 20-20 20-11.05 0-20-8.95-20-20 0-11.04 8.95-20 20-20 11.04 0 20 8.96 20 20zM758 514c0 11.05-8.95 20-20 20s-20-8.95-20-20 8.95-20 20-20 20 8.95 20 20z" stroke="#000" stroke-width="2" fill="#f9d2de"/><path d="M734.95 493.63l16.6-30.37" stroke="#000" stroke-width="2" fill="none"/><path d="M735.83 494.1l-.06.1-2.55.5.85-1.55zM752.73 463.2l-.3.54-1.76-.96.42-.77z"/><path d="M791.33 494l-12.42-31.74" stroke="#000" stroke-width="2" fill="none"/><path d="M792.46 494.14l-1.13-.14.93-.36zM779.85 461.9l-1.87.72-.16-.42 1.48-1.24.12-.16z"/><path d="M811.33 514c0 11.05-8.95 20-20 20-11.04 0-20-8.95-20-20s8.96-20 20-20c11.05 0 20 8.95 20 20z" stroke="#000" stroke-width="2" fill="#ffbbb1"/><path d="M410 566h340L580 356z" stroke="#000" stroke-width="2" fill="#c1e4f7"/><path d="M601 416c0 11.05-8.95 20-20 20s-20-8.95-20-20 8.95-20 20-20 20 8.95 20 20z" stroke="#000" stroke-width="4" fill="#c1e4f7"/><use xlink:href="#d" transform="matrix(1,0,0,1,566,401) translate(10.014 21.668999999999997)"/><path d="M634.78 449.33l-40.97-17.2" stroke="#000" stroke-width="2" fill="none"/><path d="M637.93 449.57l-.06.15-3.1-.4.4-.9zM608.76 433.38l-3.6 8.55-11.35-9.8z"/><path d="M610.22 432.5l-4.66 11.08-13.1-11.3 1.38-1.15zm-5.44 7.77l2.53-6-10.5-.9z"/><path d="M527.67 449.33l38.72-18.8" stroke="#000" stroke-width="2" fill="none"/><path d="M527.67 449.33l-1.44.05-1.62.32 2.63-1.27zM567.37 430.64l.45.32-1 .48-.87-1.8.42-.2z"/><path d="M654.78 469.33c0 11.05-8.96 20-20 20-11.05 0-20-8.95-20-20 0-11.04 8.95-20 20-20 11.04 0 20 8.96 20 20z" stroke="#000" stroke-width="4" fill="#c1e4f7"/><use xlink:href="#e" transform="matrix(1,0,0,1,619.7777777777778,454.33333333333337) translate(10.338000000000001 21.668999999999997)"/><path d="M628.1 536c0 11.05-8.94 20-20 20-11.03 0-20-8.95-20-20s8.97-20 20-20c11.06 0 20 8.95 20 20z" stroke="#000" stroke-width="2" fill="#c1e4f7"/><path d="M605.06 515.63l16.6-30.37" stroke="#000" stroke-width="2" fill="none"/><path d="M605.94 516.1l-.06.1-2.55.5.85-1.55zM622.84 485.2l-.3.54-1.76-.96.43-.77z"/><path d="M661.44 516l-12.4-31.74" stroke="#000" stroke-width="2" fill="none"/><path d="M662.57 516.14l-1.13-.14.94-.36zM658.54 495.85l-8.63 3.38-.87-14.97z"/><path d="M660.2 496.28l-11.2 4.38-.98-16.53 1.3-1.1zm-9.38 1.52l6.07-2.38-6.7-8.15z"/><path d="M681.44 536c0 11.05-8.95 20-20 20-11.04 0-20-8.95-20-20s8.96-20 20-20c11.05 0 20 8.95 20 20z" stroke="#000" stroke-width="4" fill="#99d5ca"/><use xlink:href="#f" transform="matrix(1,0,0,1,646.4444444444443,521) translate(9.627 21.668999999999997)"/><path d="M547.67 469.33c0 11.05-8.96 20-20 20-11.05 0-20-8.95-20-20 0-11.04 8.95-20 20-20 11.04 0 20 8.96 20 20zM521 536c0 11.05-8.95 20-20 20s-20-8.95-20-20 8.95-20 20-20 20 8.95 20 20z" stroke="#000" stroke-width="2" fill="#c1e4f7"/><path d="M497.95 515.63l16.6-30.37" stroke="#000" stroke-width="2" fill="none"/><path d="M498.83 516.1l-.06.1-2.55.5.85-1.55zM515.73 485.2l-.3.54-1.76-.96.42-.77z"/><path d="M554.33 516l-12.42-31.74" stroke="#000" stroke-width="2" fill="none"/><path d="M555.46 516.14l-1.13-.14.93-.36zM542.85 483.9l-1.87.72-.16-.42 1.48-1.24.12-.16z"/><path d="M574.33 536c0 11.05-8.95 20-20 20-11.04 0-20-8.95-20-20s8.96-20 20-20c11.05 0 20 8.95 20 20z" stroke="#000" stroke-width="2" fill="#c7e8ac"/><path d="M530 140h360v60H530z" stroke="#000" stroke-opacity="0" stroke-width="2" fill="#fff" fill-opacity="0"/><use xlink:href="#g" transform="matrix(1,0,0,1,535,145) translate(64.12888888888887 31.586666666666666)"/><use xlink:href="#h" transform="matrix(1,0,0,1,535,145) translate(110.52888888888887 31.586666666666666)"/><use xlink:href="#i" transform="matrix(1,0,0,1,535,145) translate(182.95555555555555 31.586666666666666)"/><use xlink:href="#j" transform="matrix(1,0,0,1,535,145) translate(205.83555555555554 31.586666666666666)"/><use xlink:href="#k" transform="matrix(1,0,0,1,535,145) translate(255.24 31.586666666666666)"/><path d="M500 410h340L670 200z" stroke="#000" stroke-width="2" fill="#fff"/><path d="M691 260c0 11.05-8.95 20-20 20s-20-8.95-20-20 8.95-20 20-20 20 8.95 20 20z" stroke="#000" stroke-width="4" fill="#fff"/><use xlink:href="#l" transform="matrix(1,0,0,1,656,245) translate(10.266 21.668999999999997)"/><path d="M724.78 293.33l-40.97-17.2" stroke="#000" stroke-width="2" fill="none"/><path d="M727.93 293.57l-.06.15-3.1-.4.4-.9zM684.2 275.2l-.77 1.85-1.26-.52 1.73-1.45z"/><path d="M617.67 293.33l38.72-18.8" stroke="#000" stroke-width="2" fill="none"/><path d="M617.67 293.33l-1.44.05-1.62.32 2.63-1.27zM645.58 284.94l-4.05-8.34 14.86-2.06z"/><path d="M657.37 274.64l.2.15-12.3 11.8-5.24-10.8 16.4-2.28zm-14.34 2.76l2.85 5.86 7.6-7.3z"/><path d="M744.78 313.33c0 11.05-8.96 20-20 20-11.05 0-20-8.95-20-20 0-11.04 8.95-20 20-20 11.04 0 20 8.96 20 20zM718.1 380c0 11.05-8.94 20-20 20-11.03 0-20-8.95-20-20s8.97-20 20-20c11.06 0 20 8.95 20 20z" stroke="#000" stroke-width="2" fill="#fff"/><path d="M695.06 359.63l16.6-30.37" stroke="#000" stroke-width="2" fill="none"/><path d="M695.94 360.1l-.06.1-2.55.5.85-1.55zM712.84 329.2l-.3.54-1.76-.96.43-.77z"/><path d="M751.44 360l-12.4-31.74" stroke="#000" stroke-width="2" fill="none"/><path d="M752.57 360.14l-1.13-.14.94-.36zM739.96 327.9l-1.87.72-.17-.42 1.48-1.24.13-.16z"/><path d="M771.44 380c0 11.05-8.95 20-20 20-11.04 0-20-8.95-20-20s8.96-20 20-20c11.05 0 20 8.95 20 20z" stroke="#000" stroke-width="2" fill="#f9d2de"/><path d="M637.67 313.33c0 11.05-8.96 20-20 20-11.05 0-20-8.95-20-20 0-11.04 8.95-20 20-20 11.04 0 20 8.96 20 20z" stroke="#000" stroke-width="4" fill="#fff"/><use xlink:href="#m" transform="matrix(1,0,0,1,602.6666666666665,298.33333333333337) translate(10.356000000000002 22.168999999999997)"/><path d="M611 380c0 11.05-8.95 20-20 20s-20-8.95-20-20 8.95-20 20-20 20 8.95 20 20z" stroke="#000" stroke-width="4" fill="#c1e4f7"/><use xlink:href="#n" transform="matrix(1,0,0,1,576,365) translate(10.661999999999999 22.168999999999997)"/><path d="M587.95 359.63l16.6-30.37" stroke="#000" stroke-width="2" fill="none"/><path d="M588.83 360.1l-.06.1-2.55.5.85-1.55zM601.77 344l-8.13-4.44 10.9-10.3z"/><path d="M605.6 329.1l-3.1 16.44-10.55-5.77 12.33-11.63zm-10.27 10.24l5.72 3.13L603 332.1z"/><path d="M644.33 360l-12.42-31.74" stroke="#000" stroke-width="2" fill="none"/><path d="M645.46 360.14l-1.13-.14.93-.36zM632.85 327.9l-1.87.72-.16-.42 1.48-1.24.12-.16z"/><path d="M664.33 380c0 11.05-8.95 20-20 20-11.04 0-20-8.95-20-20s8.96-20 20-20c11.05 0 20 8.95 20 20z" stroke="#000" stroke-width="2" fill="#fff"/><defs><path d="M66-36C218 39 471-3 467-192c-2-80-42-127-110-143l-1-9c78-49 147-71 147-167 0-97-97-144-199-117-92 25-177 73-236 132-44 44 19 121 61 75 55-59 120-114 218-124 57-6 60 57 23 91-55 51-137 116-227 116-53 0-25 95 6 96 66-26 221-50 221 46 0 99-129 126-230 101-45-11-37-63-90-63-26 0-53 8-51 37 2 42 34 69 67 85" id="o"/><use transform="matrix(0.018,0,0,0.018,0,0)" xlink:href="#o" id="a"/><path d="M320-133c-46 0-88 4-131 12l1-15c52-55 101-121 152-178 55-62 111-124 117-224 7-114-144-116-231-69-56 30-116 74-158 117-33 34-13 79 21 87 67-16 104-88 167-116 22-10 43-24 70-25 39 6 41 35 17 70C247-329 126-188 10-62-9-41-3 1 30-1c109-29 279-43 409-25 24 3 33-21 33-44 0-65-68-63-152-63" id="p"/><use transform="matrix(0.017777777777777778,0,0,0.017777777777777778,0,0)" xlink:href="#p" id="b"/><path d="M142-643c-47 6-90 33-114 61 0 23 18 37 55 44 3 2 5 5 4 11-7 131-35 252-23 397 3 34 4 68 5 102 6 18 32 27 53 28 26 1 30-10 31-33 3-139-4-287 23-403 12-49 12-109 22-168-5-25-31-35-56-39" id="q"/><use transform="matrix(0.017777777777777778,0,0,0.017777777777777778,0,0)" xlink:href="#q" id="c"/><path d="M490-162c77-176-68-339-251-284l-4-8c29-56 71-103 115-138 32-26-11-62-42-62-19 0-43 9-65 32-79 83-173 222-195 352C20-106 117-1 254-1c120 0 198-74 236-161zM283-374c90-6 116 52 122 127-17 88-52 153-148 153-68 0-112-52-110-126 3-92 47-149 136-154" id="r"/><use transform="matrix(0.018,0,0,0.018,0,0)" xlink:href="#r" id="d"/><path d="M481-193c0-153-155-219-320-185l-5-6 25-121c61-42 183-39 283-39 21 0 26-17 27-36 7-91-107-51-179-45-70 6-145 21-204 40-45 65-55 182-72 275 4 29 22 51 52 54 51-16 106-39 152-36 73 4 140 32 140 102 0 85-130 109-208 78-44-18-75-57-114-76-25-4-59 40-58 58C23-41 126-2 230-2c139 0 251-59 251-191" id="s"/><use transform="matrix(0.018,0,0,0.018,0,0)" xlink:href="#s" id="e"/><path d="M48-171c66-20 145-41 225-46 22-1 14 5 22 13-6 74-32 202 53 202 27 0 54-16 57-36-20-51-12-115-6-177 35-15 94-2 138-2 23 0 34-25 34-50 0-59-90-40-153-44l-4-7c16-100 47-197 77-285-15-17-29-43-54-49-149 95-289 237-401 371-37 44-30 90 12 110zm117-129c62-68 109-122 174-177l8 5c-13 52-25 103-34 162-55 11-105 6-144 19" id="t"/><use transform="matrix(0.018,0,0,0.018,0,0)" xlink:href="#t" id="f"/><path d="M528-55c-1 36-32 41-71 44L144 12C62 28 67-37 75-107c18-152 21-333 29-477 3-66 102-44 174-47 76-3 165-11 246-11 44 0 39 80 4 84-99 13-217 14-322 22l-15 170c86-8 168-31 259-27 25 1 40 15 39 42-2 45-40 43-81 48l-225 25-17 202 291-25c46-1 73 3 71 46" id="u"/><path d="M428-436c10 60-30 104-56 152C320-187 257-92 201 0c-17 27-53 28-67-8C87-124 60-265 30-393c-10-41 28-58 72-51 31 16 33 87 41 126 10 48 28 117 34 177 47-85 104-182 154-263 20-33 22-44 67-46 15 0 25 4 30 14" id="v"/><path d="M219-412c99-54 263-26 248 106-6 57-62 81-112 104-62 28-146 48-218 66-5 48 10 94 65 90 94-7 136-72 207-98 34-13 67 0 57 43C435-41 354-7 282 18c-34 11-68 16-102 16C83 33 33-24 43-131c12-131 81-229 176-281zm101 138c24-14 78-40 42-74-39-37-110 1-139 24-31 25-59 61-72 105 67 5 123-28 169-55" id="w"/><path d="M387-452c45 0 79 27 79 73 0 109-16 218-23 327 13 58-52 84-87 52-7-7-8-24-7-49l20-277c5-41-49-23-78-16-38 9-78 28-106 53L160-48c13 58-94 91-94 20 0-134 25-233 25-362 0-45 36-68 83-64 18 6 9 33 16 56 60-17 127-54 197-54" id="x"/><path d="M294-7c-52 29-182 61-175-39l22-313c-29 11-104 9-94-22-2-51 54-54 100-61 1-69 2-169 83-132 25 20 10 79 10 117 49-6 105-16 153-21 33-3 36 52 17 67-34 27-121 29-176 39L215-96c-3 27 40 15 48 4 21-29 77-60 113-24 8 8 12 20 11 35-23 31-56 53-93 74" id="y"/><g id="g"><use transform="matrix(0.017777777777777778,0,0,0.017777777777777778,0,0)" xlink:href="#u"/><use transform="matrix(0.017777777777777778,0,0,0.017777777777777778,9.44,0)" xlink:href="#v"/><use transform="matrix(0.017777777777777778,0,0,0.017777777777777778,16.72888888888889,0)" xlink:href="#w"/><use transform="matrix(0.017777777777777778,0,0,0.017777777777777778,25.066666666666666,0)" xlink:href="#x"/><use transform="matrix(0.017777777777777778,0,0,0.017777777777777778,33.99111111111111,0)" xlink:href="#y"/></g><path d="M283-28c185-83 354-230 321-494-20-153-236-181-388-118-35 15-82 21-96 56-8 19-11 37-8 56-12 168-40 332-40 504 0 55 58 40 112 29 31-7 64-18 99-33zm100-557c91 2 139 59 130 151-19 202-172 299-346 347l39-449c43-22 109-51 177-49" id="z"/><path d="M123-498c77 32 120-75 87-136-18-21-76-16-94 7-23 17-37 86-10 113 5 6 10 13 17 16zm35 466c14-117 12-250 30-368 9-59-74-59-92-24-11 21-9 48-11 80-6 111-17 224-17 334 0 32 72 34 82 4 3-8 6-16 8-26" id="A"/><path d="M376-215c43 0 31 49 10 75-39 47-104 89-187 89-48 0-70-41-115-55-47-14-78 39-47 75 50 58 171 80 264 44 95-36 189-96 200-210 7-67-35-108-100-108-91 0-157 59-233 59-38 0-19-38-4-54 46-49 136-72 234-65 42 3 82-10 73-53-25-53-127-37-191-22-109 25-216 75-229 191-7 61 35 94 99 94 85 0 146-60 226-60" id="B"/><path d="M393-459c146-8 146 177 91 275C422-74 333 27 158 16l-15 208c-2 44-18 57-57 65-41 8-39-29-37-69C64 13 75-196 92-403c3-38 51-65 89-41 11 7 15 20 14 40 57-37 116-50 198-55zm-49 317c41-44 97-127 68-203-60-38-166 6-210 35-11 7-16 15-17 21L171-90c-1 20 13 24 33 24 58 0 107-40 140-76" id="C"/><path d="M414 18c44 0 51-25 54-67l20-294c15-129-122-120-228-97-56 12-101 41-148 64-16 8-27 55-6 61 51 14 87-22 132-33 39-9 72-27 121-28 19 0 38 3 37 23l-4 55C217-288 63-254 27-107 26-36 64 31 131 31c99 0 173-43 244-71-7 36-4 58 39 58zm-23-168c-50 42-119 78-192 101-76 24-118-61-60-101 61-42 156-67 248-79" id="D"/><path d="M187 30C86 30 37-38 44-140c9-132 83-229 176-282 85-48 240-30 261 49 11 42-48 56-82 35-28-29-107-33-145-6-64 46-121 125-114 234 5 80 124 50 168 20 34-24 59-51 76-86 11-23 89-29 88 6C437-52 341 30 187 30" id="E"/><path d="M315-328c46-26 68 3 62 60L355-49c-9 52 42 87 77 55 9-8 16-26 18-53l20-275c5-79-5-118-74-118-90 0-156 50-216 91 5-90 16-180 17-273 12-48-45-53-69-32-24 22-24 70-26 114L67-46C55 6 109 37 144 2c12-11 16-27 18-48l13-182c43-35 90-73 140-100" id="F"/><g id="h"><use transform="matrix(0.017777777777777778,0,0,0.017777777777777778,0,0)" xlink:href="#z"/><use transform="matrix(0.017777777777777778,0,0,0.017777777777777778,10.773333333333333,0)" xlink:href="#A"/><use transform="matrix(0.017777777777777778,0,0,0.017777777777777778,14.72,0)" xlink:href="#B"/><use transform="matrix(0.017777777777777778,0,0,0.017777777777777778,23.964444444444446,0)" xlink:href="#C"/><use transform="matrix(0.017777777777777778,0,0,0.017777777777777778,33.36888888888889,0)" xlink:href="#D"/><use transform="matrix(0.017777777777777778,0,0,0.017777777777777778,42.75555555555557,0)" xlink:href="#y"/><use transform="matrix(0.017777777777777778,0,0,0.017777777777777778,50.506666666666675,0)" xlink:href="#E"/><use transform="matrix(0.017777777777777778,0,0,0.017777777777777778,58.70222222222223,0)" xlink:href="#F"/></g><path d="M355-451c110 0 162 80 153 193C498-125 413-39 312 7c-36 15-72 23-111 23C93 29 36-35 44-144c9-131 86-228 184-278 37-19 80-29 127-29zM207-56c121 0 193-88 206-202 6-56-14-100-70-100-129 0-190 98-204 214-6 51 17 88 68 88" id="G"/><g id="i"><use transform="matrix(0.017777777777777778,0,0,0.017777777777777778,0,0)" xlink:href="#G"/><use transform="matrix(0.017777777777777778,0,0,0.017777777777777778,9.297777777777778,0)" xlink:href="#x"/></g><path d="M480-433c87 3 153 44 143 142C607-123 486-34 346 11 211 55 46 26 46-120c0-40 65-72 88-32 25 42 40 94 112 88 119-10 209-60 257-143 23-39 41-132-32-128-105 6-179 59-280 59-78 0-132-37-122-121 15-131 114-208 221-254 92-40 227-25 274 37 24 31 8 80-30 82-66 3-63-54-134-52-103 3-170 55-212 118-24 36-30 92 21 92 91 0 162-63 271-59" id="H"/><path d="M254-72c-30 8-82 15-89-17l23-289c33-89-91-94-97-3L70-84C51 77 266 15 354-26c-4 32 14 41 41 42 42 1 72-22 56-65l24-338c12-51 9-78-33-75-43 3-60 30-63 75l-18 260c-30 21-67 44-107 55" id="I"/><path d="M124 12C75 22 65-15 68-58l23-329c-6-47 11-61 61-61 32 0 27 14 38 41 60-28 141-67 220-43 14 18 32 52 5 72-44 33-165 17-207 62-5 4-12 9-20 13L160-58c-7 43-5 63-36 70" id="J"/><g id="j"><use transform="matrix(0.017777777777777778,0,0,0.017777777777777778,0,0)" xlink:href="#H"/><use transform="matrix(0.017777777777777778,0,0,0.017777777777777778,11.217777777777778,0)" xlink:href="#I"/><use transform="matrix(0.017777777777777778,0,0,0.017777777777777778,20.284444444444443,0)" xlink:href="#C"/><use transform="matrix(0.017777777777777778,0,0,0.017777777777777778,29.68888888888889,0)" xlink:href="#w"/><use transform="matrix(0.017777777777777778,0,0,0.017777777777777778,38.02666666666668,0)" xlink:href="#J"/></g><path d="M216-52c-5 36-4 69 38 67 48-3 51-21 55-66l44-503c67-15 148-20 201-48 21-11 22-54 2-66-33-20-92 2-124 8-114 21-232 39-344 74-26 8-41 55-12 68 50 23 129-13 181-19" id="K"/><g id="k"><use transform="matrix(0.017777777777777778,0,0,0.017777777777777778,0,0)" xlink:href="#K"/><use transform="matrix(0.017777777777777778,0,0,0.017777777777777778,7.235555555555556,0)" xlink:href="#J"/><use transform="matrix(0.017777777777777778,0,0,0.017777777777777778,13.955555555555556,0)" xlink:href="#w"/><use transform="matrix(0.017777777777777778,0,0,0.017777777777777778,22.293333333333333,0)" xlink:href="#w"/></g><path d="M163-195c76 0 147-43 197-75L349-18c12 27 101 26 97-16-17-193 29-380 68-528 25-97-139-88-219-71C169-606 86-529 39-430c-15 31-19 60-19 95 0 87 57 140 143 140zm83-331c49-30 136-26 136 38 0 86-61 149-120 188-49 32-145 31-142-39 4-90 65-150 126-187" id="L"/><use transform="matrix(0.018,0,0,0.018,0,0)" xlink:href="#L" id="l"/><path d="M214 0c102 0 222-32 184-140-23-64-79-103-126-155 5-18 20-19 38-39 56-61 147-107 147-212 0-133-215-82-302-48-60 23-114 65-114 128 0 49 31 104 94 163l1 7C79-236 28-206 28-121 28-29 116 0 214 0zm42-545c37-10 110-26 113 22-25 76-104 111-155 159h-7c-33-24-57-60-70-100 14-47 69-67 119-81zM125-125c0-49 36-79 72-110h6c60 54 90 92 90 114-1 31-39 46-74 45-63 0-94-16-94-49" id="M"/><use transform="matrix(0.018,0,0,0.018,0,0)" xlink:href="#M" id="m"/><path d="M400-633c-82 19-215 12-310 12-44 0-69 16-77 45 13 56 100 48 167 50 44 0 79-6 119-9 9 8-1 17-4 26-58 126-113 249-151 385C129-67 118 0 184 0c33 0 60-11 63-41-6-15-6-19-6-35 0-178 132-371 221-499-2-39-22-58-62-58" id="N"/><use transform="matrix(0.018,0,0,0.018,0,0)" xlink:href="#N" id="n"/></defs></g></svg>