<svg xmlns="http://www.w3.org/2000/svg" xmlns:xlink="http://www.w3.org/1999/xlink" xmlns:lucid="lucid" width="884" height="654"><g transform="translate(-287 -120)" lucid:page-tab-id="DzeVNTklI~RQ"><path d="M811 713.67h340l-170-210z" stroke="#000" stroke-width="2" fill="#ff8f80"/><path d="M1002 563.67c0 11.04-8.95 20-20 20s-20-8.96-20-20c0-11.05 8.95-20 20-20s20 8.95 20 20z" stroke="#000" stroke-width="2" fill="#ff8f80"/><path d="M1035.78 597l-40.97-17.2" stroke="#000" stroke-width="2" fill="none"/><path d="M1038.93 597.24l-.06.15-3.1-.4.4-.92zM995.2 578.88l-.77 1.84-1.26-.53 1.73-1.45z"/><path d="M928.67 597l38.72-18.8" stroke="#000" stroke-width="2" fill="none"/><path d="M928.67 597l-1.44.05-1.62.32 2.63-1.27zM968.37 578.3l.45.33-1 .48-.87-1.8.42-.2z"/><path d="M1055.78 617c0 11.05-8.96 20-20 20-11.05 0-20-8.95-20-20s8.95-20 20-20c11.04 0 20 8.95 20 20zM1029.1 683.67c0 11.04-8.94 20-20 20-11.03 0-20-8.96-20-20 0-11.05 8.97-20 20-20 11.06 0 20 8.95 20 20z" stroke="#000" stroke-width="2" fill="#ff8f80"/><path d="M1006.06 663.3l16.6-30.37" stroke="#000" stroke-width="2" fill="none"/><path d="M1006.94 663.77l-.06.1-2.55.5.85-1.56zM1023.84 632.86l-.3.55-1.76-.95.43-.77z"/><path d="M1062.44 663.67l-12.4-31.75" stroke="#000" stroke-width="2" fill="none"/><path d="M1063.57 663.8l-1.13-.13.94-.37zM1050.96 631.56l-1.87.73-.17-.43 1.48-1.24.13-.16z"/><path d="M1082.44 683.67c0 11.04-8.95 20-20 20-11.04 0-20-8.96-20-20 0-11.05 8.96-20 20-20 11.05 0 20 8.95 20 20zM948.67 617c0 11.05-8.96 20-20 20-11.05 0-20-8.95-20-20s8.95-20 20-20c11.04 0 20 8.95 20 20zM922 683.67c0 11.04-8.95 20-20 20s-20-8.96-20-20c0-11.05 8.95-20 20-20s20 8.95 20 20z" stroke="#000" stroke-width="2" fill="#ff8f80"/><path d="M898.95 663.3l16.6-30.37" stroke="#000" stroke-width="2" fill="none"/><path d="M899.83 663.77l-.06.1-2.55.5.85-1.56zM916.73 632.86l-.3.55-1.76-.95.42-.77z"/><path d="M955.33 663.67l-12.42-31.75" stroke="#000" stroke-width="2" fill="none"/><path d="M956.46 663.8l-1.13-.13.93-.37zM943.85 631.56l-1.87.73-.16-.43 1.48-1.24.12-.16z"/><path d="M975.33 683.67c0 11.04-8.95 20-20 20-11.04 0-20-8.96-20-20 0-11.05 8.96-20 20-20 11.05 0 20 8.95 20 20z" stroke="#000" stroke-width="2" fill="#ff8f80"/><path d="M681 720h340L851 510z" stroke="#000" stroke-width="2" fill="#ffbbb1"/><path d="M872 570c0 11.05-8.95 20-20 20s-20-8.95-20-20 8.95-20 20-20 20 8.95 20 20z" stroke="#000" stroke-width="2" fill="#ffbbb1"/><path d="M905.78 603.33l-40.97-17.2" stroke="#000" stroke-width="2" fill="none"/><path d="M908.93 603.57l-.06.15-3.1-.4.4-.9zM865.2 585.2l-.77 1.85-1.26-.52 1.73-1.45z"/><path d="M798.67 603.33l38.72-18.8" stroke="#000" stroke-width="2" fill="none"/><path d="M798.67 603.33l-1.44.05-1.62.32 2.63-1.27zM838.37 584.64l.45.32-1 .48-.87-1.8.42-.2z"/><path d="M925.78 623.33c0 11.05-8.96 20-20 20-11.05 0-20-8.95-20-20 0-11.04 8.95-20 20-20 11.04 0 20 8.96 20 20zM899.1 690c0 11.05-8.94 20-20 20-11.03 0-20-8.95-20-20s8.97-20 20-20c11.06 0 20 8.95 20 20z" stroke="#000" stroke-width="2" fill="#ffbbb1"/><path d="M876.06 669.63l16.6-30.37" stroke="#000" stroke-width="2" fill="none"/><path d="M876.94 670.1l-.06.1-2.55.5.85-1.55zM893.84 639.2l-.3.54-1.76-.96.43-.77z"/><path d="M932.44 670l-12.4-31.74" stroke="#000" stroke-width="2" fill="none"/><path d="M933.57 670.14l-1.13-.14.94-.36zM920.96 637.9l-1.87.72-.17-.42 1.48-1.24.13-.16z"/><path d="M952.44 690c0 11.05-8.95 20-20 20-11.04 0-20-8.95-20-20s8.96-20 20-20c11.05 0 20 8.95 20 20zM818.67 623.33c0 11.05-8.96 20-20 20-11.05 0-20-8.95-20-20 0-11.04 8.95-20 20-20 11.04 0 20 8.96 20 20zM792 690c0 11.05-8.95 20-20 20s-20-8.95-20-20 8.95-20 20-20 20 8.95 20 20z" stroke="#000" stroke-width="2" fill="#ffbbb1"/><path d="M768.95 669.63l16.6-30.37" stroke="#000" stroke-width="2" fill="none"/><path d="M769.83 670.1l-.06.1-2.55.5.85-1.55zM786.73 639.2l-.3.54-1.76-.96.42-.77z"/><path d="M825.33 670l-12.42-31.74" stroke="#000" stroke-width="2" fill="none"/><path d="M826.46 670.14l-1.13-.14.93-.36zM813.85 637.9l-1.87.72-.16-.42 1.48-1.24.12-.16z"/><path d="M845.33 690c0 11.05-8.95 20-20 20-11.04 0-20-8.95-20-20s8.96-20 20-20c11.05 0 20 8.95 20 20z" stroke="#000" stroke-width="2" fill="#ffbbb1"/><path d="M470 738.67h340l-170-210z" stroke="#000" stroke-width="2" fill="#99d5ca"/><path d="M661 588.67c0 11.04-8.95 20-20 20s-20-8.96-20-20c0-11.05 8.95-20 20-20s20 8.95 20 20z" stroke="#000" stroke-width="4" fill="#99d5ca"/><use xlink:href="#a" transform="matrix(1,0,0,1,626,573.6666666666667) translate(10.266 21.668999999999997)"/><path d="M694.78 622l-40.97-17.2" stroke="#000" stroke-width="2" fill="none"/><path d="M697.93 622.24l-.06.15-3.1-.4.4-.92zM668.76 606.05l-3.6 8.55-11.35-9.8z"/><path d="M670.22 605.17l-4.66 11.08-13.1-11.3 1.38-1.15zm-5.44 7.77l2.53-6-10.5-.9z"/><path d="M587.67 622l38.72-18.8" stroke="#000" stroke-width="2" fill="none"/><path d="M587.67 622l-1.44.05-1.62.32 2.63-1.27zM627.37 603.3l.45.33-1 .48-.87-1.8.42-.2z"/><path d="M714.78 642c0 11.05-8.96 20-20 20-11.05 0-20-8.95-20-20s8.95-20 20-20c11.04 0 20 8.95 20 20z" stroke="#000" stroke-width="4" fill="#99d5ca"/><use xlink:href="#b" transform="matrix(1,0,0,1,679.7777777777778,627.0000000000001) translate(10.484444444444446 21.586666666666666)"/><path d="M688.1 708.67c0 11.04-8.94 20-20 20-11.03 0-20-8.96-20-20 0-11.05 8.97-20 20-20 11.06 0 20 8.95 20 20z" stroke="#000" stroke-width="2" fill="#99d5ca"/><path d="M665.06 688.3l16.6-30.37" stroke="#000" stroke-width="2" fill="none"/><path d="M665.94 688.77l-.06.1-2.55.5.85-1.56zM682.84 657.86l-.3.55-1.76-.95.43-.77z"/><path d="M721.44 688.67l-12.4-31.75" stroke="#000" stroke-width="2" fill="none"/><path d="M722.57 688.8l-1.13-.13.94-.37zM718.54 668.52l-8.63 3.38-.87-14.98z"/><path d="M720.2 668.95l-11.2 4.38-.98-16.53 1.3-1.1zm-9.38 1.5l6.07-2.36-6.7-8.16z"/><path d="M741.44 708.67c0 11.04-8.95 20-20 20-11.04 0-20-8.96-20-20 0-11.05 8.96-20 20-20 11.05 0 20 8.95 20 20z" stroke="#000" stroke-width="4" fill="#99d5ca"/><use xlink:href="#c" transform="matrix(1,0,0,1,706.4444444444443,693.6666666666667) translate(9.551111111111112 21.586666666666666)"/><path d="M607.67 642c0 11.05-8.96 20-20 20-11.05 0-20-8.95-20-20s8.95-20 20-20c11.04 0 20 8.95 20 20zM581 708.67c0 11.04-8.95 20-20 20s-20-8.96-20-20c0-11.05 8.95-20 20-20s20 8.95 20 20z" stroke="#000" stroke-width="2" fill="#99d5ca"/><path d="M557.95 688.3l16.6-30.37" stroke="#000" stroke-width="2" fill="none"/><path d="M558.83 688.77l-.06.1-2.55.5.85-1.56zM575.73 657.86l-.3.55-1.76-.95.42-.77z"/><path d="M614.33 688.67l-12.42-31.75" stroke="#000" stroke-width="2" fill="none"/><path d="M615.46 688.8l-1.13-.13.93-.37zM602.85 656.56l-1.87.73-.16-.43 1.48-1.24.12-.16z"/><path d="M634.33 708.67c0 11.04-8.95 20-20 20-11.04 0-20-8.96-20-20 0-11.05 8.96-20 20-20 11.05 0 20 8.95 20 20z" stroke="#000" stroke-width="2" fill="#99d5ca"/><path d="M307 754h340L477 544z" stroke="#000" stroke-width="2" fill="#c7e8ac"/><path d="M498 604c0 11.05-8.95 20-20 20s-20-8.95-20-20 8.95-20 20-20 20 8.95 20 20z" stroke="#000" stroke-width="2" fill="#c7e8ac"/><path d="M531.78 637.33l-40.97-17.2" stroke="#000" stroke-width="2" fill="none"/><path d="M534.93 637.57l-.06.15-3.1-.4.4-.9zM491.2 619.2l-.77 1.85-1.26-.52 1.73-1.45z"/><path d="M424.67 637.33l38.72-18.8" stroke="#000" stroke-width="2" fill="none"/><path d="M424.67 637.33l-1.44.05-1.62.32 2.63-1.27zM464.37 618.64l.45.32-1 .48-.87-1.8.42-.2z"/><path d="M551.78 657.33c0 11.05-8.96 20-20 20-11.05 0-20-8.95-20-20 0-11.04 8.95-20 20-20 11.04 0 20 8.96 20 20zM525.1 724c0 11.05-8.94 20-20 20-11.03 0-20-8.95-20-20s8.97-20 20-20c11.06 0 20 8.95 20 20z" stroke="#000" stroke-width="2" fill="#c7e8ac"/><path d="M502.06 703.63l16.6-30.37" stroke="#000" stroke-width="2" fill="none"/><path d="M502.94 704.1l-.06.1-2.55.5.85-1.55zM519.84 673.2l-.3.54-1.76-.96.43-.77z"/><path d="M558.44 704l-12.4-31.74" stroke="#000" stroke-width="2" fill="none"/><path d="M559.57 704.14l-1.13-.14.94-.36zM546.96 671.9l-1.87.72-.17-.42 1.48-1.24.13-.16z"/><path d="M578.44 724c0 11.05-8.95 20-20 20-11.04 0-20-8.95-20-20s8.96-20 20-20c11.05 0 20 8.95 20 20zM444.67 657.33c0 11.05-8.96 20-20 20-11.05 0-20-8.95-20-20 0-11.04 8.95-20 20-20 11.04 0 20 8.96 20 20zM418 724c0 11.05-8.95 20-20 20s-20-8.95-20-20 8.95-20 20-20 20 8.95 20 20z" stroke="#000" stroke-width="2" fill="#c7e8ac"/><path d="M394.95 703.63l16.6-30.37" stroke="#000" stroke-width="2" fill="none"/><path d="M395.83 704.1l-.06.1-2.55.5.85-1.55zM412.73 673.2l-.3.54-1.76-.96.42-.77z"/><path d="M451.33 704l-12.42-31.74" stroke="#000" stroke-width="2" fill="none"/><path d="M452.46 704.14l-1.13-.14.93-.36zM439.85 671.9l-1.87.72-.16-.42 1.48-1.24.12-.16z"/><path d="M471.33 724c0 11.05-8.95 20-20 20-11.04 0-20-8.95-20-20s8.96-20 20-20c11.05 0 20 8.95 20 20z" stroke="#000" stroke-width="4" fill-opacity="0"/><use xlink:href="#d" transform="matrix(1,0,0,1,436.33333333333326,709) translate(9.888000000000002 20.630000000000003)"/><path d="M647 544h340L817 334z" stroke="#000" stroke-width="2" fill="#f9d2de"/><path d="M838 394c0 11.05-8.95 20-20 20s-20-8.95-20-20 8.95-20 20-20 20 8.95 20 20z" stroke="#000" stroke-width="2" fill="#f9d2de"/><path d="M871.78 427.33l-40.97-17.2" stroke="#000" stroke-width="2" fill="none"/><path d="M874.93 427.57l-.06.15-3.1-.4.4-.9zM831.2 409.2l-.77 1.85-1.26-.52 1.73-1.45z"/><path d="M764.67 427.33l38.72-18.8" stroke="#000" stroke-width="2" fill="none"/><path d="M764.67 427.33l-1.44.05-1.62.32 2.63-1.27zM804.37 408.64l.45.32-1 .48-.87-1.8.42-.2z"/><path d="M891.78 447.33c0 11.05-8.96 20-20 20-11.05 0-20-8.95-20-20 0-11.04 8.95-20 20-20 11.04 0 20 8.96 20 20z" stroke="#000" stroke-width="2" fill="#ff8f80"/><path d="M865.1 514c0 11.05-8.94 20-20 20-11.03 0-20-8.95-20-20s8.97-20 20-20c11.06 0 20 8.95 20 20z" stroke="#000" stroke-width="2" fill="#f9d2de"/><path d="M842.06 493.63l16.6-30.37" stroke="#000" stroke-width="2" fill="none"/><path d="M842.94 494.1l-.06.1-2.55.5.85-1.55zM859.84 463.2l-.3.54-1.76-.96.43-.77z"/><path d="M898.44 494l-12.4-31.74" stroke="#000" stroke-width="2" fill="none"/><path d="M899.57 494.14l-1.13-.14.94-.36zM886.96 461.9l-1.87.72-.17-.42 1.48-1.24.13-.16z"/><path d="M918.44 514c0 11.05-8.95 20-20 20-11.04 0-20-8.95-20-20s8.96-20 20-20c11.05 0 20 8.95 20 20zM784.67 447.33c0 11.05-8.96 20-20 20-11.05 0-20-8.95-20-20 0-11.04 8.95-20 20-20 11.04 0 20 8.96 20 20zM758 514c0 11.05-8.95 20-20 20s-20-8.95-20-20 8.95-20 20-20 20 8.95 20 20z" stroke="#000" stroke-width="2" fill="#f9d2de"/><path d="M734.95 493.63l16.6-30.37" stroke="#000" stroke-width="2" fill="none"/><path d="M735.83 494.1l-.06.1-2.55.5.85-1.55zM752.73 463.2l-.3.54-1.76-.96.42-.77z"/><path d="M791.33 494l-12.42-31.74" stroke="#000" stroke-width="2" fill="none"/><path d="M792.46 494.14l-1.13-.14.93-.36zM779.85 461.9l-1.87.72-.16-.42 1.48-1.24.12-.16z"/><path d="M811.33 514c0 11.05-8.95 20-20 20-11.04 0-20-8.95-20-20s8.96-20 20-20c11.05 0 20 8.95 20 20z" stroke="#000" stroke-width="2" fill="#ffbbb1"/><path d="M410 566h340L580 356z" stroke="#000" stroke-width="2" fill="#c1e4f7"/><path d="M601 416c0 11.05-8.95 20-20 20s-20-8.95-20-20 8.95-20 20-20 20 8.95 20 20z" stroke="#000" stroke-width="4" fill="#c1e4f7"/><use xlink:href="#e" transform="matrix(1,0,0,1,566,401) translate(10.014 21.668999999999997)"/><path d="M634.78 449.33l-40.97-17.2" stroke="#000" stroke-width="2" fill="none"/><path d="M637.93 449.57l-.06.15-3.1-.4.4-.9zM608.76 433.38l-3.6 8.55-11.35-9.8z"/><path d="M610.22 432.5l-4.66 11.08-13.1-11.3 1.38-1.15zm-5.44 7.77l2.53-6-10.5-.9z"/><path d="M527.67 449.33l38.72-18.8" stroke="#000" stroke-width="2" fill="none"/><path d="M527.67 449.33l-1.44.05-1.62.32 2.63-1.27zM567.37 430.64l.45.32-1 .48-.87-1.8.42-.2z"/><path d="M654.78 469.33c0 11.05-8.96 20-20 20-11.05 0-20-8.95-20-20 0-11.04 8.95-20 20-20 11.04 0 20 8.96 20 20z" stroke="#000" stroke-width="4" fill="#c1e4f7"/><use xlink:href="#f" transform="matrix(1,0,0,1,619.7777777777778,454.33333333333337) translate(10.338000000000001 21.668999999999997)"/><path d="M628.1 536c0 11.05-8.94 20-20 20-11.03 0-20-8.95-20-20s8.97-20 20-20c11.06 0 20 8.95 20 20z" stroke="#000" stroke-width="2" fill="#c1e4f7"/><path d="M605.06 515.63l16.6-30.37" stroke="#000" stroke-width="2" fill="none"/><path d="M605.94 516.1l-.06.1-2.55.5.85-1.55zM622.84 485.2l-.3.54-1.76-.96.43-.77z"/><path d="M661.44 516l-12.4-31.74" stroke="#000" stroke-width="2" fill="none"/><path d="M662.57 516.14l-1.13-.14.94-.36zM658.54 495.85l-8.63 3.38-.87-14.97z"/><path d="M660.2 496.28l-11.2 4.38-.98-16.53 1.3-1.1zm-9.38 1.52l6.07-2.38-6.7-8.15z"/><path d="M681.44 536c0 11.05-8.95 20-20 20-11.04 0-20-8.95-20-20s8.96-20 20-20c11.05 0 20 8.95 20 20z" stroke="#000" stroke-width="4" fill="#99d5ca"/><use xlink:href="#g" transform="matrix(1,0,0,1,646.4444444444443,521) translate(9.627 21.668999999999997)"/><path d="M547.67 469.33c0 11.05-8.96 20-20 20-11.05 0-20-8.95-20-20 0-11.04 8.95-20 20-20 11.04 0 20 8.96 20 20zM521 536c0 11.05-8.95 20-20 20s-20-8.95-20-20 8.95-20 20-20 20 8.95 20 20z" stroke="#000" stroke-width="2" fill="#c1e4f7"/><path d="M497.95 515.63l16.6-30.37" stroke="#000" stroke-width="2" fill="none"/><path d="M498.83 516.1l-.06.1-2.55.5.85-1.55zM515.73 485.2l-.3.54-1.76-.96.42-.77z"/><path d="M554.33 516l-12.42-31.74" stroke="#000" stroke-width="2" fill="none"/><path d="M555.46 516.14l-1.13-.14.93-.36zM542.85 483.9l-1.87.72-.16-.42 1.48-1.24.12-.16z"/><path d="M574.33 536c0 11.05-8.95 20-20 20-11.04 0-20-8.95-20-20s8.96-20 20-20c11.05 0 20 8.95 20 20z" stroke="#000" stroke-width="4" fill="#c7e8ac"/><use xlink:href="#h" transform="matrix(1,0,0,1,539.3333333333333,521) translate(9.834 22.168999999999997)"/><path d="M530 140h360v60H530z" stroke="#000" stroke-opacity="0" stroke-width="2" fill="#fff" fill-opacity="0"/><use xlink:href="#i" transform="matrix(1,0,0,1,535,145) translate(43.373333333333335 31.586666666666666)"/><use xlink:href="#j" transform="matrix(1,0,0,1,535,145) translate(89.77333333333334 31.586666666666666)"/><use xlink:href="#k" transform="matrix(1,0,0,1,535,145) translate(162.20000000000002 31.586666666666666)"/><use xlink:href="#l" transform="matrix(1,0,0,1,535,145) translate(198.2888888888889 31.586666666666666)"/><use xlink:href="#m" transform="matrix(1,0,0,1,535,145) translate(257.3466666666667 31.586666666666666)"/><path d="M500 410h340L670 200z" stroke="#000" stroke-width="2" fill="#fff"/><path d="M691 260c0 11.05-8.95 20-20 20s-20-8.95-20-20 8.95-20 20-20 20 8.95 20 20z" stroke="#000" stroke-width="2" fill="#fff"/><path d="M724.78 293.33l-40.97-17.2" stroke="#000" stroke-width="2" fill="none"/><path d="M727.93 293.57l-.06.15-3.1-.4.4-.9zM684.2 275.2l-.77 1.85-1.26-.52 1.73-1.45z"/><path d="M617.67 293.33l38.72-18.8" stroke="#000" stroke-width="2" fill="none"/><path d="M617.67 293.33l-1.44.05-1.62.32 2.63-1.27zM657.37 274.64l.45.32-1 .48-.87-1.8.42-.2z"/><path d="M744.78 313.33c0 11.05-8.96 20-20 20-11.05 0-20-8.95-20-20 0-11.04 8.95-20 20-20 11.04 0 20 8.96 20 20zM718.1 380c0 11.05-8.94 20-20 20-11.03 0-20-8.95-20-20s8.97-20 20-20c11.06 0 20 8.95 20 20z" stroke="#000" stroke-width="2" fill="#fff"/><path d="M695.06 359.63l16.6-30.37" stroke="#000" stroke-width="2" fill="none"/><path d="M695.94 360.1l-.06.1-2.55.5.85-1.55zM712.84 329.2l-.3.54-1.76-.96.43-.77z"/><path d="M751.44 360l-12.4-31.74" stroke="#000" stroke-width="2" fill="none"/><path d="M752.57 360.14l-1.13-.14.94-.36zM739.96 327.9l-1.87.72-.17-.42 1.48-1.24.13-.16z"/><path d="M771.44 380c0 11.05-8.95 20-20 20-11.04 0-20-8.95-20-20s8.96-20 20-20c11.05 0 20 8.95 20 20z" stroke="#000" stroke-width="2" fill="#f9d2de"/><path d="M637.67 313.33c0 11.05-8.96 20-20 20-11.05 0-20-8.95-20-20 0-11.04 8.95-20 20-20 11.04 0 20 8.96 20 20z" stroke="#000" stroke-width="2" fill="#fff"/><path d="M611 380c0 11.05-8.95 20-20 20s-20-8.95-20-20 8.95-20 20-20 20 8.95 20 20z" stroke="#000" stroke-width="2" fill="#c1e4f7"/><path d="M587.95 359.63l16.6-30.37" stroke="#000" stroke-width="2" fill="none"/><path d="M588.83 360.1l-.06.1-2.55.5.85-1.55zM605.73 329.2l-.3.54-1.76-.96.42-.77z"/><path d="M644.33 360l-12.42-31.74" stroke="#000" stroke-width="2" fill="none"/><path d="M645.46 360.14l-1.13-.14.93-.36zM632.85 327.9l-1.87.72-.16-.42 1.48-1.24.12-.16z"/><path d="M664.33 380c0 11.05-8.95 20-20 20-11.04 0-20-8.95-20-20s8.96-20 20-20c11.05 0 20 8.95 20 20z" stroke="#000" stroke-width="2" fill="#fff"/><defs><path d="M66-36C218 39 471-3 467-192c-2-80-42-127-110-143l-1-9c78-49 147-71 147-167 0-97-97-144-199-117-92 25-177 73-236 132-44 44 19 121 61 75 55-59 120-114 218-124 57-6 60 57 23 91-55 51-137 116-227 116-53 0-25 95 6 96 66-26 221-50 221 46 0 99-129 126-230 101-45-11-37-63-90-63-26 0-53 8-51 37 2 42 34 69 67 85" id="n"/><use transform="matrix(0.018,0,0,0.018,0,0)" xlink:href="#n" id="a"/><path d="M320-133c-46 0-88 4-131 12l1-15c52-55 101-121 152-178 55-62 111-124 117-224 7-114-144-116-231-69-56 30-116 74-158 117-33 34-13 79 21 87 67-16 104-88 167-116 22-10 43-24 70-25 39 6 41 35 17 70C247-329 126-188 10-62-9-41-3 1 30-1c109-29 279-43 409-25 24 3 33-21 33-44 0-65-68-63-152-63" id="o"/><use transform="matrix(0.017777777777777778,0,0,0.017777777777777778,0,0)" xlink:href="#o" id="b"/><path d="M440-424c100-3 177 49 165 139C584-127 436-64 300-15 239 7 166 22 93 22c-44 0-20-83-18-123 11-158 27-318 35-475 6-21 21-34 42-39 77-18 171-46 269-46 78 0 139 27 139 89 0 79-49 110-120 148zm21-129c2-18-31-21-48-21-84 0-154 20-208 53l-11 117c93-11 184-46 238-96 18-17 27-34 29-53zm49 264c0-56-77-56-135-56-69 0-126 14-188 28L165-70c117-19 235-66 303-136 25-25 42-53 42-83" id="p"/><use transform="matrix(0.017777777777777778,0,0,0.017777777777777778,0,0)" xlink:href="#p" id="c"/><path d="M527 14c107 3 60-123 35-190-50-133-104-271-141-414-2-52-54-108-101-64-12 11-21 29-33 53C200-424 103-253 18-74c-20 43-3 93 52 88 45-4 54-52 76-89l-1 1 85-173c54 5 122 13 179 16 39 77 57 161 103 231 7 10 12 14 15 14zM375-342l-101 7 64-133c11 37 24 91 37 126" id="q"/><use transform="matrix(0.018,0,0,0.018,0,0)" xlink:href="#q" id="d"/><path d="M490-162c77-176-68-339-251-284l-4-8c29-56 71-103 115-138 32-26-11-62-42-62-19 0-43 9-65 32-79 83-173 222-195 352C20-106 117-1 254-1c120 0 198-74 236-161zM283-374c90-6 116 52 122 127-17 88-52 153-148 153-68 0-112-52-110-126 3-92 47-149 136-154" id="r"/><use transform="matrix(0.018,0,0,0.018,0,0)" xlink:href="#r" id="e"/><path d="M481-193c0-153-155-219-320-185l-5-6 25-121c61-42 183-39 283-39 21 0 26-17 27-36 7-91-107-51-179-45-70 6-145 21-204 40-45 65-55 182-72 275 4 29 22 51 52 54 51-16 106-39 152-36 73 4 140 32 140 102 0 85-130 109-208 78-44-18-75-57-114-76-25-4-59 40-58 58C23-41 126-2 230-2c139 0 251-59 251-191" id="s"/><use transform="matrix(0.018,0,0,0.018,0,0)" xlink:href="#s" id="f"/><path d="M48-171c66-20 145-41 225-46 22-1 14 5 22 13-6 74-32 202 53 202 27 0 54-16 57-36-20-51-12-115-6-177 35-15 94-2 138-2 23 0 34-25 34-50 0-59-90-40-153-44l-4-7c16-100 47-197 77-285-15-17-29-43-54-49-149 95-289 237-401 371-37 44-30 90 12 110zm117-129c62-68 109-122 174-177l8 5c-13 52-25 103-34 162-55 11-105 6-144 19" id="t"/><use transform="matrix(0.018,0,0,0.018,0,0)" xlink:href="#t" id="g"/><path d="M533-514c-38-22-57-82-134-72-162 21-222 174-244 335-16 120 41 225 163 184 46-15 92-45 114-83 19-32 87-65 114-26 6 9 2 23-9 40C477-51 386 30 249 30 103 30 45-95 57-251c14-174 99-314 216-389 90-58 230-35 296 26 38 35 13 106-36 100" id="u"/><use transform="matrix(0.018,0,0,0.018,0,0)" xlink:href="#u" id="h"/><path d="M528-55c-1 36-32 41-71 44L144 12C62 28 67-37 75-107c18-152 21-333 29-477 3-66 102-44 174-47 76-3 165-11 246-11 44 0 39 80 4 84-99 13-217 14-322 22l-15 170c86-8 168-31 259-27 25 1 40 15 39 42-2 45-40 43-81 48l-225 25-17 202 291-25c46-1 73 3 71 46" id="v"/><path d="M428-436c10 60-30 104-56 152C320-187 257-92 201 0c-17 27-53 28-67-8C87-124 60-265 30-393c-10-41 28-58 72-51 31 16 33 87 41 126 10 48 28 117 34 177 47-85 104-182 154-263 20-33 22-44 67-46 15 0 25 4 30 14" id="w"/><path d="M219-412c99-54 263-26 248 106-6 57-62 81-112 104-62 28-146 48-218 66-5 48 10 94 65 90 94-7 136-72 207-98 34-13 67 0 57 43C435-41 354-7 282 18c-34 11-68 16-102 16C83 33 33-24 43-131c12-131 81-229 176-281zm101 138c24-14 78-40 42-74-39-37-110 1-139 24-31 25-59 61-72 105 67 5 123-28 169-55" id="x"/><path d="M387-452c45 0 79 27 79 73 0 109-16 218-23 327 13 58-52 84-87 52-7-7-8-24-7-49l20-277c5-41-49-23-78-16-38 9-78 28-106 53L160-48c13 58-94 91-94 20 0-134 25-233 25-362 0-45 36-68 83-64 18 6 9 33 16 56 60-17 127-54 197-54" id="y"/><path d="M294-7c-52 29-182 61-175-39l22-313c-29 11-104 9-94-22-2-51 54-54 100-61 1-69 2-169 83-132 25 20 10 79 10 117 49-6 105-16 153-21 33-3 36 52 17 67-34 27-121 29-176 39L215-96c-3 27 40 15 48 4 21-29 77-60 113-24 8 8 12 20 11 35-23 31-56 53-93 74" id="z"/><g id="i"><use transform="matrix(0.017777777777777778,0,0,0.017777777777777778,0,0)" xlink:href="#v"/><use transform="matrix(0.017777777777777778,0,0,0.017777777777777778,9.44,0)" xlink:href="#w"/><use transform="matrix(0.017777777777777778,0,0,0.017777777777777778,16.72888888888889,0)" xlink:href="#x"/><use transform="matrix(0.017777777777777778,0,0,0.017777777777777778,25.066666666666666,0)" xlink:href="#y"/><use transform="matrix(0.017777777777777778,0,0,0.017777777777777778,33.99111111111111,0)" xlink:href="#z"/></g><path d="M283-28c185-83 354-230 321-494-20-153-236-181-388-118-35 15-82 21-96 56-8 19-11 37-8 56-12 168-40 332-40 504 0 55 58 40 112 29 31-7 64-18 99-33zm100-557c91 2 139 59 130 151-19 202-172 299-346 347l39-449c43-22 109-51 177-49" id="A"/><path d="M123-498c77 32 120-75 87-136-18-21-76-16-94 7-23 17-37 86-10 113 5 6 10 13 17 16zm35 466c14-117 12-250 30-368 9-59-74-59-92-24-11 21-9 48-11 80-6 111-17 224-17 334 0 32 72 34 82 4 3-8 6-16 8-26" id="B"/><path d="M376-215c43 0 31 49 10 75-39 47-104 89-187 89-48 0-70-41-115-55-47-14-78 39-47 75 50 58 171 80 264 44 95-36 189-96 200-210 7-67-35-108-100-108-91 0-157 59-233 59-38 0-19-38-4-54 46-49 136-72 234-65 42 3 82-10 73-53-25-53-127-37-191-22-109 25-216 75-229 191-7 61 35 94 99 94 85 0 146-60 226-60" id="C"/><path d="M393-459c146-8 146 177 91 275C422-74 333 27 158 16l-15 208c-2 44-18 57-57 65-41 8-39-29-37-69C64 13 75-196 92-403c3-38 51-65 89-41 11 7 15 20 14 40 57-37 116-50 198-55zm-49 317c41-44 97-127 68-203-60-38-166 6-210 35-11 7-16 15-17 21L171-90c-1 20 13 24 33 24 58 0 107-40 140-76" id="D"/><path d="M414 18c44 0 51-25 54-67l20-294c15-129-122-120-228-97-56 12-101 41-148 64-16 8-27 55-6 61 51 14 87-22 132-33 39-9 72-27 121-28 19 0 38 3 37 23l-4 55C217-288 63-254 27-107 26-36 64 31 131 31c99 0 173-43 244-71-7 36-4 58 39 58zm-23-168c-50 42-119 78-192 101-76 24-118-61-60-101 61-42 156-67 248-79" id="E"/><path d="M187 30C86 30 37-38 44-140c9-132 83-229 176-282 85-48 240-30 261 49 11 42-48 56-82 35-28-29-107-33-145-6-64 46-121 125-114 234 5 80 124 50 168 20 34-24 59-51 76-86 11-23 89-29 88 6C437-52 341 30 187 30" id="F"/><path d="M315-328c46-26 68 3 62 60L355-49c-9 52 42 87 77 55 9-8 16-26 18-53l20-275c5-79-5-118-74-118-90 0-156 50-216 91 5-90 16-180 17-273 12-48-45-53-69-32-24 22-24 70-26 114L67-46C55 6 109 37 144 2c12-11 16-27 18-48l13-182c43-35 90-73 140-100" id="G"/><g id="j"><use transform="matrix(0.017777777777777778,0,0,0.017777777777777778,0,0)" xlink:href="#A"/><use transform="matrix(0.017777777777777778,0,0,0.017777777777777778,10.773333333333333,0)" xlink:href="#B"/><use transform="matrix(0.017777777777777778,0,0,0.017777777777777778,14.72,0)" xlink:href="#C"/><use transform="matrix(0.017777777777777778,0,0,0.017777777777777778,23.964444444444446,0)" xlink:href="#D"/><use transform="matrix(0.017777777777777778,0,0,0.017777777777777778,33.36888888888889,0)" xlink:href="#E"/><use transform="matrix(0.017777777777777778,0,0,0.017777777777777778,42.75555555555557,0)" xlink:href="#z"/><use transform="matrix(0.017777777777777778,0,0,0.017777777777777778,50.506666666666675,0)" xlink:href="#F"/><use transform="matrix(0.017777777777777778,0,0,0.017777777777777778,58.70222222222223,0)" xlink:href="#G"/></g><path d="M149-147c-5-95-11-196-19-285-3-35-68-31-79-6C35-320 71-157 71-32c0 49 64 71 91 30 44-67 87-163 126-243 20 91 48 182 78 260 10 14 51 16 66 1 20-21 30-60 44-88l138-286c25-44 41-72-11-92-60-23-66 45-87 86-38 73-62 161-102 228-21-87-47-190-68-276-12-24-53-18-66 4-46 79-88 178-131 261" id="H"/><g id="k"><use transform="matrix(0.017777777777777778,0,0,0.017777777777777778,0,0)" xlink:href="#H"/><use transform="matrix(0.017777777777777778,0,0,0.017777777777777778,10.666666666666666,0)" xlink:href="#B"/><use transform="matrix(0.017777777777777778,0,0,0.017777777777777778,14.613333333333333,0)" xlink:href="#z"/><use transform="matrix(0.017777777777777778,0,0,0.017777777777777778,22.364444444444445,0)" xlink:href="#G"/></g><path d="M124 12C75 22 65-15 68-58l23-329c-6-47 11-61 61-61 32 0 27 14 38 41 60-28 141-67 220-43 14 18 32 52 5 72-44 33-165 17-207 62-5 4-12 9-20 13L160-58c-7 43-5 63-36 70" id="I"/><path d="M163-57c18-185 16-376 41-559 8-62-68-66-86-22-6 15-9 35-11 55L68-52c-2 37 13 69 47 67 41-2 44-34 48-72" id="J"/><path d="M388-422c20 0 30 1 42 13 8-77 2-166 23-231 12-35 104-26 87 24-19 183-20 382-41 563 7 55-16 77-72 68-22-3-19-26-24-50-23-2-30 15-55 25-49 19-106 33-188 32C85 5 25-63 46-159c34-151 150-260 342-263zM212-58c128-24 227-88 213-245 5-46-58-33-96-28-94 13-148 71-186 149-27 55 3 136 69 124" id="K"/><g id="l"><use transform="matrix(0.017777777777777778,0,0,0.017777777777777778,0,0)" xlink:href="#I"/><use transform="matrix(0.017777777777777778,0,0,0.017777777777777778,6.72,0)" xlink:href="#x"/><use transform="matrix(0.017777777777777778,0,0,0.017777777777777778,15.057777777777776,0)" xlink:href="#J"/><use transform="matrix(0.017777777777777778,0,0,0.017777777777777778,19.00444444444444,0)" xlink:href="#E"/><use transform="matrix(0.017777777777777778,0,0,0.017777777777777778,28.39111111111111,0)" xlink:href="#z"/><use transform="matrix(0.017777777777777778,0,0,0.017777777777777778,36.142222222222216,0)" xlink:href="#x"/><use transform="matrix(0.017777777777777778,0,0,0.017777777777777778,44.47999999999999,0)" xlink:href="#K"/></g><path d="M167 226c170 27 284-54 294-209 9-139 27-274 27-415 0-39-36-43-82-43-149 0-266 45-328 133-46 65-29 205-6 274 22 37 44 67 102 60 89-11 160-62 208-124-9 122-8 235-132 242-59 3-90-38-147-40-41-1-49 55-27 80 20 23 54 36 91 42zm-17-476c29-67 104-91 188-104 22-4 39-3 54 0 5 37 14 87-11 114-37 62-97 121-156 162-98 68-103-107-75-172" id="L"/><g id="m"><use transform="matrix(0.017777777777777778,0,0,0.017777777777777778,0,0)" xlink:href="#z"/><use transform="matrix(0.017777777777777778,0,0,0.017777777777777778,7.751111111111111,0)" xlink:href="#E"/><use transform="matrix(0.017777777777777778,0,0,0.017777777777777778,17.137777777777778,0)" xlink:href="#I"/><use transform="matrix(0.017777777777777778,0,0,0.017777777777777778,23.857777777777777,0)" xlink:href="#L"/><use transform="matrix(0.017777777777777778,0,0,0.017777777777777778,33.19111111111111,0)" xlink:href="#x"/><use transform="matrix(0.017777777777777778,0,0,0.017777777777777778,41.528888888888886,0)" xlink:href="#z"/></g></defs></g></svg>