<svg xmlns="http://www.w3.org/2000/svg" xmlns:xlink="http://www.w3.org/1999/xlink" xmlns:lucid="lucid" width="788.16" height="328"><g transform="translate(-60 -86)" lucid:page-tab-id="-ifVpLWL6Aqx"><path d="M437 168h364v60H437z" stroke="#000" stroke-opacity="0" stroke-width="2" fill="#fff" fill-opacity="0"/><use xlink:href="#a" transform="matrix(1,0,0,1,442,173) translate(144.50222222222223 31.586666666666666)"/><use xlink:href="#b" transform="matrix(1,0,0,1,442,173) translate(178.86666666666667 31.586666666666666)"/><path d="M293 106h190v62H293z" stroke="#000" stroke-opacity="0" stroke-width="2" fill="#fff" fill-opacity="0"/><use xlink:href="#c" transform="matrix(1,0,0,1,298,111) translate(33.89333333333334 32.586666666666666)"/><use xlink:href="#d" transform="matrix(1,0,0,1,298,111) translate(69.18222222222224 32.586666666666666)"/><path d="M114 168h192v62H114z" stroke="#000" stroke-opacity="0" stroke-width="2" fill="#fff" fill-opacity="0"/><use xlink:href="#e" transform="matrix(1,0,0,1,119,173) translate(50.98222222222222 32.586666666666666)"/><use xlink:href="#b" transform="matrix(1,0,0,1,119,173) translate(100.38666666666667 32.586666666666666)"/><path d="M299.94 345.6L288 341.96" stroke="#000" stroke-width="2" fill="none"/><path d="M303.1 345.52l-.55 1.8-2.67-.7h-.02l-.22-.06.6-1.92zM288.28 341l-.58 1.9-2.42-.73 1.5-.42.93-.93z"/><path d="M267.6 345.6l11.26-4.2" stroke="#000" stroke-width="2" fill="none"/><path d="M267.96 346.54l-.3.1-.1-.02-2.5.7-.6-1.6 2.8-1.06zM280.67 341.77l-1.46.55-.7-1.87.6-.23z"/><path d="M290.87 365.97l4.7-8" stroke="#000" stroke-width="2" fill="none"/><path d="M291.73 366.47l-.2.35-2.72.76-.1.12 1.3-2.24zM296.82 357.8l-.4.67-1.7-1.02.64-1.1z"/><path d="M307.98 365.72l-3.32-8.1" stroke="#000" stroke-width="2" fill="none"/><path d="M309.67 367.2l-1.75-.46-.54.15-.32-.8 1.85-.76zM305.6 357.23l-1.86.75-.25-.6 1.52-1.55z"/><path d="M305.97 352.66c0 3.33-2.7 6.03-6.03 6.03-3.34 0-6.04-2.7-6.04-6.04s2.7-6.04 6.04-6.04c3.33 0 6.03 2.7 6.03 6.04zM297.92 372.77c0 3.34-2.7 6.04-6.03 6.04-3.35 0-6.05-2.7-6.05-6.03s2.7-6.03 6.04-6.03c3.32 0 6.02 2.7 6.02 6.03zM314.02 372.77c0 3.34-2.7 6.04-6.04 6.04-3.33 0-6.03-2.7-6.03-6.03s2.7-6.03 6.03-6.03c3.34 0 6.04 2.7 6.04 6.03z" stroke="#000" stroke-width="2" fill="#ff8f80"/><path d="M258.54 365.97l4.7-8" stroke="#000" stroke-width="2" fill="none"/><path d="M259.4 366.47l-.2.35-2.7.76-.13.12 1.3-2.24zM264.5 357.8l-.4.67-1.72-1.02.65-1.1z"/><path d="M275.66 365.72l-3.32-8.1" stroke="#000" stroke-width="2" fill="none"/><path d="M277.34 367.2l-1.74-.46-.54.15-.33-.8 1.85-.76zM273.26 357.23l-1.85.75-.24-.6 1.53-1.55z"/><path d="M273.65 352.66c0 3.33-2.7 6.03-6.04 6.03-3.32 0-6.02-2.7-6.02-6.04s2.7-6.04 6.03-6.04c3.34 0 6.05 2.7 6.05 6.04zM265.6 372.77c0 3.34-2.7 6.04-6.04 6.04-3.33 0-6.03-2.7-6.03-6.03s2.7-6.03 6.03-6.03c3.34 0 6.04 2.7 6.04 6.03zM281.7 372.77c0 3.34-2.7 6.04-6.04 6.04-3.33 0-6.04-2.7-6.04-6.03s2.7-6.03 6.04-6.03c3.33 0 6.03 2.7 6.03 6.03zM289.74 336.56c0 3.33-2.7 6.04-6.03 6.04s-6.03-2.7-6.03-6.04c0-3.33 2.7-6.04 6.04-6.04s6.04 2.7 6.04 6.04z" stroke="#000" stroke-width="2" fill="#ff8f80"/><path d="M232.1 381.83h102.6l-51.3-63.38z" stroke="#000" stroke-width="2" fill="#ff8f80"/><path d="M260.7 347.5l-11.94-3.63" stroke="#000" stroke-width="2" fill="none"/><path d="M263.86 347.43l-.55 1.8-2.66-.7-.23-.06.6-1.9zM249.05 342.9l-.58 1.92-2.42-.74 1.5-.42.92-.93z"/><path d="M228.38 347.5l11.24-4.2" stroke="#000" stroke-width="2" fill="none"/><path d="M228.73 348.45l-.3.1-.1-.02-2.5.7-.6-1.6 2.8-1.05zM241.44 343.7l-1.46.53-.7-1.87.6-.22z"/><path d="M251.64 367.88l4.7-8" stroke="#000" stroke-width="2" fill="none"/><path d="M252.5 368.4l-.2.33-2.72.76-.12.1 1.3-2.23zM257.6 359.7l-.4.68-1.73-1.02.66-1.1z"/><path d="M268.75 367.63l-3.32-8.1" stroke="#000" stroke-width="2" fill="none"/><path d="M270.44 369.1l-1.75-.45-.55.15-.32-.8 1.85-.75zM266.36 359.14l-1.86.76-.25-.62 1.53-1.54z"/><path d="M266.74 354.57c0 3.33-2.7 6.03-6.04 6.03-3.33 0-6.03-2.7-6.03-6.03 0-3.34 2.7-6.04 6.03-6.04 3.34 0 6.04 2.7 6.04 6.04zM258.7 374.7c0 3.32-2.7 6.02-6.04 6.02s-6.04-2.7-6.04-6.03c0-3.35 2.7-6.05 6.04-6.05 3.33 0 6.03 2.7 6.03 6.04zM274.8 374.7c0 3.32-2.72 6.02-6.05 6.02-3.33 0-6.03-2.7-6.03-6.03 0-3.35 2.7-6.05 6.03-6.05s6.04 2.7 6.04 6.04z" stroke="#000" stroke-width="2" fill="#ffbbb1"/><path d="M219.3 367.88l4.7-8" stroke="#000" stroke-width="2" fill="none"/><path d="M220.17 368.4l-.2.33-2.72.76-.1.1 1.3-2.23zM225.27 359.7l-.4.68-1.72-1.02.65-1.1z"/><path d="M236.43 367.63l-3.32-8.1" stroke="#000" stroke-width="2" fill="none"/><path d="M238.1 369.1l-1.73-.45-.55.15-.32-.8 1.85-.75zM234.03 359.14l-1.85.76-.25-.62 1.53-1.54z"/><path d="M234.4 354.57c0 3.33-2.7 6.03-6.02 6.03-3.33 0-6.04-2.7-6.04-6.03 0-3.34 2.7-6.04 6.04-6.04 3.33 0 6.03 2.7 6.03 6.04zM226.37 374.7c0 3.32-2.7 6.02-6.04 6.02-3.33 0-6.03-2.7-6.03-6.03 0-3.35 2.7-6.05 6.03-6.05s6.04 2.7 6.04 6.04zM242.46 374.7c0 3.32-2.7 6.02-6.03 6.02-3.34 0-6.04-2.7-6.04-6.03 0-3.35 2.7-6.05 6.03-6.05s6.03 2.7 6.03 6.04zM250.5 338.47c0 3.33-2.7 6.04-6.03 6.04s-6.03-2.7-6.03-6.03 2.7-6.03 6.03-6.03c3.34 0 6.04 2.7 6.04 6.03z" stroke="#000" stroke-width="2" fill="#ffbbb1"/><path d="M192.87 383.74h102.6l-51.3-63.38z" stroke="#000" stroke-width="2" fill="#ffbbb1"/><path d="M197.03 353.15l-11.95-3.65" stroke="#000" stroke-width="2" fill="none"/><path d="M200.2 353.07l-.56 1.8-2.67-.7h-.02l-.22-.07.6-1.9zM185.37 348.54l-.58 1.92-2.43-.74 1.5-.42.93-.93z"/><path d="M164.7 353.15l11.25-4.22" stroke="#000" stroke-width="2" fill="none"/><path d="M165.05 354.08l-.3.1-.1-.02-2.5.7-.6-1.6 2.8-1.05zM177.76 349.32l-1.46.55-.7-1.88.6-.23z"/><path d="M187.96 373.5l4.7-8" stroke="#000" stroke-width="2" fill="none"/><path d="M188.82 374.02l-.2.35-2.72.76-.1.1 1.3-2.22zM193.9 365.34l-.38.67-1.72-1 .65-1.1z"/><path d="M205.07 373.26l-3.32-8.1" stroke="#000" stroke-width="2" fill="none"/><path d="M206.76 374.74l-1.74-.46-.55.15-.32-.8 1.85-.74zM202.68 364.77l-1.85.76-.25-.6 1.53-1.56z"/><path d="M203.06 360.2c0 3.33-2.7 6.04-6.03 6.04-3.34 0-6.04-2.7-6.04-6.04 0-3.33 2.7-6.04 6.03-6.04s6.03 2.7 6.03 6.04zM195 380.32c0 3.33-2.7 6.03-6.02 6.03-3.33 0-6.04-2.7-6.04-6.03s2.7-6.04 6.04-6.04c3.33 0 6.03 2.7 6.03 6.04zM211.1 380.32c0 3.33-2.7 6.03-6.03 6.03s-6.03-2.7-6.03-6.03 2.7-6.04 6.03-6.04c3.34 0 6.04 2.7 6.04 6.04z" stroke="#000" stroke-width="2" fill="#99d5ca"/><path d="M155.64 373.5l4.7-8" stroke="#000" stroke-width="2" fill="none"/><path d="M156.5 374.02l-.2.35-2.72.76-.12.1 1.3-2.22zM161.6 365.34l-.4.67-1.73-1 .65-1.1z"/><path d="M172.75 373.26l-3.32-8.1" stroke="#000" stroke-width="2" fill="none"/><path d="M174.44 374.74l-1.75-.46-.55.15-.33-.8 1.85-.74zM170.35 364.77l-1.85.76-.25-.6 1.53-1.56z"/><path d="M170.74 360.2c0 3.33-2.7 6.04-6.04 6.04-3.33 0-6.03-2.7-6.03-6.04 0-3.33 2.7-6.04 6.03-6.04 3.34 0 6.04 2.7 6.04 6.04zM162.7 380.32c0 3.33-2.7 6.03-6.05 6.03-3.33 0-6.03-2.7-6.03-6.03s2.7-6.04 6.03-6.04c3.34 0 6.04 2.7 6.04 6.04zM178.8 380.32c0 3.33-2.72 6.03-6.05 6.03-3.33 0-6.04-2.7-6.04-6.03s2.72-6.04 6.05-6.04c3.33 0 6.04 2.7 6.04 6.04zM186.83 344.1c0 3.34-2.7 6.04-6.03 6.04-3.34 0-6.04-2.7-6.04-6.04 0-3.33 2.7-6.03 6.04-6.03 3.33 0 6.03 2.7 6.03 6.03z" stroke="#000" stroke-width="2" fill="#99d5ca"/><path d="M129.2 389.37h102.6L180.5 326z" stroke="#000" stroke-width="2" fill="#99d5ca"/><path d="M147.84 357.77l-11.95-3.64" stroke="#000" stroke-width="2" fill="none"/><path d="M151 357.7l-.55 1.8-2.67-.7h-.02l-.22-.07.6-1.9zM136.18 353.17l-.58 1.9-2.42-.73 1.5-.42.93-.93z"/><path d="M115.5 357.77l11.26-4.2" stroke="#000" stroke-width="2" fill="none"/><path d="M115.86 358.7l-.3.12-.1-.03-2.5.7-.6-1.6 2.8-1.06zM128.57 353.95l-1.46.54-.7-1.88.6-.22z"/><path d="M138.77 378.14l4.7-8" stroke="#000" stroke-width="2" fill="none"/><path d="M139.63 378.65l-.2.35-2.72.75-.1.12 1.3-2.24zM144.72 369.97l-.4.67-1.7-1 .64-1.13z"/><path d="M155.88 377.9l-3.32-8.12" stroke="#000" stroke-width="2" fill="none"/><path d="M157.57 379.37l-1.75-.46-.54.16-.32-.8 1.85-.75zM153.5 369.4l-1.86.76-.25-.62 1.5-1.54z"/><path d="M153.87 364.83c0 3.33-2.7 6.03-6.03 6.03-3.34 0-6.04-2.7-6.04-6.03 0-3.34 2.7-6.04 6.04-6.04 3.33 0 6.03 2.7 6.03 6.03zM145.82 384.95c0 3.33-2.7 6.03-6.03 6.03-3.35 0-6.05-2.7-6.05-6.03 0-3.34 2.7-6.04 6.04-6.04 3.32 0 6.02 2.7 6.02 6.05zM161.92 384.95c0 3.33-2.7 6.03-6.04 6.03-3.33 0-6.03-2.7-6.03-6.03 0-3.34 2.7-6.04 6.03-6.04 3.34 0 6.04 2.7 6.04 6.05z" stroke="#000" stroke-width="2" fill="#c7e8ac"/><path d="M106.44 378.14l4.7-8" stroke="#000" stroke-width="2" fill="none"/><path d="M107.3 378.65l-.2.35-2.72.75-.1.12 1.3-2.24zM112.4 369.97l-.4.67-1.72-1 .65-1.13z"/><path d="M123.56 377.9l-3.32-8.12" stroke="#000" stroke-width="2" fill="none"/><path d="M125.24 379.37l-1.74-.46-.54.16-.33-.8 1.85-.75zM121.16 369.4l-1.85.76-.24-.62 1.53-1.54z"/><path d="M121.55 364.83c0 3.33-2.7 6.03-6.04 6.03-3.32 0-6.03-2.7-6.03-6.03 0-3.34 2.7-6.04 6.04-6.04s6.05 2.7 6.05 6.03zM113.5 384.95c0 3.33-2.7 6.03-6.04 6.03-3.33 0-6.03-2.7-6.03-6.03 0-3.34 2.7-6.04 6.03-6.04 3.34 0 6.04 2.7 6.04 6.05zM129.6 384.95c0 3.33-2.7 6.03-6.04 6.03s-6.04-2.7-6.04-6.03c0-3.34 2.7-6.04 6.04-6.04 3.33 0 6.03 2.7 6.03 6.05zM137.64 348.73c0 3.34-2.7 6.04-6.03 6.04s-6.03-2.7-6.03-6.04c0-3.33 2.7-6.03 6.04-6.03s6.04 2.7 6.04 6.03z" stroke="#000" stroke-width="2" fill="#c7e8ac"/><path d="M80 394h102.6l-51.3-63.38z" stroke="#000" stroke-width="2" fill="#c7e8ac"/><path d="M250.44 294.4l-11.94-3.65" stroke="#000" stroke-width="2" fill="none"/><path d="M253.6 294.32l-.55 1.8-2.67-.7-.23-.07.58-1.9zM238.8 289.8l-.6 1.9-2.4-.73 1.5-.42.9-.93z"/><path d="M218.12 294.4l11.24-4.22" stroke="#000" stroke-width="2" fill="none"/><path d="M218.47 295.33l-.3.12-.1-.03-2.5.7-.6-1.6 2.8-1.06zM231.18 290.57l-1.47.55-.7-1.87.6-.23z"/><path d="M241.38 314.77l4.7-8" stroke="#000" stroke-width="2" fill="none"/><path d="M242.24 315.27l-.2.35-2.72.76-.12.1 1.3-2.22zM247.33 306.6l-.4.66-1.72-1 .66-1.12z"/><path d="M258.5 314.52l-3.33-8.12" stroke="#000" stroke-width="2" fill="none"/><path d="M260.18 316l-1.75-.46-.54.15-.33-.8 1.85-.76zM256.1 306.02l-1.86.76-.25-.6 1.52-1.56z"/><path d="M256.48 301.45c0 3.34-2.7 6.04-6.04 6.04-3.33 0-6.03-2.7-6.03-6.05 0-3.33 2.7-6.03 6.04-6.03s6.04 2.7 6.04 6.03z" stroke="#000" stroke-width="2" fill="#ff8f80"/><path d="M248.43 321.57c0 3.33-2.7 6.04-6.03 6.04-3.34 0-6.04-2.7-6.04-6.03s2.7-6.03 6.04-6.03c3.33 0 6.03 2.7 6.03 6.03zM264.53 321.57c0 3.33-2.7 6.04-6.04 6.04s-6.05-2.7-6.05-6.03 2.7-6.03 6.04-6.03c3.32 0 6.03 2.7 6.03 6.03z" stroke="#000" stroke-width="2" fill="#f9d2de"/><path d="M209.05 314.77l4.7-8" stroke="#000" stroke-width="2" fill="none"/><path d="M209.9 315.27l-.2.35-2.7.76-.12.1 1.3-2.22zM215 306.6l-.4.66-1.7-1 .64-1.12z"/><path d="M226.17 314.52l-3.33-8.12" stroke="#000" stroke-width="2" fill="none"/><path d="M227.85 316l-1.74-.46-.54.15-.32-.8 1.85-.76zM223.77 306.02l-1.85.76-.25-.6 1.53-1.56z"/><path d="M224.15 301.45c0 3.34-2.7 6.04-6.03 6.04-3.34 0-6.04-2.7-6.04-6.05 0-3.33 2.7-6.03 6.04-6.03 3.33 0 6.03 2.7 6.03 6.03zM216.1 321.57c0 3.33-2.7 6.04-6.03 6.04s-6.04-2.7-6.04-6.03 2.7-6.03 6.04-6.03c3.33 0 6.04 2.7 6.04 6.03z" stroke="#000" stroke-width="2" fill="#f9d2de"/><path d="M232.2 321.57c0 3.33-2.7 6.04-6.03 6.04-3.34 0-6.04-2.7-6.04-6.03s2.7-6.03 6.04-6.03c3.33 0 6.03 2.7 6.03 6.03z" stroke="#000" stroke-width="2" fill="#ffbbb1"/><path d="M240.25 285.36c0 3.33-2.7 6.03-6.04 6.03-3.32 0-6.02-2.7-6.02-6.04s2.7-6.04 6.03-6.04c3.35 0 6.05 2.7 6.05 6.04z" stroke="#000" stroke-width="2" fill="#f9d2de"/><path d="M182.6 330.62h102.62l-51.3-63.37z" stroke="#000" stroke-width="2" fill="#f9d2de"/><path d="M178.92 301.04l-11.94-3.65" stroke="#000" stroke-width="2" fill="none"/><path d="M182.08 300.96l-.55 1.8-2.67-.7h-.02l-.2-.07.57-1.92zM167.27 296.43l-.6 1.92-2.4-.74 1.5-.4.92-.94z"/><path d="M146.6 301.04l11.24-4.22" stroke="#000" stroke-width="2" fill="none"/><path d="M146.95 301.97l-.3.12-.1-.04-2.52.7-.6-1.6 2.8-1.06zM159.65 297.2l-1.46.56-.7-1.87.6-.24z"/><path d="M169.85 321.4l4.7-8" stroke="#000" stroke-width="2" fill="none"/><path d="M170.72 321.9l-.2.36-2.73.76-.12.1 1.3-2.22zM175.8 313.23l-.4.67-1.7-1 .64-1.12z"/><path d="M186.97 321.16l-3.32-8.12" stroke="#000" stroke-width="2" fill="none"/><path d="M188.65 322.63l-1.74-.46-.53.16-.33-.8 1.85-.75zM184.57 312.66l-1.85.76-.25-.6 1.53-1.56z"/><path d="M184.96 308.1c0 3.32-2.7 6.03-6.04 6.03-3.33 0-6.04-2.7-6.04-6.04s2.7-6.04 6.04-6.04c3.33 0 6.04 2.7 6.04 6.03zM176.9 328.2c0 3.34-2.7 6.05-6.03 6.05s-6.03-2.7-6.03-6.04c0-3.32 2.7-6.03 6.03-6.03 3.34 0 6.04 2.7 6.04 6.04z" stroke="#000" stroke-width="2" fill="#c1e4f7"/><path d="M193 328.2c0 3.34-2.7 6.05-6.03 6.05-3.34 0-6.04-2.7-6.04-6.04 0-3.32 2.7-6.03 6.04-6.03 3.33 0 6.03 2.7 6.03 6.04z" stroke="#000" stroke-width="2" fill="#99d5ca"/><path d="M137.53 321.4l4.7-8" stroke="#000" stroke-width="2" fill="none"/><path d="M138.4 321.9l-.2.36-2.73.76-.12.1 1.32-2.22zM143.48 313.23l-.4.67-1.72-1 .66-1.12z"/><path d="M154.64 321.16l-3.32-8.12" stroke="#000" stroke-width="2" fill="none"/><path d="M156.33 322.63l-1.75-.46-.54.16-.32-.8 1.85-.75zM152.25 312.66l-1.85.76-.26-.6 1.53-1.56z"/><path d="M152.63 308.1c0 3.32-2.7 6.03-6.04 6.03s-6.04-2.7-6.04-6.04 2.7-6.04 6.03-6.04 6.03 2.7 6.03 6.03zM144.58 328.2c0 3.34-2.7 6.05-6.03 6.05-3.34 0-6.04-2.7-6.04-6.04 0-3.32 2.7-6.03 6.05-6.03 3.33 0 6.03 2.7 6.03 6.04z" stroke="#000" stroke-width="2" fill="#c1e4f7"/><path d="M160.68 328.2c0 3.34-2.7 6.05-6.04 6.05-3.33 0-6.03-2.7-6.03-6.04 0-3.32 2.7-6.03 6.04-6.03s6.04 2.7 6.04 6.04z" stroke="#000" stroke-width="2" fill="#c7e8ac"/><path d="M168.73 292c0 3.33-2.7 6.03-6.04 6.03s-6.05-2.7-6.05-6.03c0-3.34 2.7-6.04 6.04-6.04 3.32 0 6.03 2.7 6.03 6.04z" stroke="#000" stroke-width="2" fill="#c1e4f7"/><path d="M111.08 337.26h102.6l-51.3-63.37z" stroke="#000" stroke-width="2" fill="#c1e4f7"/><path d="M206.08 253.96l-11.94-3.65" stroke="#000" stroke-width="2" fill="none"/><path d="M209.24 253.88l-.55 1.8-2.68-.7-.23-.07.57-1.9zM194.43 249.36l-.6 1.9-2.4-.73 1.5-.42.92-.92z"/><path d="M173.76 253.96l11.24-4.22" stroke="#000" stroke-width="2" fill="none"/><path d="M174.1 254.9l-.3.1-.1-.02-2.5.7-.6-1.6 2.8-1.06zM186.8 250.13l-1.45.55-.7-1.87.6-.22z"/><path d="M197 274.33l4.7-8" stroke="#000" stroke-width="2" fill="none"/><path d="M197.88 274.83l-.2.35-2.73.76-.1.1 1.3-2.22zM202.97 266.15l-.4.67-1.72-1 .65-1.12z"/><path d="M214.13 274.08l-3.32-8.12" stroke="#000" stroke-width="2" fill="none"/><path d="M215.8 275.56l-1.73-.46-.54.15-.33-.8 1.85-.75zM211.73 265.58l-1.85.76-.25-.6 1.53-1.55z"/><path d="M212.12 261c0 3.35-2.7 6.05-6.04 6.05-3.33 0-6.04-2.7-6.04-6.04 0-3.32 2.7-6.02 6.04-6.02 3.33 0 6.04 2.7 6.04 6.03zM204.07 281.13c0 3.33-2.7 6.04-6.04 6.04-3.33 0-6.03-2.7-6.03-6.04 0-3.33 2.7-6.03 6.03-6.03 3.34 0 6.04 2.7 6.04 6.03z" stroke="#000" stroke-width="2" fill="#fff"/><path d="M220.16 281.13c0 3.33-2.7 6.04-6.03 6.04-3.34 0-6.04-2.7-6.04-6.04 0-3.33 2.7-6.03 6.03-6.03s6.03 2.7 6.03 6.03z" stroke="#000" stroke-width="2" fill="#f9d2de"/><path d="M164.7 274.33l4.7-8" stroke="#000" stroke-width="2" fill="none"/><path d="M165.55 274.83l-.2.35-2.72.76-.1.1 1.3-2.22zM170.64 266.15l-.4.67-1.7-1 .64-1.12z"/><path d="M181.8 274.08l-3.32-8.12" stroke="#000" stroke-width="2" fill="none"/><path d="M183.5 275.56l-1.76-.46-.54.15-.32-.8 1.85-.75zM179.4 265.58l-1.84.76-.25-.6 1.53-1.55z"/><path d="M179.8 261c0 3.35-2.7 6.05-6.04 6.05s-6.04-2.7-6.04-6.04c0-3.32 2.7-6.02 6.04-6.02 3.33 0 6.03 2.7 6.03 6.03z" stroke="#000" stroke-width="2" fill="#fff"/><path d="M171.74 281.13c0 3.33-2.7 6.04-6.03 6.04s-6.03-2.7-6.03-6.04c0-3.33 2.7-6.03 6.04-6.03s6.04 2.7 6.04 6.03z" stroke="#000" stroke-width="2" fill="#c1e4f7"/><path d="M187.84 281.13c0 3.33-2.7 6.04-6.04 6.04-3.33 0-6.03-2.7-6.03-6.04 0-3.33 2.7-6.03 6.03-6.03 3.34 0 6.04 2.7 6.04 6.03zM195.9 244.92c0 3.33-2.72 6.03-6.05 6.03-3.33 0-6.04-2.7-6.04-6.03 0-3.34 2.72-6.04 6.05-6.04 3.33 0 6.04 2.7 6.04 6.04z" stroke="#000" stroke-width="2" fill="#fff"/><path d="M138.24 290.2h102.6l-51.3-63.4z" stroke="#000" stroke-width="2" fill="#fff"/><path d="M330.76 321.38h52.47" stroke="#3aa6dd" stroke-width="4" fill="none"/><path d="M398.23 321.38L383.96 326v-9.26z" stroke="#3aa6dd" stroke-width="4" fill="#3aa6dd"/><path d="M314 274h86v42.86h-86z" stroke="#000" stroke-opacity="0" stroke-width="2" fill="#fff" fill-opacity="0"/><use xlink:href="#f" transform="matrix(1,0,0,1,319,279) translate(9.015555555555554 23.086666666666666)"/><use xlink:href="#g" transform="matrix(1,0,0,1,319,279) translate(23.326666666666668 23.086666666666666)"/><path d="M629 231.14c0 5.6-4.54 10.14-10.14 10.14-5.6 0-10.14-4.54-10.14-10.14 0-5.6 4.54-10.14 10.14-10.14 5.6 0 10.14 4.54 10.14 10.14z" stroke="#000" stroke-width="2" fill="#fff"/><path d="M511.86 264.1l97.05-28.07" stroke="#000" stroke-width="2" fill="none"/><path d="M512.14 265.07l-.2.05h-.08l-2.63.34-.1.04-.43-1.52 2.88-.84zM610.07 236.2l.34.44-1.2.35-.56-1.93.86-.25z"/><path d="M522 275.26c0 5.6-4.54 10.14-10.14 10.14-5.6 0-10.14-4.54-10.14-10.14 0-5.6 4.54-10.15 10.14-10.15 5.6 0 10.14 4.55 10.14 10.16z" stroke="#000" stroke-width="2" fill="#fff"/><path d="M459.35 306.5l45.48-22.7" stroke="#000" stroke-width="2" fill="none"/><path d="M459.8 307.38l-.26.13h-.15l-2.64.33-.08.03-.46-.93 2.68-1.34zM506.7 283.97l-1.42.72-.9-1.8.56-.28z"/><path d="M563.1 306.83l-43.56-23.53" stroke="#000" stroke-width="2" fill="none"/><path d="M566.23 307.37l-.3.57-1.82-.23-1.18.16-.28-.15.95-1.75zM520 282.42l-.94 1.76-1.35-.74 1.33-1 .3-.4z"/><path d="M469.53 317.63c0 5.6-4.54 10.14-10.14 10.14-5.6 0-10.15-4.54-10.15-10.14 0-5.6 4.54-10.14 10.14-10.14 5.6 0 10.13 4.53 10.13 10.13z" stroke="#000" stroke-width="2" fill="#fff"/><path d="M486.66 333.52l-20.4-7.23" stroke="#000" stroke-width="2" fill="none"/><path d="M489.82 333.58l-.47 1.32-.06-.02-2.64-.35-.1.02-.24-.08.67-1.9zM466.6 325.34l-.67 1.9-1.85-.67.37-.15 1.64-1.26z"/><path d="M432.34 333.52l19.15-8.03" stroke="#000" stroke-width="2" fill="none"/><path d="M432.73 334.45l-.25.1-.14-.02-2.63.35-.03.02-.48-1.14 2.76-1.16zM452.22 324.8l1.24.95-1.6.66-.76-1.83.7-.3z"/><path d="M496.8 344.67c0 5.6-4.54 10.14-10.14 10.14-5.6 0-10.15-4.53-10.15-10.13 0-5.6 4.55-10.14 10.16-10.14 5.6 0 10.14 4.54 10.14 10.14zM483.28 378.48c0 5.6-4.55 10.14-10.15 10.14-5.6 0-10.14-4.54-10.14-10.14 0-5.6 4.53-10.14 10.13-10.14 5.6 0 10.15 4.54 10.15 10.14z" stroke="#000" stroke-width="2" fill="#fff"/><path d="M471.5 367.54l8.12-14.33" stroke="#000" stroke-width="2" fill="none"/><path d="M472.37 368.03l-.25.44-1.62.2-1.04.44 1.17-2.05zM479.48 351.84l1.44 1.1-.43.76-1.74-.98.6-1.05z"/><path d="M500.18 367.33l-5.85-14.62" stroke="#000" stroke-width="2" fill="none"/><path d="M501.74 368.54l-1.56-.2-.64.08-.3-.72 1.87-.74zM495.26 352.34l-1.85.75-.28-.72.7-.54.82-1.06z"/><path d="M510.32 378.48c0 5.6-4.54 10.14-10.14 10.14-5.6 0-10.14-4.54-10.14-10.14 0-5.6 4.54-10.14 10.14-10.14 5.6 0 10.14 4.54 10.14 10.14zM442.5 344.67c0 5.6-4.55 10.14-10.16 10.14-5.6 0-10.14-4.53-10.14-10.13 0-5.6 4.54-10.14 10.14-10.14 5.6 0 10.15 4.54 10.15 10.14zM428.96 378.48c0 5.6-4.54 10.14-10.14 10.14-5.6 0-10.14-4.54-10.14-10.14 0-5.6 4.54-10.14 10.14-10.14 5.6 0 10.14 4.54 10.14 10.14z" stroke="#000" stroke-width="2" fill="#fff"/><path d="M417.2 367.54l8.1-14.33" stroke="#000" stroke-width="2" fill="none"/><path d="M418.06 368.03l-.25.44-1.6.2-1.06.44 1.18-2.05zM425.17 351.84l1.44 1.1-.42.76-1.74-.98.6-1.05z"/><path d="M445.87 367.33l-5.85-14.62" stroke="#000" stroke-width="2" fill="none"/><path d="M447.43 368.54l-1.56-.2-.64.08-.3-.72 1.86-.74zM440.95 352.34l-1.86.75-.3-.72.7-.54.83-1.06z"/><path d="M456 378.48c0 5.6-4.53 10.14-10.13 10.14-5.6 0-10.15-4.54-10.15-10.14 0-5.6 4.54-10.14 10.15-10.14 5.6 0 10.14 4.54 10.14 10.14zM574.25 317.85c0 5.6-4.54 10.14-10.14 10.14-5.6 0-10.13-4.55-10.13-10.15 0-5.6 4.54-10.14 10.14-10.14 5.6 0 10.15 4.55 10.15 10.15z" stroke="#000" stroke-width="2" fill="#fff"/><path d="M591.38 333.74l-20.4-7.23" stroke="#000" stroke-width="2" fill="none"/><path d="M594.54 333.8l-.47 1.32-.06-.03-2.62-.35h-.1l-.24-.07.67-1.88zM571.32 325.56l-.67 1.9-1.85-.67.37-.16 1.64-1.26z"/><path d="M537.07 333.74l19.14-8.03" stroke="#000" stroke-width="2" fill="none"/><path d="M537.45 334.66l-.25.1h-.13l-2.63.33h-.05l-.5-1.12 2.78-1.16zM556.94 325.02l1.24.95-1.58.66-.78-1.84.7-.3z"/><path d="M601.52 344.9c0 5.6-4.54 10.13-10.14 10.13-5.6 0-10.14-4.54-10.14-10.14 0-5.6 4.54-10.15 10.14-10.15 5.6 0 10.14 4.54 10.14 10.14zM588 378.7c0 5.6-4.54 10.14-10.14 10.14-5.6 0-10.14-4.54-10.14-10.15 0-5.6 4.54-10.15 10.14-10.15 5.6 0 10.14 4.54 10.14 10.14z" stroke="#000" stroke-width="2" fill="#fff"/><path d="M576.22 367.76l8.13-14.33" stroke="#000" stroke-width="2" fill="none"/><path d="M577.1 368.25l-.26.44-1.6.2-1.06.43 1.17-2.06zM584.2 352.06l1.45 1.1-.43.76-1.74-.98.6-1.05z"/><path d="M604.9 367.55l-5.84-14.62" stroke="#000" stroke-width="2" fill="none"/><path d="M606.46 368.76l-1.56-.2-.64.08-.3-.72 1.87-.75zM599.98 352.56l-1.85.74-.28-.7.7-.54.8-1.06z"/><path d="M615.04 378.7c0 5.6-4.54 10.14-10.14 10.14-5.6 0-10.14-4.54-10.14-10.15 0-5.6 4.54-10.15 10.14-10.15 5.6 0 10.14 4.54 10.14 10.14zM547.2 344.9c0 5.6-4.53 10.13-10.13 10.13-5.6 0-10.14-4.54-10.14-10.14 0-5.6 4.54-10.15 10.14-10.15 5.6 0 10.14 4.54 10.14 10.14zM533.7 378.7c0 5.6-4.55 10.14-10.15 10.14-5.6 0-10.15-4.54-10.15-10.15 0-5.6 4.54-10.15 10.15-10.15 5.6 0 10.14 4.54 10.14 10.14z" stroke="#000" stroke-width="2" fill="#fff"/><path d="M521.9 367.76l8.14-14.33" stroke="#000" stroke-width="2" fill="none"/><path d="M522.78 368.25l-.25.44-1.62.2-1.03.43 1.17-2.06zM529.9 352.06l1.43 1.1-.42.76-1.73-.98.6-1.05z"/><path d="M550.6 367.55l-5.86-14.62" stroke="#000" stroke-width="2" fill="none"/><path d="M552.15 368.76l-1.56-.2-.65.08-.3-.72 1.87-.75zM545.67 352.56l-1.85.74-.28-.7.7-.54.8-1.06z"/><path d="M560.73 378.7c0 5.6-4.54 10.14-10.14 10.14-5.6 0-10.15-4.54-10.15-10.15 0-5.6 4.54-10.15 10.14-10.15 5.6 0 10.13 4.54 10.13 10.14zM735.12 275.26c0 5.6-4.54 10.14-10.14 10.14-5.6 0-10.14-4.54-10.14-10.14 0-5.6 4.54-10.15 10.14-10.15 5.6 0 10.14 4.55 10.14 10.16z" stroke="#000" stroke-width="2" fill="#fff"/><path d="M672.47 306.5l45.48-22.7" stroke="#000" stroke-width="2" fill="none"/><path d="M672.9 307.38l-.24.13h-.15l-2.62.33-.08.03-.46-.93 2.68-1.34zM719.83 283.97l-1.43.72-.9-1.8.56-.28z"/><path d="M776.23 306.83l-43.57-23.53" stroke="#000" stroke-width="2" fill="none"/><path d="M779.35 307.37l-.3.57-1.82-.23-1.2.16-.27-.15.95-1.75zM733.13 282.42l-.95 1.76-1.35-.74 1.32-1 .3-.4z"/><path d="M682.65 317.63c0 5.6-4.54 10.14-10.14 10.14-5.6 0-10.13-4.54-10.13-10.14 0-5.6 4.54-10.14 10.14-10.14 5.6 0 10.15 4.53 10.15 10.13z" stroke="#000" stroke-width="2" fill="#fff"/><path d="M699.78 333.52l-20.4-7.23" stroke="#000" stroke-width="2" fill="none"/><path d="M702.94 333.58l-.47 1.32-.06-.02-2.62-.35-.1.02-.24-.08.67-1.9zM679.72 325.34l-.67 1.9-1.85-.67.37-.15 1.64-1.26z"/><path d="M645.46 333.52l19.15-8.03" stroke="#000" stroke-width="2" fill="none"/><path d="M645.85 334.45l-.25.1-.14-.02-2.63.35-.04.02-.5-1.14 2.78-1.16zM665.34 324.8l1.23.95-1.58.66-.78-1.83.7-.3z"/><path d="M709.92 344.67c0 5.6-4.54 10.14-10.14 10.14-5.6 0-10.15-4.53-10.15-10.13 0-5.6 4.54-10.14 10.15-10.14 5.6 0 10.14 4.54 10.14 10.14zM696.4 378.48c0 5.6-4.55 10.14-10.15 10.14-5.6 0-10.14-4.54-10.14-10.14 0-5.6 4.55-10.14 10.15-10.14 5.6 0 10.15 4.54 10.15 10.14z" stroke="#000" stroke-width="2" fill="#fff"/><path d="M684.62 367.54l8.12-14.33" stroke="#000" stroke-width="2" fill="none"/><path d="M685.5 368.03l-.26.44-1.62.2-1.04.44 1.17-2.05zM692.6 351.84l1.44 1.1-.43.76-1.73-.98.6-1.05z"/><path d="M713.3 367.33l-5.85-14.62" stroke="#000" stroke-width="2" fill="none"/><path d="M714.86 368.54l-1.56-.2-.64.08-.3-.72 1.87-.74zM708.38 352.34l-1.85.75-.3-.72.72-.54.8-1.06z"/><path d="M723.44 378.48c0 5.6-4.54 10.14-10.14 10.14-5.6 0-10.14-4.54-10.14-10.14 0-5.6 4.54-10.14 10.14-10.14 5.6 0 10.14 4.54 10.14 10.14zM655.6 344.67c0 5.6-4.54 10.14-10.14 10.14-5.6 0-10.14-4.53-10.14-10.13 0-5.6 4.54-10.14 10.14-10.14 5.6 0 10.15 4.54 10.15 10.14zM642.08 378.48c0 5.6-4.54 10.14-10.14 10.14-5.6 0-10.14-4.54-10.14-10.14 0-5.6 4.54-10.14 10.14-10.14 5.6 0 10.14 4.54 10.14 10.14z" stroke="#000" stroke-width="2" fill="#fff"/><path d="M630.3 367.54l8.13-14.33" stroke="#000" stroke-width="2" fill="none"/><path d="M631.18 368.03l-.25.44-1.62.2-1.04.44 1.18-2.05zM638.3 351.84l1.43 1.1-.43.76-1.74-.98.6-1.05z"/><path d="M659 367.33l-5.86-14.62" stroke="#000" stroke-width="2" fill="none"/><path d="M660.55 368.54l-1.56-.2-.65.08-.3-.72 1.86-.74zM654.07 352.34l-1.86.75-.27-.72.7-.54.82-1.06z"/><path d="M669.13 378.48c0 5.6-4.54 10.14-10.14 10.14-5.62 0-10.16-4.54-10.16-10.14 0-5.6 4.54-10.14 10.15-10.14 5.6 0 10.13 4.54 10.13 10.14zM787.37 317.85c0 5.6-4.54 10.14-10.14 10.14-5.6 0-10.14-4.55-10.14-10.15 0-5.6 4.53-10.14 10.13-10.14 5.6 0 10.14 4.55 10.14 10.15z" stroke="#000" stroke-width="2" fill="#fff"/><path d="M804.5 333.74l-20.4-7.23" stroke="#000" stroke-width="2" fill="none"/><path d="M807.66 333.8l-.47 1.32-.07-.03-2.63-.35h-.1l-.24-.07.67-1.88zM784.44 325.56l-.67 1.9-1.85-.67.37-.16 1.63-1.26z"/><path d="M750.2 333.74l19.13-8.03" stroke="#000" stroke-width="2" fill="none"/><path d="M750.57 334.66l-.25.1h-.13l-2.64.33h-.05l-.47-1.12 2.77-1.16zM770.06 325.02l1.24.95-1.58.66-.78-1.84.7-.3z"/><path d="M814.64 344.9c0 5.6-4.54 10.13-10.14 10.13-5.6 0-10.14-4.54-10.14-10.14 0-5.6 4.54-10.15 10.14-10.15 5.6 0 10.14 4.54 10.14 10.14zM801.12 378.7c0 5.6-4.54 10.14-10.14 10.14-5.6 0-10.14-4.54-10.14-10.15 0-5.6 4.54-10.15 10.14-10.15 5.6 0 10.14 4.54 10.14 10.14z" stroke="#000" stroke-width="2" fill="#fff"/><path d="M789.34 367.76l8.13-14.33" stroke="#000" stroke-width="2" fill="none"/><path d="M790.2 368.25l-.24.44-1.62.2-1.04.43 1.17-2.06zM797.33 352.06l1.44 1.1-.43.76-1.74-.98.6-1.05z"/><path d="M818.02 367.55l-5.84-14.62" stroke="#000" stroke-width="2" fill="none"/><path d="M819.58 368.76l-1.56-.2-.64.08-.3-.72 1.87-.75zM813.1 352.56l-1.85.74-.28-.7.7-.54.8-1.06z"/><path d="M828.16 378.7c0 5.6-4.54 10.14-10.14 10.14-5.6 0-10.14-4.54-10.14-10.15 0-5.6 4.54-10.15 10.14-10.15 5.6 0 10.14 4.54 10.14 10.14zM760.33 344.9c0 5.6-4.54 10.13-10.14 10.13-5.6 0-10.15-4.54-10.15-10.14 0-5.6 4.54-10.15 10.14-10.15 5.6 0 10.13 4.54 10.13 10.14zM746.8 378.7c0 5.6-4.53 10.14-10.14 10.14-5.6 0-10.14-4.54-10.14-10.15 0-5.6 4.54-10.15 10.14-10.15 5.6 0 10.15 4.54 10.15 10.14z" stroke="#000" stroke-width="2" fill="#fff"/><path d="M735.03 367.76l8.13-14.33" stroke="#000" stroke-width="2" fill="none"/><path d="M735.9 368.25l-.25.44-1.62.2-1.04.43 1.16-2.06zM743.02 352.06l1.43 1.1-.42.76-1.74-.98.58-1.05z"/><path d="M763.7 367.55l-5.84-14.62" stroke="#000" stroke-width="2" fill="none"/><path d="M765.27 368.76l-1.56-.2-.63.08-.3-.72 1.87-.75zM758.8 352.56l-1.86.74-.28-.7.7-.54.8-1.06z"/><path d="M773.85 378.7c0 5.6-4.54 10.14-10.14 10.14-5.6 0-10.13-4.54-10.13-10.15 0-5.6 4.54-10.15 10.14-10.15 5.6 0 10.15 4.54 10.15 10.14z" stroke="#000" stroke-width="2" fill="#fff"/><path d="M629.07 235.4l85.7 35.6" stroke="#000" stroke-width="2" fill="none"/><path d="M629.45 234.46l-.77 1.85-.92-.37.77-1.85zM716.08 270.47l-.77 1.85-.9-.4.75-1.83z"/><defs><path d="M521-578c23-14 20-71-6-75-112-16-227 16-324 21-56 3-100 19-78 81-13 171-32 323-49 487-6 57-8 81 45 77 45-3 52-35 57-77l22-213c90-14 180-31 271-41 34-4 49-60 25-79-25-20-86-9-120-4l-171 26 14-170 261-18c26-3 43-9 53-15" id="h"/><path d="M163-57c18-185 16-376 41-559 8-62-68-66-86-22-6 15-9 35-11 55L68-52c-2 37 13 69 47 67 41-2 44-34 48-72" id="i"/><path d="M414 18c44 0 51-25 54-67l20-294c15-129-122-120-228-97-56 12-101 41-148 64-16 8-27 55-6 61 51 14 87-22 132-33 39-9 72-27 121-28 19 0 38 3 37 23l-4 55C217-288 63-254 27-107 26-36 64 31 131 31c99 0 173-43 244-71-7 36-4 58 39 58zm-23-168c-50 42-119 78-192 101-76 24-118-61-60-101 61-42 156-67 248-79" id="j"/><path d="M294-7c-52 29-182 61-175-39l22-313c-29 11-104 9-94-22-2-51 54-54 100-61 1-69 2-169 83-132 25 20 10 79 10 117 49-6 105-16 153-21 33-3 36 52 17 67-34 27-121 29-176 39L215-96c-3 27 40 15 48 4 21-29 77-60 113-24 8 8 12 20 11 35-23 31-56 53-93 74" id="k"/><g id="a"><use transform="matrix(0.017777777777777778,0,0,0.017777777777777778,0,0)" xlink:href="#h"/><use transform="matrix(0.017777777777777778,0,0,0.017777777777777778,8.622222222222222,0)" xlink:href="#i"/><use transform="matrix(0.017777777777777778,0,0,0.017777777777777778,12.568888888888889,0)" xlink:href="#j"/><use transform="matrix(0.017777777777777778,0,0,0.017777777777777778,21.955555555555556,0)" xlink:href="#k"/></g><path d="M216-52c-5 36-4 69 38 67 48-3 51-21 55-66l44-503c67-15 148-20 201-48 21-11 22-54 2-66-33-20-92 2-124 8-114 21-232 39-344 74-26 8-41 55-12 68 50 23 129-13 181-19" id="l"/><path d="M124 12C75 22 65-15 68-58l23-329c-6-47 11-61 61-61 32 0 27 14 38 41 60-28 141-67 220-43 14 18 32 52 5 72-44 33-165 17-207 62-5 4-12 9-20 13L160-58c-7 43-5 63-36 70" id="m"/><path d="M219-412c99-54 263-26 248 106-6 57-62 81-112 104-62 28-146 48-218 66-5 48 10 94 65 90 94-7 136-72 207-98 34-13 67 0 57 43C435-41 354-7 282 18c-34 11-68 16-102 16C83 33 33-24 43-131c12-131 81-229 176-281zm101 138c24-14 78-40 42-74-39-37-110 1-139 24-31 25-59 61-72 105 67 5 123-28 169-55" id="n"/><g id="b"><use transform="matrix(0.017777777777777778,0,0,0.017777777777777778,0,0)" xlink:href="#l"/><use transform="matrix(0.017777777777777778,0,0,0.017777777777777778,7.235555555555556,0)" xlink:href="#m"/><use transform="matrix(0.017777777777777778,0,0,0.017777777777777778,13.955555555555556,0)" xlink:href="#n"/><use transform="matrix(0.017777777777777778,0,0,0.017777777777777778,22.293333333333333,0)" xlink:href="#n"/></g><g id="c"><use transform="matrix(0.017777777777777778,0,0,0.017777777777777778,0,0)" xlink:href="#l"/><use transform="matrix(0.017777777777777778,0,0,0.017777777777777778,7.235555555555556,0)" xlink:href="#m"/><use transform="matrix(0.017777777777777778,0,0,0.017777777777777778,13.955555555555556,0)" xlink:href="#n"/><use transform="matrix(0.017777777777777778,0,0,0.017777777777777778,22.293333333333333,0)" xlink:href="#n"/></g><path d="M387-452c45 0 79 27 79 73 0 109-16 218-23 327 13 58-52 84-87 52-7-7-8-24-7-49l20-277c5-41-49-23-78-16-38 9-78 28-106 53L160-48c13 58-94 91-94 20 0-134 25-233 25-362 0-45 36-68 83-64 18 6 9 33 16 56 60-17 127-54 197-54" id="o"/><path d="M123-498c77 32 120-75 87-136-18-21-76-16-94 7-23 17-37 86-10 113 5 6 10 13 17 16zm35 466c14-117 12-250 30-368 9-59-74-59-92-24-11 21-9 48-11 80-6 111-17 224-17 334 0 32 72 34 82 4 3-8 6-16 8-26" id="p"/><path d="M167 226c170 27 284-54 294-209 9-139 27-274 27-415 0-39-36-43-82-43-149 0-266 45-328 133-46 65-29 205-6 274 22 37 44 67 102 60 89-11 160-62 208-124-9 122-8 235-132 242-59 3-90-38-147-40-41-1-49 55-27 80 20 23 54 36 91 42zm-17-476c29-67 104-91 188-104 22-4 39-3 54 0 5 37 14 87-11 114-37 62-97 121-156 162-98 68-103-107-75-172" id="q"/><g id="d"><use transform="matrix(0.017777777777777778,0,0,0.017777777777777778,0,0)" xlink:href="#h"/><use transform="matrix(0.017777777777777778,0,0,0.017777777777777778,8.622222222222222,0)" xlink:href="#i"/><use transform="matrix(0.017777777777777778,0,0,0.017777777777777778,12.568888888888889,0)" xlink:href="#j"/><use transform="matrix(0.017777777777777778,0,0,0.017777777777777778,21.955555555555556,0)" xlink:href="#k"/><use transform="matrix(0.017777777777777778,0,0,0.017777777777777778,29.706666666666667,0)" xlink:href="#k"/><use transform="matrix(0.017777777777777778,0,0,0.017777777777777778,37.45777777777778,0)" xlink:href="#n"/><use transform="matrix(0.017777777777777778,0,0,0.017777777777777778,45.79555555555555,0)" xlink:href="#o"/><use transform="matrix(0.017777777777777778,0,0,0.017777777777777778,54.72,0)" xlink:href="#p"/><use transform="matrix(0.017777777777777778,0,0,0.017777777777777778,58.666666666666664,0)" xlink:href="#o"/><use transform="matrix(0.017777777777777778,0,0,0.017777777777777778,67.5911111111111,0)" xlink:href="#q"/></g><path d="M480-433c87 3 153 44 143 142C607-123 486-34 346 11 211 55 46 26 46-120c0-40 65-72 88-32 25 42 40 94 112 88 119-10 209-60 257-143 23-39 41-132-32-128-105 6-179 59-280 59-78 0-132-37-122-121 15-131 114-208 221-254 92-40 227-25 274 37 24 31 8 80-30 82-66 3-63-54-134-52-103 3-170 55-212 118-24 36-30 92 21 92 91 0 162-63 271-59" id="r"/><path d="M254-72c-30 8-82 15-89-17l23-289c33-89-91-94-97-3L70-84C51 77 266 15 354-26c-4 32 14 41 41 42 42 1 72-22 56-65l24-338c12-51 9-78-33-75-43 3-60 30-63 75l-18 260c-30 21-67 44-107 55" id="s"/><path d="M393-459c146-8 146 177 91 275C422-74 333 27 158 16l-15 208c-2 44-18 57-57 65-41 8-39-29-37-69C64 13 75-196 92-403c3-38 51-65 89-41 11 7 15 20 14 40 57-37 116-50 198-55zm-49 317c41-44 97-127 68-203-60-38-166 6-210 35-11 7-16 15-17 21L171-90c-1 20 13 24 33 24 58 0 107-40 140-76" id="t"/><g id="e"><use transform="matrix(0.017777777777777778,0,0,0.017777777777777778,0,0)" xlink:href="#r"/><use transform="matrix(0.017777777777777778,0,0,0.017777777777777778,11.217777777777778,0)" xlink:href="#s"/><use transform="matrix(0.017777777777777778,0,0,0.017777777777777778,20.284444444444443,0)" xlink:href="#t"/><use transform="matrix(0.017777777777777778,0,0,0.017777777777777778,29.68888888888889,0)" xlink:href="#n"/><use transform="matrix(0.017777777777777778,0,0,0.017777777777777778,38.02666666666668,0)" xlink:href="#m"/></g><path d="M43-187c-40-55 39-78 96-78h101c5-49 11-101 15-145 4-40 51-67 81-38 16 15 14 58 6 82l-9 101c56 0 112 2 166-1 51-3 56 56 23 78-47 32-126 9-197 16-6 54-11 110-15 166-2 35-55 60-83 32-15-15-6-66-4-92l9-106c-54-3-108-1-151-1-17 0-31-4-38-14" id="u"/><use transform="matrix(0.017777777777777778,0,0,0.017777777777777778,0,0)" xlink:href="#u" id="f"/><path d="M716-30c18-187 35-372 49-559 3-42-13-63-50-66-37 12-59 52-79 83-85 135-163 244-238 379-15 5-13-12-21-30-52-127-105-257-155-379-14-34-48-75-82-42-8 9-13 22-15 41L69-54c0 45 11 66 45 69 35 3 47-37 50-72l31-358c46 105 93 220 139 323 16 35 87 36 107-3 59-118 143-227 218-335L623-50c-28 73 86 89 93 20" id="v"/><path d="M187 30C86 30 37-38 44-140c9-132 83-229 176-282 85-48 240-30 261 49 11 42-48 56-82 35-28-29-107-33-145-6-64 46-121 125-114 234 5 80 124 50 168 20 34-24 59-51 76-86 11-23 89-29 88 6C437-52 341 30 187 30" id="w"/><g id="g"><use transform="matrix(0.017777777777777778,0,0,0.017777777777777778,0,0)" xlink:href="#v"/><use transform="matrix(0.017777777777777778,0,0,0.017777777777777778,13.795555555555556,0)" xlink:href="#j"/><use transform="matrix(0.017777777777777778,0,0,0.017777777777777778,23.182222222222222,0)" xlink:href="#q"/><use transform="matrix(0.017777777777777778,0,0,0.017777777777777778,32.51555555555556,0)" xlink:href="#p"/><use transform="matrix(0.017777777777777778,0,0,0.017777777777777778,36.46222222222222,0)" xlink:href="#w"/></g></defs></g></svg>