<svg xmlns="http://www.w3.org/2000/svg" xmlns:xlink="http://www.w3.org/1999/xlink" xmlns:lucid="lucid" width="1199" height="429"><g transform="translate(-60 -80)" lucid:page-tab-id="-ifVpLWL6Aqx"><path d="M735 160.85h360v60H735z" stroke="#000" stroke-opacity="0" stroke-width="2" fill="#fff" fill-opacity="0"/><use xlink:href="#a" transform="matrix(1,0,0,1,740,165.85474648490793) translate(142.50222222222223 31.586666666666666)"/><use xlink:href="#b" transform="matrix(1,0,0,1,740,165.85474648490793) translate(176.86666666666667 31.586666666666666)"/><path d="M452 100h190v62H452z" stroke="#000" stroke-opacity="0" stroke-width="2" fill="#fff" fill-opacity="0"/><use xlink:href="#c" transform="matrix(1,0,0,1,457,105) translate(33.89333333333334 32.586666666666666)"/><use xlink:href="#d" transform="matrix(1,0,0,1,457,105) translate(69.18222222222224 32.586666666666666)"/><path d="M151 168h190v62H151z" stroke="#000" stroke-opacity="0" stroke-width="2" fill="#fff" fill-opacity="0"/><use xlink:href="#e" transform="matrix(1,0,0,1,156,173) translate(49.98222222222222 32.586666666666666)"/><use xlink:href="#b" transform="matrix(1,0,0,1,156,173) translate(99.38666666666667 32.586666666666666)"/><path d="M420.7 415.6l-19.14-8.04" stroke="#000" stroke-width="2" fill="none"/><path d="M423.86 415.84l-.12.28-3.03-.52.4-.92zM401.17 408.48l-.97-.4.4-.18 1.3-1.18z"/><path d="M370.63 415.6l18.1-8.8" stroke="#000" stroke-width="2" fill="none"/><path d="M370.63 415.6l-2.16.25-.87.37-.1-.2 2.7-1.32zM389.73 407.32l.12.07-.67.3-.88-1.78.12-.06z"/><path d="M406.82 446.6l7.76-14.2" stroke="#000" stroke-width="2" fill="none"/><path d="M407.33 446.87l-1.25.15-.83.35.7-1.26zM414.87 432.25l.7.4-.1.23-1.77-.96.33-.6z"/><path d="M433.18 446.77l-5.8-14.84" stroke="#000" stroke-width="2" fill="none"/><path d="M434.33 446.97l-1.15-.2.93-.37zM428.3 431.56l-1.86.73-.03-.07 1.6-1.43z"/><path d="M430.06 424.95c0 5.17-4.2 9.35-9.35 9.35-5.15 0-9.34-4.18-9.34-9.35 0-5.16 4.2-9.35 9.35-9.35 5.17 0 9.36 4.2 9.36 9.35zM417.6 456.12c0 5.16-4.2 9.35-9.36 9.35-5.16 0-9.35-4.2-9.35-9.35 0-5.17 4.18-9.35 9.34-9.35 5.17 0 9.35 4.18 9.35 9.35zM442.53 456.12c0 5.16-4.2 9.35-9.35 9.35-5.17 0-9.35-4.2-9.35-9.35 0-5.17 4.18-9.35 9.35-9.35 5.16 0 9.35 4.18 9.35 9.35z" stroke="#000" stroke-width="2" fill="#ff8f80"/><path d="M356.74 446.6l7.76-14.2" stroke="#000" stroke-width="2" fill="none"/><path d="M357.26 446.87l-1.26.15-.82.35.68-1.26zM364.8 432.25l.7.4-.12.23-1.75-.96.32-.6z"/><path d="M383.1 446.77l-5.8-14.84" stroke="#000" stroke-width="2" fill="none"/><path d="M384.25 446.97l-1.15-.2.93-.37zM378.23 431.56l-1.87.73-.02-.07 1.6-1.43z"/><path d="M379.98 424.95c0 5.17-4.18 9.35-9.35 9.35-5.16 0-9.35-4.18-9.35-9.35 0-5.16 4.2-9.35 9.35-9.35 5.17 0 9.35 4.2 9.35 9.35zM367.52 456.12c0 5.16-4.2 9.35-9.35 9.35-5.17 0-9.35-4.2-9.35-9.35 0-5.17 4.18-9.35 9.35-9.35 5.16 0 9.35 4.18 9.35 9.35zM392.45 456.12c0 5.16-4.18 9.35-9.35 9.35-5.16 0-9.35-4.2-9.35-9.35 0-5.17 4.2-9.35 9.35-9.35 5.17 0 9.35 4.18 9.35 9.35zM404.92 400.02c0 5.16-4.2 9.35-9.35 9.35-5.17 0-9.35-4.2-9.35-9.35 0-5.17 4.18-9.35 9.35-9.35 5.16 0 9.35 4.18 9.35 9.35z" stroke="#000" stroke-width="2" fill="#ff8f80"/><path d="M315.62 470.14h158.96l-79.48-98.17z" stroke="#000" stroke-width="2" fill="#ff8f80"/><path d="M359.93 418.56l-19.15-8.04" stroke="#000" stroke-width="2" fill="none"/><path d="M363.1 418.8l-.13.3-3.04-.54.4-.92zM340.4 411.44l-.98-.4.4-.18 1.3-1.18z"/><path d="M309.86 418.56l18.1-8.78" stroke="#000" stroke-width="2" fill="none"/><path d="M309.86 418.56l-2.17.25-.88.38-.1-.2 2.7-1.32zM328.95 410.28l.12.07-.67.33-.87-1.8.1-.06z"/><path d="M346.04 449.55l7.76-14.2" stroke="#000" stroke-width="2" fill="none"/><path d="M346.56 449.84l-1.26.14-.82.35.68-1.26zM354.1 435.22l.7.4-.12.22-1.76-.96.33-.6z"/><path d="M372.4 449.73l-5.8-14.84" stroke="#000" stroke-width="2" fill="none"/><path d="M373.55 449.93l-1.15-.2.93-.37zM367.53 434.52l-1.87.73-.02-.06 1.6-1.44z"/><path d="M369.28 427.9c0 5.18-4.18 9.36-9.35 9.36-5.16 0-9.35-4.18-9.35-9.35 0-5.15 4.2-9.34 9.35-9.34 5.17 0 9.35 4.2 9.35 9.35zM356.82 459.08c0 5.16-4.2 9.35-9.35 9.35-5.17 0-9.35-4.2-9.35-9.35 0-5.16 4.18-9.35 9.35-9.35 5.16 0 9.35 4.2 9.35 9.35zM381.75 459.08c0 5.16-4.2 9.35-9.35 9.35-5.16 0-9.35-4.2-9.35-9.35 0-5.16 4.2-9.35 9.35-9.35 5.16 0 9.35 4.2 9.35 9.35z" stroke="#000" stroke-width="2" fill="#ffbbb1"/><path d="M295.97 449.55l7.76-14.2" stroke="#000" stroke-width="2" fill="none"/><path d="M296.48 449.84l-1.25.14-.83.35.7-1.26zM304.02 435.22l.7.4-.12.22-1.75-.96.33-.6z"/><path d="M322.33 449.73l-5.8-14.84" stroke="#000" stroke-width="2" fill="none"/><path d="M323.48 449.93l-1.15-.2.93-.37zM317.45 434.52l-1.86.73-.04-.06 1.6-1.44z"/><path d="M319.2 427.9c0 5.18-4.18 9.36-9.34 9.36-5.17 0-9.35-4.18-9.35-9.35 0-5.15 4.2-9.34 9.36-9.34 5.16 0 9.35 4.2 9.35 9.35zM306.74 459.08c0 5.16-4.18 9.35-9.35 9.35s-9.36-4.2-9.36-9.35c0-5.16 4.2-9.35 9.35-9.35 5.16 0 9.34 4.2 9.34 9.35zM331.68 459.08c0 5.16-4.2 9.35-9.35 9.35-5.17 0-9.35-4.2-9.35-9.35 0-5.16 4.18-9.35 9.35-9.35 5.16 0 9.35 4.2 9.35 9.35zM344.14 402.98c0 5.16-4.18 9.35-9.35 9.35s-9.36-4.2-9.36-9.35c0-5.17 4.2-9.35 9.35-9.35 5.16 0 9.34 4.18 9.34 9.35z" stroke="#000" stroke-width="2" fill="#ffbbb1"/><path d="M254.85 473.1H413.8l-79.48-98.17z" stroke="#000" stroke-width="2" fill="#ffbbb1"/><path d="M261.3 427.3l-19.16-8.05" stroke="#000" stroke-width="2" fill="none"/><path d="M264.44 427.53l-.12.28-3.03-.5.38-.93zM241.75 420.17l-.97-.4.4-.18 1.3-1.2z"/><path d="M211.2 427.3l18.12-8.8" stroke="#000" stroke-width="2" fill="none"/><path d="M211.2 427.3l-2.15.24-.87.37-.1-.2 2.7-1.3zM230.3 419l.13.08-.68.32-.87-1.8.12-.05z"/><path d="M247.4 458.28l7.76-14.2" stroke="#000" stroke-width="2" fill="none"/><path d="M247.9 458.56l-1.24.15-.83.36.7-1.26zM255.45 443.94l.7.4-.12.23-1.75-.96.33-.6z"/><path d="M273.76 458.46l-5.8-14.84" stroke="#000" stroke-width="2" fill="none"/><path d="M274.9 458.65l-1.14-.2.93-.36zM268.88 443.25l-1.86.73-.03-.06 1.58-1.43z"/><path d="M270.64 436.64c0 5.16-4.2 9.35-9.35 9.35-5.17 0-9.36-4.2-9.36-9.36 0-5.16 4.2-9.35 9.35-9.35 5.15 0 9.34 4.18 9.34 9.34zM258.17 467.8c0 5.17-4.18 9.36-9.35 9.36-5.16 0-9.35-4.2-9.35-9.35 0-5.16 4.2-9.34 9.35-9.34 5.17 0 9.35 4.18 9.35 9.35zM283.1 467.8c0 5.17-4.18 9.36-9.34 9.36-5.17 0-9.35-4.2-9.35-9.35 0-5.16 4.2-9.34 9.36-9.34 5.16 0 9.35 4.18 9.35 9.35z" stroke="#000" stroke-width="2" fill="#99d5ca"/><path d="M197.32 458.28l7.76-14.2" stroke="#000" stroke-width="2" fill="none"/><path d="M197.84 458.56l-1.26.15-.82.36.68-1.26zM205.37 443.94l.7.4-.1.23-1.77-.96.33-.6z"/><path d="M223.68 458.46l-5.8-14.84" stroke="#000" stroke-width="2" fill="none"/><path d="M224.83 458.65l-1.15-.2.93-.36zM218.8 443.25l-1.86.73-.02-.06 1.6-1.43z"/><path d="M220.56 436.64c0 5.16-4.18 9.35-9.35 9.35-5.15 0-9.34-4.2-9.34-9.36 0-5.16 4.2-9.35 9.35-9.35 5.18 0 9.36 4.18 9.36 9.34zM208.1 467.8c0 5.17-4.2 9.36-9.35 9.36-5.17 0-9.35-4.2-9.35-9.35 0-5.16 4.18-9.34 9.35-9.34 5.16 0 9.35 4.18 9.35 9.35zM233.03 467.8c0 5.17-4.18 9.36-9.35 9.36-5.16 0-9.35-4.2-9.35-9.35 0-5.16 4.2-9.34 9.35-9.34 5.17 0 9.35 4.18 9.35 9.35zM245.5 411.7c0 5.17-4.2 9.36-9.35 9.36-5.17 0-9.35-4.2-9.35-9.35 0-5.16 4.18-9.35 9.35-9.35 5.16 0 9.35 4.2 9.35 9.36z" stroke="#000" stroke-width="2" fill="#99d5ca"/><path d="M156.2 481.83h158.96l-79.48-98.18z" stroke="#000" stroke-width="2" fill="#99d5ca"/><path d="M185.1 434.46l-19.17-8.04" stroke="#000" stroke-width="2" fill="none"/><path d="M188.24 434.7l-.12.28-3.03-.52.37-.92zM165.55 427.34l-.98-.4.4-.18 1.32-1.18z"/><path d="M135 434.46l18.1-8.8" stroke="#000" stroke-width="2" fill="none"/><path d="M135 434.46l-2.16.25-.86.38-.1-.2 2.7-1.32zM154.1 426.18l.12.06-.67.33-.87-1.8.1-.05z"/><path d="M171.2 465.45l7.75-14.2" stroke="#000" stroke-width="2" fill="none"/><path d="M171.7 465.73l-1.25.15-.82.35.7-1.26zM179.25 451.1l.7.4-.12.23-1.75-.95.32-.6z"/><path d="M197.55 465.62l-5.8-14.84" stroke="#000" stroke-width="2" fill="none"/><path d="M198.7 465.82l-1.15-.2.93-.36zM192.68 450.42l-1.86.73-.03-.07 1.58-1.42z"/><path d="M194.44 443.8c0 5.17-4.2 9.36-9.35 9.36-5.18 0-9.36-4.2-9.36-9.35 0-5.16 4.18-9.34 9.35-9.34 5.15 0 9.34 4.18 9.34 9.35zM181.97 474.97c0 5.17-4.2 9.35-9.35 9.35-5.17 0-9.35-4.18-9.35-9.35 0-5.16 4.18-9.35 9.35-9.35 5.16 0 9.35 4.2 9.35 9.35zM206.9 474.97c0 5.17-4.18 9.35-9.35 9.35-5.16 0-9.35-4.18-9.35-9.35 0-5.16 4.2-9.35 9.35-9.35 5.17 0 9.35 4.2 9.35 9.35z" stroke="#000" stroke-width="2" fill="#c7e8ac"/><path d="M121.12 465.45l7.76-14.2" stroke="#000" stroke-width="2" fill="none"/><path d="M121.63 465.73l-1.25.15-.83.35.7-1.26zM129.17 451.1l.7.4-.1.23-1.77-.95.33-.6z"/><path d="M147.48 465.62l-5.8-14.84" stroke="#000" stroke-width="2" fill="none"/><path d="M148.63 465.82l-1.15-.2.93-.36zM142.6 450.42l-1.86.73-.03-.07 1.6-1.42z"/><path d="M144.36 443.8c0 5.17-4.2 9.36-9.35 9.36-5.15 0-9.34-4.2-9.34-9.35 0-5.16 4.2-9.34 9.35-9.34 5.17 0 9.36 4.18 9.36 9.35zM131.9 474.97c0 5.17-4.2 9.35-9.36 9.35-5.16 0-9.35-4.18-9.35-9.35 0-5.16 4.18-9.35 9.34-9.35 5.17 0 9.35 4.2 9.35 9.35zM156.83 474.97c0 5.17-4.2 9.35-9.35 9.35-5.17 0-9.35-4.18-9.35-9.35 0-5.16 4.18-9.35 9.35-9.35 5.16 0 9.35 4.2 9.35 9.35zM169.3 418.87c0 5.17-4.2 9.35-9.36 9.35-5.16 0-9.35-4.18-9.35-9.35 0-5.16 4.18-9.35 9.34-9.35 5.17 0 9.35 4.2 9.35 9.35z" stroke="#000" stroke-width="2" fill="#c7e8ac"/><path d="M80 489h158.95l-79.47-98.18z" stroke="#000" stroke-width="2" fill="#c7e8ac"/><path d="M344.04 336.28l-19.15-8.04" stroke="#000" stroke-width="2" fill="none"/><path d="M347.2 336.52l-.13.28-3.03-.52.4-.92zM324.5 329.16l-.97-.4.4-.18 1.3-1.18z"/><path d="M293.96 336.28l18.1-8.8" stroke="#000" stroke-width="2" fill="none"/><path d="M293.96 336.28l-2.16.25-.87.37-.1-.2 2.7-1.32zM313.06 328l.12.07-.68.32-.87-1.8.1-.06z"/><path d="M330.15 367.27l7.76-14.2" stroke="#000" stroke-width="2" fill="none"/><path d="M330.66 367.55l-1.25.15-.82.35.7-1.26zM338.2 352.93l.7.4-.12.23-1.75-.96.33-.6z"/><path d="M356.5 367.45l-5.8-14.84" stroke="#000" stroke-width="2" fill="none"/><path d="M357.66 367.65l-1.15-.2.94-.37zM351.63 352.24l-1.86.73-.03-.06 1.6-1.42z"/><path d="M353.4 345.63c0 5.16-4.2 9.35-9.36 9.35-5.17 0-9.35-4.2-9.35-9.35 0-5.16 4.17-9.35 9.34-9.35 5.16 0 9.35 4.2 9.35 9.35z" stroke="#000" stroke-width="2" fill="#ff8f80"/><path d="M340.92 376.8c0 5.16-4.18 9.35-9.35 9.35-5.16 0-9.35-4.2-9.35-9.35 0-5.17 4.2-9.35 9.35-9.35 5.17 0 9.35 4.18 9.35 9.35zM365.86 376.8c0 5.16-4.2 9.35-9.35 9.35-5.16 0-9.34-4.2-9.34-9.35 0-5.17 4.18-9.35 9.35-9.35s9.36 4.18 9.36 9.35z" stroke="#000" stroke-width="2" fill="#f9d2de"/><path d="M280.07 367.27l7.76-14.2" stroke="#000" stroke-width="2" fill="none"/><path d="M280.58 367.55l-1.25.15-.82.35.7-1.26zM288.12 352.93l.7.4-.1.23-1.77-.96.33-.6z"/><path d="M306.43 367.45l-5.8-14.84" stroke="#000" stroke-width="2" fill="none"/><path d="M307.58 367.65l-1.15-.2.93-.37zM301.56 352.24l-1.87.73-.03-.06 1.6-1.42z"/><path d="M303.3 345.63c0 5.16-4.17 9.35-9.34 9.35-5.16 0-9.35-4.2-9.35-9.35 0-5.16 4.2-9.35 9.36-9.35 5.17 0 9.35 4.2 9.35 9.35zM290.85 376.8c0 5.16-4.2 9.35-9.35 9.35-5.17 0-9.35-4.2-9.35-9.35 0-5.17 4.18-9.35 9.35-9.35 5.16 0 9.35 4.18 9.35 9.35z" stroke="#000" stroke-width="2" fill="#f9d2de"/><path d="M315.78 376.8c0 5.16-4.2 9.35-9.35 9.35-5.16 0-9.35-4.2-9.35-9.35 0-5.17 4.2-9.35 9.35-9.35 5.16 0 9.35 4.18 9.35 9.35z" stroke="#000" stroke-width="2" fill="#ffbbb1"/><path d="M328.25 320.7c0 5.16-4.2 9.35-9.35 9.35-5.17 0-9.35-4.2-9.35-9.35 0-5.17 4.18-9.35 9.35-9.35 5.16 0 9.35 4.18 9.35 9.35z" stroke="#000" stroke-width="2" fill="#f9d2de"/><path d="M238.95 390.82H397.9l-79.47-98.17z" stroke="#000" stroke-width="2" fill="#f9d2de"/><path d="M233.24 346.57l-19.15-8.05" stroke="#000" stroke-width="2" fill="none"/><path d="M236.4 346.8l-.13.3-3.03-.53.4-.93zM213.7 339.45l-.97-.4.4-.18 1.3-1.2z"/><path d="M183.16 346.57l18.1-8.8" stroke="#000" stroke-width="2" fill="none"/><path d="M183.16 346.57l-2.16.25-.87.37-.1-.22 2.7-1.3zM202.26 338.28l.12.07-.68.33-.87-1.8.12-.06z"/><path d="M219.35 377.56l7.76-14.2" stroke="#000" stroke-width="2" fill="none"/><path d="M219.86 377.84l-1.25.15-.82.33.7-1.25zM227.4 363.22l.7.4-.12.22-1.75-.96.33-.6z"/><path d="M245.7 377.73l-5.8-14.84" stroke="#000" stroke-width="2" fill="none"/><path d="M246.86 377.93l-1.15-.2.94-.36zM240.83 362.53l-1.86.73-.03-.07 1.6-1.44z"/><path d="M242.6 355.92c0 5.16-4.2 9.35-9.36 9.35-5.16 0-9.35-4.2-9.35-9.35 0-5.17 4.18-9.35 9.34-9.35s9.35 4.18 9.35 9.35zM230.12 387.08c0 5.17-4.18 9.35-9.35 9.35-5.16 0-9.35-4.18-9.35-9.35 0-5.16 4.2-9.35 9.35-9.35 5.17 0 9.35 4.2 9.35 9.35z" stroke="#000" stroke-width="2" fill="#c1e4f7"/><path d="M255.06 387.08c0 5.17-4.2 9.35-9.35 9.35-5.16 0-9.34-4.18-9.34-9.35 0-5.16 4.18-9.35 9.35-9.35s9.36 4.2 9.36 9.35z" stroke="#000" stroke-width="2" fill="#99d5ca"/><path d="M169.27 377.56l7.76-14.2" stroke="#000" stroke-width="2" fill="none"/><path d="M169.78 377.84l-1.25.15-.82.33.7-1.25zM177.32 363.22l.7.4-.1.22-1.77-.96.33-.6z"/><path d="M195.63 377.73l-5.8-14.84" stroke="#000" stroke-width="2" fill="none"/><path d="M196.78 377.93l-1.15-.2.93-.36zM190.76 362.53l-1.87.73-.03-.07 1.6-1.44z"/><path d="M192.5 355.92c0 5.16-4.17 9.35-9.34 9.35-5.16 0-9.35-4.2-9.35-9.35 0-5.17 4.2-9.35 9.36-9.35 5.17 0 9.35 4.18 9.35 9.35zM180.05 387.08c0 5.17-4.2 9.35-9.35 9.35-5.17 0-9.35-4.18-9.35-9.35 0-5.16 4.18-9.35 9.35-9.35 5.16 0 9.35 4.2 9.35 9.35z" stroke="#000" stroke-width="2" fill="#c1e4f7"/><path d="M204.98 387.08c0 5.17-4.2 9.35-9.35 9.35-5.16 0-9.35-4.18-9.35-9.35 0-5.16 4.2-9.35 9.35-9.35 5.16 0 9.35 4.2 9.35 9.35z" stroke="#000" stroke-width="2" fill="#c7e8ac"/><path d="M217.45 330.98c0 5.17-4.2 9.35-9.35 9.35-5.17 0-9.35-4.18-9.35-9.35 0-5.16 4.18-9.35 9.35-9.35 5.16 0 9.35 4.2 9.35 9.35z" stroke="#000" stroke-width="2" fill="#c1e4f7"/><path d="M128.15 401.1H287.1l-79.47-98.17z" stroke="#000" stroke-width="2" fill="#c1e4f7"/><path d="M275.3 273.63l-19.14-8.04" stroke="#000" stroke-width="2" fill="none"/><path d="M278.47 273.87l-.12.3-3.04-.54.4-.92zM255.78 266.5l-.98-.4.4-.16 1.32-1.2z"/><path d="M225.24 273.63l18.1-8.78" stroke="#000" stroke-width="2" fill="none"/><path d="M225.24 273.63l-2.17.26-.86.35-.1-.2 2.7-1.32zM244.33 265.35l.12.07-.67.33-.87-1.8.12-.06z"/><path d="M261.42 304.63l7.76-14.2" stroke="#000" stroke-width="2" fill="none"/><path d="M261.94 304.9l-1.26.15-.82.35.68-1.25zM269.48 290.3l.7.38-.12.23-1.75-.95.33-.6z"/><path d="M287.78 304.8l-5.8-14.84" stroke="#000" stroke-width="2" fill="none"/><path d="M288.93 305l-1.15-.2.93-.36zM282.9 289.6l-1.86.73-.02-.07 1.6-1.43z"/><path d="M284.67 282.98c0 5.17-4.2 9.35-9.36 9.35-5.15 0-9.34-4.18-9.34-9.35 0-5.16 4.2-9.35 9.35-9.35 5.18 0 9.37 4.2 9.37 9.35zM272.2 314.15c0 5.17-4.2 9.35-9.35 9.35-5.17 0-9.35-4.18-9.35-9.35 0-5.16 4.18-9.35 9.35-9.35 5.16 0 9.35 4.2 9.35 9.35z" stroke="#000" stroke-width="2" fill="#fff"/><path d="M297.13 314.15c0 5.17-4.18 9.35-9.35 9.35-5.16 0-9.35-4.18-9.35-9.35 0-5.16 4.2-9.35 9.35-9.35 5.17 0 9.35 4.2 9.35 9.35z" stroke="#000" stroke-width="2" fill="#f9d2de"/><path d="M211.35 304.63l7.76-14.2" stroke="#000" stroke-width="2" fill="none"/><path d="M211.86 304.9l-1.25.15-.82.35.7-1.25zM219.4 290.3l.7.38-.12.23-1.75-.95.33-.6z"/><path d="M237.7 304.8l-5.8-14.84" stroke="#000" stroke-width="2" fill="none"/><path d="M238.86 305l-1.15-.2.94-.36zM232.83 289.6l-1.86.73-.03-.07 1.6-1.43z"/><path d="M234.6 282.98c0 5.17-4.2 9.35-9.36 9.35-5.16 0-9.35-4.18-9.35-9.35 0-5.16 4.18-9.35 9.34-9.35s9.35 4.2 9.35 9.35z" stroke="#000" stroke-width="2" fill="#fff"/><path d="M222.12 314.15c0 5.17-4.18 9.35-9.35 9.35-5.16 0-9.35-4.18-9.35-9.35 0-5.16 4.2-9.35 9.35-9.35 5.17 0 9.35 4.2 9.35 9.35z" stroke="#000" stroke-width="2" fill="#c1e4f7"/><path d="M247.06 314.15c0 5.17-4.2 9.35-9.35 9.35-5.16 0-9.34-4.18-9.34-9.35 0-5.16 4.18-9.35 9.35-9.35s9.36 4.2 9.36 9.35zM259.52 258.05c0 5.16-4.18 9.35-9.35 9.35-5.16 0-9.35-4.2-9.35-9.35 0-5.16 4.2-9.35 9.35-9.35 5.17 0 9.35 4.2 9.35 9.35z" stroke="#000" stroke-width="2" fill="#fff"/><path d="M170.23 328.18h158.95L249.7 230z" stroke="#000" stroke-width="2" fill="#fff"/><path d="M468.46 376.5H583" stroke="#3aa6dd" stroke-width="4" fill="none"/><path d="M583 376.5l-14.27 4.64v-9.28z" stroke="#3aa6dd" stroke-width="4" fill="#3aa6dd"/><path d="M486.65 307.5h75.12v62h-75.12z" stroke="#000" stroke-opacity="0" stroke-width="2" fill="#fff" fill-opacity="0"/><use xlink:href="#f" transform="matrix(1,0,0,1,491.64824915614935,312.5) translate(3.5155555555555544 32.586666666666666)"/><use xlink:href="#g" transform="matrix(1,0,0,1,491.64824915614935,312.5) translate(17.826666666666668 32.586666666666666)"/><path d="M930.47 236.7c0 8.7-7.03 15.72-15.7 15.72-8.7 0-15.72-7.03-15.72-15.7 0-8.7 7.03-15.72 15.7-15.72 8.7 0 15.72 7.03 15.72 15.7z" stroke="#000" stroke-width="2" fill="#fff"/><path d="M749 289.34l151.07-45.4" stroke="#000" stroke-width="2" fill="none"/><path d="M749 289.34l-3 .4-.15-.5 2.87-.86zM901.15 244.55l.06.1-.85.25-.57-1.92.64-.2z"/><path d="M764.72 305.05c0 8.67-7.03 15.7-15.7 15.7-8.7 0-15.72-7.03-15.72-15.7 0-8.68 7.03-15.7 15.7-15.7 8.7 0 15.72 7.02 15.72 15.7z" stroke="#000" stroke-width="2" fill="#fff"/><path d="M667.66 354.2l71.05-36.64" stroke="#000" stroke-width="2" fill="none"/><path d="M668.1 355.03l-.38-.05-2.84.37-.34-.67 2.66-1.37zM740.2 317.92l-1.03.53-.92-1.78.2-.1z"/><path d="M828.47 354.63l-68.27-37.86" stroke="#000" stroke-width="2" fill="none"/><path d="M831.58 355.2l-.17.3-1.45-.18-1.86.24-.12-.06.97-1.74zM760.7 315.9l-.98 1.74-.9-.5 1.3-.98.3-.4z"/><path d="M683.43 370.7c0 8.67-7.03 15.7-15.7 15.7-8.7 0-15.72-7.03-15.72-15.7 0-8.68 7.04-15.72 15.72-15.72s15.7 7.04 15.7 15.7z" stroke="#000" stroke-width="2" fill="#fff"/><path d="M709.96 396.88l-32.17-13.52" stroke="#000" stroke-width="2" fill="none"/><path d="M713.12 397.1l-.07.18-3.1-.4.4-.93zM678.17 382.44l-.77 1.85-1.17-.5 1.83-1.4z"/><path d="M625.83 396.88l30.42-14.77" stroke="#000" stroke-width="2" fill="none"/><path d="M625.83 396.88l-3.14.4 2.7-1.3zM656.6 381.8l1 .76-.92.45-.87-1.8.27-.1z"/><path d="M725.67 412.6c0 8.66-7.03 15.7-15.7 15.7-8.68 0-15.72-7.04-15.72-15.7 0-8.7 7.04-15.72 15.7-15.72 8.7 0 15.72 7.03 15.72 15.7zM704.73 464.95c0 8.68-7.04 15.7-15.7 15.7-8.7 0-15.72-7.02-15.72-15.7 0-8.67 7.04-15.7 15.72-15.7 8.67 0 15.7 7.03 15.7 15.7z" stroke="#000" stroke-width="2" fill="#fff"/><path d="M686.62 448.95l13.04-23.85" stroke="#000" stroke-width="2" fill="none"/><path d="M687.5 449.43l-2.46.33.7-1.3zM700.77 425.16l-.23.42-1.76-.96.38-.7z"/><path d="M730.9 449.24l-9.74-24.93" stroke="#000" stroke-width="2" fill="none"/><path d="M732.04 449.4l-1.13-.16.94-.36zM722.1 423.94l-1.88.73-.1-.25.95-.73.6-.8z"/><path d="M746.62 464.95c0 8.68-7.03 15.7-15.7 15.7-8.7 0-15.72-7.02-15.72-15.7 0-8.67 7.03-15.7 15.7-15.7 8.7 0 15.72 7.03 15.72 15.7zM641.54 412.6c0 8.66-7.04 15.7-15.7 15.7-8.7 0-15.72-7.04-15.72-15.7 0-8.7 7.03-15.72 15.7-15.72 8.68 0 15.72 7.03 15.72 15.7zM620.6 464.95c0 8.68-7.04 15.7-15.72 15.7-8.67 0-15.7-7.02-15.7-15.7 0-8.67 7.03-15.7 15.7-15.7 8.68 0 15.7 7.03 15.7 15.7z" stroke="#000" stroke-width="2" fill="#fff"/><path d="M602.5 448.95l13.02-23.85" stroke="#000" stroke-width="2" fill="none"/><path d="M603.36 449.43l-2.46.33.7-1.3zM616.63 425.16l-.23.42-1.75-.96.37-.7z"/><path d="M646.77 449.24l-9.75-24.93" stroke="#000" stroke-width="2" fill="none"/><path d="M647.9 449.4l-1.13-.16.94-.36zM637.95 423.94l-1.86.73-.1-.25.94-.73.6-.8z"/><path d="M662.48 464.95c0 8.68-7.03 15.7-15.7 15.7-8.68 0-15.72-7.02-15.72-15.7 0-8.67 7.04-15.7 15.7-15.7 8.7 0 15.72 7.03 15.72 15.7zM845.66 371.03c0 8.68-7.03 15.7-15.7 15.7-8.7 0-15.72-7.02-15.72-15.7s7.03-15.7 15.7-15.7c8.7 0 15.72 7.02 15.72 15.7z" stroke="#000" stroke-width="2" fill="#fff"/><path d="M872.2 397.2L840 383.7" stroke="#000" stroke-width="2" fill="none"/><path d="M875.35 397.45l-.07.17-3.1-.4.4-.93zM840.4 382.78l-.77 1.84-1.17-.5 1.83-1.4z"/><path d="M788.06 397.2l30.4-14.75" stroke="#000" stroke-width="2" fill="none"/><path d="M788.06 397.2l-3.14.42 2.7-1.3zM818.84 382.14l1 .76-.93.45-.86-1.8.25-.12z"/><path d="M887.9 412.92c0 8.68-7.03 15.7-15.7 15.7-8.68 0-15.72-7.02-15.72-15.7 0-8.67 7.04-15.7 15.7-15.7 8.7 0 15.72 7.03 15.72 15.7zM866.96 465.3c0 8.67-7.04 15.7-15.7 15.7-8.7 0-15.72-7.03-15.72-15.7 0-8.7 7.03-15.72 15.7-15.72 8.68 0 15.72 7.03 15.72 15.7z" stroke="#000" stroke-width="2" fill="#fff"/><path d="M848.85 449.3l13.04-23.86" stroke="#000" stroke-width="2" fill="none"/><path d="M849.73 449.77l-2.46.33.7-1.3zM863 425.5l-.23.42-1.76-.96.4-.7z"/><path d="M893.14 449.58l-9.76-24.93" stroke="#000" stroke-width="2" fill="none"/><path d="M894.27 449.73l-1.13-.15.93-.36zM884.32 424.28l-1.87.73-.1-.24.95-.73.6-.8z"/><path d="M908.85 465.3c0 8.67-7.03 15.7-15.7 15.7-8.7 0-15.72-7.03-15.72-15.7 0-8.7 7.03-15.72 15.7-15.72 8.7 0 15.72 7.03 15.72 15.7zM803.77 412.92c0 8.68-7.04 15.7-15.7 15.7-8.7 0-15.72-7.02-15.72-15.7 0-8.67 7.03-15.7 15.7-15.7 8.68 0 15.72 7.03 15.72 15.7zM782.82 465.3c0 8.67-7.03 15.7-15.7 15.7-8.7 0-15.72-7.03-15.72-15.7 0-8.7 7.03-15.72 15.7-15.72 8.7 0 15.72 7.03 15.72 15.7z" stroke="#000" stroke-width="2" fill="#fff"/><path d="M764.7 449.3l13.05-23.86" stroke="#000" stroke-width="2" fill="none"/><path d="M765.6 449.77h-.02l-2.45.33.7-1.3zM778.86 425.5l-.23.42-1.75-.96.37-.7z"/><path d="M809 449.58l-9.75-24.93" stroke="#000" stroke-width="2" fill="none"/><path d="M810.14 449.73l-1.14-.15.93-.36zM800.18 424.28l-1.86.73-.1-.24.95-.73.6-.8z"/><path d="M824.7 465.3c0 8.67-7.02 15.7-15.7 15.7-8.67 0-15.7-7.03-15.7-15.7 0-8.7 7.03-15.72 15.7-15.72 8.68 0 15.7 7.03 15.7 15.7zM1094.87 305.05c0 8.67-7.03 15.7-15.7 15.7-8.7 0-15.72-7.03-15.72-15.7 0-8.68 7.03-15.7 15.7-15.7 8.7 0 15.72 7.02 15.72 15.7z" stroke="#000" stroke-width="2" fill="#fff"/><path d="M997.8 354.2l71.06-36.64" stroke="#000" stroke-width="2" fill="none"/><path d="M998.24 355.03l-.37-.05-2.84.37-.34-.67 2.65-1.37zM1070.35 317.92l-1.03.53-.92-1.78.2-.1z"/><path d="M1158.62 354.63l-68.27-37.86" stroke="#000" stroke-width="2" fill="none"/><path d="M1161.73 355.2l-.17.3-1.46-.18-1.86.24-.1-.06.96-1.74zM1090.84 315.9l-.97 1.74-.9-.5 1.3-.98.3-.4z"/><path d="M1013.58 370.7c0 8.67-7.03 15.7-15.7 15.7-8.68 0-15.72-7.03-15.72-15.7 0-8.68 7.04-15.72 15.7-15.72 8.7 0 15.72 7.04 15.72 15.7z" stroke="#000" stroke-width="2" fill="#fff"/><path d="M1040.1 396.88l-32.16-13.52" stroke="#000" stroke-width="2" fill="none"/><path d="M1043.27 397.1l-.07.18-3.1-.4.4-.93zM1008.32 382.44l-.77 1.85-1.17-.5 1.83-1.4z"/><path d="M955.98 396.88l30.42-14.77" stroke="#000" stroke-width="2" fill="none"/><path d="M955.98 396.88l-3.14.4 2.7-1.3zM986.76 381.8l1 .76-.93.45-.87-1.8.26-.1z"/><path d="M1055.82 412.6c0 8.66-7.03 15.7-15.7 15.7-8.68 0-15.72-7.04-15.72-15.7 0-8.7 7.04-15.72 15.7-15.72 8.7 0 15.72 7.03 15.72 15.7zM1034.88 464.95c0 8.68-7.04 15.7-15.7 15.7-8.7 0-15.72-7.02-15.72-15.7 0-8.67 7.03-15.7 15.7-15.7 8.68 0 15.72 7.03 15.72 15.7z" stroke="#000" stroke-width="2" fill="#fff"/><path d="M1016.77 448.95l13.04-23.85" stroke="#000" stroke-width="2" fill="none"/><path d="M1017.65 449.43l-2.46.33.7-1.3zM1030.92 425.16l-.23.42-1.77-.96.38-.7z"/><path d="M1061.06 449.24l-9.75-24.93" stroke="#000" stroke-width="2" fill="none"/><path d="M1062.2 449.4l-1.14-.16.93-.36zM1052.24 423.94l-1.86.73-.1-.25.94-.73.6-.8z"/><path d="M1076.77 464.95c0 8.68-7.03 15.7-15.7 15.7-8.7 0-15.72-7.02-15.72-15.7 0-8.67 7.03-15.7 15.7-15.7 8.7 0 15.72 7.03 15.72 15.7zM971.7 412.6c0 8.66-7.04 15.7-15.72 15.7s-15.7-7.04-15.7-15.7c0-8.7 7.02-15.72 15.7-15.72s15.7 7.03 15.7 15.7zM950.74 464.95c0 8.68-7.03 15.7-15.7 15.7-8.68 0-15.72-7.02-15.72-15.7 0-8.67 7.04-15.7 15.7-15.7 8.7 0 15.72 7.03 15.72 15.7z" stroke="#000" stroke-width="2" fill="#fff"/><path d="M932.64 448.95l13.04-23.85" stroke="#000" stroke-width="2" fill="none"/><path d="M933.5 449.43l-2.45.33.7-1.3zM946.78 425.16l-.23.42-1.75-.96.38-.7z"/><path d="M976.93 449.24l-9.76-24.93" stroke="#000" stroke-width="2" fill="none"/><path d="M978.06 449.4l-1.13-.16.93-.36zM968.1 423.94l-1.86.73-.1-.25.95-.73.6-.8z"/><path d="M992.64 464.95c0 8.68-7.04 15.7-15.7 15.7-8.7 0-15.72-7.02-15.72-15.7 0-8.67 7.03-15.7 15.7-15.7 8.68 0 15.72 7.03 15.72 15.7zM1175.8 371.03c0 8.68-7.02 15.7-15.7 15.7s-15.7-7.02-15.7-15.7 7.02-15.7 15.7-15.7 15.7 7.02 15.7 15.7z" stroke="#000" stroke-width="2" fill="#fff"/><path d="M1202.34 397.2l-32.17-13.5" stroke="#000" stroke-width="2" fill="none"/><path d="M1205.5 397.45l-.07.17-3.1-.4.4-.93zM1170.55 382.78l-.77 1.84-1.17-.5 1.84-1.4z"/><path d="M1118.2 397.2l30.43-14.75" stroke="#000" stroke-width="2" fill="none"/><path d="M1118.2 397.2l-3.13.42 2.7-1.3zM1149 382.14l1 .76-.94.45-.87-1.8.25-.12z"/><path d="M1218.05 412.92c0 8.68-7.03 15.7-15.7 15.7-8.68 0-15.72-7.02-15.72-15.7 0-8.67 7.04-15.7 15.7-15.7 8.7 0 15.72 7.03 15.72 15.7zM1197.1 465.3c0 8.67-7.03 15.7-15.7 15.7-8.68 0-15.7-7.03-15.7-15.7 0-8.7 7.02-15.72 15.7-15.72 8.67 0 15.7 7.03 15.7 15.7z" stroke="#000" stroke-width="2" fill="#fff"/><path d="M1179 449.3l13.04-23.86" stroke="#000" stroke-width="2" fill="none"/><path d="M1179.88 449.77l-2.46.33.7-1.3zM1193.15 425.5l-.23.42-1.76-.96.38-.7z"/><path d="M1223.3 449.58l-9.76-24.93" stroke="#000" stroke-width="2" fill="none"/><path d="M1224.42 449.73l-1.13-.15.92-.36zM1214.47 424.28l-1.87.73-.1-.24.95-.73.6-.8z"/><path d="M1239 465.3c0 8.67-7.03 15.7-15.7 15.7-8.7 0-15.72-7.03-15.72-15.7 0-8.7 7.03-15.72 15.7-15.72 8.7 0 15.72 7.03 15.72 15.7zM1133.92 412.92c0 8.68-7.04 15.7-15.7 15.7-8.7 0-15.72-7.02-15.72-15.7 0-8.67 7.03-15.7 15.7-15.7 8.68 0 15.72 7.03 15.72 15.7zM1112.97 465.3c0 8.67-7.03 15.7-15.7 15.7-8.7 0-15.72-7.03-15.72-15.7 0-8.7 7.03-15.72 15.7-15.72 8.7 0 15.72 7.03 15.72 15.7z" stroke="#000" stroke-width="2" fill="#fff"/><path d="M1094.87 449.3l13.03-23.86" stroke="#000" stroke-width="2" fill="none"/><path d="M1095.74 449.77l-2.46.33.7-1.3zM1109 425.5l-.22.42-1.75-.96.37-.7z"/><path d="M1139.15 449.58l-9.75-24.93" stroke="#000" stroke-width="2" fill="none"/><path d="M1140.3 449.73l-1.15-.15.94-.36zM1130.33 424.28l-1.86.73-.1-.24.95-.73.6-.8z"/><path d="M1154.86 465.3c0 8.67-7.03 15.7-15.7 15.7-8.68 0-15.72-7.03-15.72-15.7 0-8.7 7.04-15.72 15.7-15.72 8.7 0 15.72 7.03 15.72 15.7z" stroke="#000" stroke-width="2" fill="#fff"/><path d="M929.15 242.7l135.62 56.37" stroke="#000" stroke-width="2" fill="none"/><path d="M929.53 241.77l-.38.92.38-.93zM1064.4 300l.37-.93z"/><defs><path d="M521-578c23-14 20-71-6-75-112-16-227 16-324 21-56 3-100 19-78 81-13 171-32 323-49 487-6 57-8 81 45 77 45-3 52-35 57-77l22-213c90-14 180-31 271-41 34-4 49-60 25-79-25-20-86-9-120-4l-171 26 14-170 261-18c26-3 43-9 53-15" id="h"/><path d="M163-57c18-185 16-376 41-559 8-62-68-66-86-22-6 15-9 35-11 55L68-52c-2 37 13 69 47 67 41-2 44-34 48-72" id="i"/><path d="M414 18c44 0 51-25 54-67l20-294c15-129-122-120-228-97-56 12-101 41-148 64-16 8-27 55-6 61 51 14 87-22 132-33 39-9 72-27 121-28 19 0 38 3 37 23l-4 55C217-288 63-254 27-107 26-36 64 31 131 31c99 0 173-43 244-71-7 36-4 58 39 58zm-23-168c-50 42-119 78-192 101-76 24-118-61-60-101 61-42 156-67 248-79" id="j"/><path d="M294-7c-52 29-182 61-175-39l22-313c-29 11-104 9-94-22-2-51 54-54 100-61 1-69 2-169 83-132 25 20 10 79 10 117 49-6 105-16 153-21 33-3 36 52 17 67-34 27-121 29-176 39L215-96c-3 27 40 15 48 4 21-29 77-60 113-24 8 8 12 20 11 35-23 31-56 53-93 74" id="k"/><g id="a"><use transform="matrix(0.017777777777777778,0,0,0.017777777777777778,0,0)" xlink:href="#h"/><use transform="matrix(0.017777777777777778,0,0,0.017777777777777778,8.622222222222222,0)" xlink:href="#i"/><use transform="matrix(0.017777777777777778,0,0,0.017777777777777778,12.568888888888889,0)" xlink:href="#j"/><use transform="matrix(0.017777777777777778,0,0,0.017777777777777778,21.955555555555556,0)" xlink:href="#k"/></g><path d="M216-52c-5 36-4 69 38 67 48-3 51-21 55-66l44-503c67-15 148-20 201-48 21-11 22-54 2-66-33-20-92 2-124 8-114 21-232 39-344 74-26 8-41 55-12 68 50 23 129-13 181-19" id="l"/><path d="M124 12C75 22 65-15 68-58l23-329c-6-47 11-61 61-61 32 0 27 14 38 41 60-28 141-67 220-43 14 18 32 52 5 72-44 33-165 17-207 62-5 4-12 9-20 13L160-58c-7 43-5 63-36 70" id="m"/><path d="M219-412c99-54 263-26 248 106-6 57-62 81-112 104-62 28-146 48-218 66-5 48 10 94 65 90 94-7 136-72 207-98 34-13 67 0 57 43C435-41 354-7 282 18c-34 11-68 16-102 16C83 33 33-24 43-131c12-131 81-229 176-281zm101 138c24-14 78-40 42-74-39-37-110 1-139 24-31 25-59 61-72 105 67 5 123-28 169-55" id="n"/><g id="b"><use transform="matrix(0.017777777777777778,0,0,0.017777777777777778,0,0)" xlink:href="#l"/><use transform="matrix(0.017777777777777778,0,0,0.017777777777777778,7.235555555555556,0)" xlink:href="#m"/><use transform="matrix(0.017777777777777778,0,0,0.017777777777777778,13.955555555555556,0)" xlink:href="#n"/><use transform="matrix(0.017777777777777778,0,0,0.017777777777777778,22.293333333333333,0)" xlink:href="#n"/></g><g id="c"><use transform="matrix(0.017777777777777778,0,0,0.017777777777777778,0,0)" xlink:href="#l"/><use transform="matrix(0.017777777777777778,0,0,0.017777777777777778,7.235555555555556,0)" xlink:href="#m"/><use transform="matrix(0.017777777777777778,0,0,0.017777777777777778,13.955555555555556,0)" xlink:href="#n"/><use transform="matrix(0.017777777777777778,0,0,0.017777777777777778,22.293333333333333,0)" xlink:href="#n"/></g><path d="M387-452c45 0 79 27 79 73 0 109-16 218-23 327 13 58-52 84-87 52-7-7-8-24-7-49l20-277c5-41-49-23-78-16-38 9-78 28-106 53L160-48c13 58-94 91-94 20 0-134 25-233 25-362 0-45 36-68 83-64 18 6 9 33 16 56 60-17 127-54 197-54" id="o"/><path d="M123-498c77 32 120-75 87-136-18-21-76-16-94 7-23 17-37 86-10 113 5 6 10 13 17 16zm35 466c14-117 12-250 30-368 9-59-74-59-92-24-11 21-9 48-11 80-6 111-17 224-17 334 0 32 72 34 82 4 3-8 6-16 8-26" id="p"/><path d="M167 226c170 27 284-54 294-209 9-139 27-274 27-415 0-39-36-43-82-43-149 0-266 45-328 133-46 65-29 205-6 274 22 37 44 67 102 60 89-11 160-62 208-124-9 122-8 235-132 242-59 3-90-38-147-40-41-1-49 55-27 80 20 23 54 36 91 42zm-17-476c29-67 104-91 188-104 22-4 39-3 54 0 5 37 14 87-11 114-37 62-97 121-156 162-98 68-103-107-75-172" id="q"/><g id="d"><use transform="matrix(0.017777777777777778,0,0,0.017777777777777778,0,0)" xlink:href="#h"/><use transform="matrix(0.017777777777777778,0,0,0.017777777777777778,8.622222222222222,0)" xlink:href="#i"/><use transform="matrix(0.017777777777777778,0,0,0.017777777777777778,12.568888888888889,0)" xlink:href="#j"/><use transform="matrix(0.017777777777777778,0,0,0.017777777777777778,21.955555555555556,0)" xlink:href="#k"/><use transform="matrix(0.017777777777777778,0,0,0.017777777777777778,29.706666666666667,0)" xlink:href="#k"/><use transform="matrix(0.017777777777777778,0,0,0.017777777777777778,37.45777777777778,0)" xlink:href="#n"/><use transform="matrix(0.017777777777777778,0,0,0.017777777777777778,45.79555555555555,0)" xlink:href="#o"/><use transform="matrix(0.017777777777777778,0,0,0.017777777777777778,54.72,0)" xlink:href="#p"/><use transform="matrix(0.017777777777777778,0,0,0.017777777777777778,58.666666666666664,0)" xlink:href="#o"/><use transform="matrix(0.017777777777777778,0,0,0.017777777777777778,67.5911111111111,0)" xlink:href="#q"/></g><path d="M480-433c87 3 153 44 143 142C607-123 486-34 346 11 211 55 46 26 46-120c0-40 65-72 88-32 25 42 40 94 112 88 119-10 209-60 257-143 23-39 41-132-32-128-105 6-179 59-280 59-78 0-132-37-122-121 15-131 114-208 221-254 92-40 227-25 274 37 24 31 8 80-30 82-66 3-63-54-134-52-103 3-170 55-212 118-24 36-30 92 21 92 91 0 162-63 271-59" id="r"/><path d="M254-72c-30 8-82 15-89-17l23-289c33-89-91-94-97-3L70-84C51 77 266 15 354-26c-4 32 14 41 41 42 42 1 72-22 56-65l24-338c12-51 9-78-33-75-43 3-60 30-63 75l-18 260c-30 21-67 44-107 55" id="s"/><path d="M393-459c146-8 146 177 91 275C422-74 333 27 158 16l-15 208c-2 44-18 57-57 65-41 8-39-29-37-69C64 13 75-196 92-403c3-38 51-65 89-41 11 7 15 20 14 40 57-37 116-50 198-55zm-49 317c41-44 97-127 68-203-60-38-166 6-210 35-11 7-16 15-17 21L171-90c-1 20 13 24 33 24 58 0 107-40 140-76" id="t"/><g id="e"><use transform="matrix(0.017777777777777778,0,0,0.017777777777777778,0,0)" xlink:href="#r"/><use transform="matrix(0.017777777777777778,0,0,0.017777777777777778,11.217777777777778,0)" xlink:href="#s"/><use transform="matrix(0.017777777777777778,0,0,0.017777777777777778,20.284444444444443,0)" xlink:href="#t"/><use transform="matrix(0.017777777777777778,0,0,0.017777777777777778,29.68888888888889,0)" xlink:href="#n"/><use transform="matrix(0.017777777777777778,0,0,0.017777777777777778,38.02666666666668,0)" xlink:href="#m"/></g><path d="M43-187c-40-55 39-78 96-78h101c5-49 11-101 15-145 4-40 51-67 81-38 16 15 14 58 6 82l-9 101c56 0 112 2 166-1 51-3 56 56 23 78-47 32-126 9-197 16-6 54-11 110-15 166-2 35-55 60-83 32-15-15-6-66-4-92l9-106c-54-3-108-1-151-1-17 0-31-4-38-14" id="u"/><use transform="matrix(0.017777777777777778,0,0,0.017777777777777778,0,0)" xlink:href="#u" id="f"/><path d="M716-30c18-187 35-372 49-559 3-42-13-63-50-66-37 12-59 52-79 83-85 135-163 244-238 379-15 5-13-12-21-30-52-127-105-257-155-379-14-34-48-75-82-42-8 9-13 22-15 41L69-54c0 45 11 66 45 69 35 3 47-37 50-72l31-358c46 105 93 220 139 323 16 35 87 36 107-3 59-118 143-227 218-335L623-50c-28 73 86 89 93 20" id="v"/><path d="M187 30C86 30 37-38 44-140c9-132 83-229 176-282 85-48 240-30 261 49 11 42-48 56-82 35-28-29-107-33-145-6-64 46-121 125-114 234 5 80 124 50 168 20 34-24 59-51 76-86 11-23 89-29 88 6C437-52 341 30 187 30" id="w"/><g id="g"><use transform="matrix(0.017777777777777778,0,0,0.017777777777777778,0,0)" xlink:href="#v"/><use transform="matrix(0.017777777777777778,0,0,0.017777777777777778,13.795555555555556,0)" xlink:href="#j"/><use transform="matrix(0.017777777777777778,0,0,0.017777777777777778,23.182222222222222,0)" xlink:href="#q"/><use transform="matrix(0.017777777777777778,0,0,0.017777777777777778,32.51555555555556,0)" xlink:href="#p"/><use transform="matrix(0.017777777777777778,0,0,0.017777777777777778,36.46222222222222,0)" xlink:href="#w"/></g></defs></g></svg>