<?xml version="1.0" encoding="UTF-8" standalone="no"?>
<!-- Created with Inkscape (http://www.inkscape.org/) -->

<svg
   xmlns:dc="http://purl.org/dc/elements/1.1/"
   xmlns:cc="http://creativecommons.org/ns#"
   xmlns:rdf="http://www.w3.org/1999/02/22-rdf-syntax-ns#"
   xmlns:svg="http://www.w3.org/2000/svg"
   xmlns="http://www.w3.org/2000/svg"
   xmlns:sodipodi="http://sodipodi.sourceforge.net/DTD/sodipodi-0.dtd"
   xmlns:inkscape="http://www.inkscape.org/namespaces/inkscape"
   version="1.1"
   id="svg2"
   xml:space="preserve"
   width="831.50665"
   height="831.50665"
   viewBox="0 0 831.50665 831.50665"
   sodipodi:docname="publicdomainq-0013785ezodnl.svg"
   inkscape:version="0.92.2pre0 (973e216, 2017-07-25)"><metadata
     id="metadata8"><rdf:RDF><cc:Work
         rdf:about=""><dc:format>image/svg+xml</dc:format><dc:type
           rdf:resource="http://purl.org/dc/dcmitype/StillImage" /><dc:title></dc:title></cc:Work></rdf:RDF></metadata><defs
     id="defs6" /><sodipodi:namedview
     pagecolor="#ffffff"
     bordercolor="#666666"
     borderopacity="1"
     objecttolerance="10"
     gridtolerance="10"
     guidetolerance="10"
     inkscape:pageopacity="0"
     inkscape:pageshadow="2"
     inkscape:window-width="640"
     inkscape:window-height="480"
     id="namedview4"
     showgrid="false"
     inkscape:zoom="0.28382214"
     inkscape:cx="415.75333"
     inkscape:cy="415.75333"
     inkscape:window-x="0"
     inkscape:window-y="0"
     inkscape:window-maximized="0"
     inkscape:current-layer="g10" /><g
     id="g10"
     inkscape:groupmode="layer"
     inkscape:label="ink_ext_XXXXXX"
     transform="matrix(1.3333333,0,0,-1.3333333,0,831.50667)"><g
       id="g12"
       transform="scale(0.1)"><path
         d="M 4200.89,413.75 3859.01,644.84 V 983.434 L 4200.89,752.102 V 413.75"
         style="fill:#a77d4f;fill-opacity:1;fill-rule:nonzero;stroke:none"
         id="path14"
         inkscape:connector-curvature="0" /><path
         d="m 5500.73,1247.73 -1299.84,-495.628 -341.88,231.332 1306.72,495.626 335,-231.33"
         style="fill:#efcd9e;fill-opacity:1;fill-rule:nonzero;stroke:none"
         id="path16"
         inkscape:connector-curvature="0" /><path
         d="M 5501.28,911.871 4200.89,413.75 V 752.102 L 5501.28,1247.34 V 911.871"
         style="fill:#d7ad62;fill-opacity:1;fill-rule:nonzero;stroke:none"
         id="path18"
         inkscape:connector-curvature="0" /><path
         d="m 1401.98,1567.26 -341.79,231.09 v 338.6 l 341.79,-231.33 v -338.36"
         style="fill:#a77d4f;fill-opacity:1;fill-rule:nonzero;stroke:none"
         id="path20"
         inkscape:connector-curvature="0" /><path
         d="m 2701.83,2401.25 -1299.85,-495.63 -341.79,231.33 1306.64,495.62 335,-231.32"
         style="fill:#efcd9e;fill-opacity:1;fill-rule:nonzero;stroke:none"
         id="path22"
         inkscape:connector-curvature="0" /><path
         d="M 2702.45,2065.39 1401.98,1567.26 v 338.36 l 1300.47,495.23 v -335.46"
         style="fill:#d7ad62;fill-opacity:1;fill-rule:nonzero;stroke:none"
         id="path24"
         inkscape:connector-curvature="0" /><path
         d="m 1817.37,541.012 386.17,155.699 7.19,365.939 -384.22,-151.56 -9.14,-370.078"
         style="fill:#c67e2c;fill-opacity:1;fill-rule:nonzero;stroke:none"
         id="path26"
         inkscape:connector-curvature="0" /><path
         d="M 765.184,1552.26 1826.51,911.09 2210.73,1062.65 1144.72,1709.45 765.184,1552.26"
         style="fill:#efcd9e;fill-opacity:1;fill-rule:nonzero;stroke:none"
         id="path28"
         inkscape:connector-curvature="0" /><path
         d="m 769.715,1215.07 1047.655,-674.058 9.14,370.078 -1062.03,640.94 5.235,-336.96"
         style="fill:#a77d4f;fill-opacity:1;fill-rule:nonzero;stroke:none"
         id="path30"
         inkscape:connector-curvature="0" /><path
         d="m 5112.76,796.793 386.18,155.707 7.1,366.09 -384.14,-151.64 -9.14,-370.157"
         style="fill:#c67e2c;fill-opacity:1;fill-rule:nonzero;stroke:none"
         id="path32"
         inkscape:connector-curvature="0" /><path
         d="m 4060.5,1808.12 1061.4,-641.17 384.14,151.64 -1065.93,646.64 -379.61,-157.11"
         style="fill:#efcd9e;fill-opacity:1;fill-rule:nonzero;stroke:none"
         id="path34"
         inkscape:connector-curvature="0" /><path
         d="m 4065.03,1470.93 1047.73,-674.137 9.14,370.157 -1061.95,640.86 5.08,-336.88"
         style="fill:#a77d4f;fill-opacity:1;fill-rule:nonzero;stroke:none"
         id="path36"
         inkscape:connector-curvature="0" /><path
         d="m 2290.03,1036.01 -341.95,231.17 v 338.6 l 341.95,-231.41 v -338.36"
         style="fill:#a77d4f;fill-opacity:1;fill-rule:nonzero;stroke:none"
         id="path38"
         inkscape:connector-curvature="0" /><path
         d="m 3850.89,1975.23 -1560.86,-600.86 -341.95,231.41 1567.73,600.78 335.08,-231.33"
         style="fill:#efcd9e;fill-opacity:1;fill-rule:nonzero;stroke:none"
         id="path40"
         inkscape:connector-curvature="0" /><path
         d="M 3851.44,1639.37 2290.03,1036.01 v 338.36 l 1561.41,600.47 v -335.47"
         style="fill:#d7ad62;fill-opacity:1;fill-rule:nonzero;stroke:none"
         id="path42"
         inkscape:connector-curvature="0" /><path
         d="m 2968.39,571.563 -341.8,231.167 v 338.59 L 2968.39,910 V 571.563"
         style="fill:#a77d4f;fill-opacity:1;fill-rule:nonzero;stroke:none"
         id="path44"
         inkscape:connector-curvature="0" /><path
         d="M 4268.31,1405.62 2968.39,910 l -341.8,231.32 1306.64,495.63 335.08,-231.33"
         style="fill:#efcd9e;fill-opacity:1;fill-rule:nonzero;stroke:none"
         id="path46"
         inkscape:connector-curvature="0" /><path
         d="M 4268.86,1069.76 2968.39,571.563 V 910 l 1300.47,495.23 v -335.47"
         style="fill:#d7ad62;fill-opacity:1;fill-rule:nonzero;stroke:none"
         id="path48"
         inkscape:connector-curvature="0" /><path
         d="m 3833.62,1258.43 384.61,149.61 12.58,366.02 -382.42,-145.78 -14.77,-369.85"
         style="fill:#efcd9e;fill-opacity:1;fill-rule:nonzero;stroke:none"
         id="path50"
         inkscape:connector-curvature="0" /><path
         d="m 2807.92,2285.78 1040.47,-657.5 382.42,145.78 -1044.92,662.97 -377.97,-151.25"
         style="fill:#efcd9e;fill-opacity:1;fill-rule:nonzero;stroke:none"
         id="path52"
         inkscape:connector-curvature="0" /><path
         d="m 2807.22,1948.59 1026.4,-690.16 14.77,369.85 -1041.17,657.18 v -336.87"
         style="fill:#d7ad62;fill-opacity:1;fill-rule:nonzero;stroke:none"
         id="path54"
         inkscape:connector-curvature="0" /><path
         d="m 3401.04,1099.06 384.61,149.61 12.66,366.01 -382.5,-145.78 -14.77,-369.84"
         style="fill:#c69d71;fill-opacity:1;fill-rule:nonzero;stroke:none"
         id="path56"
         inkscape:connector-curvature="0" /><path
         d="m 2375.34,2126.4 1040.47,-657.5 382.5,145.78 -1045.08,662.97 -377.89,-151.25"
         style="fill:#efcd9e;fill-opacity:1;fill-rule:nonzero;stroke:none"
         id="path58"
         inkscape:connector-curvature="0" /><path
         d="m 2374.64,1789.21 1026.4,-690.15 14.77,369.84 -1041.17,657.27 v -336.96"
         style="fill:#d7ad62;fill-opacity:1;fill-rule:nonzero;stroke:none"
         id="path60"
         inkscape:connector-curvature="0" /><path
         d="m 2982.14,926.012 384.61,149.688 12.65,365.86 -382.5,-145.63 -14.76,-369.918"
         style="fill:#efcd9e;fill-opacity:1;fill-rule:nonzero;stroke:none"
         id="path62"
         inkscape:connector-curvature="0" /><path
         d="m 1956.36,1953.43 1040.54,-657.5 382.5,145.63 -1045.07,663.12 -377.97,-151.25"
         style="fill:#efcd9e;fill-opacity:1;fill-rule:nonzero;stroke:none"
         id="path64"
         inkscape:connector-curvature="0" /><path
         d="M 1955.65,1616.17 2982.14,926.012 2996.9,1295.93 1955.65,1953.12 V 1616.17"
         style="fill:#ac6c4b;fill-opacity:1;fill-rule:nonzero;stroke:none"
         id="path66"
         inkscape:connector-curvature="0" /><path
         d="m 2286.51,1771.56 -348.9,225.78 -5.24,338.51 348.99,-226.01 5.15,-338.28"
         style="fill:#a77d4f;fill-opacity:1;fill-rule:nonzero;stroke:none"
         id="path68"
         inkscape:connector-curvature="0" /><path
         d="m 3586.83,2625.7 -1305.47,-515.86 -348.99,226.01 1312.42,515.94 342.04,-226.09"
         style="fill:#efcd9e;fill-opacity:1;fill-rule:nonzero;stroke:none"
         id="path70"
         inkscape:connector-curvature="0" /><path
         d="m 3592.61,2289.92 -1306.1,-518.36 -5.15,338.28 1306.01,515.47 5.24,-335.39"
         style="fill:#d7ad62;fill-opacity:1;fill-rule:nonzero;stroke:none"
         id="path72"
         inkscape:connector-curvature="0" /><path
         d="m 2644.4,1540.23 -348.9,225.78 -5.24,338.59 348.91,-226.01 5.23,-338.36"
         style="fill:#8c6741;fill-opacity:1;fill-rule:nonzero;stroke:none"
         id="path74"
         inkscape:connector-curvature="0" /><path
         d="m 3944.72,2394.45 -1305.55,-515.86 -348.91,226.01 1312.43,515.86 342.03,-226.01"
         style="fill:#efcd9e;fill-opacity:1;fill-rule:nonzero;stroke:none"
         id="path76"
         inkscape:connector-curvature="0" /><path
         d="m 3950.42,2058.67 -1306.02,-518.44 -5.23,338.36 1306.09,515.47 5.16,-335.39"
         style="fill:#472419;fill-opacity:1;fill-rule:nonzero;stroke:none"
         id="path78"
         inkscape:connector-curvature="0" /><path
         d="m 2993.15,1304.21 -348.98,225.86 -5.16,338.6 348.91,-226.1 5.23,-338.36"
         style="fill:#a77d4f;fill-opacity:1;fill-rule:nonzero;stroke:none"
         id="path80"
         inkscape:connector-curvature="0" /><path
         d="m 4293.47,2158.51 -1305.55,-515.94 -348.91,226.1 1312.43,515.86 342.03,-226.02"
         style="fill:#efcd9e;fill-opacity:1;fill-rule:nonzero;stroke:none"
         id="path82"
         inkscape:connector-curvature="0" /><path
         d="m 4299.25,1822.65 -1306.1,-518.44 -5.23,338.36 1306.09,515.47 5.24,-335.39"
         style="fill:#d7ad62;fill-opacity:1;fill-rule:nonzero;stroke:none"
         id="path84"
         inkscape:connector-curvature="0" /><path
         d="m 3847.61,1995.23 386.17,155.62 7.19,366.1 -384.22,-151.64 -9.14,-370.08"
         style="fill:#efcd9e;fill-opacity:1;fill-rule:nonzero;stroke:none"
         id="path86"
         inkscape:connector-curvature="0" /><path
         d="m 2795.42,3006.56 1061.33,-641.25 384.22,151.64 -1066.02,646.72 -379.53,-157.11"
         style="fill:#efcd9e;fill-opacity:1;fill-rule:nonzero;stroke:none"
         id="path88"
         inkscape:connector-curvature="0" /><path
         d="m 2799.95,2669.37 1047.66,-674.14 9.14,370.08 -1062.03,640.94 5.23,-336.88"
         style="fill:#d7ad62;fill-opacity:1;fill-rule:nonzero;stroke:none"
         id="path90"
         inkscape:connector-curvature="0" /><path
         d="m 2992.45,1649.68 386.25,155.55 7.11,366.09 -384.14,-151.64 -9.22,-370"
         style="fill:#c67e2c;fill-opacity:1;fill-rule:nonzero;stroke:none"
         id="path92"
         inkscape:connector-curvature="0" /><path
         d="m 1940.26,2660.85 1061.41,-641.17 384.14,151.64 -1066.02,646.72 -379.53,-157.19"
         style="fill:#efcd9e;fill-opacity:1;fill-rule:nonzero;stroke:none"
         id="path94"
         inkscape:connector-curvature="0" /><path
         d="m 1944.79,2323.67 1047.66,-673.99 9.22,370 -1062.03,640.94 5.15,-336.95"
         style="fill:#a77d4f;fill-opacity:1;fill-rule:nonzero;stroke:none"
         id="path96"
         inkscape:connector-curvature="0" /><path
         d="m 2326.98,2427.96 -348.9,225.79 -5.24,338.51 348.99,-226.01 5.15,-338.29"
         style="fill:#8c6741;fill-opacity:1;fill-rule:nonzero;stroke:none"
         id="path98"
         inkscape:connector-curvature="0" /><path
         d="m 3627.29,3282.1 -1305.46,-515.85 -348.99,226.01 1312.5,515.94 341.95,-226.1"
         style="fill:#efcd9e;fill-opacity:1;fill-rule:nonzero;stroke:none"
         id="path100"
         inkscape:connector-curvature="0" /><path
         d="m 3633.08,2946.25 -1306.1,-518.29 -5.15,338.29 1306.09,515.46 5.16,-335.46"
         style="fill:#d7ad62;fill-opacity:1;fill-rule:nonzero;stroke:none"
         id="path102"
         inkscape:connector-curvature="0" /><path
         d="m 2950.03,2009.45 -348.91,225.78 -5.23,338.59 348.98,-226.01 5.16,-338.36"
         style="fill:#8c6741;fill-opacity:1;fill-rule:nonzero;stroke:none"
         id="path104"
         inkscape:connector-curvature="0" /><path
         d="m 4250.34,2863.67 -1305.47,-515.86 -348.98,226.01 1312.42,515.94 342.03,-226.09"
         style="fill:#efcd9e;fill-opacity:1;fill-rule:nonzero;stroke:none"
         id="path106"
         inkscape:connector-curvature="0" /><path
         d="m 4256.2,2527.81 -1306.17,-518.36 -5.16,338.36 1306.02,515.47 5.31,-335.47"
         style="fill:#d7ad62;fill-opacity:1;fill-rule:nonzero;stroke:none"
         id="path108"
         inkscape:connector-curvature="0" /><path
         d="m 3401.04,2519.68 384.61,149.69 12.66,365.94 -382.5,-145.71 -14.77,-369.92"
         style="fill:#c69d71;fill-opacity:1;fill-rule:nonzero;stroke:none"
         id="path110"
         inkscape:connector-curvature="0" /><path
         d="m 2375.34,3547.1 1040.47,-657.5 382.5,145.71 -1045.08,663.04 -377.89,-151.25"
         style="fill:#efcd9e;fill-opacity:1;fill-rule:nonzero;stroke:none"
         id="path112"
         inkscape:connector-curvature="0" /><path
         d="m 2374.64,3209.84 1026.4,-690.16 14.77,369.92 -1041.17,657.19 v -336.95"
         style="fill:#d7ad62;fill-opacity:1;fill-rule:nonzero;stroke:none"
         id="path114"
         inkscape:connector-curvature="0" /><path
         d="m 2982.14,2346.71 384.61,149.61 12.65,365.94 -382.5,-145.7 -14.76,-369.85"
         style="fill:#a77d4f;fill-opacity:1;fill-rule:nonzero;stroke:none"
         id="path116"
         inkscape:connector-curvature="0" /><path
         d="m 1956.36,3374.06 1040.54,-657.5 382.5,145.7 -1045.07,663.05 -377.97,-151.25"
         style="fill:#efcd9e;fill-opacity:1;fill-rule:nonzero;stroke:none"
         id="path118"
         inkscape:connector-curvature="0" /><path
         d="m 1955.65,3036.79 1026.49,-690.08 14.76,369.85 -1041.25,657.19 v -336.96"
         style="fill:#ac6c4b;fill-opacity:1;fill-rule:nonzero;stroke:none"
         id="path120"
         inkscape:connector-curvature="0" /><path
         d="m 2286.51,3192.18 -348.9,225.86 -5.24,338.52 348.99,-226.02 5.15,-338.36"
         style="fill:#a77d4f;fill-opacity:1;fill-rule:nonzero;stroke:none"
         id="path122"
         inkscape:connector-curvature="0" /><path
         d="m 3586.83,4046.4 -1305.47,-515.86 -348.99,226.02 1312.42,515.94 342.04,-226.1"
         style="fill:#efcd9e;fill-opacity:1;fill-rule:nonzero;stroke:none"
         id="path124"
         inkscape:connector-curvature="0" /><path
         d="m 3592.61,3710.62 -1306.1,-518.44 -5.15,338.36 1306.01,515.47 5.24,-335.39"
         style="fill:#d7ad62;fill-opacity:1;fill-rule:nonzero;stroke:none"
         id="path126"
         inkscape:connector-curvature="0" /><path
         d="m 2644.4,2960.93 -348.9,225.78 -5.24,338.52 348.91,-225.94 5.23,-338.36"
         style="fill:#8c6741;fill-opacity:1;fill-rule:nonzero;stroke:none"
         id="path128"
         inkscape:connector-curvature="0" /><path
         d="m 3944.72,3815.15 -1305.55,-515.86 -348.91,225.94 1312.43,515.94 342.03,-226.02"
         style="fill:#efcd9e;fill-opacity:1;fill-rule:nonzero;stroke:none"
         id="path130"
         inkscape:connector-curvature="0" /><path
         d="m 3950.42,3479.29 -1306.02,-518.36 -5.23,338.36 1306.09,515.39 5.16,-335.39"
         style="fill:#472419;fill-opacity:1;fill-rule:nonzero;stroke:none"
         id="path132"
         inkscape:connector-curvature="0" /><path
         d="m 2993.15,2724.92 -348.98,225.78 -5.16,338.59 348.91,-226.01 5.23,-338.36"
         style="fill:#a77d4f;fill-opacity:1;fill-rule:nonzero;stroke:none"
         id="path134"
         inkscape:connector-curvature="0" /><path
         d="m 4293.47,3579.14 -1305.55,-515.86 -348.91,226.01 1312.43,515.94 342.03,-226.09"
         style="fill:#efcd9e;fill-opacity:1;fill-rule:nonzero;stroke:none"
         id="path136"
         inkscape:connector-curvature="0" /><path
         d="m 4299.25,3243.28 -1306.1,-518.36 -5.23,338.36 1306.09,515.47 5.24,-335.47"
         style="fill:#d7ad62;fill-opacity:1;fill-rule:nonzero;stroke:none"
         id="path138"
         inkscape:connector-curvature="0" /><path
         d="m 3401.04,3236.09 384.61,149.69 12.66,365.93 -382.5,-145.7 -14.77,-369.92"
         style="fill:#c69d71;fill-opacity:1;fill-rule:nonzero;stroke:none"
         id="path140"
         inkscape:connector-curvature="0" /><path
         d="m 2375.34,4263.51 1040.47,-657.5 382.5,145.7 -1045.08,663.05 -377.89,-151.25"
         style="fill:#efcd9e;fill-opacity:1;fill-rule:nonzero;stroke:none"
         id="path142"
         inkscape:connector-curvature="0" /><path
         d="m 2374.64,3926.25 1026.4,-690.16 14.77,369.92 -1041.17,657.19 v -336.95"
         style="fill:#d7ad62;fill-opacity:1;fill-rule:nonzero;stroke:none"
         id="path144"
         inkscape:connector-curvature="0" /><path
         d="m 2286.51,3908.59 -348.9,225.86 -5.24,338.51 348.99,-226.01 5.15,-338.36"
         style="fill:#a77d4f;fill-opacity:1;fill-rule:nonzero;stroke:none"
         id="path146"
         inkscape:connector-curvature="0" /><path
         d="m 3586.83,4762.81 -1305.47,-515.86 -348.99,226.01 1312.42,515.94 342.04,-226.09"
         style="fill:#efcd9e;fill-opacity:1;fill-rule:nonzero;stroke:none"
         id="path148"
         inkscape:connector-curvature="0" /><path
         d="m 3592.61,4427.03 -1306.1,-518.44 -5.15,338.36 1306.01,515.47 5.24,-335.39"
         style="fill:#d7ad62;fill-opacity:1;fill-rule:nonzero;stroke:none"
         id="path150"
         inkscape:connector-curvature="0" /><path
         d="m 2644.4,3677.34 -348.9,225.78 -5.24,338.52 348.91,-225.94 5.23,-338.36"
         style="fill:#8c6741;fill-opacity:1;fill-rule:nonzero;stroke:none"
         id="path152"
         inkscape:connector-curvature="0" /><path
         d="m 3944.72,4531.56 -1305.55,-515.86 -348.91,225.94 1312.43,516.01 342.03,-226.09"
         style="fill:#efcd9e;fill-opacity:1;fill-rule:nonzero;stroke:none"
         id="path154"
         inkscape:connector-curvature="0" /><path
         d="m 3950.42,4195.7 -1306.02,-518.36 -5.23,338.36 1306.09,515.47 5.16,-335.47"
         style="fill:#472419;fill-opacity:1;fill-rule:nonzero;stroke:none"
         id="path156"
         inkscape:connector-curvature="0" /><path
         d="m 2993.15,3441.32 -348.98,225.78 -5.16,338.6 348.91,-226.02 5.23,-338.36"
         style="fill:#a77d4f;fill-opacity:1;fill-rule:nonzero;stroke:none"
         id="path158"
         inkscape:connector-curvature="0" /><path
         d="m 4293.47,4295.54 -1305.55,-515.86 -348.91,226.02 1312.43,515.94 342.03,-226.1"
         style="fill:#efcd9e;fill-opacity:1;fill-rule:nonzero;stroke:none"
         id="path160"
         inkscape:connector-curvature="0" /><path
         d="m 4299.25,3959.68 -1306.1,-518.36 -5.23,338.36 1306.09,515.47 5.24,-335.47"
         style="fill:#d7ad62;fill-opacity:1;fill-rule:nonzero;stroke:none"
         id="path162"
         inkscape:connector-curvature="0" /><path
         d="m 3847.61,4110.07 386.17,155.63 7.19,366.09 -384.22,-151.64 -9.14,-370.08"
         style="fill:#efcd9e;fill-opacity:1;fill-rule:nonzero;stroke:none"
         id="path164"
         inkscape:connector-curvature="0" /><path
         d="m 2795.42,5121.4 1061.33,-641.25 384.22,151.64 -1066.02,646.72 -379.53,-157.11"
         style="fill:#efcd9e;fill-opacity:1;fill-rule:nonzero;stroke:none"
         id="path166"
         inkscape:connector-curvature="0" /><path
         d="m 2799.95,4784.21 1047.66,-674.14 9.14,370.08 -1062.03,640.94 5.23,-336.88"
         style="fill:#d7ad62;fill-opacity:1;fill-rule:nonzero;stroke:none"
         id="path168"
         inkscape:connector-curvature="0" /><path
         d="m 2992.45,3764.53 386.25,155.54 7.11,366.1 -384.14,-151.64 -9.22,-370"
         style="fill:#c67e2c;fill-opacity:1;fill-rule:nonzero;stroke:none"
         id="path170"
         inkscape:connector-curvature="0" /><path
         d="m 1940.26,4775.7 1061.41,-641.17 384.14,151.64 -1066.02,646.72 -379.53,-157.19"
         style="fill:#efcd9e;fill-opacity:1;fill-rule:nonzero;stroke:none"
         id="path172"
         inkscape:connector-curvature="0" /><path
         d="m 1944.79,4438.51 1047.66,-673.98 9.22,370 -1062.03,640.93 5.15,-336.95"
         style="fill:#efcd9e;fill-opacity:1;fill-rule:nonzero;stroke:none"
         id="path174"
         inkscape:connector-curvature="0" /><path
         d="m 2289.4,4590.31 -354.14,217.5 -13.28,338.36 354.22,-217.74 13.2,-338.12"
         style="fill:#a77d4f;fill-opacity:1;fill-rule:nonzero;stroke:none"
         id="path176"
         inkscape:connector-curvature="0" /><path
         d="M 3569.17,5475.07 2276.2,4928.43 1921.98,5146.17 3221.9,5692.96 3569.17,5475.07"
         style="fill:#efcd9e;fill-opacity:1;fill-rule:nonzero;stroke:none"
         id="path178"
         inkscape:connector-curvature="0" /><path
         d="m 3582.92,5139.45 -1293.52,-549.14 -13.2,338.12 1293.52,546.18 13.2,-335.16"
         style="fill:#d7ad62;fill-opacity:1;fill-rule:nonzero;stroke:none"
         id="path180"
         inkscape:connector-curvature="0" /><path
         d="m 2652.69,4367.57 -354.15,217.43 -13.28,338.35 354.22,-217.65 13.21,-338.13"
         style="fill:#8c6741;fill-opacity:1;fill-rule:nonzero;stroke:none"
         id="path182"
         inkscape:connector-curvature="0" /><path
         d="m 3932.45,5252.34 -1292.97,-546.64 -354.22,217.65 1299.93,546.88 347.26,-217.89"
         style="fill:#efcd9e;fill-opacity:1;fill-rule:nonzero;stroke:none"
         id="path184"
         inkscape:connector-curvature="0" /><path
         d="M 3946.12,4916.71 2652.69,4367.57 2639.48,4705.7 3933,5251.87 3946.12,4916.71"
         style="fill:#472419;fill-opacity:1;fill-rule:nonzero;stroke:none"
         id="path186"
         inkscape:connector-curvature="0" /><path
         d="m 3006.98,4139.92 -354.22,217.42 -13.28,338.36 354.22,-217.74 13.28,-338.04"
         style="fill:#a77d4f;fill-opacity:1;fill-rule:nonzero;stroke:none"
         id="path188"
         inkscape:connector-curvature="0" /><path
         d="M 4286.67,5024.68 2993.7,4477.96 2639.48,4695.7 3939.4,5242.5 4286.67,5024.68"
         style="fill:#efcd9e;fill-opacity:1;fill-rule:nonzero;stroke:none"
         id="path190"
         inkscape:connector-curvature="0" /><path
         d="m 4300.34,4688.98 -1293.36,-549.06 -13.28,338.04 1293.59,546.25 13.05,-335.23"
         style="fill:#d7ad62;fill-opacity:1;fill-rule:nonzero;stroke:none"
         id="path192"
         inkscape:connector-curvature="0" /></g></g></svg>