<svg xmlns="http://www.w3.org/2000/svg" xmlns:xlink="http://www.w3.org/1999/xlink" xmlns:lucid="lucid" width="400" height="260"><g transform="translate(-42 -20)" lucid:page-tab-id="3K0UDY2c_GrX"><path d="M62 40h360v60H62z" stroke="#000" stroke-opacity="0" stroke-width="2" fill="#fff" fill-opacity="0"/><use xlink:href="#a" transform="matrix(1,0,0,1,67,45) translate(137.77333333333334 31.586666666666666)"/><use xlink:href="#b" transform="matrix(1,0,0,1,67,45) translate(181.59555555555556 31.586666666666666)"/><path d="M264 120c0 11.05-8.95 20-20 20s-20-8.95-20-20 8.95-20 20-20 20 8.95 20 20z" stroke="#000" stroke-width="2" fill="#fff"/><path d="M297.78 153.33l-40.97-17.2" stroke="#000" stroke-width="2" fill="none"/><path d="M300.93 153.57l-.06.15-3.1-.4.4-.9zM257.2 135.2l-.77 1.85-1.26-.52 1.73-1.45z"/><path d="M190.67 153.33l38.72-18.8" stroke="#000" stroke-width="2" fill="none"/><path d="M190.67 153.33l-1.44.05-1.62.32 2.63-1.27zM230.37 134.64l.45.32-1 .48-.87-1.8.42-.2z"/><path d="M317.78 173.33c0 11.05-8.96 20-20 20-11.05 0-20-8.95-20-20 0-11.04 8.95-20 20-20 11.04 0 20 8.96 20 20zM291.1 240c0 11.05-8.94 20-20 20-11.03 0-20-8.95-20-20s8.97-20 20-20c11.06 0 20 8.95 20 20z" stroke="#000" stroke-width="2" fill="#fff"/><path d="M268.06 219.63l16.6-30.37" stroke="#000" stroke-width="2" fill="none"/><path d="M268.94 220.1l-.06.1-2.55.5.85-1.55zM285.84 189.2l-.3.54-1.76-.96.43-.77z"/><path d="M324.44 220l-12.4-31.74" stroke="#000" stroke-width="2" fill="none"/><path d="M325.57 220.14l-1.13-.14.94-.36zM312.96 187.9l-1.87.72-.17-.42 1.48-1.24.13-.16z"/><path d="M344.44 240c0 11.05-8.95 20-20 20-11.04 0-20-8.95-20-20s8.96-20 20-20c11.05 0 20 8.95 20 20zM210.67 173.33c0 11.05-8.96 20-20 20-11.05 0-20-8.95-20-20 0-11.04 8.95-20 20-20 11.04 0 20 8.96 20 20zM184 240c0 11.05-8.95 20-20 20s-20-8.95-20-20 8.95-20 20-20 20 8.95 20 20z" stroke="#000" stroke-width="2" fill="#fff"/><path d="M160.95 219.63l16.6-30.37" stroke="#000" stroke-width="2" fill="none"/><path d="M161.83 220.1l-.06.1-2.55.5.85-1.55zM178.73 189.2l-.3.54-1.76-.96.42-.77z"/><path d="M217.33 220l-12.42-31.74" stroke="#000" stroke-width="2" fill="none"/><path d="M218.46 220.14l-1.13-.14.93-.36zM205.85 187.9l-1.87.72-.16-.42 1.48-1.24.12-.16z"/><path d="M237.33 240c0 11.05-8.95 20-20 20-11.04 0-20-8.95-20-20s8.96-20 20-20c11.05 0 20 8.95 20 20z" stroke="#000" stroke-width="2" fill="#fff"/><defs><path d="M593-664c47 1 49 20 45 69-14 188-34 380-50 565-4 45-71 58-96 22-103-142-191-302-297-441L160-50c8 32-11 66-42 66-44 0-56-19-52-70l46-527c8-50 11-68 54-72 61 15 72 87 102 130 87 124 149 242 240 358 13-152 22-306 38-457 3-25 17-43 47-42" id="c"/><path d="M355-451c110 0 162 80 153 193C498-125 413-39 312 7c-36 15-72 23-111 23C93 29 36-35 44-144c9-131 86-228 184-278 37-19 80-29 127-29zM207-56c121 0 193-88 206-202 6-56-14-100-70-100-129 0-190 98-204 214-6 51 17 88 68 88" id="d"/><path d="M388-422c20 0 30 1 42 13 8-77 2-166 23-231 12-35 104-26 87 24-19 183-20 382-41 563 7 55-16 77-72 68-22-3-19-26-24-50-23-2-30 15-55 25-49 19-106 33-188 32C85 5 25-63 46-159c34-151 150-260 342-263zM212-58c128-24 227-88 213-245 5-46-58-33-96-28-94 13-148 71-186 149-27 55 3 136 69 124" id="e"/><path d="M219-412c99-54 263-26 248 106-6 57-62 81-112 104-62 28-146 48-218 66-5 48 10 94 65 90 94-7 136-72 207-98 34-13 67 0 57 43C435-41 354-7 282 18c-34 11-68 16-102 16C83 33 33-24 43-131c12-131 81-229 176-281zm101 138c24-14 78-40 42-74-39-37-110 1-139 24-31 25-59 61-72 105 67 5 123-28 169-55" id="f"/><g id="a"><use transform="matrix(0.017777777777777778,0,0,0.017777777777777778,0,0)" xlink:href="#c"/><use transform="matrix(0.017777777777777778,0,0,0.017777777777777778,11.608888888888888,0)" xlink:href="#d"/><use transform="matrix(0.017777777777777778,0,0,0.017777777777777778,20.906666666666666,0)" xlink:href="#e"/><use transform="matrix(0.017777777777777778,0,0,0.017777777777777778,30.826666666666668,0)" xlink:href="#f"/></g><path d="M216-52c-5 36-4 69 38 67 48-3 51-21 55-66l44-503c67-15 148-20 201-48 21-11 22-54 2-66-33-20-92 2-124 8-114 21-232 39-344 74-26 8-41 55-12 68 50 23 129-13 181-19" id="g"/><path d="M124 12C75 22 65-15 68-58l23-329c-6-47 11-61 61-61 32 0 27 14 38 41 60-28 141-67 220-43 14 18 32 52 5 72-44 33-165 17-207 62-5 4-12 9-20 13L160-58c-7 43-5 63-36 70" id="h"/><g id="b"><use transform="matrix(0.017777777777777778,0,0,0.017777777777777778,0,0)" xlink:href="#g"/><use transform="matrix(0.017777777777777778,0,0,0.017777777777777778,7.235555555555556,0)" xlink:href="#h"/><use transform="matrix(0.017777777777777778,0,0,0.017777777777777778,13.955555555555556,0)" xlink:href="#f"/><use transform="matrix(0.017777777777777778,0,0,0.017777777777777778,22.293333333333333,0)" xlink:href="#f"/></g></defs></g></svg>