<svg xmlns="http://www.w3.org/2000/svg" xmlns:xlink="http://www.w3.org/1999/xlink" xmlns:lucid="lucid" width="498" height="490"><g transform="translate(-161 -100)" lucid:page-tab-id="0yMUKQ.jU9lB"><path d="M440 153h120v60H440z" stroke="#000" stroke-opacity="0" stroke-width="2" fill="#fff" fill-opacity="0"/><use xlink:href="#a" transform="matrix(1,0,0,1,445,158) translate(18.36 31.586666666666666)"/><use xlink:href="#b" transform="matrix(1,0,0,1,445,158) translate(61.00888888888889 31.586666666666666)"/><path d="M181 330h340L351 120z" stroke="#000" stroke-width="2" fill="#fff"/><path d="M372 180c0 11.05-8.95 20-20 20s-20-8.95-20-20 8.95-20 20-20 20 8.95 20 20z" stroke="#000" stroke-width="2" fill="#fff"/><path d="M405.78 213.33l-40.97-17.2" stroke="#000" stroke-width="2" fill="none"/><path d="M408.93 213.57l-.06.15-3.1-.4.4-.9zM365.2 195.2l-.77 1.85-1.26-.52 1.73-1.45z"/><path d="M298.67 213.33l38.72-18.8" stroke="#000" stroke-width="2" fill="none"/><path d="M298.67 213.33l-1.44.05-1.62.32 2.63-1.27zM338.37 194.64l.45.32-1 .48-.87-1.8.42-.2z"/><path d="M425.78 233.33c0 11.05-8.96 20-20 20-11.05 0-20-8.95-20-20 0-11.04 8.95-20 20-20 11.04 0 20 8.96 20 20z" stroke="#000" stroke-width="2" fill="#fff"/><path d="M399.1 300c0 11.05-8.94 20-20 20-11.03 0-20-8.95-20-20s8.97-20 20-20c11.06 0 20 8.95 20 20z" stroke="#000" stroke-width="2" fill="#c1e4f7"/><path d="M376.06 279.63l16.6-30.37" stroke="#000" stroke-width="2" fill="none"/><path d="M376.94 280.1l-.06.1-2.55.5.85-1.55zM393.84 249.2l-.3.54-1.76-.96.43-.77z"/><path d="M432.44 280l-12.4-31.74" stroke="#000" stroke-width="2" fill="none"/><path d="M433.57 280.14l-1.13-.14.94-.36zM420.96 247.9l-1.87.72-.17-.42 1.48-1.24.13-.16z"/><path d="M452.44 300c0 11.05-8.95 20-20 20-11.04 0-20-8.95-20-20s8.96-20 20-20c11.05 0 20 8.95 20 20zM318.67 233.33c0 11.05-8.96 20-20 20-11.05 0-20-8.95-20-20 0-11.04 8.95-20 20-20 11.04 0 20 8.96 20 20zM292 300c0 11.05-8.95 20-20 20s-20-8.95-20-20 8.95-20 20-20 20 8.95 20 20z" stroke="#000" stroke-width="2" fill="#fff"/><path d="M268.95 279.63l16.6-30.37" stroke="#000" stroke-width="2" fill="none"/><path d="M269.83 280.1l-.06.1-2.55.5.85-1.55zM286.73 249.2l-.3.54-1.76-.96.42-.77z"/><path d="M325.33 280l-12.42-31.74" stroke="#000" stroke-width="2" fill="none"/><path d="M326.46 280.14l-1.13-.14.93-.36zM313.85 247.9l-1.87.72-.16-.42 1.48-1.24.12-.16z"/><path d="M345.33 300c0 11.05-8.95 20-20 20-11.04 0-20-8.95-20-20s8.96-20 20-20c11.05 0 20 8.95 20 20z" stroke="#000" stroke-width="2" fill="#fff"/><path d="M519 380h120v60H519z" stroke="#000" stroke-opacity="0" stroke-width="2" fill-opacity="0"/><use xlink:href="#c" transform="matrix(1,0,0,1,524,385) translate(7.577777777777783 31.586666666666666)"/><use xlink:href="#b" transform="matrix(1,0,0,1,524,385) translate(71.7911111111111 31.586666666666666)"/><path d="M279 570h340L449 360z" stroke="#000" stroke-width="2" fill="#c1e4f7"/><path d="M470 420c0 11.05-8.95 20-20 20s-20-8.95-20-20 8.95-20 20-20 20 8.95 20 20z" stroke="#000" stroke-width="2" fill="#c1e4f7"/><path d="M503.78 453.33l-40.97-17.2" stroke="#000" stroke-width="2" fill="none"/><path d="M506.93 453.57l-.06.15-3.1-.4.4-.9zM463.2 435.2l-.77 1.85-1.26-.52 1.73-1.45z"/><path d="M396.67 453.33l38.72-18.8" stroke="#000" stroke-width="2" fill="none"/><path d="M396.67 453.33l-1.44.05-1.62.32 2.63-1.27zM436.37 434.64l.45.32-1 .48-.87-1.8.42-.2z"/><path d="M523.78 473.33c0 11.05-8.96 20-20 20-11.05 0-20-8.95-20-20 0-11.04 8.95-20 20-20 11.04 0 20 8.96 20 20zM497.1 540c0 11.05-8.94 20-20 20-11.03 0-20-8.95-20-20s8.97-20 20-20c11.06 0 20 8.95 20 20z" stroke="#000" stroke-width="2" fill="#c1e4f7"/><path d="M474.06 519.63l16.6-30.37" stroke="#000" stroke-width="2" fill="none"/><path d="M474.94 520.1l-.06.1-2.55.5.85-1.55zM491.84 489.2l-.3.54-1.76-.96.43-.77z"/><path d="M530.44 520l-12.4-31.74" stroke="#000" stroke-width="2" fill="none"/><path d="M531.57 520.14l-1.13-.14.94-.36zM518.96 487.9l-1.87.72-.17-.42 1.48-1.24.13-.16z"/><path d="M550.44 540c0 11.05-8.95 20-20 20-11.04 0-20-8.95-20-20s8.96-20 20-20c11.05 0 20 8.95 20 20zM416.67 473.33c0 11.05-8.96 20-20 20-11.05 0-20-8.95-20-20 0-11.04 8.95-20 20-20 11.04 0 20 8.96 20 20zM390 540c0 11.05-8.95 20-20 20s-20-8.95-20-20 8.95-20 20-20 20 8.95 20 20z" stroke="#000" stroke-width="2" fill="#c1e4f7"/><path d="M366.95 519.63l16.6-30.37" stroke="#000" stroke-width="2" fill="none"/><path d="M367.83 520.1l-.06.1-2.55.5.85-1.55zM384.73 489.2l-.3.54-1.76-.96.42-.77z"/><path d="M423.33 520l-12.42-31.74" stroke="#000" stroke-width="2" fill="none"/><path d="M424.46 520.14l-1.13-.14.93-.36zM411.85 487.9l-1.87.72-.16-.42 1.48-1.24.12-.16z"/><path d="M443.33 540c0 11.05-8.95 20-20 20-11.04 0-20-8.95-20-20s8.96-20 20-20c11.05 0 20 8.95 20 20z" stroke="#000" stroke-width="2" fill="#c1e4f7"/><path d="M379.1 320l44.9 69.28" stroke="#0c7cba" stroke-width="2" fill="none"/><path d="M379.1 320l-.83.54-.46-.7zM424 389.28l-11.64-9.45 7.78-5.04z" fill="#0c7cba"/><path d="M425.1 389.5l-.94 1.2-13.5-10.96 10.1-6.54zm-11.04-9.58l8.2 6.64-2.73-10.2z" fill="#0c7cba"/><g><use xlink:href="#d" transform="matrix(1,0,0,1,350.3475397526122,348.35893622390546) translate(0.004999999999999005 17.262222222222224)"/></g><defs><path d="M436-34c34-42-12-84-70-64L165-71l45-515c4-44 3-69-37-70-52-1-53 27-58 72C98-400 66-214 66-30c0 31 9 60 42 56l277-37c23-5 42-12 51-23" id="e"/><path d="M181-653c-52 0-62 23-66 73L69-58C54-7 88 28 136 12c23-8 25-40 28-68 19-189 33-381 50-568-3-18-11-29-33-29" id="f"/><path d="M167 226c170 27 284-54 294-209 9-139 27-274 27-415 0-39-36-43-82-43-149 0-266 45-328 133-46 65-29 205-6 274 22 37 44 67 102 60 89-11 160-62 208-124-9 122-8 235-132 242-59 3-90-38-147-40-41-1-49 55-27 80 20 23 54 36 91 42zm-17-476c29-67 104-91 188-104 22-4 39-3 54 0 5 37 14 87-11 114-37 62-97 121-156 162-98 68-103-107-75-172" id="g"/><path d="M315-328c46-26 68 3 62 60L355-49c-9 52 42 87 77 55 9-8 16-26 18-53l20-275c5-79-5-118-74-118-90 0-156 50-216 91 5-90 16-180 17-273 12-48-45-53-69-32-24 22-24 70-26 114L67-46C55 6 109 37 144 2c12-11 16-27 18-48l13-182c43-35 90-73 140-100" id="h"/><path d="M294-7c-52 29-182 61-175-39l22-313c-29 11-104 9-94-22-2-51 54-54 100-61 1-69 2-169 83-132 25 20 10 79 10 117 49-6 105-16 153-21 33-3 36 52 17 67-34 27-121 29-176 39L215-96c-3 27 40 15 48 4 21-29 77-60 113-24 8 8 12 20 11 35-23 31-56 53-93 74" id="i"/><g id="a"><use transform="matrix(0.017777777777777778,0,0,0.017777777777777778,0,0)" xlink:href="#e"/><use transform="matrix(0.017777777777777778,0,0,0.017777777777777778,7.8933333333333335,0)" xlink:href="#f"/><use transform="matrix(0.017777777777777778,0,0,0.017777777777777778,11.84,0)" xlink:href="#g"/><use transform="matrix(0.017777777777777778,0,0,0.017777777777777778,21.173333333333332,0)" xlink:href="#h"/><use transform="matrix(0.017777777777777778,0,0,0.017777777777777778,30.24,0)" xlink:href="#i"/></g><path d="M216-52c-5 36-4 69 38 67 48-3 51-21 55-66l44-503c67-15 148-20 201-48 21-11 22-54 2-66-33-20-92 2-124 8-114 21-232 39-344 74-26 8-41 55-12 68 50 23 129-13 181-19" id="j"/><path d="M124 12C75 22 65-15 68-58l23-329c-6-47 11-61 61-61 32 0 27 14 38 41 60-28 141-67 220-43 14 18 32 52 5 72-44 33-165 17-207 62-5 4-12 9-20 13L160-58c-7 43-5 63-36 70" id="k"/><path d="M219-412c99-54 263-26 248 106-6 57-62 81-112 104-62 28-146 48-218 66-5 48 10 94 65 90 94-7 136-72 207-98 34-13 67 0 57 43C435-41 354-7 282 18c-34 11-68 16-102 16C83 33 33-24 43-131c12-131 81-229 176-281zm101 138c24-14 78-40 42-74-39-37-110 1-139 24-31 25-59 61-72 105 67 5 123-28 169-55" id="l"/><g id="b"><use transform="matrix(0.017777777777777778,0,0,0.017777777777777778,0,0)" xlink:href="#j"/><use transform="matrix(0.017777777777777778,0,0,0.017777777777777778,7.235555555555556,0)" xlink:href="#k"/><use transform="matrix(0.017777777777777778,0,0,0.017777777777777778,13.955555555555556,0)" xlink:href="#l"/><use transform="matrix(0.017777777777777778,0,0,0.017777777777777778,22.293333333333333,0)" xlink:href="#l"/></g><path d="M480-433c87 3 153 44 143 142C607-123 486-34 346 11 211 55 46 26 46-120c0-40 65-72 88-32 25 42 40 94 112 88 119-10 209-60 257-143 23-39 41-132-32-128-105 6-179 59-280 59-78 0-132-37-122-121 15-131 114-208 221-254 92-40 227-25 274 37 24 31 8 80-30 82-66 3-63-54-134-52-103 3-170 55-212 118-24 36-30 92 21 92 91 0 162-63 271-59" id="m"/><path d="M414 18c44 0 51-25 54-67l20-294c15-129-122-120-228-97-56 12-101 41-148 64-16 8-27 55-6 61 51 14 87-22 132-33 39-9 72-27 121-28 19 0 38 3 37 23l-4 55C217-288 63-254 27-107 26-36 64 31 131 31c99 0 173-43 244-71-7 36-4 58 39 58zm-23-168c-50 42-119 78-192 101-76 24-118-61-60-101 61-42 156-67 248-79" id="n"/><path d="M388-422c20 0 30 1 42 13 8-77 2-166 23-231 12-35 104-26 87 24-19 183-20 382-41 563 7 55-16 77-72 68-22-3-19-26-24-50-23-2-30 15-55 25-49 19-106 33-188 32C85 5 25-63 46-159c34-151 150-260 342-263zM212-58c128-24 227-88 213-245 5-46-58-33-96-28-94 13-148 71-186 149-27 55 3 136 69 124" id="o"/><path d="M355-451c110 0 162 80 153 193C498-125 413-39 312 7c-36 15-72 23-111 23C93 29 36-35 44-144c9-131 86-228 184-278 37-19 80-29 127-29zM207-56c121 0 193-88 206-202 6-56-14-100-70-100-129 0-190 98-204 214-6 51 17 88 68 88" id="p"/><path d="M149-147c-5-95-11-196-19-285-3-35-68-31-79-6C35-320 71-157 71-32c0 49 64 71 91 30 44-67 87-163 126-243 20 91 48 182 78 260 10 14 51 16 66 1 20-21 30-60 44-88l138-286c25-44 41-72-11-92-60-23-66 45-87 86-38 73-62 161-102 228-21-87-47-190-68-276-12-24-53-18-66 4-46 79-88 178-131 261" id="q"/><g id="c"><use transform="matrix(0.017777777777777778,0,0,0.017777777777777778,0,0)" xlink:href="#m"/><use transform="matrix(0.017777777777777778,0,0,0.017777777777777778,11.217777777777778,0)" xlink:href="#h"/><use transform="matrix(0.017777777777777778,0,0,0.017777777777777778,20.284444444444443,0)" xlink:href="#n"/><use transform="matrix(0.017777777777777778,0,0,0.017777777777777778,29.67111111111111,0)" xlink:href="#o"/><use transform="matrix(0.017777777777777778,0,0,0.017777777777777778,39.59111111111111,0)" xlink:href="#p"/><use transform="matrix(0.017777777777777778,0,0,0.017777777777777778,48.888888888888886,0)" xlink:href="#q"/></g><path d="M376-215c43 0 31 49 10 75-39 47-104 89-187 89-48 0-70-41-115-55-47-14-78 39-47 75 50 58 171 80 264 44 95-36 189-96 200-210 7-67-35-108-100-108-91 0-157 59-233 59-38 0-19-38-4-54 46-49 136-72 234-65 42 3 82-10 73-53-25-53-127-37-191-22-109 25-216 75-229 191-7 61 35 94 99 94 85 0 146-60 226-60" id="r"/><g id="d"><use transform="matrix(0.017777777777777778,0,0,0.017777777777777778,0,0)" xlink:href="#h"/><use transform="matrix(0.017777777777777778,0,0,0.017777777777777778,9.066666666666666,0)" xlink:href="#p"/><use transform="matrix(0.017777777777777778,0,0,0.017777777777777778,18.364444444444445,0)" xlink:href="#r"/><use transform="matrix(0.017777777777777778,0,0,0.017777777777777778,27.608888888888888,0)" xlink:href="#i"/><use transform="matrix(0.017777777777777778,0,0,0.017777777777777778,35.36,0)" xlink:href="#r"/></g></defs></g></svg>