<svg xmlns="http://www.w3.org/2000/svg" xmlns:xlink="http://www.w3.org/1999/xlink" xmlns:lucid="lucid" width="1070.77" height="600"><g transform="translate(-48.510301109350166 0)" lucid:page-tab-id="tL4UaAMb3I9D"><path d="M443.5 20h360v60h-360z" stroke="#000" stroke-opacity="0" stroke-width="2" fill="#fff" fill-opacity="0"/><use xlink:href="#a" transform="matrix(1,0,0,1,448.51030110935017,25) translate(106.10222222222222 31.586666666666666)"/><use xlink:href="#b" transform="matrix(1,0,0,1,448.51030110935017,25) translate(191.22222222222223 31.586666666666666)"/><path d="M435.67 243.22h221.97l-111-136.6z" stroke="#000" stroke-width="2" fill="#fff"/><path d="M559.46 145.04c0 7.07-5.73 12.8-12.8 12.8-7.08 0-12.8-5.73-12.8-12.8s5.72-12.8 12.8-12.8c7.07 0 12.8 5.73 12.8 12.8z" stroke="#000" stroke-width="2" fill="#fff"/><path d="M561.78 208.83l10.63-19.44" stroke="#000" stroke-width="2" fill="none"/><path d="M562.5 209.23l-2.1.28-.17.08.67-1.23zM573.46 189.56l-.18.3-1.75-.95.32-.58z"/><path d="M597.88 209.07l-7.95-20.32" stroke="#000" stroke-width="2" fill="none"/><path d="M599 209.22l-1.12-.15.93-.36zM590.86 188.38l-1.86.73-.06-.14.92-.7.63-.83z"/><path d="M593.6 179.2c0 7.06-5.72 12.8-12.8 12.8-7.07 0-12.8-5.74-12.8-12.8 0-7.08 5.73-12.8 12.8-12.8 7.08 0 12.8 5.72 12.8 12.8zM576.54 221.88c0 7.07-5.74 12.8-12.8 12.8-7.08 0-12.82-5.73-12.82-12.8s5.74-12.8 12.8-12.8c7.08 0 12.82 5.73 12.82 12.8zM610.7 221.88c0 7.07-5.75 12.8-12.82 12.8s-12.8-5.73-12.8-12.8 5.73-12.8 12.8-12.8 12.8 5.73 12.8 12.8z" stroke="#000" stroke-width="2" fill="#fff"/><path d="M580.8 166.4l-25.94-11.03" stroke="#000" stroke-width="2" fill="none"/><path d="M583.96 166.64l-.07.15-3.1-.4.4-.93zM555.25 154.45l-.78 1.84-1.04-.45 1.82-1.4z"/><path d="M512.5 166.4l24.8-12.05" stroke="#000" stroke-width="2" fill="none"/><path d="M512.5 166.4l-3.13.4 2.7-1.3zM537.6 154.1l.97.75-.83.4-.88-1.8.18-.08z"/><path d="M493.48 208.83l10.63-19.44" stroke="#000" stroke-width="2" fill="none"/><path d="M494.2 209.23l-2.1.28-.17.08.67-1.23zM505.15 189.56l-.17.3-1.75-.95.32-.58z"/><path d="M529.58 209.07l-7.95-20.32" stroke="#000" stroke-width="2" fill="none"/><path d="M530.7 209.22l-1.12-.15.93-.36zM522.56 188.38l-1.86.73-.06-.14.92-.7.63-.83z"/><path d="M525.3 179.2c0 7.06-5.72 12.8-12.8 12.8-7.07 0-12.8-5.74-12.8-12.8 0-7.08 5.73-12.8 12.8-12.8 7.08 0 12.8 5.72 12.8 12.8zM508.24 221.88c0 7.07-5.74 12.8-12.8 12.8-7.08 0-12.82-5.73-12.82-12.8s5.74-12.8 12.8-12.8c7.08 0 12.82 5.73 12.82 12.8zM542.4 221.88c0 7.07-5.75 12.8-12.82 12.8s-12.8-5.73-12.8-12.8 5.73-12.8 12.8-12.8 12.8 5.73 12.8 12.8z" stroke="#000" stroke-width="2" fill="#fff"/><path d="M542.4 132.24h153.66v25.6H542.4z" stroke="#000" stroke-opacity="0" stroke-width="2" fill="#fff" fill-opacity="0"/><path d="M352.45 386.26l61.7 87.45" stroke="#83bbe5" stroke-width="6" fill="none"/><path d="M354.9 384.53l-2.45 1.73.44-3.33.32-.8zM414.15 473.7l-12-8.98 7.56-5.34z" fill="#83bbe5"/><path d="M416.73 471.9l-3.78 4.66-15.92-11.9 14.33-10.1zm-9.5-7.1l1.32.98-.48-1.57z" fill="#83bbe5"/><path d="M262.8 399.06l-51.3 82.34" stroke="#83bbe5" stroke-width="6" fill="none"/><path d="M265.36 400.65l-2.55-1.6 3.33-.42.65-.27zM222.97 471.75l-11.48 9.65 3.6-14.56z" fill="#83bbe5"/><path d="M228.06 471.4l-15.34 12.9-3.86-4.76 4.33-17.43zm-11.43 1.76l1.25-1.05-.86-.53z" fill="#83bbe5"/><path d="M501.34 244.1l-169.85 47" stroke="#83bbe5" stroke-width="6" fill="none"/><path d="M505.04 246.18l-2.9.8-1.04-3.76h3.12zM346.48 291.77l-15-.67 12.52-8.27z" fill="#83bbe5"/><path d="M350.47 294.95l-17.6-.78-4-4.92 16.92-11.2zm-9.62-6.43l1.63.07-.27-1z" fill="#83bbe5"/><path d="M203.05 407.6h221.97L314.04 271z" stroke="#000" stroke-width="2" fill="#fff"/><path d="M326.84 309.42c0 7.07-5.73 12.8-12.8 12.8-7.08 0-12.8-5.73-12.8-12.8 0-7.08 5.72-12.8 12.8-12.8 7.07 0 12.8 5.72 12.8 12.8z" stroke="#000" stroke-width="2" fill="#fff"/><path d="M329.16 373.2l10.63-19.43" stroke="#000" stroke-width="2" fill="none"/><path d="M329.9 373.6l-2.1.28-.2.08.68-1.23zM340.84 353.93l-.18.32-1.75-.96.33-.6z"/><path d="M365.26 373.45l-7.95-20.33" stroke="#000" stroke-width="2" fill="none"/><path d="M366.4 373.6l-1.14-.15.93-.37zM358.24 352.76l-1.86.73-.06-.17.92-.7.63-.82z"/><path d="M361 343.57c0 7.07-5.74 12.8-12.8 12.8-7.1 0-12.82-5.73-12.82-12.8 0-7.08 5.73-12.8 12.8-12.8 7.08 0 12.8 5.72 12.8 12.8zM343.92 386.26c0 7.07-5.74 12.8-12.8 12.8-7.08 0-12.82-5.73-12.82-12.8 0-7.08 5.74-12.8 12.8-12.8 7.08 0 12.82 5.72 12.82 12.8zM378.07 386.26c0 7.07-5.74 12.8-12.8 12.8-7.08 0-12.82-5.73-12.82-12.8 0-7.08 5.74-12.8 12.8-12.8 7.08 0 12.82 5.72 12.82 12.8z" stroke="#000" stroke-width="2" fill="#fff"/><path d="M348.2 330.76l-25.96-11" stroke="#000" stroke-width="2" fill="none"/><path d="M351.34 331l-.07.17-3.08-.4.38-.93zM322.63 318.83l-.78 1.84-1.04-.44 1.83-1.4z"/><path d="M279.9 330.76l24.78-12.03" stroke="#000" stroke-width="2" fill="none"/><path d="M279.9 330.76l-3.15.4 2.7-1.3zM304.98 318.47l.97.75-.83.4-.88-1.8.18-.08z"/><path d="M260.86 373.2l10.63-19.43" stroke="#000" stroke-width="2" fill="none"/><path d="M261.6 373.6l-2.1.28-.2.08.68-1.23zM272.54 353.93l-.18.32-1.75-.96.33-.6z"/><path d="M296.96 373.45L289 353.12" stroke="#000" stroke-width="2" fill="none"/><path d="M298.1 373.6l-1.14-.15.93-.37zM289.94 352.76l-1.86.73-.06-.17.92-.7.63-.82z"/><path d="M292.7 343.57c0 7.07-5.74 12.8-12.8 12.8-7.1 0-12.82-5.73-12.82-12.8 0-7.08 5.73-12.8 12.8-12.8 7.08 0 12.8 5.72 12.8 12.8zM275.62 386.26c0 7.07-5.74 12.8-12.8 12.8-7.08 0-12.82-5.73-12.82-12.8 0-7.08 5.74-12.8 12.8-12.8 7.08 0 12.82 5.72 12.82 12.8zM309.77 386.26c0 7.07-5.74 12.8-12.8 12.8-7.08 0-12.82-5.73-12.82-12.8 0-7.08 5.74-12.8 12.8-12.8 7.08 0 12.82 5.72 12.82 12.8z" stroke="#000" stroke-width="2" fill="#fff"/><path d="M309.77 296.6h153.67v25.62H309.77z" stroke="#000" stroke-opacity="0" stroke-width="2" fill="#fff" fill-opacity="0"/><path d="M68.5 580h222l-111-136.6z" stroke="#000" stroke-width="2" fill="#fff"/><path d="M192.3 481.82c0 7.07-5.73 12.8-12.8 12.8s-12.8-5.73-12.8-12.8 5.73-12.8 12.8-12.8 12.8 5.73 12.8 12.8z" stroke="#000" stroke-width="2" fill="#fff"/><path d="M194.62 545.6l10.63-19.43" stroke="#000" stroke-width="2" fill="none"/><path d="M195.35 546l-2.1.3-.18.06.67-1.23zM206.3 526.33l-.17.32-1.76-.96.32-.6z"/><path d="M230.72 545.85l-7.95-20.33" stroke="#000" stroke-width="2" fill="none"/><path d="M231.86 546l-1.14-.15.93-.36zM223.7 525.16l-1.86.73-.06-.17.92-.7.63-.82z"/><path d="M226.45 515.97c0 7.07-5.73 12.8-12.8 12.8s-12.8-5.73-12.8-12.8 5.73-12.8 12.8-12.8 12.8 5.73 12.8 12.8zM209.38 558.66c0 7.07-5.73 12.8-12.8 12.8-7.08 0-12.8-5.73-12.8-12.8 0-7.08 5.72-12.8 12.8-12.8 7.07 0 12.8 5.72 12.8 12.8zM243.53 558.66c0 7.07-5.73 12.8-12.8 12.8-7.08 0-12.8-5.73-12.8-12.8 0-7.08 5.72-12.8 12.8-12.8 7.07 0 12.8 5.72 12.8 12.8z" stroke="#000" stroke-width="2" fill="#fff"/><path d="M213.65 503.16l-25.95-11" stroke="#000" stroke-width="2" fill="none"/><path d="M216.8 503.4l-.06.17-3.1-.4.4-.93zM188.1 491.23l-.8 1.84-1.03-.44 1.82-1.4z"/><path d="M145.35 503.16l24.8-12.03" stroke="#000" stroke-width="2" fill="none"/><path d="M145.35 503.16l-3.14.4 2.7-1.3zM170.44 490.87l.98.75-.84.4-.87-1.8.18-.08z"/><path d="M126.32 545.6l10.63-19.43" stroke="#000" stroke-width="2" fill="none"/><path d="M127.05 546l-2.1.3-.18.06.67-1.23zM138 526.33l-.17.32-1.76-.96.32-.6z"/><path d="M162.42 545.85l-7.95-20.33" stroke="#000" stroke-width="2" fill="none"/><path d="M163.55 546l-1.13-.15.93-.36zM155.4 525.16l-1.86.73-.06-.17.92-.7.63-.82z"/><path d="M158.15 515.97c0 7.07-5.73 12.8-12.8 12.8s-12.8-5.73-12.8-12.8 5.73-12.8 12.8-12.8 12.8 5.73 12.8 12.8zM141.08 558.66c0 7.07-5.73 12.8-12.8 12.8-7.08 0-12.8-5.73-12.8-12.8 0-7.08 5.72-12.8 12.8-12.8 7.07 0 12.8 5.72 12.8 12.8zM175.23 558.66c0 7.07-5.73 12.8-12.8 12.8-7.08 0-12.8-5.73-12.8-12.8 0-7.08 5.72-12.8 12.8-12.8 7.07 0 12.8 5.72 12.8 12.8z" stroke="#000" stroke-width="2" fill="#fff"/><path d="M175.23 469H328.9v25.62H175.23z" stroke="#000" stroke-opacity="0" stroke-width="2" fill="#fff" fill-opacity="0"/><path d="M328.9 580h221.98l-111-136.6z" stroke="#000" stroke-width="2" fill="#fff"/><path d="M452.7 481.82c0 7.07-5.73 12.8-12.8 12.8-7.08 0-12.8-5.73-12.8-12.8s5.72-12.8 12.8-12.8c7.07 0 12.8 5.73 12.8 12.8z" stroke="#000" stroke-width="2" fill="#fff"/><path d="M455 545.6l10.64-19.43" stroke="#000" stroke-width="2" fill="none"/><path d="M455.75 546l-2.1.3-.18.06.67-1.23zM466.7 526.33l-.18.32-1.75-.96.32-.6z"/><path d="M491.12 545.85l-7.95-20.33" stroke="#000" stroke-width="2" fill="none"/><path d="M492.25 546l-1.13-.15.93-.36zM484.1 525.16l-1.87.73-.06-.17.93-.7.62-.82z"/><path d="M486.85 515.97c0 7.07-5.73 12.8-12.8 12.8-7.08 0-12.8-5.73-12.8-12.8s5.72-12.8 12.8-12.8c7.07 0 12.8 5.73 12.8 12.8zM469.77 558.66c0 7.07-5.73 12.8-12.8 12.8-7.08 0-12.8-5.73-12.8-12.8 0-7.08 5.72-12.8 12.8-12.8 7.07 0 12.8 5.72 12.8 12.8zM503.92 558.66c0 7.07-5.73 12.8-12.8 12.8-7.08 0-12.8-5.73-12.8-12.8 0-7.08 5.72-12.8 12.8-12.8 7.07 0 12.8 5.72 12.8 12.8z" stroke="#000" stroke-width="2" fill="#fff"/><path d="M474.04 503.16l-25.94-11" stroke="#000" stroke-width="2" fill="none"/><path d="M477.2 503.4l-.07.17-3.1-.4.4-.93zM448.5 491.23l-.8 1.84-1.04-.44 1.83-1.4z"/><path d="M405.74 503.16l24.8-12.03" stroke="#000" stroke-width="2" fill="none"/><path d="M405.74 503.16l-3.13.4 2.7-1.3zM430.84 490.87l.97.75-.83.4-.87-1.8.18-.08z"/><path d="M386.7 545.6l10.64-19.43" stroke="#000" stroke-width="2" fill="none"/><path d="M387.44 546l-2.1.3-.17.06.67-1.23zM398.4 526.33l-.18.32-1.75-.96.32-.6z"/><path d="M422.82 545.85l-7.95-20.33" stroke="#000" stroke-width="2" fill="none"/><path d="M423.95 546l-1.13-.15.93-.36zM415.8 525.16l-1.87.73-.06-.17.93-.7.62-.82z"/><path d="M418.55 515.97c0 7.07-5.73 12.8-12.8 12.8-7.08 0-12.8-5.73-12.8-12.8s5.72-12.8 12.8-12.8c7.07 0 12.8 5.73 12.8 12.8zM401.47 558.66c0 7.07-5.73 12.8-12.8 12.8-7.08 0-12.8-5.73-12.8-12.8 0-7.08 5.72-12.8 12.8-12.8 7.07 0 12.8 5.72 12.8 12.8zM435.62 558.66c0 7.07-5.73 12.8-12.8 12.8-7.08 0-12.8-5.73-12.8-12.8 0-7.08 5.72-12.8 12.8-12.8 7.07 0 12.8 5.72 12.8 12.8z" stroke="#000" stroke-width="2" fill="#fff"/><path d="M435.62 469H589.3v25.62H435.62z" stroke="#000" stroke-opacity="0" stroke-width="2" fill="#fff" fill-opacity="0"/><path d="M855.88 386.26l61.7 87.45" stroke="#83bbe5" stroke-width="6" fill="none"/><path d="M858.33 384.53l-2.45 1.73.44-3.33.33-.8zM917.58 473.7l-12.02-8.98 7.58-5.34z" fill="#83bbe5"/><path d="M920.16 471.9l-3.78 4.66-15.92-11.9 14.33-10.1zm-9.5-7.1l1.32.98-.48-1.57z" fill="#83bbe5"/><path d="M766.24 399.06l-51.32 82.34" stroke="#83bbe5" stroke-width="6" fill="none"/><path d="M768.8 400.65l-2.56-1.6 3.32-.42.65-.27zM726.4 471.75l-11.48 9.65 3.6-14.56z" fill="#83bbe5"/><path d="M731.5 471.4l-15.35 12.9-3.86-4.76 4.32-17.43zm-11.44 1.76l1.25-1.05-.85-.53z" fill="#83bbe5"/><path d="M612.45 244.1L784.4 310.3" stroke="#83bbe5" stroke-width="6" fill="none"/><path d="M611.37 246.9l-2.8-1.1 1-2.58h3.2zM784.4 310.32l-14.98-.8 3.33-8.66z" fill="#83bbe5"/><path d="M786.97 308.53l-3.84 4.72-18-.96 6.3-16.37zm-13.26-1.8l1.64.1-1.27-1.04z" fill="#83bbe5"/><path d="M706.48 407.6h221.97l-111-136.6z" stroke="#000" stroke-width="2" fill="#fff"/><path d="M830.27 309.42c0 7.07-5.73 12.8-12.8 12.8-7.08 0-12.8-5.73-12.8-12.8 0-7.08 5.72-12.8 12.8-12.8 7.07 0 12.8 5.72 12.8 12.8z" stroke="#000" stroke-width="2" fill="#fff"/><path d="M832.6 373.2l10.62-19.43" stroke="#000" stroke-width="2" fill="none"/><path d="M833.32 373.6l-2.1.28-.18.08.67-1.23zM844.27 353.93l-.18.32-1.76-.96.32-.6z"/><path d="M868.7 373.45l-7.96-20.33" stroke="#000" stroke-width="2" fill="none"/><path d="M869.82 373.6l-1.13-.15.92-.37zM861.67 352.76l-1.86.73-.05-.17.92-.7.63-.82z"/><path d="M864.42 343.57c0 7.07-5.73 12.8-12.8 12.8-7.08 0-12.8-5.73-12.8-12.8 0-7.08 5.72-12.8 12.8-12.8 7.07 0 12.8 5.72 12.8 12.8zM847.35 386.26c0 7.07-5.74 12.8-12.8 12.8-7.08 0-12.82-5.73-12.82-12.8 0-7.08 5.74-12.8 12.8-12.8 7.08 0 12.82 5.72 12.82 12.8zM881.5 386.26c0 7.07-5.74 12.8-12.8 12.8-7.08 0-12.82-5.73-12.82-12.8 0-7.08 5.74-12.8 12.8-12.8 7.08 0 12.82 5.72 12.82 12.8z" stroke="#000" stroke-width="2" fill="#fff"/><path d="M851.6 330.76l-25.93-11" stroke="#000" stroke-width="2" fill="none"/><path d="M854.77 331l-.07.17-3.1-.4.4-.93zM826.06 318.83l-.78 1.84-1.04-.44 1.82-1.4z"/><path d="M783.3 330.76l24.8-12.03" stroke="#000" stroke-width="2" fill="none"/><path d="M783.3 330.76l-3.12.4 2.7-1.3zM808.4 318.47l.98.75-.83.4-.88-1.8.18-.08z"/><path d="M764.3 373.2l10.62-19.43" stroke="#000" stroke-width="2" fill="none"/><path d="M765.02 373.6l-2.1.28-.18.08.67-1.23zM775.97 353.93l-.18.32-1.76-.96.32-.6z"/><path d="M800.4 373.45l-7.96-20.33" stroke="#000" stroke-width="2" fill="none"/><path d="M801.52 373.6l-1.13-.15.92-.37zM793.37 352.76l-1.86.73-.05-.17.92-.7.63-.82z"/><path d="M796.12 343.57c0 7.07-5.73 12.8-12.8 12.8-7.08 0-12.8-5.73-12.8-12.8 0-7.08 5.72-12.8 12.8-12.8 7.07 0 12.8 5.72 12.8 12.8zM779.05 386.26c0 7.07-5.74 12.8-12.8 12.8-7.08 0-12.82-5.73-12.82-12.8 0-7.08 5.74-12.8 12.8-12.8 7.08 0 12.82 5.72 12.82 12.8zM813.2 386.26c0 7.07-5.74 12.8-12.8 12.8-7.08 0-12.82-5.73-12.82-12.8 0-7.08 5.74-12.8 12.8-12.8 7.08 0 12.82 5.72 12.82 12.8z" stroke="#000" stroke-width="2" fill="#fff"/><path d="M813.2 296.6h153.67v25.62H813.2z" stroke="#000" stroke-opacity="0" stroke-width="2" fill="#fff" fill-opacity="0"/><path d="M571.94 580H793.9L682.94 443.4z" stroke="#000" stroke-width="2" fill="#fff"/><path d="M695.73 481.82c0 7.07-5.73 12.8-12.8 12.8-7.08 0-12.8-5.73-12.8-12.8s5.72-12.8 12.8-12.8c7.07 0 12.8 5.73 12.8 12.8z" stroke="#000" stroke-width="2" fill="#fff"/><path d="M698.05 545.6l10.63-19.43" stroke="#000" stroke-width="2" fill="none"/><path d="M698.78 546l-2.1.3-.18.06.67-1.23zM709.73 526.33l-.17.32-1.76-.96.32-.6z"/><path d="M734.15 545.85l-7.95-20.33" stroke="#000" stroke-width="2" fill="none"/><path d="M735.28 546l-1.13-.15.93-.36zM727.13 525.16l-1.86.73-.06-.17.93-.7.63-.82z"/><path d="M729.88 515.97c0 7.07-5.73 12.8-12.8 12.8-7.08 0-12.8-5.73-12.8-12.8s5.72-12.8 12.8-12.8c7.07 0 12.8 5.73 12.8 12.8zM712.8 558.66c0 7.07-5.73 12.8-12.8 12.8s-12.8-5.73-12.8-12.8c0-7.08 5.73-12.8 12.8-12.8s12.8 5.72 12.8 12.8zM746.96 558.66c0 7.07-5.73 12.8-12.8 12.8-7.08 0-12.8-5.73-12.8-12.8 0-7.08 5.72-12.8 12.8-12.8 7.07 0 12.8 5.72 12.8 12.8z" stroke="#000" stroke-width="2" fill="#fff"/><path d="M717.08 503.16l-25.95-11" stroke="#000" stroke-width="2" fill="none"/><path d="M720.23 503.4l-.07.17-3.08-.4.4-.93zM691.52 491.23l-.78 1.84-1.04-.44 1.82-1.4z"/><path d="M648.78 503.16l24.8-12.03" stroke="#000" stroke-width="2" fill="none"/><path d="M648.78 503.16l-3.14.4 2.7-1.3zM673.87 490.87l.98.75-.84.4-.86-1.8.17-.08z"/><path d="M629.75 545.6l10.63-19.43" stroke="#000" stroke-width="2" fill="none"/><path d="M630.48 546l-2.1.3-.18.06.67-1.23zM641.43 526.33l-.17.32-1.76-.96.32-.6z"/><path d="M665.85 545.85l-7.95-20.33" stroke="#000" stroke-width="2" fill="none"/><path d="M666.98 546l-1.13-.15.93-.36zM658.83 525.16l-1.86.73-.06-.17.93-.7.63-.82z"/><path d="M661.58 515.97c0 7.07-5.73 12.8-12.8 12.8-7.08 0-12.8-5.73-12.8-12.8s5.72-12.8 12.8-12.8c7.07 0 12.8 5.73 12.8 12.8zM644.5 558.66c0 7.07-5.73 12.8-12.8 12.8s-12.8-5.73-12.8-12.8c0-7.08 5.73-12.8 12.8-12.8s12.8 5.72 12.8 12.8zM678.66 558.66c0 7.07-5.74 12.8-12.8 12.8-7.08 0-12.8-5.73-12.8-12.8 0-7.08 5.72-12.8 12.8-12.8 7.06 0 12.8 5.72 12.8 12.8z" stroke="#000" stroke-width="2" fill="#fff"/><path d="M678.66 469h153.67v25.62H678.66z" stroke="#000" stroke-opacity="0" stroke-width="2" fill="#fff" fill-opacity="0"/><path d="M832.33 580h221.98L943.33 443.4z" stroke="#000" stroke-width="2" fill="#fff"/><path d="M956.13 481.82c0 7.07-5.74 12.8-12.8 12.8-7.08 0-12.8-5.73-12.8-12.8s5.72-12.8 12.8-12.8c7.06 0 12.8 5.73 12.8 12.8z" stroke="#000" stroke-width="2" fill="#fff"/><path d="M958.44 545.6l10.63-19.43" stroke="#000" stroke-width="2" fill="none"/><path d="M959.17 546l-2.1.3-.18.06.67-1.23zM970.12 526.33l-.17.32-1.75-.96.32-.6z"/><path d="M994.55 545.85l-7.96-20.33" stroke="#000" stroke-width="2" fill="none"/><path d="M995.68 546l-1.13-.15.93-.36zM987.53 525.16l-1.87.73-.06-.17.93-.7.62-.82z"/><path d="M990.28 515.97c0 7.07-5.74 12.8-12.8 12.8-7.08 0-12.8-5.73-12.8-12.8s5.72-12.8 12.8-12.8c7.06 0 12.8 5.73 12.8 12.8zM973.2 558.66c0 7.07-5.73 12.8-12.8 12.8-7.08 0-12.8-5.73-12.8-12.8 0-7.08 5.72-12.8 12.8-12.8 7.07 0 12.8 5.72 12.8 12.8zM1007.35 558.66c0 7.07-5.73 12.8-12.8 12.8-7.08 0-12.8-5.73-12.8-12.8 0-7.08 5.72-12.8 12.8-12.8 7.07 0 12.8 5.72 12.8 12.8z" stroke="#000" stroke-width="2" fill="#fff"/><path d="M977.47 503.16l-25.94-11" stroke="#000" stroke-width="2" fill="none"/><path d="M980.62 503.4l-.06.17-3.1-.4.4-.93zM951.92 491.23l-.78 1.84-1.05-.44 1.82-1.4z"/><path d="M909.17 503.16l24.8-12.03" stroke="#000" stroke-width="2" fill="none"/><path d="M909.17 503.16l-3.13.4 2.7-1.3zM934.27 490.87l.97.75-.84.4-.87-1.8.18-.08z"/><path d="M890.14 545.6l10.63-19.43" stroke="#000" stroke-width="2" fill="none"/><path d="M890.87 546l-2.1.3-.18.06.67-1.23zM901.82 526.33l-.17.32-1.75-.96.32-.6z"/><path d="M926.25 545.85l-7.96-20.33" stroke="#000" stroke-width="2" fill="none"/><path d="M927.38 546l-1.13-.15.93-.36zM919.23 525.16l-1.87.73-.06-.17.93-.7.62-.82z"/><path d="M921.98 515.97c0 7.07-5.74 12.8-12.8 12.8-7.08 0-12.8-5.73-12.8-12.8s5.72-12.8 12.8-12.8c7.06 0 12.8 5.73 12.8 12.8zM904.9 558.66c0 7.07-5.73 12.8-12.8 12.8-7.08 0-12.8-5.73-12.8-12.8 0-7.08 5.72-12.8 12.8-12.8 7.07 0 12.8 5.72 12.8 12.8zM939.05 558.66c0 7.07-5.73 12.8-12.8 12.8-7.08 0-12.8-5.73-12.8-12.8 0-7.08 5.72-12.8 12.8-12.8 7.07 0 12.8 5.72 12.8 12.8z" stroke="#000" stroke-width="2" fill="#fff"/><path d="M939.05 469h153.68v25.62H939.05z" stroke="#000" stroke-opacity="0" stroke-width="2" fill="#fff" fill-opacity="0"/><path d="M579.72 103.25h63v29h-63zM642.86 103.25h63v29h-63z" fill="#9cf"/><path d="M579.72 131.9h63v26h-63zM642.86 131.9h63v26h-63zM579.72 157.93h63v28h-63zM642.86 157.93h63v28h-63z" fill="#fff"/><path d="M579.72 132.25h63M642.86 132.25h63M579.72 131.9h63m-63 26h63M642.86 131.9h63m-63 26h63M579.72 157.93h63M642.86 157.93h63M642.72 103.25v29M642.86 103.25v29M642.72 131.9v26M642.86 131.9v26M642.72 157.93v28M642.86 157.93v28M579.72 103.25H706v82.58H579.72z" stroke="#000" fill="none"/><use xlink:href="#c" transform="matrix(1,0,0,1,584.7176702787543,108.24526803011608) translate(19.566666666666666 17.262222222222224)"/><use xlink:href="#d" transform="matrix(1,0,0,1,647.8588351393771,108.24526803011608) translate(-0.6911111111111055 17.262222222222224)"/><use xlink:href="#e" transform="matrix(1,0,0,1,584.7176702787543,162.9280863540309) translate(21.193333333333335 17.262222222222224)"/><path d="M847 267.7h63v29h-63zM910.14 267.7h63v29h-63z" fill="#9cf"/><path d="M847 296.35h63v26h-63zM910.14 296.35h63v26h-63zM847 322.4h63v28h-63zM910.14 322.4h63v28h-63z" fill="#fff"/><path d="M847 296.7h63M910.14 296.7h63M847 296.35h63m-63 26h63M910.14 296.35h63m-63 26h63M847 322.4h63M910.14 322.4h63M910 267.7v29M910.14 267.7v29M910 296.35v26M910.14 296.35v26M910 322.4v28M910.14 322.4v28M847 267.7h126.28v82.6H847z" stroke="#000" fill="none"/><use xlink:href="#c" transform="matrix(1,0,0,1,852,272.7086700686033) translate(19.566666666666666 17.262222222222224)"/><use xlink:href="#d" transform="matrix(1,0,0,1,915.1411648606229,272.7086700686033) translate(-0.6911111111111055 17.262222222222224)"/><use xlink:href="#e" transform="matrix(1,0,0,1,852,327.3914883925181) translate(21.193333333333335 17.262222222222224)"/><path d="M361 271h63v29h-63zM424.14 271h63v29h-63z" fill="#9cf"/><path d="M361 299.64h63v26h-63zM424.14 299.64h63v26h-63zM361 325.68h63v28h-63zM424.14 325.68h63v28h-63z" fill="#fff"/><path d="M361 300h63M424.14 300h63M361 299.64h63m-63 26h63M424.14 299.64h63m-63 26h63M361 325.68h63M424.14 325.68h63M424 271v29M424.14 271v29M424 299.64v26M424.14 299.64v26M424 325.68v28M424.14 325.68v28M361 271h126.28v82.58H361z" stroke="#000" fill="none"/><use xlink:href="#c" transform="matrix(1,0,0,1,366,276) translate(19.566666666666666 17.262222222222224)"/><use xlink:href="#d" transform="matrix(1,0,0,1,429.14116486062284,276) translate(-0.6911111111111055 17.262222222222224)"/><use xlink:href="#e" transform="matrix(1,0,0,1,366,330.68281832391483) translate(21.193333333333335 17.262222222222224)"/><path d="M973 440h63v29h-63zM1036.14 440h63v29h-63z" fill="#9cf"/><path d="M973 468.64h63v26h-63zM1036.14 468.64h63v26h-63zM973 494.68h63v28h-63zM1036.14 494.68h63v28h-63z" fill="#fff"/><path d="M973 469h63M1036.14 469h63M973 468.64h63m-63 26h63M1036.14 468.64h63m-63 26h63M973 494.68h63M1036.14 494.68h63M1036 440v29M1036.14 440v29M1036 468.64v26M1036.14 468.64v26M1036 494.68v28M1036.14 494.68v28M973 440h126.28v82.58H973z" stroke="#000" fill="none"/><use xlink:href="#c" transform="matrix(1,0,0,1,978,445) translate(19.566666666666666 17.262222222222224)"/><use xlink:href="#d" transform="matrix(1,0,0,1,1041.141164860623,445) translate(-0.6911111111111055 17.262222222222224)"/><use xlink:href="#e" transform="matrix(1,0,0,1,978,499.68281832391483) translate(21.193333333333335 17.262222222222224)"/><path d="M713 435.43h63v29h-63zM776.14 435.43h63v29h-63z" fill="#9cf"/><path d="M713 464.08h63v26h-63zM776.14 464.08h63v26h-63zM713 490.12h63v28h-63zM776.14 490.12h63v28h-63z" fill="#fff"/><path d="M713 464.43h63M776.14 464.43h63M713 464.08h63m-63 26h63M776.14 464.08h63m-63 26h63M713 490.12h63M776.14 490.12h63M776 435.43v29M776.14 435.43v29M776 464.08v26M776.14 464.08v26M776 490.12v28M776.14 490.12v28M713 435.43h126.28v82.6H713z" stroke="#000" fill="none"/><use xlink:href="#c" transform="matrix(1,0,0,1,718,440.4331313241393) translate(19.566666666666666 17.262222222222224)"/><use xlink:href="#d" transform="matrix(1,0,0,1,781.1411648606229,440.4331313241393) translate(-0.6911111111111055 17.262222222222224)"/><use xlink:href="#e" transform="matrix(1,0,0,1,718,495.11594964805414) translate(21.193333333333335 17.262222222222224)"/><path d="M478 435h63v29h-63zM541.14 435h63v29h-63z" fill="#9cf"/><path d="M478 463.64h63v26h-63zM541.14 463.64h63v26h-63zM478 489.68h63v28h-63zM541.14 489.68h63v28h-63z" fill="#fff"/><path d="M478 464h63M541.14 464h63M478 463.64h63m-63 26h63M541.14 463.64h63m-63 26h63M478 489.68h63M541.14 489.68h63M541 435v29M541.14 435v29M541 463.64v26M541.14 463.64v26M541 489.68v28M541.14 489.68v28M478 435h126.28v82.58H478z" stroke="#000" fill="none"/><use xlink:href="#c" transform="matrix(1,0,0,1,483,440) translate(19.566666666666666 17.262222222222224)"/><use xlink:href="#d" transform="matrix(1,0,0,1,546.1411648606229,440) translate(-0.6911111111111055 17.262222222222224)"/><use xlink:href="#e" transform="matrix(1,0,0,1,483,494.68281832391483) translate(21.193333333333335 17.262222222222224)"/><path d="M223.97 440.42h63v29h-63zM287.1 440.42h63v29h-63z" fill="#9cf"/><path d="M223.97 469.06h63v26h-63zM287.1 469.06h63v26h-63zM223.97 495.1h63v28h-63zM287.1 495.1h63v28h-63z" fill="#fff"/><path d="M223.97 469.42h63M287.1 469.42h63M223.97 469.06h63m-63 26h63M287.1 469.06h63m-63 26h63M223.97 495.1h63M287.1 495.1h63M286.97 440.42v29M287.1 440.42v29M286.97 469.06v26M287.1 469.06v26M286.97 495.1v28M287.1 495.1v28M223.97 440.42h126.28V523H223.97z" stroke="#000" fill="none"/><use xlink:href="#c" transform="matrix(1,0,0,1,228.96614542232606,445.41734013720657) translate(19.566666666666666 17.262222222222224)"/><use xlink:href="#d" transform="matrix(1,0,0,1,292.1073102829489,445.41734013720657) translate(-0.6911111111111055 17.262222222222224)"/><use xlink:href="#e" transform="matrix(1,0,0,1,228.96614542232606,500.1001584611214) translate(21.193333333333335 17.262222222222224)"/><defs><path d="M480-433c87 3 153 44 143 142C607-123 486-34 346 11 211 55 46 26 46-120c0-40 65-72 88-32 25 42 40 94 112 88 119-10 209-60 257-143 23-39 41-132-32-128-105 6-179 59-280 59-78 0-132-37-122-121 15-131 114-208 221-254 92-40 227-25 274 37 24 31 8 80-30 82-66 3-63-54-134-52-103 3-170 55-212 118-24 36-30 92 21 92 91 0 162-63 271-59" id="f"/><path d="M219-412c99-54 263-26 248 106-6 57-62 81-112 104-62 28-146 48-218 66-5 48 10 94 65 90 94-7 136-72 207-98 34-13 67 0 57 43C435-41 354-7 282 18c-34 11-68 16-102 16C83 33 33-24 43-131c12-131 81-229 176-281zm101 138c24-14 78-40 42-74-39-37-110 1-139 24-31 25-59 61-72 105 67 5 123-28 169-55" id="g"/><path d="M393-459c146-8 146 177 91 275C422-74 333 27 158 16l-15 208c-2 44-18 57-57 65-41 8-39-29-37-69C64 13 75-196 92-403c3-38 51-65 89-41 11 7 15 20 14 40 57-37 116-50 198-55zm-49 317c41-44 97-127 68-203-60-38-166 6-210 35-11 7-16 15-17 21L171-90c-1 20 13 24 33 24 58 0 107-40 140-76" id="h"/><path d="M414 18c44 0 51-25 54-67l20-294c15-129-122-120-228-97-56 12-101 41-148 64-16 8-27 55-6 61 51 14 87-22 132-33 39-9 72-27 121-28 19 0 38 3 37 23l-4 55C217-288 63-254 27-107 26-36 64 31 131 31c99 0 173-43 244-71-7 36-4 58 39 58zm-23-168c-50 42-119 78-192 101-76 24-118-61-60-101 61-42 156-67 248-79" id="i"/><path d="M124 12C75 22 65-15 68-58l23-329c-6-47 11-61 61-61 32 0 27 14 38 41 60-28 141-67 220-43 14 18 32 52 5 72-44 33-165 17-207 62-5 4-12 9-20 13L160-58c-7 43-5 63-36 70" id="j"/><path d="M294-7c-52 29-182 61-175-39l22-313c-29 11-104 9-94-22-2-51 54-54 100-61 1-69 2-169 83-132 25 20 10 79 10 117 49-6 105-16 153-21 33-3 36 52 17 67-34 27-121 29-176 39L215-96c-3 27 40 15 48 4 21-29 77-60 113-24 8 8 12 20 11 35-23 31-56 53-93 74" id="k"/><path d="M388-422c20 0 30 1 42 13 8-77 2-166 23-231 12-35 104-26 87 24-19 183-20 382-41 563 7 55-16 77-72 68-22-3-19-26-24-50-23-2-30 15-55 25-49 19-106 33-188 32C85 5 25-63 46-159c34-151 150-260 342-263zM212-58c128-24 227-88 213-245 5-46-58-33-96-28-94 13-148 71-186 149-27 55 3 136 69 124" id="l"/><g id="a"><use transform="matrix(0.017777777777777778,0,0,0.017777777777777778,0,0)" xlink:href="#f"/><use transform="matrix(0.017777777777777778,0,0,0.017777777777777778,11.217777777777778,0)" xlink:href="#g"/><use transform="matrix(0.017777777777777778,0,0,0.017777777777777778,19.555555555555557,0)" xlink:href="#h"/><use transform="matrix(0.017777777777777778,0,0,0.017777777777777778,28.96,0)" xlink:href="#i"/><use transform="matrix(0.017777777777777778,0,0,0.017777777777777778,38.346666666666664,0)" xlink:href="#j"/><use transform="matrix(0.017777777777777778,0,0,0.017777777777777778,45.06666666666667,0)" xlink:href="#i"/><use transform="matrix(0.017777777777777778,0,0,0.017777777777777778,54.45333333333333,0)" xlink:href="#k"/><use transform="matrix(0.017777777777777778,0,0,0.017777777777777778,62.20444444444444,0)" xlink:href="#g"/><use transform="matrix(0.017777777777777778,0,0,0.017777777777777778,70.54222222222222,0)" xlink:href="#l"/></g><path d="M149-612c-7-60-107-53-103 14 11 199 43 364 60 546-11 66 64 91 94 35 64-118 130-254 184-384 21 121 54 257 87 363 19 30 17 60 58 60 60 0 61-70 85-127 69-163 148-341 195-519 13-49-63-66-82-26-69 142-135 321-195 480-27-136-56-285-85-418 0-33-34-55-61-27-69 128-123 292-190 424-18-137-31-280-47-421" id="m"/><path d="M355-451c110 0 162 80 153 193C498-125 413-39 312 7c-36 15-72 23-111 23C93 29 36-35 44-144c9-131 86-228 184-278 37-19 80-29 127-29zM207-56c121 0 193-88 206-202 6-56-14-100-70-100-129 0-190 98-204 214-6 51 17 88 68 88" id="n"/><path d="M163-57c18-185 16-376 41-559 8-62-68-66-86-22-6 15-9 35-11 55L68-52c-2 37 13 69 47 67 41-2 44-34 48-72" id="o"/><path d="M376-215c43 0 31 49 10 75-39 47-104 89-187 89-48 0-70-41-115-55-47-14-78 39-47 75 50 58 171 80 264 44 95-36 189-96 200-210 7-67-35-108-100-108-91 0-157 59-233 59-38 0-19-38-4-54 46-49 136-72 234-65 42 3 82-10 73-53-25-53-127-37-191-22-109 25-216 75-229 191-7 61 35 94 99 94 85 0 146-60 226-60" id="p"/><g id="b"><use transform="matrix(0.017777777777777778,0,0,0.017777777777777778,0,0)" xlink:href="#m"/><use transform="matrix(0.017777777777777778,0,0,0.017777777777777778,13.546666666666667,0)" xlink:href="#n"/><use transform="matrix(0.017777777777777778,0,0,0.017777777777777778,22.844444444444445,0)" xlink:href="#j"/><use transform="matrix(0.017777777777777778,0,0,0.017777777777777778,29.564444444444444,0)" xlink:href="#o"/><use transform="matrix(0.017777777777777778,0,0,0.017777777777777778,33.51111111111111,0)" xlink:href="#l"/><use transform="matrix(0.017777777777777778,0,0,0.017777777777777778,43.431111111111115,0)" xlink:href="#p"/></g><path d="M123-498c77 32 120-75 87-136-18-21-76-16-94 7-23 17-37 86-10 113 5 6 10 13 17 16zm35 466c14-117 12-250 30-368 9-59-74-59-92-24-11 21-9 48-11 80-6 111-17 224-17 334 0 32 72 34 82 4 3-8 6-16 8-26" id="q"/><g id="c"><use transform="matrix(0.017777777777777778,0,0,0.017777777777777778,0,0)" xlink:href="#q"/><use transform="matrix(0.017777777777777778,0,0,0.017777777777777778,3.9466666666666668,0)" xlink:href="#l"/></g><path d="M387-452c45 0 79 27 79 73 0 109-16 218-23 327 13 58-52 84-87 52-7-7-8-24-7-49l20-277c5-41-49-23-78-16-38 9-78 28-106 53L160-48c13 58-94 91-94 20 0-134 25-233 25-362 0-45 36-68 83-64 18 6 9 33 16 56 60-17 127-54 197-54" id="r"/><g id="d"><use transform="matrix(0.017777777777777778,0,0,0.017777777777777778,0,0)" xlink:href="#h"/><use transform="matrix(0.017777777777777778,0,0,0.017777777777777778,9.404444444444444,0)" xlink:href="#n"/><use transform="matrix(0.017777777777777778,0,0,0.017777777777777778,18.702222222222222,0)" xlink:href="#q"/><use transform="matrix(0.017777777777777778,0,0,0.017777777777777778,22.648888888888887,0)" xlink:href="#r"/><use transform="matrix(0.017777777777777778,0,0,0.017777777777777778,31.57333333333333,0)" xlink:href="#k"/><use transform="matrix(0.017777777777777778,0,0,0.017777777777777778,39.32444444444444,0)" xlink:href="#g"/><use transform="matrix(0.017777777777777778,0,0,0.017777777777777778,47.66222222222221,0)" xlink:href="#j"/></g><path d="M44-8C91 47 175 2 172-64c21-80-74-98-118-50C24-94 17-40 44-8" id="s"/><g id="e"><use transform="matrix(0.017777777777777778,0,0,0.017777777777777778,0,0)" xlink:href="#s"/><use transform="matrix(0.017777777777777778,0,0,0.017777777777777778,3.537777777777778,0)" xlink:href="#s"/><use transform="matrix(0.017777777777777778,0,0,0.017777777777777778,7.075555555555556,0)" xlink:href="#s"/></g></defs></g></svg>