<svg xmlns="http://www.w3.org/2000/svg" xmlns:xlink="http://www.w3.org/1999/xlink" xmlns:lucid="lucid" width="808.49" height="460"><g transform="translate(-48.51030110935014 -3.552713678800501e-15)" lucid:page-tab-id="tL4UaAMb3I9D"><path d="M349.76 20h270v45h-270z" stroke="#000" stroke-opacity="0" stroke-width="2" fill="#fff" fill-opacity="0"/><use xlink:href="#a" transform="matrix(1,0,0,1,354.7603011093503,25.000000000000004) translate(61.602222222222224 24.586666666666666)"/><use xlink:href="#b" transform="matrix(1,0,0,1,354.7603011093503,25.000000000000004) translate(146.72222222222223 24.586666666666666)"/><path d="M343.88 187.42h166.48L427.12 84.97z" stroke="#000" stroke-width="2" fill="#fff"/><path d="M436.72 113.78c0 5.3-4.3 9.6-9.6 9.6s-9.6-4.3-9.6-9.6 4.3-9.6 9.6-9.6 9.6 4.3 9.6 9.6z" stroke="#000" stroke-width="2" fill="#fff"/><path d="M438.37 161l7.64-13.45" stroke="#000" stroke-width="2" fill="none"/><path d="M439.24 161.5l-.25.43-1.63.22-1.1.5 1.23-2.14zM446.86 147l.47.25-.45.8-1.74-1 .67-1.17z"/><path d="M465.54 160.8l-5.57-13.82" stroke="#000" stroke-width="2" fill="none"/><path d="M467.13 162.07l-1.6-.27-.63.1-.3-.73 1.86-.75zM460.9 146.6l-1.86.75-.25-.63 1.54-1.46v-.02z"/><path d="M462.34 139.4c0 5.3-4.3 9.6-9.6 9.6s-9.6-4.3-9.6-9.6 4.3-9.6 9.6-9.6 9.6 4.3 9.6 9.6zM449.53 171.4c0 5.3-4.3 9.6-9.6 9.6s-9.6-4.3-9.6-9.6 4.3-9.6 9.6-9.6 9.6 4.3 9.6 9.6zM475.14 171.4c0 5.3-4.3 9.6-9.6 9.6s-9.6-4.3-9.6-9.6 4.3-9.6 9.6-9.6 9.6 4.3 9.6 9.6z" stroke="#000" stroke-width="2" fill="#fff"/><path d="M452.73 128.78l-19.07-6.76" stroke="#000" stroke-width="2" fill="none"/><path d="M455.9 128.84l-.5 1.4-2.67-.45h-.1l-.23-.08.66-1.88zM434 121.08l-.67 1.88-1.97-.7 1.13-.52.92-.87z"/><path d="M401.5 128.78l18.18-7.6" stroke="#000" stroke-width="2" fill="none"/><path d="M401.9 129.7l-.27.1h-.12l-2.55.33-.1.05-.5-1.17 2.77-1.14zM421.25 121.4l.23.1-1.4.6-.78-1.84.64-.27z"/><path d="M387.14 161l7.65-13.45" stroke="#000" stroke-width="2" fill="none"/><path d="M388 161.5l-.23.43-1.63.22-1.08.5 1.2-2.14zM395.64 147l.47.25-.44.8-1.74-1 .67-1.17z"/><path d="M414.3 160.8l-5.56-13.82" stroke="#000" stroke-width="2" fill="none"/><path d="M415.9 162.07l-1.6-.27-.63.1-.3-.73 1.87-.75zM409.67 146.6l-1.85.75-.26-.63 1.55-1.46.02-.02z"/><path d="M411.1 139.4c0 5.3-4.3 9.6-9.6 9.6s-9.6-4.3-9.6-9.6 4.3-9.6 9.6-9.6 9.6 4.3 9.6 9.6zM398.3 171.4c0 5.3-4.3 9.6-9.6 9.6s-9.6-4.3-9.6-9.6 4.3-9.6 9.6-9.6 9.6 4.3 9.6 9.6zM423.92 171.4c0 5.3-4.3 9.6-9.6 9.6s-9.6-4.3-9.6-9.6 4.3-9.6 9.6-9.6 9.6 4.3 9.6 9.6z" stroke="#000" stroke-width="2" fill="#fff"/><path d="M423.92 104.18h115.25v19.2H423.92z" stroke="#000" stroke-opacity="0" stroke-width="2" fill="#fff" fill-opacity="0"/><path d="M280.46 294.7l32.62 45.24" stroke="#83bbe5" stroke-width="6" fill="none"/><path d="M282.9 292.94l-1.3.92.38-2.2zM321.86 352.1l-12.1-8.85 7.5-5.43z" fill="#83bbe5"/><path d="M327.53 359.98l-22.88-16.75 14.22-10.25zm-12.67-16.72l1.32.97-.5-1.56z" fill="#83bbe5"/><path d="M214.24 305.3l-25.04 39.62" stroke="#83bbe5" stroke-width="6" fill="none"/><path d="M218.37 304.37l-1.6 2.54-4.7-2.97 2.17.37 2.55-.35.52-.24zM192.73 348.02l-11.54 9.58 3.7-14.53z" fill="#83bbe5"/><path d="M197.82 347.7L176 365.8l7-27.47zm-11.45 1.7l1.26-1.05-.85-.54z" fill="#83bbe5"/><path d="M392.9 188.42l-103.17 28.04" stroke="#83bbe5" stroke-width="6" fill="none"/><path d="M396.6 190.53l-2.9.78-1.07-3.88h3.1zM290.23 221.13l-14.98-.73 12.55-8.22z" fill="#83bbe5"/><path d="M294.2 224.33l-28.32-1.38 23.73-15.54zm-9.58-6.48l1.64.08-.27-.97z" fill="#83bbe5"/><path d="M169.4 310.7h166.5l-83.25-102.45z" stroke="#000" stroke-width="2" fill="#fff"/><path d="M262.26 237.06c0 5.3-4.3 9.6-9.6 9.6s-9.6-4.3-9.6-9.6 4.3-9.6 9.6-9.6 9.6 4.3 9.6 9.6z" stroke="#000" stroke-width="2" fill="#fff"/><path d="M263.9 284.3l7.65-13.46" stroke="#000" stroke-width="2" fill="none"/><path d="M264.77 284.78l-.24.43-1.63.23-1.08.5 1.2-2.14zM272.4 270.28l.47.26-.45.8-1.74-1 .67-1.18z"/><path d="M291.07 284.08l-5.56-13.82" stroke="#000" stroke-width="2" fill="none"/><path d="M292.67 285.35l-1.6-.26-.63.07-.3-.72 1.86-.75zM286.43 269.88l-1.85.75-.26-.63 1.55-1.46v-.02z"/><path d="M287.87 262.68c0 5.3-4.3 9.6-9.6 9.6s-9.6-4.3-9.6-9.6 4.3-9.6 9.6-9.6 9.6 4.3 9.6 9.6zM275.06 294.7c0 5.3-4.3 9.6-9.6 9.6s-9.6-4.3-9.6-9.6 4.3-9.6 9.6-9.6 9.6 4.3 9.6 9.6zM300.68 294.7c0 5.3-4.3 9.6-9.6 9.6s-9.6-4.3-9.6-9.6 4.3-9.6 9.6-9.6 9.6 4.3 9.6 9.6z" stroke="#000" stroke-width="2" fill="#fff"/><path d="M278.27 252.06l-19.07-6.76" stroke="#000" stroke-width="2" fill="none"/><path d="M281.43 252.12l-.5 1.4-2.66-.45-.1.02-.24-.1.67-1.88zM259.53 244.36l-.67 1.88-1.96-.7 1.13-.52.93-.87z"/><path d="M227.04 252.06l18.18-7.6" stroke="#000" stroke-width="2" fill="none"/><path d="M227.43 252.98l-.26.1h-.13l-2.56.34-.1.04-.5-1.16 2.78-1.16zM246.8 244.67l.22.12-1.4.58-.78-1.84.63-.27z"/><path d="M212.68 284.3l7.64-13.46" stroke="#000" stroke-width="2" fill="none"/><path d="M213.55 284.78l-.25.43-1.62.23-1.1.5 1.23-2.14zM221.17 270.28l.47.26-.45.8-1.75-1 .67-1.18z"/><path d="M239.85 284.08l-5.57-13.82" stroke="#000" stroke-width="2" fill="none"/><path d="M241.44 285.35l-1.6-.26-.63.07-.28-.72 1.86-.75zM235.2 269.88l-1.85.75-.25-.63 1.55-1.46v-.02z"/><path d="M236.65 262.68c0 5.3-4.3 9.6-9.6 9.6s-9.6-4.3-9.6-9.6 4.3-9.6 9.6-9.6 9.6 4.3 9.6 9.6zM223.84 294.7c0 5.3-4.3 9.6-9.6 9.6s-9.6-4.3-9.6-9.6 4.3-9.6 9.6-9.6 9.6 4.3 9.6 9.6zM249.45 294.7c0 5.3-4.3 9.6-9.6 9.6s-9.6-4.3-9.6-9.6 4.3-9.6 9.6-9.6 9.6 4.3 9.6 9.6z" stroke="#000" stroke-width="2" fill="#fff"/><path d="M249.45 227.46H364.7v19.2H249.46z" stroke="#000" stroke-opacity="0" stroke-width="2" fill="#fff" fill-opacity="0"/><path d="M68.5 440H235l-83.25-102.45z" stroke="#000" stroke-width="2" fill="#fff"/><path d="M161.36 366.36c0 5.3-4.3 9.6-9.6 9.6s-9.6-4.3-9.6-9.6 4.3-9.6 9.6-9.6 9.6 4.3 9.6 9.6z" stroke="#000" stroke-width="2" fill="#fff"/><path d="M163 413.6l7.65-13.46" stroke="#000" stroke-width="2" fill="none"/><path d="M163.87 414.08l-.25.43-1.62.23-1.08.5 1.2-2.14zM171.5 399.58l.47.26-.46.8-1.72-1 .67-1.18z"/><path d="M190.17 413.38l-5.57-13.82" stroke="#000" stroke-width="2" fill="none"/><path d="M191.76 414.65l-1.6-.26-.63.07-.3-.72 1.87-.75zM185.53 399.18l-1.85.75-.26-.63 1.55-1.46v-.02z"/><path d="M186.97 391.98c0 5.3-4.3 9.6-9.6 9.6s-9.6-4.3-9.6-9.6 4.3-9.6 9.6-9.6 9.6 4.3 9.6 9.6zM174.16 424c0 5.3-4.3 9.6-9.6 9.6s-9.6-4.3-9.6-9.6 4.3-9.6 9.6-9.6 9.6 4.3 9.6 9.6zM199.77 424c0 5.3-4.3 9.6-9.6 9.6s-9.6-4.3-9.6-9.6 4.3-9.6 9.6-9.6 9.6 4.3 9.6 9.6z" stroke="#000" stroke-width="2" fill="#fff"/><path d="M177.36 381.36l-19.07-6.76" stroke="#000" stroke-width="2" fill="none"/><path d="M180.53 381.42l-.5 1.4-2.67-.45-.1.02-.23-.1.67-1.88zM158.63 373.66l-.67 1.88-1.96-.7 1.12-.5.93-.9z"/><path d="M126.14 381.36l18.18-7.6" stroke="#000" stroke-width="2" fill="none"/><path d="M126.52 382.3l-.25.1-.13-.03-2.56.35-.1.05-.5-1.17 2.77-1.16zM145.88 373.97l.24.12-1.42.58-.77-1.84.64-.27z"/><path d="M111.77 413.6l7.65-13.46" stroke="#000" stroke-width="2" fill="none"/><path d="M112.64 414.08l-.24.43-1.63.23-1.08.5 1.2-2.14zM120.27 399.58l.47.26-.45.8-1.75-1 .67-1.18z"/><path d="M138.94 413.38l-5.56-13.82" stroke="#000" stroke-width="2" fill="none"/><path d="M140.54 414.65l-1.6-.26-.63.07-.28-.72 1.85-.75zM134.3 399.18l-1.85.75-.26-.63 1.54-1.46.02-.02z"/><path d="M135.74 391.98c0 5.3-4.3 9.6-9.6 9.6s-9.6-4.3-9.6-9.6 4.3-9.6 9.6-9.6 9.6 4.3 9.6 9.6zM122.94 424c0 5.3-4.3 9.6-9.6 9.6s-9.6-4.3-9.6-9.6 4.3-9.6 9.6-9.6 9.6 4.3 9.6 9.6zM148.55 424c0 5.3-4.3 9.6-9.6 9.6s-9.6-4.3-9.6-9.6 4.3-9.6 9.6-9.6 9.6 4.3 9.6 9.6z" stroke="#000" stroke-width="2" fill="#fff"/><path d="M148.55 356.76H263.8v19.2H148.56z" stroke="#000" stroke-opacity="0" stroke-width="2" fill="#fff" fill-opacity="0"/><path d="M263.8 440h166.5l-83.25-102.45z" stroke="#000" stroke-width="2" fill="#fff"/><path d="M356.65 366.36c0 5.3-4.3 9.6-9.6 9.6s-9.6-4.3-9.6-9.6 4.3-9.6 9.6-9.6 9.6 4.3 9.6 9.6z" stroke="#000" stroke-width="2" fill="#fff"/><path d="M358.3 413.6l7.64-13.46" stroke="#000" stroke-width="2" fill="none"/><path d="M359.17 414.08l-.25.43-1.63.23-1.1.5 1.23-2.14zM366.8 399.58l.46.26-.45.8-1.73-1 .67-1.18z"/><path d="M385.47 413.38l-5.57-13.82" stroke="#000" stroke-width="2" fill="none"/><path d="M387.06 414.65l-1.6-.26-.63.07-.3-.72 1.86-.75zM380.83 399.18l-1.86.75-.25-.63 1.54-1.46.02-.02z"/><path d="M382.26 391.98c0 5.3-4.3 9.6-9.6 9.6s-9.6-4.3-9.6-9.6 4.3-9.6 9.6-9.6 9.6 4.3 9.6 9.6zM369.46 424c0 5.3-4.3 9.6-9.6 9.6s-9.6-4.3-9.6-9.6 4.3-9.6 9.6-9.6 9.6 4.3 9.6 9.6zM395.07 424c0 5.3-4.3 9.6-9.6 9.6s-9.6-4.3-9.6-9.6 4.3-9.6 9.6-9.6 9.6 4.3 9.6 9.6z" stroke="#000" stroke-width="2" fill="#fff"/><path d="M372.66 381.36l-19.07-6.76" stroke="#000" stroke-width="2" fill="none"/><path d="M375.82 381.42l-.5 1.4-2.66-.45-.1.02-.23-.1.66-1.88zM353.92 373.66l-.67 1.88-1.96-.7 1.12-.5.93-.9z"/><path d="M321.43 381.36l18.18-7.6" stroke="#000" stroke-width="2" fill="none"/><path d="M321.82 382.3l-.26.1-.13-.03-2.55.35-.1.05-.5-1.17 2.77-1.16zM341.18 373.97l.23.12-1.4.58-.77-1.84.64-.27z"/><path d="M307.07 413.6l7.65-13.46" stroke="#000" stroke-width="2" fill="none"/><path d="M307.94 414.08l-.24.43-1.63.23-1.08.5 1.2-2.14zM315.57 399.58l.47.26-.45.8-1.75-1 .67-1.18z"/><path d="M334.24 413.38l-5.57-13.82" stroke="#000" stroke-width="2" fill="none"/><path d="M335.83 414.65l-1.6-.26-.63.07-.3-.72 1.87-.75zM329.6 399.18l-1.85.75-.26-.63 1.54-1.46v-.02z"/><path d="M331.04 391.98c0 5.3-4.3 9.6-9.6 9.6s-9.6-4.3-9.6-9.6 4.3-9.6 9.6-9.6 9.6 4.3 9.6 9.6zM318.23 424c0 5.3-4.3 9.6-9.6 9.6s-9.6-4.3-9.6-9.6 4.3-9.6 9.6-9.6 9.6 4.3 9.6 9.6zM343.85 424c0 5.3-4.3 9.6-9.6 9.6s-9.6-4.3-9.6-9.6 4.3-9.6 9.6-9.6 9.6 4.3 9.6 9.6z" stroke="#000" stroke-width="2" fill="#fff"/><path d="M343.85 356.76H459.1v19.2H343.85z" stroke="#000" stroke-opacity="0" stroke-width="2" fill="#fff" fill-opacity="0"/><path d="M658.03 294.7l32.62 45.24" stroke="#83bbe5" stroke-width="6" fill="none"/><path d="M660.46 292.94l-1.28.92.37-2.2zM699.43 352.1l-12.1-8.85 7.5-5.43z" fill="#83bbe5"/><path d="M705.1 359.98l-22.88-16.75 14.22-10.25zm-12.67-16.72l1.32.97-.5-1.56z" fill="#83bbe5"/><path d="M591.8 305.3l-25.03 39.62" stroke="#83bbe5" stroke-width="6" fill="none"/><path d="M595.95 304.37l-1.6 2.54-4.72-2.97 2.18.37 2.57-.35.52-.24zM570.3 348.02l-11.54 9.58 3.7-14.53z" fill="#83bbe5"/><path d="M575.4 347.7l-21.83 18.1 7-27.47zm-11.45 1.7l1.26-1.05-.85-.54z" fill="#83bbe5"/><path d="M476.8 188.42l105.3 40.26" stroke="#83bbe5" stroke-width="6" fill="none"/><path d="M475.72 191.22l-2.8-1.07 1.04-2.73h3.22zM596.1 234.04l-14.98-.77 3.3-8.66z" fill="#83bbe5"/><path d="M605.17 237.5l-28.33-1.44 6.26-16.37zm-19.78-7l1.63.07-1.27-1.03z" fill="#83bbe5"/><path d="M546.98 310.7h166.5l-83.25-102.45z" stroke="#000" stroke-width="2" fill="#fff"/><path d="M639.83 237.06c0 5.3-4.3 9.6-9.6 9.6s-9.6-4.3-9.6-9.6 4.3-9.6 9.6-9.6 9.6 4.3 9.6 9.6z" stroke="#000" stroke-width="2" fill="#fff"/><path d="M641.47 284.3l7.65-13.46" stroke="#000" stroke-width="2" fill="none"/><path d="M642.34 284.78l-.24.43-1.63.23-1.08.5 1.2-2.14zM649.97 270.28l.47.26-.45.8-1.75-1 .67-1.18z"/><path d="M668.64 284.08l-5.56-13.82" stroke="#000" stroke-width="2" fill="none"/><path d="M670.24 285.35l-1.6-.26-.63.07-.28-.72 1.85-.75zM664 269.88l-1.85.75-.26-.63 1.54-1.46.02-.02z"/><path d="M665.44 262.68c0 5.3-4.3 9.6-9.6 9.6s-9.6-4.3-9.6-9.6 4.3-9.6 9.6-9.6 9.6 4.3 9.6 9.6zM652.64 294.7c0 5.3-4.3 9.6-9.6 9.6s-9.6-4.3-9.6-9.6 4.3-9.6 9.6-9.6 9.6 4.3 9.6 9.6zM678.25 294.7c0 5.3-4.3 9.6-9.6 9.6s-9.6-4.3-9.6-9.6 4.3-9.6 9.6-9.6 9.6 4.3 9.6 9.6z" stroke="#000" stroke-width="2" fill="#fff"/><path d="M655.84 252.06l-19.07-6.76" stroke="#000" stroke-width="2" fill="none"/><path d="M659 252.12l-.5 1.4-2.66-.45-.1.02-.24-.1.67-1.88zM637.1 244.36l-.67 1.88-1.96-.7 1.13-.52.93-.87z"/><path d="M604.6 252.06l18.2-7.6" stroke="#000" stroke-width="2" fill="none"/><path d="M605 252.98l-.26.1h-.13l-2.55.34-.1.04-.5-1.16 2.78-1.16zM624.36 244.67l.23.12-1.42.58-.77-1.84.65-.27z"/><path d="M590.25 284.3l7.65-13.46" stroke="#000" stroke-width="2" fill="none"/><path d="M591.12 284.78l-.25.43-1.62.23-1.08.5 1.2-2.14zM598.75 270.28l.47.26-.46.8-1.73-1 .67-1.18z"/><path d="M617.42 284.08l-5.57-13.82" stroke="#000" stroke-width="2" fill="none"/><path d="M619 285.35l-1.58-.26-.64.07-.3-.72 1.87-.75zM612.78 269.88l-1.86.75-.25-.63 1.55-1.46v-.02z"/><path d="M614.22 262.68c0 5.3-4.3 9.6-9.6 9.6s-9.6-4.3-9.6-9.6 4.3-9.6 9.6-9.6 9.6 4.3 9.6 9.6zM601.4 294.7c0 5.3-4.3 9.6-9.6 9.6s-9.6-4.3-9.6-9.6 4.3-9.6 9.6-9.6 9.6 4.3 9.6 9.6zM627.02 294.7c0 5.3-4.3 9.6-9.6 9.6s-9.6-4.3-9.6-9.6 4.3-9.6 9.6-9.6 9.6 4.3 9.6 9.6z" stroke="#000" stroke-width="2" fill="#fff"/><path d="M627.02 227.46h115.26v19.2H627.02z" stroke="#000" stroke-opacity="0" stroke-width="2" fill="#fff" fill-opacity="0"/><path d="M446.08 440h166.48l-83.24-102.45z" stroke="#000" stroke-width="2" fill="#fff"/><path d="M538.93 366.36c0 5.3-4.3 9.6-9.6 9.6s-9.6-4.3-9.6-9.6 4.3-9.6 9.6-9.6 9.6 4.3 9.6 9.6z" stroke="#000" stroke-width="2" fill="#fff"/><path d="M540.57 413.6l7.65-13.46" stroke="#000" stroke-width="2" fill="none"/><path d="M541.44 414.08l-.24.43-1.63.23-1.08.5 1.2-2.14zM549.07 399.58l.47.26-.45.8-1.75-1 .67-1.18z"/><path d="M567.74 413.38l-5.57-13.82" stroke="#000" stroke-width="2" fill="none"/><path d="M569.33 414.65l-1.6-.26-.63.07-.3-.72 1.87-.75zM563.1 399.18l-1.85.75-.26-.63 1.54-1.46v-.02z"/><path d="M564.54 391.98c0 5.3-4.3 9.6-9.6 9.6s-9.6-4.3-9.6-9.6 4.3-9.6 9.6-9.6 9.6 4.3 9.6 9.6zM551.73 424c0 5.3-4.3 9.6-9.6 9.6s-9.6-4.3-9.6-9.6 4.3-9.6 9.6-9.6 9.6 4.3 9.6 9.6zM577.35 424c0 5.3-4.3 9.6-9.6 9.6s-9.6-4.3-9.6-9.6 4.3-9.6 9.6-9.6 9.6 4.3 9.6 9.6z" stroke="#000" stroke-width="2" fill="#fff"/><path d="M554.94 381.36l-19.07-6.76" stroke="#000" stroke-width="2" fill="none"/><path d="M558.1 381.42l-.5 1.4-2.66-.45-.1.02-.24-.1.67-1.88zM536.2 373.66l-.67 1.88-1.96-.7 1.13-.5.93-.9z"/><path d="M503.7 381.36l18.2-7.6" stroke="#000" stroke-width="2" fill="none"/><path d="M504.1 382.3l-.26.1-.13-.03-2.55.35-.1.05-.5-1.17 2.77-1.16zM523.46 373.97l.23.12-1.42.58-.78-1.84.64-.27z"/><path d="M489.35 413.6l7.64-13.46" stroke="#000" stroke-width="2" fill="none"/><path d="M490.22 414.08l-.25.43-1.63.23-1.08.5 1.22-2.14zM497.84 399.58l.47.26-.44.8-1.74-1 .67-1.18z"/><path d="M516.52 413.38l-5.57-13.82" stroke="#000" stroke-width="2" fill="none"/><path d="M518.1 414.65l-1.58-.26-.64.07-.3-.72 1.86-.75zM511.88 399.18l-1.86.75-.25-.63 1.55-1.46v-.02z"/><path d="M513.32 391.98c0 5.3-4.3 9.6-9.6 9.6s-9.6-4.3-9.6-9.6 4.3-9.6 9.6-9.6 9.6 4.3 9.6 9.6zM500.5 424c0 5.3-4.3 9.6-9.6 9.6s-9.6-4.3-9.6-9.6 4.3-9.6 9.6-9.6 9.6 4.3 9.6 9.6zM526.12 424c0 5.3-4.3 9.6-9.6 9.6s-9.6-4.3-9.6-9.6 4.3-9.6 9.6-9.6 9.6 4.3 9.6 9.6z" stroke="#000" stroke-width="2" fill="#fff"/><path d="M526.12 356.76h115.26v19.2H526.12z" stroke="#000" stroke-opacity="0" stroke-width="2" fill="#fff" fill-opacity="0"/><path d="M641.38 440h166.48l-83.24-102.45z" stroke="#000" stroke-width="2" fill="#fff"/><path d="M734.22 366.36c0 5.3-4.3 9.6-9.6 9.6s-9.6-4.3-9.6-9.6 4.3-9.6 9.6-9.6 9.6 4.3 9.6 9.6z" stroke="#000" stroke-width="2" fill="#fff"/><path d="M735.87 413.6l7.64-13.46" stroke="#000" stroke-width="2" fill="none"/><path d="M736.74 414.08l-.25.43-1.63.23-1.1.5 1.23-2.14zM744.36 399.58l.47.26-.45.8-1.74-1 .67-1.18z"/><path d="M763.04 413.38l-5.57-13.82" stroke="#000" stroke-width="2" fill="none"/><path d="M764.63 414.65l-1.6-.26-.63.07-.3-.72 1.87-.75zM758.4 399.18l-1.86.75-.25-.63 1.54-1.46v-.02z"/><path d="M759.84 391.98c0 5.3-4.3 9.6-9.6 9.6s-9.6-4.3-9.6-9.6 4.3-9.6 9.6-9.6 9.6 4.3 9.6 9.6zM747.03 424c0 5.3-4.3 9.6-9.6 9.6s-9.6-4.3-9.6-9.6 4.3-9.6 9.6-9.6 9.6 4.3 9.6 9.6zM772.64 424c0 5.3-4.3 9.6-9.6 9.6s-9.6-4.3-9.6-9.6 4.3-9.6 9.6-9.6 9.6 4.3 9.6 9.6z" stroke="#000" stroke-width="2" fill="#fff"/><path d="M750.23 381.36l-19.07-6.76" stroke="#000" stroke-width="2" fill="none"/><path d="M753.4 381.42l-.5 1.4-2.67-.45-.1.02-.23-.1.67-1.88zM731.5 373.66l-.67 1.88-1.97-.7 1.13-.5.92-.9z"/><path d="M699 381.36l18.2-7.6" stroke="#000" stroke-width="2" fill="none"/><path d="M699.4 382.3l-.27.1-.12-.03-2.55.35-.1.05-.5-1.17 2.77-1.16zM718.75 373.97l.23.12-1.4.58-.78-1.84.64-.27z"/><path d="M684.64 413.6l7.65-13.46" stroke="#000" stroke-width="2" fill="none"/><path d="M685.5 414.08l-.23.43-1.63.23-1.08.5 1.2-2.14zM693.14 399.58l.47.26-.44.8-1.74-1 .67-1.18z"/><path d="M711.8 413.38l-5.55-13.82" stroke="#000" stroke-width="2" fill="none"/><path d="M713.4 414.65l-1.6-.26-.62.07-.3-.72 1.86-.75zM707.17 399.18l-1.85.75-.26-.63 1.55-1.46.02-.02z"/><path d="M708.6 391.98c0 5.3-4.3 9.6-9.6 9.6s-9.6-4.3-9.6-9.6 4.3-9.6 9.6-9.6 9.6 4.3 9.6 9.6zM695.8 424c0 5.3-4.3 9.6-9.6 9.6s-9.6-4.3-9.6-9.6 4.3-9.6 9.6-9.6 9.6 4.3 9.6 9.6zM721.42 424c0 5.3-4.3 9.6-9.6 9.6s-9.6-4.3-9.6-9.6 4.3-9.6 9.6-9.6 9.6 4.3 9.6 9.6z" stroke="#000" stroke-width="2" fill="#fff"/><path d="M721.42 356.76h115.25v19.2H721.42z" stroke="#000" stroke-opacity="0" stroke-width="2" fill="#fff" fill-opacity="0"/><path d="M479 85h30v20h-30zM509 85h30v20h-30z" fill="#9cf"/><path d="M479 105h30v20h-30zM509 105h30v20h-30zM479 125h30v20h-30zM509 125h30v20h-30z" fill="#fff"/><path d="M479 105h30M509 105h30M479 105h30m-30 20h30M509 105h30m-30 20h30M479 125h30M509 125h30M509 85v20M509 85v20M509 105v20M509 105v20M509 125v20M509 125v20M479 85h60v60h-60z" stroke="#000" fill="none"/><path d="M678.64 207h30v20h-30zM708.64 207h30v20h-30z" fill="#9cf"/><path d="M678.64 227h30v20h-30zM708.64 227h30v20h-30zM678.64 247h30v20h-30zM708.64 247h30v20h-30z" fill="#fff"/><path d="M678.64 227h30M708.64 227h30M678.64 227h30m-30 20h30M708.64 227h30m-30 20h30M678.64 247h30M708.64 247h30M708.64 207v20M708.64 207v20M708.64 227v20M708.64 227v20M708.64 247v20M708.64 247v20M678.64 207h60v60h-60z" stroke="#000" fill="none"/><path d="M303 207h30v20h-30zM333 207h30v20h-30z" fill="#9cf"/><path d="M303 227h30v20h-30zM333 227h30v20h-30zM303 247h30v20h-30zM333 247h30v20h-30z" fill="#fff"/><path d="M303 227h30M333 227h30M303 227h30m-30 20h30M333 227h30m-30 20h30M303 247h30M333 247h30M333 207v20M333 207v20M333 227v20M333 227v20M333 247v20M333 247v20M303 207h60v60h-60z" stroke="#000" fill="none"/><path d="M777 335.03h30v21h-30zM807 335.03h30v21h-30z" fill="#9cf"/><path d="M777 356.3h30v20h-30zM807 356.3h30v20h-30zM777 376.3h30v21h-30zM807 376.3h30v21h-30z" fill="#fff"/><path d="M777 356.03h30M807 356.03h30M777 356.3h30m-30 20h30M807 356.3h30m-30 20h30M777 376.3h30M807 376.3h30M807 335.03v21M807 335.03v21M807 356.3v20M807 356.3v20M807 376.3v21M807 376.3v21M777 335.03h60V397h-60z" stroke="#000" fill="none"/><path d="M582 337h31v20h-31zM613.5 337h31v20h-31z" fill="#9cf"/><path d="M582 357h31v20h-31zM613.5 357h31v20h-31zM582 377h31v20h-31zM613.5 377h31v20h-31z" fill="#fff"/><path d="M582 357h31M613.5 357h31M582 357h31m-31 20h31M613.5 357h31m-31 20h31M582 377h31M613.5 377h31M613 337v20M613.5 337v20M613 357v20M613.5 357v20M613 377v20M613.5 377v20M582 337h63v60h-63z" stroke="#000" fill="none"/><path d="M392 333h31v20h-31z" fill="#9cf"/><path d="M422.5 333h31v20h-31z" fill="#9cf"/><path d="M392 353h31v20h-31z" fill="#fff"/><path d="M422.5 353h31v20h-31zM392 373h31v20h-31z" fill="#fff"/><path d="M422.5 373h31v20h-31z" fill="#fff"/><path d="M392 353h31M422.5 353h31M392 353h31m-31 20h31M422.5 353h31m-31 20h31M392 373h31M422.5 373h31M423 333v20M422.5 333v20M423 353v20M422.5 353v20M423 373v20M422.5 373v20M392 333h61v60h-61z" stroke="#000" fill="none"/><path d="M199.54 332.54h31v20h-31zM230.77 332.54h31v20h-31z" fill="#9cf"/><path d="M199.54 352.7h31v20h-31zM230.77 352.7h31v20h-31zM199.54 372.85h31v20h-31zM230.77 372.85h31v20h-31z" fill="#fff"/><path d="M199.54 352.54h31M230.77 352.54h31M199.54 352.7h31m-31 20h31M230.77 352.7h31m-31 20h31M199.54 372.85h31M230.77 372.85h31M230.54 332.54v20M230.77 332.54v20M230.54 352.7v20M230.77 352.7v20M230.54 372.85v20M230.77 372.85v20M199.54 332.54H262V393h-62.46z" stroke="#000" fill="none"/><defs><path d="M480-433c87 3 153 44 143 142C607-123 486-34 346 11 211 55 46 26 46-120c0-40 65-72 88-32 25 42 40 94 112 88 119-10 209-60 257-143 23-39 41-132-32-128-105 6-179 59-280 59-78 0-132-37-122-121 15-131 114-208 221-254 92-40 227-25 274 37 24 31 8 80-30 82-66 3-63-54-134-52-103 3-170 55-212 118-24 36-30 92 21 92 91 0 162-63 271-59" id="c"/><path d="M219-412c99-54 263-26 248 106-6 57-62 81-112 104-62 28-146 48-218 66-5 48 10 94 65 90 94-7 136-72 207-98 34-13 67 0 57 43C435-41 354-7 282 18c-34 11-68 16-102 16C83 33 33-24 43-131c12-131 81-229 176-281zm101 138c24-14 78-40 42-74-39-37-110 1-139 24-31 25-59 61-72 105 67 5 123-28 169-55" id="d"/><path d="M393-459c146-8 146 177 91 275C422-74 333 27 158 16l-15 208c-2 44-18 57-57 65-41 8-39-29-37-69C64 13 75-196 92-403c3-38 51-65 89-41 11 7 15 20 14 40 57-37 116-50 198-55zm-49 317c41-44 97-127 68-203-60-38-166 6-210 35-11 7-16 15-17 21L171-90c-1 20 13 24 33 24 58 0 107-40 140-76" id="e"/><path d="M414 18c44 0 51-25 54-67l20-294c15-129-122-120-228-97-56 12-101 41-148 64-16 8-27 55-6 61 51 14 87-22 132-33 39-9 72-27 121-28 19 0 38 3 37 23l-4 55C217-288 63-254 27-107 26-36 64 31 131 31c99 0 173-43 244-71-7 36-4 58 39 58zm-23-168c-50 42-119 78-192 101-76 24-118-61-60-101 61-42 156-67 248-79" id="f"/><path d="M124 12C75 22 65-15 68-58l23-329c-6-47 11-61 61-61 32 0 27 14 38 41 60-28 141-67 220-43 14 18 32 52 5 72-44 33-165 17-207 62-5 4-12 9-20 13L160-58c-7 43-5 63-36 70" id="g"/><path d="M294-7c-52 29-182 61-175-39l22-313c-29 11-104 9-94-22-2-51 54-54 100-61 1-69 2-169 83-132 25 20 10 79 10 117 49-6 105-16 153-21 33-3 36 52 17 67-34 27-121 29-176 39L215-96c-3 27 40 15 48 4 21-29 77-60 113-24 8 8 12 20 11 35-23 31-56 53-93 74" id="h"/><path d="M388-422c20 0 30 1 42 13 8-77 2-166 23-231 12-35 104-26 87 24-19 183-20 382-41 563 7 55-16 77-72 68-22-3-19-26-24-50-23-2-30 15-55 25-49 19-106 33-188 32C85 5 25-63 46-159c34-151 150-260 342-263zM212-58c128-24 227-88 213-245 5-46-58-33-96-28-94 13-148 71-186 149-27 55 3 136 69 124" id="i"/><g id="a"><use transform="matrix(0.017777777777777778,0,0,0.017777777777777778,0,0)" xlink:href="#c"/><use transform="matrix(0.017777777777777778,0,0,0.017777777777777778,11.217777777777778,0)" xlink:href="#d"/><use transform="matrix(0.017777777777777778,0,0,0.017777777777777778,19.555555555555557,0)" xlink:href="#e"/><use transform="matrix(0.017777777777777778,0,0,0.017777777777777778,28.96,0)" xlink:href="#f"/><use transform="matrix(0.017777777777777778,0,0,0.017777777777777778,38.346666666666664,0)" xlink:href="#g"/><use transform="matrix(0.017777777777777778,0,0,0.017777777777777778,45.06666666666667,0)" xlink:href="#f"/><use transform="matrix(0.017777777777777778,0,0,0.017777777777777778,54.45333333333333,0)" xlink:href="#h"/><use transform="matrix(0.017777777777777778,0,0,0.017777777777777778,62.20444444444444,0)" xlink:href="#d"/><use transform="matrix(0.017777777777777778,0,0,0.017777777777777778,70.54222222222222,0)" xlink:href="#i"/></g><path d="M149-612c-7-60-107-53-103 14 11 199 43 364 60 546-11 66 64 91 94 35 64-118 130-254 184-384 21 121 54 257 87 363 19 30 17 60 58 60 60 0 61-70 85-127 69-163 148-341 195-519 13-49-63-66-82-26-69 142-135 321-195 480-27-136-56-285-85-418 0-33-34-55-61-27-69 128-123 292-190 424-18-137-31-280-47-421" id="j"/><path d="M355-451c110 0 162 80 153 193C498-125 413-39 312 7c-36 15-72 23-111 23C93 29 36-35 44-144c9-131 86-228 184-278 37-19 80-29 127-29zM207-56c121 0 193-88 206-202 6-56-14-100-70-100-129 0-190 98-204 214-6 51 17 88 68 88" id="k"/><path d="M163-57c18-185 16-376 41-559 8-62-68-66-86-22-6 15-9 35-11 55L68-52c-2 37 13 69 47 67 41-2 44-34 48-72" id="l"/><path d="M376-215c43 0 31 49 10 75-39 47-104 89-187 89-48 0-70-41-115-55-47-14-78 39-47 75 50 58 171 80 264 44 95-36 189-96 200-210 7-67-35-108-100-108-91 0-157 59-233 59-38 0-19-38-4-54 46-49 136-72 234-65 42 3 82-10 73-53-25-53-127-37-191-22-109 25-216 75-229 191-7 61 35 94 99 94 85 0 146-60 226-60" id="m"/><g id="b"><use transform="matrix(0.017777777777777778,0,0,0.017777777777777778,0,0)" xlink:href="#j"/><use transform="matrix(0.017777777777777778,0,0,0.017777777777777778,13.546666666666667,0)" xlink:href="#k"/><use transform="matrix(0.017777777777777778,0,0,0.017777777777777778,22.844444444444445,0)" xlink:href="#g"/><use transform="matrix(0.017777777777777778,0,0,0.017777777777777778,29.564444444444444,0)" xlink:href="#l"/><use transform="matrix(0.017777777777777778,0,0,0.017777777777777778,33.51111111111111,0)" xlink:href="#i"/><use transform="matrix(0.017777777777777778,0,0,0.017777777777777778,43.431111111111115,0)" xlink:href="#m"/></g></defs></g></svg>