<svg xmlns="http://www.w3.org/2000/svg" xmlns:xlink="http://www.w3.org/1999/xlink" xmlns:lucid="lucid" width="400" height="260"><g transform="translate(-60 -40)" lucid:page-tab-id="AE2UzPk5FVTQ"><path d="M80 60h360v60H80z" stroke="#000" stroke-opacity="0" stroke-width="2" fill="#fff" fill-opacity="0"/><use xlink:href="#a" transform="matrix(1,0,0,1,85,65) translate(90.52888888888889 31.586666666666666)"/><use xlink:href="#b" transform="matrix(1,0,0,1,85,65) translate(134.3511111111111 31.586666666666666)"/><use xlink:href="#c" transform="matrix(1,0,0,1,85,65) translate(169.64 31.586666666666666)"/><use xlink:href="#b" transform="matrix(1,0,0,1,85,65) translate(181.16 31.586666666666666)"/><use xlink:href="#d" transform="matrix(1,0,0,1,85,65) translate(216.4488888888889 31.586666666666666)"/><path d="M282 140c0 11.05-8.95 20-20 20s-20-8.95-20-20 8.95-20 20-20 20 8.95 20 20z" stroke="#000" stroke-width="2" fill="#fff"/><use xlink:href="#e" transform="matrix(1,0,0,1,247,125) translate(12.75 21.668999999999997)"/><path d="M315.78 173.33l-40.97-17.2" stroke="#000" stroke-width="2" fill="none"/><path d="M318.93 173.57l-.06.15-3.1-.4.4-.9zM275.2 155.2l-.77 1.85-1.26-.52 1.73-1.45z"/><path d="M208.67 173.33l38.72-18.8" stroke="#000" stroke-width="2" fill="none"/><path d="M208.67 173.33l-1.44.05-1.62.32 2.63-1.27zM248.37 154.64l.45.32-1 .48-.87-1.8.42-.2z"/><path d="M335.78 193.33c0 11.05-8.96 20-20 20-11.05 0-20-8.95-20-20 0-11.04 8.95-20 20-20 11.04 0 20 8.96 20 20z" stroke="#000" stroke-width="2" fill="#fff"/><use xlink:href="#f" transform="matrix(1,0,0,1,300.7777777777778,178.33333333333331) translate(10.338000000000001 21.668999999999997)"/><path d="M309.1 260c0 11.05-8.94 20-20 20-11.03 0-20-8.95-20-20s8.97-20 20-20c11.06 0 20 8.95 20 20z" stroke="#000" stroke-width="2" fill="#fff"/><use xlink:href="#g" transform="matrix(1,0,0,1,274.1111111111111,245) translate(10.014 21.668999999999997)"/><path d="M286.06 239.63l16.6-30.37" stroke="#000" stroke-width="2" fill="none"/><path d="M286.94 240.1l-.06.1-2.55.5.85-1.55zM303.84 209.2l-.3.54-1.76-.96.43-.77z"/><path d="M342.44 240l-12.4-31.74" stroke="#000" stroke-width="2" fill="none"/><path d="M343.57 240.14l-1.13-.14.94-.36zM330.96 207.9l-1.87.72-.17-.42 1.48-1.24.13-.16z"/><path d="M362.44 260c0 11.05-8.95 20-20 20-11.04 0-20-8.95-20-20s8.96-20 20-20c11.05 0 20 8.95 20 20z" stroke="#000" stroke-width="2" fill="#fff"/><use xlink:href="#h" transform="matrix(1,0,0,1,327.44444444444446,245) translate(10.661999999999999 21.668999999999997)"/><path d="M228.67 193.33c0 11.05-8.96 20-20 20-11.05 0-20-8.95-20-20 0-11.04 8.95-20 20-20 11.04 0 20 8.96 20 20z" stroke="#000" stroke-width="2" fill="#fff"/><use xlink:href="#i" transform="matrix(1,0,0,1,193.66666666666674,178.33333333333331) translate(10.428 22.168999999999997)"/><path d="M202 260c0 11.05-8.95 20-20 20s-20-8.95-20-20 8.95-20 20-20 20 8.95 20 20z" stroke="#000" stroke-width="2" fill="#fff"/><use xlink:href="#j" transform="matrix(1,0,0,1,167,245) translate(10.266 22.168999999999997)"/><path d="M178.95 239.63l16.6-30.37" stroke="#000" stroke-width="2" fill="none"/><path d="M179.83 240.1l-.06.1-2.55.5.85-1.55zM196.73 209.2l-.3.54-1.76-.96.42-.77z"/><path d="M235.33 240l-12.42-31.74" stroke="#000" stroke-width="2" fill="none"/><path d="M236.46 240.14l-1.13-.14.93-.36zM223.85 207.9l-1.87.72-.16-.42 1.48-1.24.12-.16z"/><path d="M255.33 260c0 11.05-8.95 20-20 20-11.04 0-20-8.95-20-20s8.96-20 20-20c11.05 0 20 8.95 20 20z" stroke="#000" stroke-width="2" fill="#fff"/><g><use xlink:href="#k" transform="matrix(1,0,0,1,220.33333333333337,245) translate(9.627 22.168999999999997)"/></g><defs><path d="M593-664c47 1 49 20 45 69-14 188-34 380-50 565-4 45-71 58-96 22-103-142-191-302-297-441L160-50c8 32-11 66-42 66-44 0-56-19-52-70l46-527c8-50 11-68 54-72 61 15 72 87 102 130 87 124 149 242 240 358 13-152 22-306 38-457 3-25 17-43 47-42" id="l"/><path d="M355-451c110 0 162 80 153 193C498-125 413-39 312 7c-36 15-72 23-111 23C93 29 36-35 44-144c9-131 86-228 184-278 37-19 80-29 127-29zM207-56c121 0 193-88 206-202 6-56-14-100-70-100-129 0-190 98-204 214-6 51 17 88 68 88" id="m"/><path d="M388-422c20 0 30 1 42 13 8-77 2-166 23-231 12-35 104-26 87 24-19 183-20 382-41 563 7 55-16 77-72 68-22-3-19-26-24-50-23-2-30 15-55 25-49 19-106 33-188 32C85 5 25-63 46-159c34-151 150-260 342-263zM212-58c128-24 227-88 213-245 5-46-58-33-96-28-94 13-148 71-186 149-27 55 3 136 69 124" id="n"/><path d="M219-412c99-54 263-26 248 106-6 57-62 81-112 104-62 28-146 48-218 66-5 48 10 94 65 90 94-7 136-72 207-98 34-13 67 0 57 43C435-41 354-7 282 18c-34 11-68 16-102 16C83 33 33-24 43-131c12-131 81-229 176-281zm101 138c24-14 78-40 42-74-39-37-110 1-139 24-31 25-59 61-72 105 67 5 123-28 169-55" id="o"/><g id="a"><use transform="matrix(0.017777777777777778,0,0,0.017777777777777778,0,0)" xlink:href="#l"/><use transform="matrix(0.017777777777777778,0,0,0.017777777777777778,11.608888888888888,0)" xlink:href="#m"/><use transform="matrix(0.017777777777777778,0,0,0.017777777777777778,20.906666666666666,0)" xlink:href="#n"/><use transform="matrix(0.017777777777777778,0,0,0.017777777777777778,30.826666666666668,0)" xlink:href="#o"/></g><path d="M216-52c-5 36-4 69 38 67 48-3 51-21 55-66l44-503c67-15 148-20 201-48 21-11 22-54 2-66-33-20-92 2-124 8-114 21-232 39-344 74-26 8-41 55-12 68 50 23 129-13 181-19" id="p"/><path d="M124 12C75 22 65-15 68-58l23-329c-6-47 11-61 61-61 32 0 27 14 38 41 60-28 141-67 220-43 14 18 32 52 5 72-44 33-165 17-207 62-5 4-12 9-20 13L160-58c-7 43-5 63-36 70" id="q"/><g id="b"><use transform="matrix(0.017777777777777778,0,0,0.017777777777777778,0,0)" xlink:href="#p"/><use transform="matrix(0.017777777777777778,0,0,0.017777777777777778,7.235555555555556,0)" xlink:href="#q"/><use transform="matrix(0.017777777777777778,0,0,0.017777777777777778,13.955555555555556,0)" xlink:href="#o"/><use transform="matrix(0.017777777777777778,0,0,0.017777777777777778,22.293333333333333,0)" xlink:href="#o"/></g><path d="M89-323c76 0 172 0 246-3 49-2 80 42 50 78-20 23-67 15-105 15l-134 1c-12 12-40 0-54 1-62 7-73-92-3-92" id="r"/><use transform="matrix(0.017777777777777778,0,0,0.017777777777777778,0,0)" xlink:href="#r" id="c"/><path d="M398 0c154-83 260-239 236-476-12-117-73-199-205-199-167 0-245 128-315 238-60 95-82 285-13 390C154 33 299 53 398 0zm23-587c154-2 141 231 93 343-41 96-112 182-240 187-143 6-145-193-96-305 32-74 83-147 145-191 31-23 64-34 98-34" id="s"/><g id="d"><use transform="matrix(0.017777777777777778,0,0,0.017777777777777778,0,0)" xlink:href="#s"/><use transform="matrix(0.017777777777777778,0,0,0.017777777777777778,11.324444444444444,0)" xlink:href="#q"/><use transform="matrix(0.017777777777777778,0,0,0.017777777777777778,18.044444444444444,0)" xlink:href="#n"/><use transform="matrix(0.017777777777777778,0,0,0.017777777777777778,27.964444444444446,0)" xlink:href="#o"/><use transform="matrix(0.017777777777777778,0,0,0.017777777777777778,36.30222222222223,0)" xlink:href="#q"/></g><path d="M142-643c-47 6-90 33-114 61 0 23 18 37 55 44 3 2 5 5 4 11-7 131-35 252-23 397 3 34 4 68 5 102 6 18 32 27 53 28 26 1 30-10 31-33 3-139-4-287 23-403 12-49 12-109 22-168-5-25-31-35-56-39" id="t"/><use transform="matrix(0.018,0,0,0.018,0,0)" xlink:href="#t" id="e"/><path d="M481-193c0-153-155-219-320-185l-5-6 25-121c61-42 183-39 283-39 21 0 26-17 27-36 7-91-107-51-179-45-70 6-145 21-204 40-45 65-55 182-72 275 4 29 22 51 52 54 51-16 106-39 152-36 73 4 140 32 140 102 0 85-130 109-208 78-44-18-75-57-114-76-25-4-59 40-58 58C23-41 126-2 230-2c139 0 251-59 251-191" id="u"/><use transform="matrix(0.018,0,0,0.018,0,0)" xlink:href="#u" id="f"/><path d="M490-162c77-176-68-339-251-284l-4-8c29-56 71-103 115-138 32-26-11-62-42-62-19 0-43 9-65 32-79 83-173 222-195 352C20-106 117-1 254-1c120 0 198-74 236-161zM283-374c90-6 116 52 122 127-17 88-52 153-148 153-68 0-112-52-110-126 3-92 47-149 136-154" id="v"/><use transform="matrix(0.018,0,0,0.018,0,0)" xlink:href="#v" id="g"/><path d="M400-633c-82 19-215 12-310 12-44 0-69 16-77 45 13 56 100 48 167 50 44 0 79-6 119-9 9 8-1 17-4 26-58 126-113 249-151 385C129-67 118 0 184 0c33 0 60-11 63-41-6-15-6-19-6-35 0-178 132-371 221-499-2-39-22-58-62-58" id="w"/><use transform="matrix(0.018,0,0,0.018,0,0)" xlink:href="#w" id="h"/><path d="M320-133c-46 0-88 4-131 12l1-15c52-55 101-121 152-178 55-62 111-124 117-224 7-114-144-116-231-69-56 30-116 74-158 117-33 34-13 79 21 87 67-16 104-88 167-116 22-10 43-24 70-25 39 6 41 35 17 70C247-329 126-188 10-62-9-41-3 1 30-1c109-29 279-43 409-25 24 3 33-21 33-44 0-65-68-63-152-63" id="x"/><use transform="matrix(0.018,0,0,0.018,0,0)" xlink:href="#x" id="i"/><path d="M66-36C218 39 471-3 467-192c-2-80-42-127-110-143l-1-9c78-49 147-71 147-167 0-97-97-144-199-117-92 25-177 73-236 132-44 44 19 121 61 75 55-59 120-114 218-124 57-6 60 57 23 91-55 51-137 116-227 116-53 0-25 95 6 96 66-26 221-50 221 46 0 99-129 126-230 101-45-11-37-63-90-63-26 0-53 8-51 37 2 42 34 69 67 85" id="y"/><use transform="matrix(0.018,0,0,0.018,0,0)" xlink:href="#y" id="j"/><path d="M48-171c66-20 145-41 225-46 22-1 14 5 22 13-6 74-32 202 53 202 27 0 54-16 57-36-20-51-12-115-6-177 35-15 94-2 138-2 23 0 34-25 34-50 0-59-90-40-153-44l-4-7c16-100 47-197 77-285-15-17-29-43-54-49-149 95-289 237-401 371-37 44-30 90 12 110zm117-129c62-68 109-122 174-177l8 5c-13 52-25 103-34 162-55 11-105 6-144 19" id="z"/><use transform="matrix(0.018,0,0,0.018,0,0)" xlink:href="#z" id="k"/></defs></g></svg>