<svg xmlns="http://www.w3.org/2000/svg" xmlns:xlink="http://www.w3.org/1999/xlink" xmlns:lucid="lucid" width="764" height="460"><g transform="translate(-219 -150)" lucid:page-tab-id="zHn0MuM08--V"><path d="M522 568h340L692 358z" stroke="#000" stroke-width="2" fill="#c1e4f7"/><path d="M713 418c0 11.05-8.95 20-20 20s-20-8.95-20-20 8.95-20 20-20 20 8.95 20 20z" stroke="#000" stroke-width="2" fill="#c1e4f7"/><path d="M746.78 450.33l-40.8-16" stroke="#000" stroke-width="2" fill="none"/><path d="M749.94 450.5l-.46 1.17-2.7-.34h-.17l-.2-.07.74-1.86zM706.33 433.4l-.73 1.86-1.57-.62 1.75-1.46z"/><path d="M639.67 450.33l38.5-17.57" stroke="#000" stroke-width="2" fill="none"/><path d="M640.08 451.24l-.24.1h-.17l-1.44.04-1.27.26-.44-.97 2.73-1.25zM679.37 432.64l.57.4-1.35.63-.85-1.82.7-.32z"/><path d="M766.78 471.33c0 11.05-8.96 20-20 20-11.05 0-20-8.95-20-20 0-11.04 8.95-20 20-20 11.04 0 20 8.96 20 20zM740.1 538c0 11.05-8.94 20-20 20-11.03 0-20-8.95-20-20s8.97-20 20-20c11.06 0 20 8.95 20 20z" stroke="#000" stroke-width="2" fill="#c1e4f7"/><use xlink:href="#a" transform="matrix(1,0,0,1,705.1111111111111,523.0000000000001) translate(6.113333333333333 19.939999999999998)"/><path d="M717.02 517.36l16.48-29.9" stroke="#000" stroke-width="2" fill="none"/><path d="M717.9 517.84l-.23.4-2.56.52 1.05-1.88zM734.8 487.17l-.42.77-1.75-.96.54-1z"/><path d="M773.44 517l-12.24-30.56" stroke="#000" stroke-width="2" fill="none"/><path d="M775 518.2l-1.56-.2-.66.02-.26-.65 1.85-.74zM762.13 486.07l-1.85.74-.27-.66 1.4-1.18.2-.24z"/><path d="M793.44 538c0 11.05-8.95 20-20 20-11.04 0-20-8.95-20-20s8.96-20 20-20c11.05 0 20 8.95 20 20zM659.67 471.33c0 11.05-8.96 20-20 20-11.05 0-20-8.95-20-20 0-11.04 8.95-20 20-20 11.04 0 20 8.96 20 20zM633 538c0 11.05-8.95 20-20 20s-20-8.95-20-20 8.95-20 20-20 20 8.95 20 20z" stroke="#000" stroke-width="2" fill="#c1e4f7"/><path d="M609.9 517.36l16.5-29.9" stroke="#000" stroke-width="2" fill="none"/><path d="M610.8 517.84l-.24.4-2.56.52 1.03-1.88zM627.7 487.17l-.43.77-1.76-.96.56-1z"/><path d="M666.33 517l-12.24-30.56" stroke="#000" stroke-width="2" fill="none"/><path d="M667.9 518.2l-1.57-.2-.66.02-.26-.65 1.86-.74zM655.02 486.07l-1.86.74-.27-.66 1.4-1.18.18-.24z"/><path d="M686.33 538c0 11.05-8.95 20-20 20-11.04 0-20-8.95-20-20s8.96-20 20-20c11.05 0 20 8.95 20 20z" stroke="#000" stroke-width="2" fill="#c1e4f7"/><use xlink:href="#b" transform="matrix(1,0,0,1,651.3333333333333,523.0000000000001) translate(9.573333333333334 20.439999999999998)"/><path d="M239 590h340L409 380z" stroke="#000" stroke-width="2" fill="#c1e4f7"/><path d="M430 440c0 11.05-8.95 20-20 20s-20-8.95-20-20 8.95-20 20-20 20 8.95 20 20z" stroke="#000" stroke-width="2" fill="#c1e4f7"/><path d="M463.78 472.33l-40.8-16" stroke="#000" stroke-width="2" fill="none"/><path d="M466.94 472.5l-.46 1.17-2.7-.34h-.17l-.2-.07.74-1.86zM423.33 455.4l-.73 1.86-1.57-.62 1.75-1.46z"/><path d="M356.67 472.33l38.5-17.57" stroke="#000" stroke-width="2" fill="none"/><path d="M357.08 473.24l-.24.1h-.17l-1.44.04-1.27.26-.44-.97 2.73-1.25zM396.37 454.64l.57.4-1.35.63-.85-1.82.7-.32z"/><path d="M483.78 493.33c0 11.05-8.96 20-20 20-11.05 0-20-8.95-20-20 0-11.04 8.95-20 20-20 11.04 0 20 8.96 20 20zM457.1 560c0 11.05-8.94 20-20 20-11.03 0-20-8.95-20-20s8.97-20 20-20c11.06 0 20 8.95 20 20z" stroke="#000" stroke-width="2" fill="#c1e4f7"/><use xlink:href="#a" transform="matrix(1,0,0,1,422.1111111111111,545.0000000000001) translate(6.113333333333333 19.939999999999998)"/><path d="M434.02 539.36l16.48-29.9" stroke="#000" stroke-width="2" fill="none"/><path d="M434.9 539.84l-.23.4-2.56.52 1.05-1.88zM451.8 509.17l-.42.77-1.75-.96.54-1z"/><path d="M490.44 539l-12.24-30.56" stroke="#000" stroke-width="2" fill="none"/><path d="M492 540.2l-1.56-.2-.66.02-.26-.65 1.85-.74zM479.13 508.07l-1.85.74-.27-.66 1.4-1.18.2-.24z"/><path d="M510.44 560c0 11.05-8.95 20-20 20-11.04 0-20-8.95-20-20s8.96-20 20-20c11.05 0 20 8.95 20 20zM376.67 493.33c0 11.05-8.96 20-20 20-11.05 0-20-8.95-20-20 0-11.04 8.95-20 20-20 11.04 0 20 8.96 20 20zM350 560c0 11.05-8.95 20-20 20s-20-8.95-20-20 8.95-20 20-20 20 8.95 20 20z" stroke="#000" stroke-width="2" fill="#c1e4f7"/><path d="M326.9 539.36l16.5-29.9" stroke="#000" stroke-width="2" fill="none"/><path d="M327.8 539.84l-.24.4-2.56.52 1.03-1.88zM344.7 509.17l-.43.77-1.76-.96.56-1z"/><path d="M383.33 539l-12.24-30.56" stroke="#000" stroke-width="2" fill="none"/><path d="M384.9 540.2l-1.57-.2-.66.02-.26-.65 1.86-.74zM372.02 508.07l-1.86.74-.27-.66 1.4-1.18.18-.24z"/><path d="M403.33 560c0 11.05-8.95 20-20 20-11.04 0-20-8.95-20-20s8.96-20 20-20c11.05 0 20 8.95 20 20z" stroke="#000" stroke-width="2" fill="#c1e4f7"/><use xlink:href="#b" transform="matrix(1,0,0,1,368.33333333333326,545.0000000000001) translate(9.573333333333334 20.439999999999998)"/><path d="M319 380h340L489 170z" stroke="#000" stroke-width="2" fill="#fff"/><path d="M510 230c0 11.05-8.95 20-20 20s-20-8.95-20-20 8.95-20 20-20 20 8.95 20 20z" stroke="#000" stroke-width="2" fill="#fff"/><path d="M543.78 262.33l-40.8-16" stroke="#000" stroke-width="2" fill="none"/><path d="M546.94 262.5l-.46 1.17-2.7-.34h-.17l-.2-.07.74-1.86zM503.33 245.4l-.73 1.86-1.57-.62 1.75-1.46z"/><path d="M436.67 262.33l38.5-17.57" stroke="#000" stroke-width="2" fill="none"/><path d="M437.08 263.24l-.24.1h-.17l-1.44.04-1.27.26-.44-.97 2.73-1.25zM476.37 244.64l.57.4-1.35.63-.85-1.82.7-.32z"/><path d="M563.78 283.33c0 11.05-8.96 20-20 20-11.05 0-20-8.95-20-20 0-11.04 8.95-20 20-20 11.04 0 20 8.96 20 20z" stroke="#000" stroke-width="2" fill="#fff"/><path d="M537.1 350c0 11.6-8.94 21-20 21-11.03 0-20-9.4-20-21s8.97-21 20-21c11.06 0 20 9.4 20 21z" stroke="#000" stroke-width="2" fill="#c1e4f7"/><use xlink:href="#c" transform="matrix(1,0,0,1,502.1111111111111,333.9866666666667) translate(-1.0666666666666664 21.439999999999998)"/><path d="M514 328.24l16.5-28.78" stroke="#000" stroke-width="2" fill="none"/><path d="M514.88 328.74l-.24.42-.27.02-2.42.65 1.2-2.08zM531.82 299.17l-.45.8-1.74-1 .56-.97z"/><path d="M570.44 329l-12.24-30.56" stroke="#000" stroke-width="2" fill="none"/><path d="M572 330.2l-1.56-.2-.66.02-.26-.65 1.85-.74zM559.13 298.07l-1.85.74-.27-.66 1.4-1.18.2-.24z"/><path d="M590.44 350c0 11.05-8.95 20-20 20-11.04 0-20-8.95-20-20s8.96-20 20-20c11.05 0 20 8.95 20 20z" stroke="#000" stroke-width="2" fill="#c1e4f7"/><use xlink:href="#c" transform="matrix(1,0,0,1,555.4444444444443,335) translate(-1.0666666666666664 19.939999999999998)"/><path d="M456.67 283.33c0 11.05-8.96 20-20 20-11.05 0-20-8.95-20-20 0-11.04 8.95-20 20-20 11.04 0 20 8.96 20 20zM430 350c0 11.05-8.95 20-20 20s-20-8.95-20-20 8.95-20 20-20 20 8.95 20 20z" stroke="#000" stroke-width="2" fill="#fff"/><path d="M406.9 329.36l16.5-29.9" stroke="#000" stroke-width="2" fill="none"/><path d="M407.8 329.84l-.24.4-2.56.52 1.03-1.88zM424.7 299.17l-.43.77-1.76-.96.56-1z"/><path d="M463.33 329l-12.24-30.56" stroke="#000" stroke-width="2" fill="none"/><path d="M464.9 330.2l-1.57-.2-.66.02-.26-.65 1.86-.74zM452.02 298.07l-1.86.74-.27-.66 1.4-1.18.18-.24z"/><path d="M483.33 350c0 11.05-8.95 20-20 20-11.04 0-20-8.95-20-20s8.96-20 20-20c11.05 0 20 8.95 20 20z" stroke="#000" stroke-width="2" fill="#fff"/><path d="M418 406h248v54H418z" stroke="#000" stroke-opacity="0" stroke-width="2" fill="#fff" fill-opacity="0"/><use xlink:href="#d" transform="matrix(1,0,0,1,423,411.00000000000017) translate(52.06666666666666 17.91111111111111)"/><use xlink:href="#e" transform="matrix(1,0,0,1,423,411.00000000000017) translate(72.30666666666667 39.26222222222222)"/><use xlink:href="#f" transform="matrix(1,0,0,1,423,411.00000000000017) translate(134.54666666666668 39.26222222222222)"/><path d="M720 380h243v54H720z" stroke="#000" stroke-opacity="0" stroke-width="2" fill="#fff" fill-opacity="0"/><g><use xlink:href="#d" transform="matrix(1,0,0,1,725,385) translate(49.56666666666666 17.91111111111111)"/><use xlink:href="#e" transform="matrix(1,0,0,1,725,385) translate(69.80666666666667 39.26222222222222)"/><use xlink:href="#f" transform="matrix(1,0,0,1,725,385) translate(132.04666666666668 39.26222222222222)"/></g><defs><path d="M163-57c18-185 16-376 41-559 8-62-68-66-86-22-6 15-9 35-11 55L68-52c-2 37 13 69 47 67 41-2 44-34 48-72" id="g"/><path d="M123-498c77 32 120-75 87-136-18-21-76-16-94 7-23 17-37 86-10 113 5 6 10 13 17 16zm35 466c14-117 12-250 30-368 9-59-74-59-92-24-11 21-9 48-11 80-6 111-17 224-17 334 0 32 72 34 82 4 3-8 6-16 8-26" id="h"/><path d="M86 8c44 22 86-11 77-63l13-144c47 62 97 122 144 185 15 20 40 48 74 32 28-13 27-58 3-79L255-251c56-44 111-95 171-135 7-6 11-14 12-25l1 1c-3-27-18-64-49-49-78 38-137 102-204 153 6-107 8-216 16-322 4-51-82-44-93-10C90-447 68-234 68-32c0 17 7 32 18 40" id="i"/><path d="M219-412c99-54 263-26 248 106-6 57-62 81-112 104-62 28-146 48-218 66-5 48 10 94 65 90 94-7 136-72 207-98 34-13 67 0 57 43C435-41 354-7 282 18c-34 11-68 16-102 16C83 33 33-24 43-131c12-131 81-229 176-281zm101 138c24-14 78-40 42-74-39-37-110 1-139 24-31 25-59 61-72 105 67 5 123-28 169-55" id="j"/><g id="a"><use transform="matrix(0.013333333333333334,0,0,0.013333333333333334,0,0)" xlink:href="#g"/><use transform="matrix(0.013333333333333334,0,0,0.013333333333333334,2.9600000000000004,0)" xlink:href="#h"/><use transform="matrix(0.013333333333333334,0,0,0.013333333333333334,5.920000000000001,0)" xlink:href="#i"/><use transform="matrix(0.013333333333333334,0,0,0.013333333333333334,11.520000000000001,0)" xlink:href="#j"/></g><path d="M124 12C75 22 65-15 68-58l23-329c-6-47 11-61 61-61 32 0 27 14 38 41 60-28 141-67 220-43 14 18 32 52 5 72-44 33-165 17-207 62-5 4-12 9-20 13L160-58c-7 43-5 63-36 70" id="k"/><path d="M294-7c-52 29-182 61-175-39l22-313c-29 11-104 9-94-22-2-51 54-54 100-61 1-69 2-169 83-132 25 20 10 79 10 117 49-6 105-16 153-21 33-3 36 52 17 67-34 27-121 29-176 39L215-96c-3 27 40 15 48 4 21-29 77-60 113-24 8 8 12 20 11 35-23 31-56 53-93 74" id="l"/><g id="b"><use transform="matrix(0.013333333333333334,0,0,0.013333333333333334,0,0)" xlink:href="#k"/><use transform="matrix(0.013333333333333334,0,0,0.013333333333333334,5.04,0)" xlink:href="#l"/></g><path d="M149-147c-5-95-11-196-19-285-3-35-68-31-79-6C35-320 71-157 71-32c0 49 64 71 91 30 44-67 87-163 126-243 20 91 48 182 78 260 10 14 51 16 66 1 20-21 30-60 44-88l138-286c25-44 41-72-11-92-60-23-66 45-87 86-38 73-62 161-102 228-21-87-47-190-68-276-12-24-53-18-66 4-46 79-88 178-131 261" id="m"/><g id="c"><use transform="matrix(0.013333333333333334,0,0,0.013333333333333334,0,0)" xlink:href="#l"/><use transform="matrix(0.013333333333333334,0,0,0.013333333333333334,5.8133333333333335,0)" xlink:href="#m"/><use transform="matrix(0.013333333333333334,0,0,0.013333333333333334,13.81333333333333,0)" xlink:href="#j"/><use transform="matrix(0.013333333333333334,0,0,0.013333333333333334,20.066666666666666,0)" xlink:href="#j"/><use transform="matrix(0.013333333333333334,0,0,0.013333333333333334,26.32,0)" xlink:href="#l"/></g><path d="M455-345c35 2 54-50 33-79-18-25-75-25-86 9L120-275c-42 11-44 67-8 92L369-3c40 47 124-22 83-70-8-5-17-7-26-8L214-225" id="n"/><path d="M388-422c20 0 30 1 42 13 8-77 2-166 23-231 12-35 104-26 87 24-19 183-20 382-41 563 7 55-16 77-72 68-22-3-19-26-24-50-23-2-30 15-55 25-49 19-106 33-188 32C85 5 25-63 46-159c34-151 150-260 342-263zM212-58c128-24 227-88 213-245 5-46-58-33-96-28-94 13-148 71-186 149-27 55 3 136 69 124" id="o"/><path d="M167 226c170 27 284-54 294-209 9-139 27-274 27-415 0-39-36-43-82-43-149 0-266 45-328 133-46 65-29 205-6 274 22 37 44 67 102 60 89-11 160-62 208-124-9 122-8 235-132 242-59 3-90-38-147-40-41-1-49 55-27 80 20 23 54 36 91 42zm-17-476c29-67 104-91 188-104 22-4 39-3 54 0 5 37 14 87-11 114-37 62-97 121-156 162-98 68-103-107-75-172" id="p"/><path d="M199-417c-7-30-55-36-77-14-30 17-34 81 11 86l222 119L117-83C74-89 63-38 81-8c15 24 68 34 82 3l296-185c29-12 37-64 2-83" id="q"/><path d="M102-695c-82 6-35 138-52 215-12 54 46 98 74 49 27-47 16-126 26-188-2-39-6-79-48-76" id="r"/><path d="M376-215c43 0 31 49 10 75-39 47-104 89-187 89-48 0-70-41-115-55-47-14-78 39-47 75 50 58 171 80 264 44 95-36 189-96 200-210 7-67-35-108-100-108-91 0-157 59-233 59-38 0-19-38-4-54 46-49 136-72 234-65 42 3 82-10 73-53-25-53-127-37-191-22-109 25-216 75-229 191-7 61 35 94 99 94 85 0 146-60 226-60" id="s"/><g id="d"><use transform="matrix(0.017777777777777778,0,0,0.017777777777777778,0,0)" xlink:href="#n"/><use transform="matrix(0.017777777777777778,0,0,0.017777777777777778,9.351111111111111,0)" xlink:href="#l"/><use transform="matrix(0.017777777777777778,0,0,0.017777777777777778,17.102222222222224,0)" xlink:href="#m"/><use transform="matrix(0.017777777777777778,0,0,0.017777777777777778,27.76888888888889,0)" xlink:href="#h"/><use transform="matrix(0.017777777777777778,0,0,0.017777777777777778,31.715555555555557,0)" xlink:href="#l"/><use transform="matrix(0.017777777777777778,0,0,0.017777777777777778,39.46666666666667,0)" xlink:href="#l"/><use transform="matrix(0.017777777777777778,0,0,0.017777777777777778,47.21777777777778,0)" xlink:href="#j"/><use transform="matrix(0.017777777777777778,0,0,0.017777777777777778,55.55555555555556,0)" xlink:href="#k"/><use transform="matrix(0.017777777777777778,0,0,0.017777777777777778,62.275555555555556,0)" xlink:href="#m"/><use transform="matrix(0.017777777777777778,0,0,0.017777777777777778,72.94222222222223,0)" xlink:href="#h"/><use transform="matrix(0.017777777777777778,0,0,0.017777777777777778,76.8888888888889,0)" xlink:href="#o"/><use transform="matrix(0.017777777777777778,0,0,0.017777777777777778,86.8088888888889,0)" xlink:href="#p"/><use transform="matrix(0.017777777777777778,0,0,0.017777777777777778,96.14222222222224,0)" xlink:href="#j"/><use transform="matrix(0.017777777777777778,0,0,0.017777777777777778,104.48,0)" xlink:href="#l"/><use transform="matrix(0.017777777777777778,0,0,0.017777777777777778,112.2311111111111,0)" xlink:href="#q"/><use transform="matrix(0.017777777777777778,0,0,0.017777777777777778,121.58222222222223,0)" xlink:href="#r"/><use transform="matrix(0.017777777777777778,0,0,0.017777777777777778,124.62222222222223,0)" xlink:href="#s"/></g><path d="M315-328c46-26 68 3 62 60L355-49c-9 52 42 87 77 55 9-8 16-26 18-53l20-275c5-79-5-118-74-118-90 0-156 50-216 91 5-90 16-180 17-273 12-48-45-53-69-32-24 22-24 70-26 114L67-46C55 6 109 37 144 2c12-11 16-27 18-48l13-182c43-35 90-73 140-100" id="t"/><path d="M414 18c44 0 51-25 54-67l20-294c15-129-122-120-228-97-56 12-101 41-148 64-16 8-27 55-6 61 51 14 87-22 132-33 39-9 72-27 121-28 19 0 38 3 37 23l-4 55C217-288 63-254 27-107 26-36 64 31 131 31c99 0 173-43 244-71-7 36-4 58 39 58zm-23-168c-50 42-119 78-192 101-76 24-118-61-60-101 61-42 156-67 248-79" id="u"/><path d="M355-451c110 0 162 80 153 193C498-125 413-39 312 7c-36 15-72 23-111 23C93 29 36-35 44-144c9-131 86-228 184-278 37-19 80-29 127-29zM207-56c121 0 193-88 206-202 6-56-14-100-70-100-129 0-190 98-204 214-6 51 17 88 68 88" id="v"/><g id="e"><use transform="matrix(0.017777777777777778,0,0,0.017777777777777778,0,0)" xlink:href="#s"/><use transform="matrix(0.017777777777777778,0,0,0.017777777777777778,9.244444444444444,0)" xlink:href="#t"/><use transform="matrix(0.017777777777777778,0,0,0.017777777777777778,18.31111111111111,0)" xlink:href="#u"/><use transform="matrix(0.017777777777777778,0,0,0.017777777777777778,27.697777777777777,0)" xlink:href="#o"/><use transform="matrix(0.017777777777777778,0,0,0.017777777777777778,37.617777777777775,0)" xlink:href="#v"/><use transform="matrix(0.017777777777777778,0,0,0.017777777777777778,46.91555555555556,0)" xlink:href="#m"/></g><g id="f"><use transform="matrix(0.017777777777777778,0,0,0.017777777777777778,0,0)" xlink:href="#l"/><use transform="matrix(0.017777777777777778,0,0,0.017777777777777778,7.751111111111111,0)" xlink:href="#k"/><use transform="matrix(0.017777777777777778,0,0,0.017777777777777778,14.471111111111112,0)" xlink:href="#j"/><use transform="matrix(0.017777777777777778,0,0,0.017777777777777778,22.808888888888887,0)" xlink:href="#j"/></g></defs></g></svg>