<svg xmlns="http://www.w3.org/2000/svg" xmlns:xlink="http://www.w3.org/1999/xlink" xmlns:lucid="lucid" width="726" height="505"><g transform="translate(-240 -160)" lucid:page-tab-id="Sq4UEnUkszI."><path d="M358 180h470v63.38H358z" stroke="#000" stroke-opacity="0" stroke-width="2" fill="#fff" fill-opacity="0"/><use xlink:href="#a" transform="matrix(1,0,0,1,363,185) translate(83.30666666666667 33.58666666666667)"/><use xlink:href="#b" transform="matrix(1,0,0,1,363,185) translate(138.08 33.58666666666667)"/><use xlink:href="#c" transform="matrix(1,0,0,1,363,185) translate(192.53333333333336 33.58666666666667)"/><use xlink:href="#d" transform="matrix(1,0,0,1,363,185) translate(246.27555555555557 33.58666666666667)"/><use xlink:href="#e" transform="matrix(1,0,0,1,363,185) translate(308.4266666666667 33.58666666666667)"/><path d="M531 645h340L701 435z" stroke="#000" stroke-width="2" fill="#3aa6dd"/><path d="M722 495c0 11.05-8.95 20-20 20s-20-8.95-20-20 8.95-20 20-20 20 8.95 20 20z" stroke="#000" stroke-width="2" fill="#3aa6dd"/><path d="M755.78 528.33l-40.97-17.2" stroke="#000" stroke-width="2" fill="none"/><path d="M758.93 528.57l-.06.15-3.1-.4.4-.9zM715.2 510.2l-.77 1.85-1.26-.52 1.73-1.45z"/><path d="M648.67 528.33l38.72-18.8" stroke="#000" stroke-width="2" fill="none"/><path d="M648.67 528.33l-1.44.05-1.62.32 2.63-1.27zM688.37 509.64l.45.32-1 .48-.87-1.8.42-.2z"/><path d="M775.78 548.33c0 11.05-8.96 20-20 20-11.05 0-20-8.95-20-20 0-11.04 8.95-20 20-20 11.04 0 20 8.96 20 20zM749.1 615c0 11.05-8.94 20-20 20-11.03 0-20-8.95-20-20s8.97-20 20-20c11.06 0 20 8.95 20 20z" stroke="#000" stroke-width="2" fill="#3aa6dd"/><use xlink:href="#f" transform="matrix(1,0,0,1,714.1111111111111,600) translate(-2.039999999999999 19.939999999999998)"/><path d="M726.06 594.63l16.6-30.37" stroke="#000" stroke-width="2" fill="none"/><path d="M726.94 595.1l-.06.1-2.55.5.85-1.55zM743.84 564.2l-.3.54-1.76-.96.43-.77z"/><path d="M782.44 595l-12.4-31.74" stroke="#000" stroke-width="2" fill="none"/><path d="M783.57 595.14l-1.13-.14.94-.36zM770.96 562.9l-1.87.72-.17-.42 1.48-1.24.13-.16z"/><path d="M802.44 615c0 11.05-8.95 20-20 20-11.04 0-20-8.95-20-20s8.96-20 20-20c11.05 0 20 8.95 20 20z" stroke="#000" stroke-width="2" fill="#3aa6dd"/><use xlink:href="#g" transform="matrix(1,0,0,1,767.4444444444443,600) translate(2.866666666666667 19.939999999999998)"/><path d="M668.67 548.33c0 11.05-8.96 20-20 20-11.05 0-20-8.95-20-20 0-11.04 8.95-20 20-20 11.04 0 20 8.96 20 20zM642 615c0 11.05-8.95 20-20 20s-20-8.95-20-20 8.95-20 20-20 20 8.95 20 20z" stroke="#000" stroke-width="2" fill="#3aa6dd"/><use xlink:href="#h" transform="matrix(1,0,0,1,607,600) translate(3.0933333333333337 20.439999999999998)"/><path d="M618.95 594.63l16.6-30.37" stroke="#000" stroke-width="2" fill="none"/><path d="M619.83 595.1l-.06.1-2.55.5.85-1.55zM636.73 564.2l-.3.54-1.76-.96.42-.77z"/><path d="M675.33 595l-12.42-31.74" stroke="#000" stroke-width="2" fill="none"/><path d="M676.46 595.14l-1.13-.14.93-.36zM663.85 562.9l-1.87.72-.16-.42 1.48-1.24.12-.16z"/><path d="M695.33 615c0 11.05-8.95 20-20 20-11.04 0-20-8.95-20-20s8.96-20 20-20c11.05 0 20 8.95 20 20z" stroke="#000" stroke-width="2" fill="#3aa6dd"/><use xlink:href="#i" transform="matrix(1,0,0,1,660.3333333333333,600) translate(3.3999999999999986 20.439999999999998)"/><path d="M405 570h340L575 360z" stroke="#000" stroke-width="2" fill="#c1e4f7"/><path d="M596 420c0 11.05-8.95 20-20 20s-20-8.95-20-20 8.95-20 20-20 20 8.95 20 20z" stroke="#000" stroke-width="2" fill="#c1e4f7"/><path d="M629.78 453.33l-40.97-17.2" stroke="#000" stroke-width="2" fill="none"/><path d="M632.93 453.57l-.06.15-3.1-.4.4-.9zM589.2 435.2l-.77 1.85-1.26-.52 1.73-1.45z"/><path d="M522.67 453.33l38.72-18.8" stroke="#000" stroke-width="2" fill="none"/><path d="M522.67 453.33l-1.44.05-1.62.32 2.63-1.27zM562.37 434.64l.45.32-1 .48-.87-1.8.42-.2z"/><path d="M649.78 473.33c0 11.05-8.96 20-20 20-11.05 0-20-8.95-20-20 0-11.04 8.95-20 20-20 11.04 0 20 8.96 20 20z" stroke="#000" stroke-width="2" fill="#c1e4f7"/><path d="M623.1 540c0 11.05-8.94 20-20 20-11.03 0-20-8.95-20-20s8.97-20 20-20c11.06 0 20 8.95 20 20z" stroke="#000" stroke-width="2" fill="#3aa6dd"/><use xlink:href="#j" transform="matrix(1,0,0,1,588.1111111111111,525.0000000000001) translate(-5.300000000000001 19.939999999999998)"/><path d="M600.06 519.63l16.6-30.37" stroke="#000" stroke-width="2" fill="none"/><path d="M600.94 520.1l-.06.1-2.55.5.85-1.55zM617.84 489.2l-.3.54-1.76-.96.43-.77z"/><path d="M656.44 520l-12.4-31.74" stroke="#000" stroke-width="2" fill="none"/><path d="M657.57 520.14l-1.13-.14.94-.36zM644.96 487.9l-1.87.72-.17-.42 1.48-1.24.13-.16z"/><path d="M676.44 540c0 11.05-8.95 20-20 20-11.04 0-20-8.95-20-20s8.96-20 20-20c11.05 0 20 8.95 20 20zM542.67 473.33c0 11.05-8.96 20-20 20-11.05 0-20-8.95-20-20 0-11.04 8.95-20 20-20 11.04 0 20 8.96 20 20zM516 540c0 11.05-8.95 20-20 20s-20-8.95-20-20 8.95-20 20-20 20 8.95 20 20z" stroke="#000" stroke-width="2" fill="#c1e4f7"/><path d="M492.95 519.63l16.6-30.37" stroke="#000" stroke-width="2" fill="none"/><path d="M493.83 520.1l-.06.1-2.55.5.85-1.55zM510.73 489.2l-.3.54-1.76-.96.42-.77z"/><path d="M549.33 520l-12.42-31.74" stroke="#000" stroke-width="2" fill="none"/><path d="M550.46 520.14l-1.13-.14.93-.36zM537.85 487.9l-1.87.72-.16-.42 1.48-1.24.12-.16z"/><path d="M569.33 540c0 11.05-8.95 20-20 20-11.04 0-20-8.95-20-20s8.96-20 20-20c11.05 0 20 8.95 20 20z" stroke="#000" stroke-width="2" fill="#c1e4f7"/><use xlink:href="#k" transform="matrix(1,0,0,1,534.3333333333333,525.0000000000001) translate(-0.8466666666666693 20.439999999999998)"/><path d="M260 461h340L430 251z" stroke="#000" stroke-width="2" fill="#fff"/><path d="M451 311c0 11.05-8.95 20-20 20s-20-8.95-20-20 8.95-20 20-20 20 8.95 20 20z" stroke="#000" stroke-width="2" fill="#fff"/><path d="M484.78 344.33l-40.97-17.2" stroke="#000" stroke-width="2" fill="none"/><path d="M487.93 344.57l-.06.15-3.1-.4.4-.9zM444.2 326.2l-.77 1.85-1.26-.52 1.73-1.45z"/><path d="M377.67 344.33l38.72-18.8" stroke="#000" stroke-width="2" fill="none"/><path d="M377.67 344.33l-1.44.05-1.62.32 2.63-1.27zM417.37 325.64l.45.32-1 .48-.87-1.8.42-.2z"/><path d="M504.78 364.33c0 11.05-8.96 20-20 20-11.05 0-20-8.95-20-20 0-11.04 8.95-20 20-20 11.04 0 20 8.96 20 20z" stroke="#000" stroke-width="2" fill="#fff"/><path d="M478.1 431c0 11.05-8.94 20-20 20-11.03 0-20-8.95-20-20s8.97-20 20-20c11.06 0 20 8.95 20 20z" stroke="#000" stroke-width="2" fill="#c1e4f7"/><use xlink:href="#l" transform="matrix(1,0,0,1,443.1111111111111,416.0000000000001) translate(0.45333333333333314 19.939999999999998)"/><path d="M455.06 410.63l16.6-30.37" stroke="#000" stroke-width="2" fill="none"/><path d="M455.94 411.1l-.06.1-2.55.5.85-1.55zM472.84 380.2l-.3.54-1.76-.96.43-.77z"/><path d="M511.44 411l-12.4-31.74" stroke="#000" stroke-width="2" fill="none"/><path d="M512.57 411.14l-1.13-.14.94-.36zM499.96 378.9l-1.87.72-.17-.42 1.48-1.24.13-.16z"/><path d="M531.44 431c0 11.05-8.95 20-20 20-11.04 0-20-8.95-20-20s8.96-20 20-20c11.05 0 20 8.95 20 20zM397.67 364.33c0 11.05-8.96 20-20 20-11.05 0-20-8.95-20-20 0-11.04 8.95-20 20-20 11.04 0 20 8.96 20 20zM371 431c0 11.05-8.95 20-20 20s-20-8.95-20-20 8.95-20 20-20 20 8.95 20 20z" stroke="#000" stroke-width="2" fill="#fff"/><path d="M347.95 410.63l16.6-30.37" stroke="#000" stroke-width="2" fill="none"/><path d="M348.83 411.1l-.06.1-2.55.5.85-1.55zM365.73 380.2l-.3.54-1.76-.96.42-.77z"/><path d="M404.33 411l-12.42-31.74" stroke="#000" stroke-width="2" fill="none"/><path d="M405.46 411.14l-1.13-.14.93-.36zM392.85 378.9l-1.87.72-.16-.42 1.48-1.24.12-.16z"/><path d="M424.33 431c0 11.05-8.95 20-20 20-11.04 0-20-8.95-20-20s8.96-20 20-20c11.05 0 20 8.95 20 20z" stroke="#000" stroke-width="2" fill="#fff"/><path d="M597 360h210v56.62H597z" stroke="#000" stroke-opacity="0" stroke-width="2" fill="#fff" fill-opacity="0"/><g><use xlink:href="#m" transform="matrix(1,0,0,1,602,365) translate(16.08888888888889 30.086666666666666)"/><use xlink:href="#n" transform="matrix(1,0,0,1,602,365) translate(90.52444444444446 30.086666666666666)"/><use xlink:href="#o" transform="matrix(1,0,0,1,602,365) translate(152.76444444444445 30.086666666666666)"/></g><path d="M736 435h210v56.62H736z" stroke="#000" stroke-opacity="0" stroke-width="2" fill="#fff" fill-opacity="0"/><g><use xlink:href="#p" transform="matrix(1,0,0,1,741,440) translate(17.768888888888895 30.086666666666666)"/><use xlink:href="#n" transform="matrix(1,0,0,1,741,440) translate(88.84444444444445 30.086666666666666)"/><use xlink:href="#o" transform="matrix(1,0,0,1,741,440) translate(151.08444444444444 30.086666666666666)"/></g><defs><path d="M315-328c46-26 68 3 62 60L355-49c-9 52 42 87 77 55 9-8 16-26 18-53l20-275c5-79-5-118-74-118-90 0-156 50-216 91 5-90 16-180 17-273 12-48-45-53-69-32-24 22-24 70-26 114L67-46C55 6 109 37 144 2c12-11 16-27 18-48l13-182c43-35 90-73 140-100" id="q"/><path d="M123-498c77 32 120-75 87-136-18-21-76-16-94 7-23 17-37 86-10 113 5 6 10 13 17 16zm35 466c14-117 12-250 30-368 9-59-74-59-92-24-11 21-9 48-11 80-6 111-17 224-17 334 0 32 72 34 82 4 3-8 6-16 8-26" id="r"/><path d="M388-422c20 0 30 1 42 13 8-77 2-166 23-231 12-35 104-26 87 24-19 183-20 382-41 563 7 55-16 77-72 68-22-3-19-26-24-50-23-2-30 15-55 25-49 19-106 33-188 32C85 5 25-63 46-159c34-151 150-260 342-263zM212-58c128-24 227-88 213-245 5-46-58-33-96-28-94 13-148 71-186 149-27 55 3 136 69 124" id="s"/><path d="M219-412c99-54 263-26 248 106-6 57-62 81-112 104-62 28-146 48-218 66-5 48 10 94 65 90 94-7 136-72 207-98 34-13 67 0 57 43C435-41 354-7 282 18c-34 11-68 16-102 16C83 33 33-24 43-131c12-131 81-229 176-281zm101 138c24-14 78-40 42-74-39-37-110 1-139 24-31 25-59 61-72 105 67 5 123-28 169-55" id="t"/><path d="M387-452c45 0 79 27 79 73 0 109-16 218-23 327 13 58-52 84-87 52-7-7-8-24-7-49l20-277c5-41-49-23-78-16-38 9-78 28-106 53L160-48c13 58-94 91-94 20 0-134 25-233 25-362 0-45 36-68 83-64 18 6 9 33 16 56 60-17 127-54 197-54" id="u"/><g id="a"><use transform="matrix(0.017777777777777778,0,0,0.017777777777777778,0,0)" xlink:href="#q"/><use transform="matrix(0.017777777777777778,0,0,0.017777777777777778,9.066666666666666,0)" xlink:href="#r"/><use transform="matrix(0.017777777777777778,0,0,0.017777777777777778,13.013333333333334,0)" xlink:href="#s"/><use transform="matrix(0.017777777777777778,0,0,0.017777777777777778,22.933333333333334,0)" xlink:href="#s"/><use transform="matrix(0.017777777777777778,0,0,0.017777777777777778,32.85333333333333,0)" xlink:href="#t"/><use transform="matrix(0.017777777777777778,0,0,0.017777777777777778,41.19111111111111,0)" xlink:href="#u"/></g><path d="M149-147c-5-95-11-196-19-285-3-35-68-31-79-6C35-320 71-157 71-32c0 49 64 71 91 30 44-67 87-163 126-243 20 91 48 182 78 260 10 14 51 16 66 1 20-21 30-60 44-88l138-286c25-44 41-72-11-92-60-23-66 45-87 86-38 73-62 161-102 228-21-87-47-190-68-276-12-24-53-18-66 4-46 79-88 178-131 261" id="v"/><path d="M355-451c110 0 162 80 153 193C498-125 413-39 312 7c-36 15-72 23-111 23C93 29 36-35 44-144c9-131 86-228 184-278 37-19 80-29 127-29zM207-56c121 0 193-88 206-202 6-56-14-100-70-100-129 0-190 98-204 214-6 51 17 88 68 88" id="w"/><path d="M124 12C75 22 65-15 68-58l23-329c-6-47 11-61 61-61 32 0 27 14 38 41 60-28 141-67 220-43 14 18 32 52 5 72-44 33-165 17-207 62-5 4-12 9-20 13L160-58c-7 43-5 63-36 70" id="x"/><path d="M163-57c18-185 16-376 41-559 8-62-68-66-86-22-6 15-9 35-11 55L68-52c-2 37 13 69 47 67 41-2 44-34 48-72" id="y"/><path d="M376-215c43 0 31 49 10 75-39 47-104 89-187 89-48 0-70-41-115-55-47-14-78 39-47 75 50 58 171 80 264 44 95-36 189-96 200-210 7-67-35-108-100-108-91 0-157 59-233 59-38 0-19-38-4-54 46-49 136-72 234-65 42 3 82-10 73-53-25-53-127-37-191-22-109 25-216 75-229 191-7 61 35 94 99 94 85 0 146-60 226-60" id="z"/><g id="b"><use transform="matrix(0.017777777777777778,0,0,0.017777777777777778,0,0)" xlink:href="#v"/><use transform="matrix(0.017777777777777778,0,0,0.017777777777777778,10.666666666666666,0)" xlink:href="#w"/><use transform="matrix(0.017777777777777778,0,0,0.017777777777777778,19.964444444444446,0)" xlink:href="#x"/><use transform="matrix(0.017777777777777778,0,0,0.017777777777777778,26.684444444444445,0)" xlink:href="#y"/><use transform="matrix(0.017777777777777778,0,0,0.017777777777777778,30.63111111111111,0)" xlink:href="#s"/><use transform="matrix(0.017777777777777778,0,0,0.017777777777777778,40.55111111111111,0)" xlink:href="#z"/></g><path d="M207-595c2-41-4-67-47-67-50 0-56 43-59 90L65-61c0 47-2 92 42 92 154 0 250-104 323-199 42-54 89-132 66-218-10-38-55-51-107-51-85 2-150 26-204 68zm161 245c19-1 42 1 38 22-18 96-91 166-158 220-28 22-56 37-85 46l13-188c38-57 102-94 192-100" id="A"/><g id="c"><use transform="matrix(0.017777777777777778,0,0,0.017777777777777778,0,0)" xlink:href="#A"/><use transform="matrix(0.017777777777777778,0,0,0.017777777777777778,8.88888888888889,0)" xlink:href="#t"/><use transform="matrix(0.017777777777777778,0,0,0.017777777777777778,17.226666666666667,0)" xlink:href="#q"/><use transform="matrix(0.017777777777777778,0,0,0.017777777777777778,26.293333333333333,0)" xlink:href="#r"/><use transform="matrix(0.017777777777777778,0,0,0.017777777777777778,30.24,0)" xlink:href="#u"/><use transform="matrix(0.017777777777777778,0,0,0.017777777777777778,39.16444444444444,0)" xlink:href="#s"/></g><path d="M455-345c35 2 54-50 33-79-18-25-75-25-86 9L120-275c-42 11-44 67-8 92L369-3c40 47 124-22 83-70-8-5-17-7-26-8L214-225" id="B"/><path d="M428-436c10 60-30 104-56 152C320-187 257-92 201 0c-17 27-53 28-67-8C87-124 60-265 30-393c-10-41 28-58 72-51 31 16 33 87 41 126 10 48 28 117 34 177 47-85 104-182 154-263 20-33 22-44 67-46 15 0 25 4 30 14" id="C"/><path d="M199-417c-7-30-55-36-77-14-30 17-34 81 11 86l222 119L117-83C74-89 63-38 81-8c15 24 68 34 82 3l296-185c29-12 37-64 2-83" id="D"/><g id="d"><use transform="matrix(0.017777777777777778,0,0,0.017777777777777778,0,0)" xlink:href="#B"/><use transform="matrix(0.017777777777777778,0,0,0.017777777777777778,9.351111111111111,0)" xlink:href="#C"/><use transform="matrix(0.017777777777777778,0,0,0.017777777777777778,16.64,0)" xlink:href="#r"/><use transform="matrix(0.017777777777777778,0,0,0.017777777777777778,20.586666666666666,0)" xlink:href="#s"/><use transform="matrix(0.017777777777777778,0,0,0.017777777777777778,30.506666666666668,0)" xlink:href="#t"/><use transform="matrix(0.017777777777777778,0,0,0.017777777777777778,38.844444444444456,0)" xlink:href="#w"/><use transform="matrix(0.017777777777777778,0,0,0.017777777777777778,48.14222222222223,0)" xlink:href="#D"/></g><path d="M592-345c22-5 29-9 28 12L601-49c2 36 9 55 39 61 29 5 50-17 54-69l23-323c2-63-55-101-114-68-51 28-89 43-150 73-2-25 0-74-14-79-78-28-136 34-195 62-23 10-43 22-63 31 5-36 11-77-33-75-38 1-54 17-57 55L68-58C58-11 86 20 131 8c22-6 26-35 29-63l25-202c46-33 103-70 162-89 9 0 7 5 6 13L333-58c0 52 3 66 47 72 36 5 44-37 47-72l18-205c35-40 90-67 147-82" id="E"/><path d="M294-7c-52 29-182 61-175-39l22-313c-29 11-104 9-94-22-2-51 54-54 100-61 1-69 2-169 83-132 25 20 10 79 10 117 49-6 105-16 153-21 33-3 36 52 17 67-34 27-121 29-176 39L215-96c-3 27 40 15 48 4 21-29 77-60 113-24 8 8 12 20 11 35-23 31-56 53-93 74" id="F"/><g id="e"><use transform="matrix(0.017777777777777778,0,0,0.017777777777777778,0,0)" xlink:href="#t"/><use transform="matrix(0.017777777777777778,0,0,0.017777777777777778,8.337777777777777,0)" xlink:href="#y"/><use transform="matrix(0.017777777777777778,0,0,0.017777777777777778,12.284444444444444,0)" xlink:href="#t"/><use transform="matrix(0.017777777777777778,0,0,0.017777777777777778,20.622222222222216,0)" xlink:href="#E"/><use transform="matrix(0.017777777777777778,0,0,0.017777777777777778,34.00888888888889,0)" xlink:href="#t"/><use transform="matrix(0.017777777777777778,0,0,0.017777777777777778,42.346666666666664,0)" xlink:href="#u"/><use transform="matrix(0.017777777777777778,0,0,0.017777777777777778,51.27111111111111,0)" xlink:href="#F"/><use transform="matrix(0.017777777777777778,0,0,0.017777777777777778,59.022222222222226,0)" xlink:href="#z"/></g><path d="M393-459c146-8 146 177 91 275C422-74 333 27 158 16l-15 208c-2 44-18 57-57 65-41 8-39-29-37-69C64 13 75-196 92-403c3-38 51-65 89-41 11 7 15 20 14 40 57-37 116-50 198-55zm-49 317c41-44 97-127 68-203-60-38-166 6-210 35-11 7-16 15-17 21L171-90c-1 20 13 24 33 24 58 0 107-40 140-76" id="G"/><path d="M414 18c44 0 51-25 54-67l20-294c15-129-122-120-228-97-56 12-101 41-148 64-16 8-27 55-6 61 51 14 87-22 132-33 39-9 72-27 121-28 19 0 38 3 37 23l-4 55C217-288 63-254 27-107 26-36 64 31 131 31c99 0 173-43 244-71-7 36-4 58 39 58zm-23-168c-50 42-119 78-192 101-76 24-118-61-60-101 61-42 156-67 248-79" id="H"/><path d="M254-72c-30 8-82 15-89-17l23-289c33-89-91-94-97-3L70-84C51 77 266 15 354-26c-4 32 14 41 41 42 42 1 72-22 56-65l24-338c12-51 9-78-33-75-43 3-60 30-63 75l-18 260c-30 21-67 44-107 55" id="I"/><g id="f"><use transform="matrix(0.013333333333333334,0,0,0.013333333333333334,0,0)" xlink:href="#G"/><use transform="matrix(0.013333333333333334,0,0,0.013333333333333334,7.053333333333334,0)" xlink:href="#H"/><use transform="matrix(0.013333333333333334,0,0,0.013333333333333334,14.093333333333334,0)" xlink:href="#I"/><use transform="matrix(0.013333333333333334,0,0,0.013333333333333334,20.893333333333334,0)" xlink:href="#z"/><use transform="matrix(0.013333333333333334,0,0,0.013333333333333334,27.826666666666668,0)" xlink:href="#t"/></g><path d="M421-29c-2 51-80 49-99 11-36-42-66-94-105-134C176-104 133-42 88 0 71 16 5 22 10-14c9-68 109-143 146-198-39-61-82-110-128-168-38-48 45-94 78-50 37 49 74 100 111 146 43-49 86-98 128-148 17-33 110-19 84 25-39 66-105 122-152 182 54 58 105 125 144 196" id="J"/><g id="g"><use transform="matrix(0.013333333333333334,0,0,0.013333333333333334,0,0)" xlink:href="#u"/><use transform="matrix(0.013333333333333334,0,0,0.013333333333333334,6.693333333333333,0)" xlink:href="#t"/><use transform="matrix(0.013333333333333334,0,0,0.013333333333333334,12.946666666666667,0)" xlink:href="#J"/><use transform="matrix(0.013333333333333334,0,0,0.013333333333333334,18.453333333333333,0)" xlink:href="#F"/></g><g id="h"><use transform="matrix(0.013333333333333334,0,0,0.013333333333333334,0,0)" xlink:href="#G"/><use transform="matrix(0.013333333333333334,0,0,0.013333333333333334,7.053333333333334,0)" xlink:href="#x"/><use transform="matrix(0.013333333333333334,0,0,0.013333333333333334,12.093333333333334,0)" xlink:href="#t"/><use transform="matrix(0.013333333333333334,0,0,0.013333333333333334,18.346666666666668,0)" xlink:href="#C"/></g><path d="M258 129c80-168 142-347 216-521 22-51-50-63-78-40-7 6-13 18-18 31L267-114c-48-103-96-207-145-310-19-25-73-5-80 19-4 14-4 31 6 53L216-1c-19 41-28 93-61 121-38 32-172-44-146 85 37 23 129 21 173 2 35-15 60-44 76-78" id="K"/><g id="i"><use transform="matrix(0.013333333333333334,0,0,0.013333333333333334,0,0)" xlink:href="#G"/><use transform="matrix(0.013333333333333334,0,0,0.013333333333333334,7.053333333333334,0)" xlink:href="#y"/><use transform="matrix(0.013333333333333334,0,0,0.013333333333333334,10.013333333333334,0)" xlink:href="#H"/><use transform="matrix(0.013333333333333334,0,0,0.013333333333333334,17.053333333333335,0)" xlink:href="#K"/></g><path d="M187 30C86 30 37-38 44-140c9-132 83-229 176-282 85-48 240-30 261 49 11 42-48 56-82 35-28-29-107-33-145-6-64 46-121 125-114 234 5 80 124 50 168 20 34-24 59-51 76-86 11-23 89-29 88 6C437-52 341 30 187 30" id="L"/><g id="j"><use transform="matrix(0.013333333333333334,0,0,0.013333333333333334,0,0)" xlink:href="#L"/><use transform="matrix(0.013333333333333334,0,0,0.013333333333333334,6.146666666666667,0)" xlink:href="#w"/><use transform="matrix(0.013333333333333334,0,0,0.013333333333333334,13.120000000000001,0)" xlink:href="#u"/><use transform="matrix(0.013333333333333334,0,0,0.013333333333333334,19.813333333333333,0)" xlink:href="#F"/><use transform="matrix(0.013333333333333334,0,0,0.013333333333333334,25.626666666666665,0)" xlink:href="#x"/><use transform="matrix(0.013333333333333334,0,0,0.013333333333333334,30.666666666666664,0)" xlink:href="#w"/><use transform="matrix(0.013333333333333334,0,0,0.013333333333333334,37.64,0)" xlink:href="#y"/></g><g id="k"><use transform="matrix(0.013333333333333334,0,0,0.013333333333333334,0,0)" xlink:href="#E"/><use transform="matrix(0.013333333333333334,0,0,0.013333333333333334,10.040000000000001,0)" xlink:href="#w"/><use transform="matrix(0.013333333333333334,0,0,0.013333333333333334,17.013333333333335,0)" xlink:href="#C"/><use transform="matrix(0.013333333333333334,0,0,0.013333333333333334,22.480000000000004,0)" xlink:href="#r"/><use transform="matrix(0.013333333333333334,0,0,0.013333333333333334,25.440000000000005,0)" xlink:href="#t"/></g><g id="l"><use transform="matrix(0.013333333333333334,0,0,0.013333333333333334,0,0)" xlink:href="#C"/><use transform="matrix(0.013333333333333334,0,0,0.013333333333333334,5.466666666666667,0)" xlink:href="#r"/><use transform="matrix(0.013333333333333334,0,0,0.013333333333333334,8.426666666666668,0)" xlink:href="#s"/><use transform="matrix(0.013333333333333334,0,0,0.013333333333333334,15.866666666666667,0)" xlink:href="#t"/><use transform="matrix(0.013333333333333334,0,0,0.013333333333333334,22.12,0)" xlink:href="#w"/></g><path d="M102-695c-82 6-35 138-52 215-12 54 46 98 74 49 27-47 16-126 26-188-2-39-6-79-48-76" id="M"/><g id="m"><use transform="matrix(0.017777777777777778,0,0,0.017777777777777778,0,0)" xlink:href="#B"/><use transform="matrix(0.017777777777777778,0,0,0.017777777777777778,9.351111111111111,0)" xlink:href="#C"/><use transform="matrix(0.017777777777777778,0,0,0.017777777777777778,16.64,0)" xlink:href="#r"/><use transform="matrix(0.017777777777777778,0,0,0.017777777777777778,20.586666666666666,0)" xlink:href="#s"/><use transform="matrix(0.017777777777777778,0,0,0.017777777777777778,30.506666666666668,0)" xlink:href="#t"/><use transform="matrix(0.017777777777777778,0,0,0.017777777777777778,38.844444444444456,0)" xlink:href="#w"/><use transform="matrix(0.017777777777777778,0,0,0.017777777777777778,48.14222222222223,0)" xlink:href="#D"/><use transform="matrix(0.017777777777777778,0,0,0.017777777777777778,57.49333333333334,0)" xlink:href="#M"/><use transform="matrix(0.017777777777777778,0,0,0.017777777777777778,60.53333333333334,0)" xlink:href="#z"/></g><g id="n"><use transform="matrix(0.017777777777777778,0,0,0.017777777777777778,0,0)" xlink:href="#z"/><use transform="matrix(0.017777777777777778,0,0,0.017777777777777778,9.244444444444444,0)" xlink:href="#q"/><use transform="matrix(0.017777777777777778,0,0,0.017777777777777778,18.31111111111111,0)" xlink:href="#H"/><use transform="matrix(0.017777777777777778,0,0,0.017777777777777778,27.697777777777777,0)" xlink:href="#s"/><use transform="matrix(0.017777777777777778,0,0,0.017777777777777778,37.617777777777775,0)" xlink:href="#w"/><use transform="matrix(0.017777777777777778,0,0,0.017777777777777778,46.91555555555556,0)" xlink:href="#v"/></g><g id="o"><use transform="matrix(0.017777777777777778,0,0,0.017777777777777778,0,0)" xlink:href="#F"/><use transform="matrix(0.017777777777777778,0,0,0.017777777777777778,7.751111111111111,0)" xlink:href="#x"/><use transform="matrix(0.017777777777777778,0,0,0.017777777777777778,14.471111111111112,0)" xlink:href="#t"/><use transform="matrix(0.017777777777777778,0,0,0.017777777777777778,22.808888888888887,0)" xlink:href="#t"/></g><g id="p"><use transform="matrix(0.017777777777777778,0,0,0.017777777777777778,0,0)" xlink:href="#L"/><use transform="matrix(0.017777777777777778,0,0,0.017777777777777778,8.195555555555556,0)" xlink:href="#w"/><use transform="matrix(0.017777777777777778,0,0,0.017777777777777778,17.493333333333332,0)" xlink:href="#u"/><use transform="matrix(0.017777777777777778,0,0,0.017777777777777778,26.41777777777778,0)" xlink:href="#F"/><use transform="matrix(0.017777777777777778,0,0,0.017777777777777778,34.16888888888889,0)" xlink:href="#x"/><use transform="matrix(0.017777777777777778,0,0,0.017777777777777778,40.888888888888886,0)" xlink:href="#w"/><use transform="matrix(0.017777777777777778,0,0,0.017777777777777778,50.18666666666667,0)" xlink:href="#y"/><use transform="matrix(0.017777777777777778,0,0,0.017777777777777778,54.13333333333333,0)" xlink:href="#M"/><use transform="matrix(0.017777777777777778,0,0,0.017777777777777778,57.17333333333333,0)" xlink:href="#z"/></g></defs></g></svg>